<?xml version="1.0" encoding="UTF-8" standalone="no"?>
<!-- Created with Inkscape (http://www.inkscape.org/) -->

<svg
   width="30.48mm"
   height="128.5mm"
   viewBox="0 0 30.48 128.5"
   version="1.1"
   id="svg5"
   inkscape:version="1.2.1 (9c6d41e410, 2022-07-14)"
   sodipodi:docname="blank6hp.svg"
   xml:space="preserve"
   xmlns:inkscape="http://www.inkscape.org/namespaces/inkscape"
   xmlns:sodipodi="http://sodipodi.sourceforge.net/DTD/sodipodi-0.dtd"
   xmlns="http://www.w3.org/2000/svg"
   xmlns:svg="http://www.w3.org/2000/svg"><sodipodi:namedview
     id="namedview7"
     pagecolor="#505050"
     bordercolor="#000000"
     borderopacity="1"
     inkscape:pageshadow="0"
     inkscape:pageopacity="0"
     inkscape:pagecheckerboard="0"
     inkscape:document-units="mm"
     showgrid="false"
     borderlayer="true"
     inkscape:zoom="1.2810466"
     inkscape:cx="-112.79839"
     inkscape:cy="228.71924"
     inkscape:current-layer="layer1"
     inkscape:showpageshadow="0"
     inkscape:deskcolor="#505050" /><defs
     id="defs2" /><g
     inkscape:label="panel"
     inkscape:groupmode="layer"
     id="layer1"><rect
       style="display:none;fill:#ffffff;stroke:#000000;stroke-width:0"
       id="rect864"
       width="39.035465"
       height="136.52086"
       x="-4.2777328"
       y="-4.0104294"
       inkscape:label="bg" /><g
       aria-label="×"
       id="text3112"
       style="font-size:35.2778px;line-height:1.25;font-family:'CaskaydiaCove NF';-inkscape-font-specification:'CaskaydiaCove NF';display:none;stroke-width:0.264583"><path
         d="m 21.105285,74.180496 h -0.465088 q -0.103353,-1.326362 -0.895726,-2.222088 l -7.475862,-8.578293 q -1.912029,0.964627 -1.912029,2.48047 0,1.171333 1.223009,3.014461 1.412491,2.101509 1.412491,3.341745 0,1.653647 -1.257461,1.653647 H 8.4790014 v -0.465089 q 1.0335294,-0.275607 1.0335294,-1.188558 0,-0.568441 -0.6545686,-2.256539 -0.6545686,-1.670873 -0.6545686,-2.583824 0,-2.773303 3.4106464,-4.719784 L 9.4953053,60.262301 q -1.3263627,-1.515843 -1.3263627,-3.152264 0,-1.481392 1.2057842,-2.790529 h 0.4478628 q 0.086127,1.498617 0.8957254,2.411568 l 6.476784,7.355284 q 0.499539,-2.480471 1.912029,-4.633657 -2.738853,-0.447862 -2.738853,-2.756078 0,-1.360814 0.706245,-2.377117 h 0.447863 q 0.275608,1.06798 1.326363,1.326362 l 1.481392,0.34451 q 1.94648,0.465088 1.94648,2.187637 0,0.757922 -0.155029,1.22301 -0.568441,0.172255 -1.877579,0.172255 -1.79145,2.82498 -1.79145,4.616431 0,1.326362 0.91295,2.377117 l 1.601971,1.843128 q 1.343588,1.533068 1.343588,3.16949 0,1.481392 -1.205784,2.601048 z"
         style="font-family:serif;-inkscape-font-specification:serif"
         id="path31112" /></g><g
       id="text3498"
       transform="matrix(0.35277774,0,0,0.35277774,7.6194714,2.8468836e-4)"><path
         id="path15128"
         d="m 26.956,347.987 h -0.422 a 3.344,3.344 0 0 0 -0.811,-2.014 L 18.949,338.2 a 2.584,2.584 0 0 0 -1.734,2.248 5.4,5.4 0 0 0 1.109,2.731 6.089,6.089 0 0 1 1.28,3.028 q 0,1.5 -1.14,1.5 h -2.95 v -0.422 a 1.072,1.072 0 0 0 0.937,-1.078 7.389,7.389 0 0 0 -0.593,-2.044 7.026,7.026 0 0 1 -0.594,-2.341 q 0,-2.514 3.091,-4.277 l -1.92,-2.17 a 4.308,4.308 0 0 1 -1.2,-2.857 3.689,3.689 0 0 1 1.093,-2.528 h 0.406 a 3.487,3.487 0 0 0 0.811,2.185 l 5.869,6.665 a 11.888,11.888 0 0 1 1.733,-4.2 q -2.481,-0.405 -2.482,-2.5 a 3.687,3.687 0 0 1 0.64,-2.154 h 0.406 a 1.549,1.549 0 0 0 1.2,1.2 l 1.342,0.313 a 1.952,1.952 0 0 1 1.765,1.982 3.588,3.588 0 0 1 -0.141,1.109 6.522,6.522 0 0 1 -1.7,0.156 8.5,8.5 0 0 0 -1.623,4.183 3.2,3.2 0 0 0 0.827,2.153 l 1.452,1.671 a 4.331,4.331 0 0 1 1.217,2.872 3.127,3.127 0 0 1 -1.094,2.362 z"
         transform="translate(-0.041)" /></g></g><g
     inkscape:groupmode="layer"
     id="layer2"
     inkscape:label="components"
     style="display:none" /></svg>
