<?xml version="1.0" encoding="UTF-8" standalone="no"?>
<!-- Created with Inkscape (http://www.inkscape.org/) -->

<svg
   width="20.32mm"
   height="128.5mm"
   viewBox="0 0 20.32 128.5"
   version="1.1"
   id="svg5"
   inkscape:version="1.1.1 (3bf5ae0d25, 2021-09-20)"
   sodipodi:docname="fibb.svg"
   xmlns:inkscape="http://www.inkscape.org/namespaces/inkscape"
   xmlns:sodipodi="http://sodipodi.sourceforge.net/DTD/sodipodi-0.dtd"
   xmlns="http://www.w3.org/2000/svg"
   xmlns:svg="http://www.w3.org/2000/svg">
  <sodipodi:namedview
     id="namedview7"
     pagecolor="#505050"
     bordercolor="#000000"
     borderopacity="1"
     inkscape:pageshadow="0"
     inkscape:pageopacity="0"
     inkscape:pagecheckerboard="0"
     inkscape:document-units="mm"
     showgrid="false"
     borderlayer="true"
     inkscape:zoom="1.2810466"
     inkscape:cx="117.48207"
     inkscape:cy="252.5279"
     inkscape:current-layer="layer1" />
  <defs
     id="defs2" />
  <g
     inkscape:label="Layer 1"
     inkscape:groupmode="layer"
     id="layer1">
    <rect
       style="fill:#ffffff;stroke-width:0.964999"
       id="rect846"
       width="21.686369"
       height="130.5313"
       x="-0.68318462"
       y="-1.0156479" />
    <g
       aria-label="fibb"
       id="text4749"
       style="font-size:5.64444px;line-height:1.25;font-family:'Agency FB';-inkscape-font-specification:'Agency FB';stroke-width:0.264583">
      <path
         d="M 8.2486622,10.466464 H 7.7305203 v 1.309135 H 8.1880286 V 12.09806 H 7.7305203 v 2.359199 H 7.3694745 V 12.09806 H 7.0580381 v -0.322461 h 0.3114364 v -1.32016 q 0,-0.311436 0.3086804,-0.311436 h 0.5705073 z"
         id="path6371" />
      <path
         d="m 8.9652415,11.188555 h -0.37207 v -0.46302 h 0.37207 z m -0.00551,3.268704 H 8.5986836 v -2.68166 h 0.3610458 z"
         id="path6373" />
      <path
         d="m 11.123248,13.88124 q 0,0.248046 -0.162609,0.413411 -0.162608,0.162608 -0.407899,0.162608 H 9.5826022 v -4.313256 h 0.3665579 v 1.70601 q 0.2177299,-0.02756 0.4354599,-0.05512 0.275607,-0.03583 0.432703,-0.03583 0.305925,0 0.305925,0.300413 z M 10.75669,13.82612 v -1.722546 l -0.8075299,0.02205 v 2.009178 h 0.5071179 q 0.300412,0 0.300412,-0.30868 z"
         id="path6375" />
      <path
         d="m 13.261961,13.88124 q 0,0.248046 -0.162608,0.413411 -0.162608,0.162608 -0.407899,0.162608 h -0.970138 v -4.313256 h 0.366558 v 1.70601 q 0.21773,-0.02756 0.435459,-0.05512 0.275608,-0.03583 0.432704,-0.03583 0.305924,0 0.305924,0.300413 z m -0.366558,-0.05512 v -1.722546 l -0.807529,0.02205 v 2.009178 h 0.507117 q 0.300412,0 0.300412,-0.30868 z"
         id="path6377" />
    </g>
    <rect
       style="fill:#000000;stroke:#000000;stroke-width:0"
       id="rect32999"
       width="14.804027"
       height="83.440887"
       x="2.7579865"
       y="29.741308"
       ry="3.5946932"
       rx="3.874455" />
    <g
       aria-label="×"
       id="text3498"
       style="font-size:11.2889px;line-height:1.25;font-family:serif;-inkscape-font-specification:serif;stroke-width:0.264583"
       transform="translate(-2.4525879e-6,-2.11596)">
      <path
         d="m 12.036893,124.89348 h -0.148829 q -0.03307,-0.42444 -0.286632,-0.71107 l -2.3922767,-2.74506 q -0.6118496,0.30868 -0.6118496,0.79375 0,0.37483 0.3913632,0.96463 0.451997,0.67249 0.451997,1.06936 0,0.52917 -0.4023875,0.52917 h -1.041798 v -0.14883 q 0.3307295,-0.0882 0.3307295,-0.38034 0,-0.1819 -0.209462,-0.72209 -0.209462,-0.53468 -0.209462,-0.82683 0,-0.88745 1.0914074,-1.51033 l -0.6779955,-0.76619 q -0.4244362,-0.48507 -0.4244362,-1.00872 0,-0.47405 0.3858511,-0.89297 h 0.1433161 q 0.027561,0.47956 0.2866322,0.7717 l 2.072572,2.35369 q 0.159852,-0.79375 0.611849,-1.48277 -0.876433,-0.14331 -0.876433,-0.88194 0,-0.43546 0.225998,-0.76068 h 0.143317 q 0.08819,0.34175 0.424436,0.42443 l 0.474045,0.11025 q 0.622874,0.14883 0.622874,0.70004 0,0.24254 -0.04961,0.39137 -0.181901,0.0551 -0.600825,0.0551 -0.573265,0.90399 -0.573265,1.47726 0,0.42443 0.292145,0.76067 l 0.51263,0.5898 q 0.429949,0.49059 0.429949,1.01424 0,0.47405 -0.385851,0.83234 z"
         id="path15128" />
    </g>
    <g
       aria-label="13"
       id="text18668"
       style="font-size:4.23333px;line-height:1.25;font-family:'Agency FB';-inkscape-font-specification:'Agency FB';fill:#ffffff;stroke-width:0.264583">
      <path
         d="M 9.4530665,109.67107 H 9.1636787 v -2.24276 H 9.0375883 v -0.0103 l 0.1819009,-0.98186 h 0.2335773 z"
         id="path22786" />
      <path
         d="m 11.282411,109.44162 q 0,0.10129 -0.06408,0.16537 -0.06408,0.0641 -0.165365,0.0641 h -0.833023 q -0.101286,0 -0.165364,-0.0641 Q 9.9905,109.54289 9.9905,109.44162 V 108.621 h 0.287321 v 0.79582 h 0.715201 v -0.99012 l -0.570507,-0.42788 v -0.0641 l 0.566373,-0.42168 v -0.82269 h -0.706933 v 0.72761 h -0.28732 v -0.75241 q 0,-0.10129 0.064079,-0.16537 0.06408,-0.0641 0.165364,-0.0641 h 0.824755 q 0.101286,0 0.165365,0.0641 0.06408,0.0641 0.06408,0.16537 v 0.78755 q 0,0.15502 -0.124024,0.24184 l -0.384472,0.27079 0.388606,0.27078 q 0.124024,0.0847 0.124024,0.24598 z"
         id="path22788" />
    </g>
    <g
       aria-label="8"
       id="text17662"
       style="font-size:4.23333px;line-height:1.25;font-family:'Agency FB';-inkscape-font-specification:'Agency FB';fill:#ffffff;stroke-width:0.264583">
      <path
         d="m 10.81629,93.486652 q 0,0.101286 -0.06615,0.165364 -0.06615,0.06408 -0.167432,0.06408 H 9.7310861 q -0.1012857,0 -0.1653644,-0.06408 Q 9.50371,93.587938 9.50371,93.486652 v -1.054199 q 0,-0.138492 0.1054199,-0.206705 L 9.9233223,92.023176 9.6173981,91.833007 Q 9.5119782,91.766862 9.5119782,91.624235 v -0.913639 q 0,-0.101286 0.064079,-0.165364 0.064079,-0.06408 0.1653644,-0.06408 h 0.8371574 q 0.101286,0 0.165364,0.06408 0.06408,0.06408 0.06408,0.165364 v 0.913639 q 0,0.142627 -0.107487,0.208772 l -0.303857,0.190169 0.307991,0.202572 q 0.111621,0.07235 0.111621,0.206705 z M 10.518634,91.663509 V 90.735401 H 9.799299 v 0.928108 l 0.359668,0.239778 z m 0.0083,1.798338 v -1.070735 l -0.367936,-0.241845 -0.3679363,0.241845 v 1.070735 z"
         id="path22765" />
    </g>
    <g
       aria-label="5"
       id="text13938"
       style="font-size:4.23333px;line-height:1.25;font-family:'Agency FB';-inkscape-font-specification:'Agency FB';fill:#ffffff;stroke-width:0.264583">
      <path
         d="m 10.786318,77.68658 q 0,0.101286 -0.06408,0.165365 -0.06408,0.06408 -0.165364,0.06408 H 9.7610582 q -0.1012857,0 -0.1653644,-0.06408 -0.062012,-0.06408 -0.062012,-0.165365 v -0.820621 h 0.2873207 v 0.795816 h 0.6779945 v -1.52342 H 9.5419503 l 0.037207,-1.457274 h 1.1823557 v 0.254248 H 9.8602769 l -0.03514,0.948779 h 0.7317381 q 0.101285,0 0.165364,0.06408 0.06408,0.06408 0.06408,0.165365 z"
         id="path22744" />
    </g>
    <g
       aria-label="3"
       id="text12176"
       style="font-size:4.23333px;line-height:1.25;font-family:'Agency FB';-inkscape-font-specification:'Agency FB';fill:#ffffff;stroke-width:0.264583">
      <path
         d="m 10.805955,61.731609 q 0,0.101285 -0.06408,0.165364 -0.06408,0.06408 -0.165365,0.06408 H 9.743488 q -0.1012857,0 -0.1653644,-0.06408 -0.064079,-0.06408 -0.064079,-0.165364 v -0.820621 h 0.2873207 v 0.795816 h 0.7152017 v -0.99012 l -0.5705078,-0.42788 v -0.06408 L 10.512433,59.803046 V 58.980358 H 9.8054997 v 0.727603 H 9.518179 v -0.752408 q 0,-0.101286 0.064079,-0.165364 0.064079,-0.06408 0.1653644,-0.06408 h 0.8247546 q 0.101286,0 0.165365,0.06408 0.06408,0.06408 0.06408,0.165364 v 0.787548 q 0,0.155029 -0.124023,0.241846 l -0.384472,0.270784 0.388606,0.270784 q 0.124024,0.08475 0.124024,0.24598 z"
         id="path22723" />
    </g>
    <g
       aria-label="2"
       id="text10728"
       style="font-size:4.23333px;line-height:1.25;font-family:'Agency FB';-inkscape-font-specification:'Agency FB';fill:#ffffff;stroke-width:0.264583">
      <path
         d="M 10.80182,46.264252 H 9.5181789 V 46.11129 L 10.508299,44.054569 V 43.283558 H 9.8489078 v 0.727603 H 9.55952 v -0.752408 q 0,-0.101286 0.064079,-0.165365 0.064079,-0.06408 0.1653644,-0.06408 h 0.7792796 q 0.101286,0 0.165365,0.06408 0.06408,0.06408 0.06408,0.165365 v 0.686262 q 0,0.124024 -0.07648,0.283187 L 9.8654443,46.010004 H 10.80182 Z"
         id="path22702" />
    </g>
  </g>
  <g
     inkscape:groupmode="layer"
     id="layer2"
     inkscape:label="components"
     style="display:none">
    <circle
       style="fill:#0000ff;fill-rule:evenodd;stroke-width:0.264583"
       id="circle6806"
       cx="10.16"
       cy="100.58344"
       r="3.9242003"
       inkscape:label="fibb13" />
    <circle
       style="fill:#0000ff;fill-rule:evenodd;stroke-width:0.264583"
       id="circle6804"
       cx="10.16"
       cy="84.731743"
       r="3.9242003"
       inkscape:label="fibb8" />
    <circle
       style="fill:#0000ff;fill-rule:evenodd;stroke-width:0.264583"
       id="circle6802"
       cx="10.16"
       cy="68.880035"
       r="3.9242003"
       inkscape:label="fibb5" />
    <circle
       style="fill:#0000ff;fill-rule:evenodd;stroke-width:0.264583"
       id="circle6800"
       cx="10.16"
       cy="53.028339"
       r="3.9242003"
       inkscape:label="fibb3" />
    <circle
       style="fill:#0000ff;fill-rule:evenodd;stroke-width:0.264583"
       id="circle6798"
       cx="10.16"
       cy="37.176632"
       r="3.9242003"
       inkscape:label="fibb2" />
    <circle
       style="fill:#00ff00;fill-rule:evenodd;stroke-width:0.264583"
       id="path6698"
       cx="10.16"
       cy="22.719053"
       r="3.9242003"
       inkscape:label="clock" />
  </g>
</svg>
