<?xml version="1.0" encoding="UTF-8" standalone="no"?>
<!-- Created with Inkscape (http://www.inkscape.org/) -->

<svg
   width="20.32mm"
   height="128.5mm"
   viewBox="0 0 20.32 128.5"
   version="1.1"
   id="svg5"
   inkscape:version="1.2.1 (9c6d41e410, 2022-07-14)"
   sodipodi:docname="lights.svg"
   xmlns:inkscape="http://www.inkscape.org/namespaces/inkscape"
   xmlns:sodipodi="http://sodipodi.sourceforge.net/DTD/sodipodi-0.dtd"
   xmlns="http://www.w3.org/2000/svg"
   xmlns:svg="http://www.w3.org/2000/svg">
  <sodipodi:namedview
     id="namedview7"
     pagecolor="#505050"
     bordercolor="#000000"
     borderopacity="1"
     inkscape:showpageshadow="0"
     inkscape:pageopacity="0"
     inkscape:pagecheckerboard="0"
     inkscape:deskcolor="#505050"
     inkscape:document-units="mm"
     showgrid="false"
     inkscape:zoom="1.2550228"
     inkscape:cx="21.911953"
     inkscape:cy="241.42988"
     inkscape:current-layer="layer1" />
  <defs
     id="defs2" />
  <g
     inkscape:label="Layer 1"
     inkscape:groupmode="layer"
     id="layer1">
    <rect
       style="fill:#ffffff;stroke-width:0.964999"
       id="rect231"
       width="22.557692"
       height="131.34056"
       x="-1.1188459"
       y="-1.4202805" />
    <g
       id="text3498"
       transform="matrix(0.35277774,0,0,0.35277774,2.5394715,2.8468902e-4)">
      <path
         id="path15128"
         d="m 26.956,347.987 h -0.422 a 3.344,3.344 0 0 0 -0.811,-2.014 L 18.949,338.2 a 2.584,2.584 0 0 0 -1.734,2.248 5.4,5.4 0 0 0 1.109,2.731 6.089,6.089 0 0 1 1.28,3.028 q 0,1.5 -1.14,1.5 h -2.95 v -0.422 a 1.072,1.072 0 0 0 0.937,-1.078 7.389,7.389 0 0 0 -0.593,-2.044 7.026,7.026 0 0 1 -0.594,-2.341 q 0,-2.514 3.091,-4.277 l -1.92,-2.17 a 4.308,4.308 0 0 1 -1.2,-2.857 3.689,3.689 0 0 1 1.093,-2.528 h 0.406 a 3.487,3.487 0 0 0 0.811,2.185 l 5.869,6.665 a 11.888,11.888 0 0 1 1.733,-4.2 q -2.481,-0.405 -2.482,-2.5 a 3.687,3.687 0 0 1 0.64,-2.154 h 0.406 a 1.549,1.549 0 0 0 1.2,1.2 l 1.342,0.313 a 1.952,1.952 0 0 1 1.765,1.982 3.588,3.588 0 0 1 -0.141,1.109 6.522,6.522 0 0 1 -1.7,0.156 8.5,8.5 0 0 0 -1.623,4.183 3.2,3.2 0 0 0 0.827,2.153 l 1.452,1.671 a 4.331,4.331 0 0 1 1.217,2.872 3.127,3.127 0 0 1 -1.094,2.362 z"
         transform="translate(-0.041)" />
    </g>
    <g
       aria-label="lights"
       id="text294"
       style="font-size:5.64444px;line-height:1.25;font-family:'Agency FB';-inkscape-font-specification:'Agency FB';stroke-width:0.264583">
      <path
         d="M 5.9569864,14.80326 H 5.5959406 v -4.313256 h 0.3610458 z"
         id="path567" />
      <path
         d="M 6.9684657,11.534556 H 6.5963956 v -0.463021 h 0.3720701 z m -0.00551,3.268704 H 6.6019078 V 12.1216 h 0.3610457 z"
         id="path569" />
      <path
         d="m 9.1099354,15.508815 q 0,0.311436 -0.3114364,0.311436 H 7.9275795 q -0.3169485,0 -0.3169485,-0.394118 0,-0.04685 0.00276,-0.14056 0.00551,-0.09095 0.00551,-0.132292 h 0.3610457 v 0.355534 H 8.7461336 V 14.80326 H 8.1425533 q -0.2452906,0 -0.407899,-0.162609 Q 7.5720459,14.475287 7.5720459,14.22724 v -1.568206 q 0,-0.237022 0.1433159,-0.394119 0.1433159,-0.159852 0.3775822,-0.159852 0.06339,0 0.6531896,0.09095 V 12.1216 H 9.1099354 Z M 8.7461336,14.480799 v -2.025714 q -0.4354597,-0.02756 -0.5071177,-0.02756 -0.3031681,0 -0.3031681,0.30868 v 1.435915 q 0,0.30868 0.3031681,0.30868 z"
         id="path571" />
      <path
         d="m 11.254161,14.80326 h -0.366558 v -2.353688 l -0.807529,0.02205 V 14.80326 H 9.7135157 v -4.313256 h 0.3665583 v 1.70601 q 0.217729,-0.02756 0.435459,-0.05512 0.275608,-0.03583 0.432704,-0.03583 0.305924,0 0.305924,0.300412 z"
         id="path573" />
      <path
         d="m 12.811343,14.80326 h -0.520898 q -0.30868,0 -0.30868,-0.311437 V 12.44406 H 11.659304 V 12.1216 h 0.322461 v -0.835091 h 0.361046 V 12.1216 h 0.468532 v 0.32246 h -0.468532 v 2.036739 h 0.468532 z"
         id="path575" />
      <path
         d="m 14.724059,14.491823 q 0,0.311437 -0.311436,0.311437 H 13.57202 q -0.311436,0 -0.311436,-0.311437 v -0.609092 h 0.361045 v 0.60358 h 0.741384 V 13.951633 L 13.403899,13.166152 Q 13.266096,13.055909 13.266096,12.87952 v -0.446484 q 0,-0.311436 0.311436,-0.311436 h 0.829579 q 0.311436,0 0.311436,0.311436 v 0.534678 h -0.355534 v -0.529166 h -0.741384 v 0.468533 l 0.967382,0.785481 q 0.135048,0.107487 0.135048,0.292144 z"
         id="path577" />
    </g>
  </g>
  <g
     inkscape:groupmode="layer"
     id="layer2"
     inkscape:label="components" />
</svg>
