<?xml version="1.0" encoding="UTF-8" standalone="no"?>
<!-- Created with Inkscape (http://www.inkscape.org/) -->

<svg
   width="20.32mm"
   height="128.5mm"
   viewBox="0 0 20.32 128.5"
   version="1.1"
   id="svg5"
   inkscape:version="1.2.2 (732a01da63, 2022-12-09)"
   sodipodi:docname="lucc.svg"
   xmlns:inkscape="http://www.inkscape.org/namespaces/inkscape"
   xmlns:sodipodi="http://sodipodi.sourceforge.net/DTD/sodipodi-0.dtd"
   xmlns="http://www.w3.org/2000/svg"
   xmlns:svg="http://www.w3.org/2000/svg">
  <sodipodi:namedview
     id="namedview7"
     pagecolor="#505050"
     bordercolor="#000000"
     borderopacity="1"
     inkscape:pageshadow="0"
     inkscape:pageopacity="0"
     inkscape:pagecheckerboard="0"
     inkscape:document-units="mm"
     showgrid="false"
     borderlayer="true"
     inkscape:zoom="1.8116735"
     inkscape:cx="-0.27598792"
     inkscape:cy="244.5253"
     inkscape:current-layer="layer2"
     inkscape:showpageshadow="0"
     inkscape:deskcolor="#505050" />
  <defs
     id="defs2" />
  <g
     inkscape:label="Layer 1"
     inkscape:groupmode="layer"
     id="layer1">
    <rect
       style="display:none;fill:#ffffff;stroke-width:0.964999"
       id="rect846"
       width="21.686369"
       height="130.5313"
       x="-0.68318462"
       y="-1.0156479" />
    <rect
       style="fill:#1a1a1a;stroke:#000000;stroke-width:0;fill-opacity:1"
       id="rect32999"
       width="14.804027"
       height="83.440887"
       x="2.7579865"
       y="29.741308"
       ry="3.5946932"
       rx="3.874455" />
    <g
       aria-label="×"
       id="text3498"
       style="font-size:11.2889px;line-height:1.25;font-family:serif;-inkscape-font-specification:serif;stroke-width:0.264583;fill:#1a1a1a;fill-opacity:1"
       transform="translate(-2.4525879e-6,-2.11596)">
      <path
         d="m 12.036893,124.89348 h -0.148829 q -0.03307,-0.42444 -0.286632,-0.71107 l -2.3922767,-2.74506 q -0.6118496,0.30868 -0.6118496,0.79375 0,0.37483 0.3913632,0.96463 0.451997,0.67249 0.451997,1.06936 0,0.52917 -0.4023875,0.52917 h -1.041798 v -0.14883 q 0.3307295,-0.0882 0.3307295,-0.38034 0,-0.1819 -0.209462,-0.72209 -0.209462,-0.53468 -0.209462,-0.82683 0,-0.88745 1.0914074,-1.51033 l -0.6779955,-0.76619 q -0.4244362,-0.48507 -0.4244362,-1.00872 0,-0.47405 0.3858511,-0.89297 h 0.1433161 q 0.027561,0.47956 0.2866322,0.7717 l 2.072572,2.35369 q 0.159852,-0.79375 0.611849,-1.48277 -0.876433,-0.14331 -0.876433,-0.88194 0,-0.43546 0.225998,-0.76068 h 0.143317 q 0.08819,0.34175 0.424436,0.42443 l 0.474045,0.11025 q 0.622874,0.14883 0.622874,0.70004 0,0.24254 -0.04961,0.39137 -0.181901,0.0551 -0.600825,0.0551 -0.573265,0.90399 -0.573265,1.47726 0,0.42443 0.292145,0.76067 l 0.51263,0.5898 q 0.429949,0.49059 0.429949,1.01424 0,0.47405 -0.385851,0.83234 z"
         id="path15128"
         style="fill:#1a1a1a;fill-opacity:1" />
    </g>
    <g
       aria-label="clk"
       id="text3054"
       style="font-size:4.23333px;line-height:1.25;font-family:'Agency FB';-inkscape-font-specification:'Agency FB';stroke-width:0.264583;fill:#1a1a1a;fill-opacity:1"
       transform="translate(0.51634213)">
      <path
         d="m 3.8199612,17.735129 q 0,0.233577 -0.2315102,0.233577 H 2.9352615 q -0.2315103,0 -0.2315103,-0.233577 v -1.544091 q 0,-0.233577 0.2315103,-0.233577 H 3.588451 q 0.2315102,0 0.2315102,0.233577 v 0.401009 H 3.549177 v -0.39274 H 2.9786696 v 1.527554 H 3.549177 V 17.27831 h 0.2707842 z"
         id="path9219"
         style="fill:#1a1a1a;fill-opacity:1" />
      <path
         d="M 4.5537659,17.968706 H 4.2829816 v -3.234942 h 0.2707843 z"
         id="path9221"
         style="fill:#1a1a1a;fill-opacity:1" />
      <path
         d="M 6.1495328,17.968706 H 5.8498097 L 5.2958388,16.943447 v 1.025259 H 5.0209204 v -3.234942 h 0.2749184 v 2.054653 l 0.5167639,-0.830956 h 0.295589 v 0.0083 l -0.5849768,0.888834 z"
         id="path9223"
         style="fill:#1a1a1a;fill-opacity:1" />
    </g>
    <g
       aria-label="rst"
       id="text5184"
       style="font-size:4.23333px;line-height:1.25;font-family:'Agency FB';-inkscape-font-specification:'Agency FB';stroke-width:0.264583;fill:#1a1a1a;fill-opacity:1"
       transform="translate(-0.92941584)">
      <path
         d="m 15.321946,16.618919 h -0.270784 v -0.415478 l -0.506428,0.01654 v 1.748729 h -0.274919 v -2.011245 h 0.274919 v 0.05581 q 0.136425,-0.02067 0.274918,-0.04341 0.165364,-0.0248 0.274918,-0.0248 0.227376,0 0.227376,0.225309 z"
         id="path9194"
         style="fill:#1a1a1a;fill-opacity:1" />
      <path
         d="m 16.754416,17.735129 q 0,0.233577 -0.233577,0.233577 h -0.630452 q -0.233578,0 -0.233578,-0.233577 V 17.27831 h 0.270785 v 0.452685 h 0.556038 v -0.401009 l -0.719336,-0.589111 q -0.103353,-0.08268 -0.103353,-0.214974 v -0.334863 q 0,-0.233577 0.233578,-0.233577 h 0.622183 q 0.233578,0 0.233578,0.233577 v 0.401009 h -0.26665 v -0.396875 h -0.556038 v 0.3514 l 0.725536,0.589111 q 0.101286,0.08061 0.101286,0.219108 z"
         id="path9196"
         style="fill:#1a1a1a;fill-opacity:1" />
      <path
         d="M 17.914034,17.968706 H 17.52336 q -0.23151,0 -0.23151,-0.233577 v -1.535822 h -0.241845 v -0.241846 h 0.241845 v -0.626318 h 0.270785 v 0.626318 h 0.351399 v 0.241846 h -0.351399 v 1.527554 h 0.351399 z"
         id="path9198"
         style="fill:#1a1a1a;fill-opacity:1" />
    </g>
    <g
       aria-label="lucc"
       id="text311"
       style="font-size:5.64444px;line-height:1.25;font-family:'Agency FB';-inkscape-font-specification:'Agency FB';fill:#1a1a1a;stroke-width:0.264583">
      <path
         d="M 7.1765494,14.457256 H 6.8155036 V 10.144 h 0.3610458 z"
         id="path4550" />
      <path
         d="M 9.3345556,14.457256 H 8.9735098 v -0.07441 q -0.2204859,0.03032 -0.4382158,0.05788 -0.2645831,0.03307 -0.4382158,0.03307 -0.297656,0 -0.297656,-0.297656 v -2.400541 h 0.3610457 v 2.353687 l 0.8130419,-0.02205 v -2.331639 h 0.3610458 z"
         id="path4552" />
      <path
         d="m 11.420904,14.14582 q 0,0.311436 -0.30868,0.311436 h -0.87092 q -0.3086802,0 -0.3086802,-0.311436 v -2.058788 q 0,-0.311436 0.3086802,-0.311436 h 0.87092 q 0.30868,0 0.30868,0.311436 v 0.534679 h -0.361046 v -0.523654 h -0.760676 v 2.036739 h 0.760676 v -0.598069 h 0.361046 z"
         id="path4554" />
      <path
         d="m 13.504496,14.14582 q 0,0.311436 -0.30868,0.311436 h -0.870919 q -0.308681,0 -0.308681,-0.311436 v -2.058788 q 0,-0.311436 0.308681,-0.311436 h 0.870919 q 0.30868,0 0.30868,0.311436 v 0.534679 h -0.361045 v -0.523654 h -0.760677 v 2.036739 h 0.760677 v -0.598069 h 0.361045 z"
         id="path4556" />
    </g>
    <g
       aria-label="3"
       id="text1027"
       style="font-size:4.23333px;line-height:1.25;font-family:'Agency FB';-inkscape-font-specification:'Agency FB';fill:#e5e5e5;stroke-width:0.264583">
      <path
         d="m 10.805955,46.0345 q 0,0.101285 -0.06408,0.165364 -0.06408,0.06408 -0.165365,0.06408 H 9.743488 q -0.1012857,0 -0.1653644,-0.06408 -0.064079,-0.06408 -0.064079,-0.165364 v -0.820622 h 0.2873207 v 0.795817 h 0.7152014 v -0.99012 l -0.5705075,-0.42788 v -0.06408 L 10.512433,44.105937 V 43.283249 H 9.8054997 v 0.727603 H 9.518179 v -0.752408 q 0,-0.101286 0.064079,-0.165365 0.064079,-0.06408 0.1653644,-0.06408 h 0.8247549 q 0.101286,0 0.165365,0.06408 0.06408,0.06408 0.06408,0.165365 v 0.787548 q 0,0.155029 -0.124023,0.241846 l -0.384472,0.270784 0.388606,0.270784 q 0.124024,0.08475 0.124024,0.24598 z"
         id="path4559" />
    </g>
    <g
       aria-label="4"
       id="text2483"
       style="font-size:4.23333px;line-height:1.25;font-family:'Agency FB';-inkscape-font-specification:'Agency FB';fill:#e5e5e5;stroke-width:0.264583">
      <path
         d="m 10.875201,61.117583 h -0.24598 v 0.843358 H 10.358437 V 61.117583 H 9.4447985 v -0.146761 l 0.7834145,-2.244823 h 0.270784 q 0,0.0124 0,0.0124 L 9.7548568,60.87367 h 0.6035802 v -1.174087 h 0.270784 v 1.174087 h 0.24598 z"
         id="path4562" />
    </g>
    <g
       aria-label="7"
       id="text2487"
       style="font-size:4.23333px;line-height:1.25;font-family:'Agency FB';-inkscape-font-specification:'Agency FB';fill:#e5e5e5;stroke-width:0.264583">
      <path
         d="m 10.800787,74.829825 -0.694531,3.086114 H 9.8230694 L 10.496929,74.935245 H 9.8065329 v 0.475423 H 9.5192122 v -0.729671 h 1.2815748 q 0,0.148828 0,0.148828 z"
         id="path4565" />
    </g>
    <g
       aria-label="11"
       id="text3217"
       style="font-size:4.23333px;line-height:1.25;font-family:'Agency FB';-inkscape-font-specification:'Agency FB';fill:#e5e5e5;stroke-width:0.264583">
      <path
         d="M 9.9377915,93.715942 H 9.6484037 V 91.473187 H 9.5223133 v -0.01033 L 9.7042142,90.481 h 0.2335773 z"
         id="path4568" />
      <path
         d="m 10.797687,93.715942 h -0.289388 v -2.242755 h -0.126091 v -0.01033 L 10.564109,90.481 h 0.233578 z"
         id="path4570" />
    </g>
    <g
       aria-label="18"
       id="text3225"
       style="font-size:4.23333px;line-height:1.25;font-family:'Agency FB';-inkscape-font-specification:'Agency FB';fill:#e5e5e5;stroke-width:0.264583">
      <path
         d="M 9.4468657,109.67094 H 9.1574779 v -2.24276 H 9.0313875 v -0.0103 l 0.1819009,-0.98186 h 0.2335773 z"
         id="path4573" />
      <path
         d="m 11.288612,109.44149 q 0,0.10129 -0.06615,0.16537 -0.06615,0.0641 -0.167431,0.0641 h -0.851627 q -0.101286,0 -0.165364,-0.0641 -0.062012,-0.0641 -0.062012,-0.16537 v -1.05419 q 0,-0.1385 0.1054201,-0.20671 l 0.314192,-0.20257 -0.305924,-0.19017 q -0.1054199,-0.0662 -0.1054199,-0.20877 v -0.91364 q 0,-0.10129 0.064079,-0.16537 0.06408,-0.0641 0.165364,-0.0641 h 0.837158 q 0.101286,0 0.165364,0.0641 0.06408,0.0641 0.06408,0.16537 v 0.91364 q 0,0.14262 -0.107487,0.20877 l -0.303857,0.19017 0.307991,0.20257 q 0.111621,0.0724 0.111621,0.20671 z m -0.297656,-1.82314 v -0.92811 h -0.719335 v 0.92811 l 0.359668,0.23978 z m 0.0083,1.79834 v -1.07074 l -0.367935,-0.24184 -0.367936,0.24184 v 1.07074 z"
         id="path4575" />
    </g>
  </g>
  <g
     inkscape:groupmode="layer"
     id="layer2"
     inkscape:label="components"
     style="display:none">
    <circle
       style="fill:#0000ff;fill-rule:evenodd;stroke-width:0.264583"
       id="circle6806"
       cx="10.16"
       cy="100.58344"
       r="3.9242003"
       inkscape:label="lucc18" />
    <circle
       style="fill:#0000ff;fill-rule:evenodd;stroke-width:0.264583"
       id="circle6804"
       cx="10.16"
       cy="84.731743"
       r="3.9242003"
       inkscape:label="lucc11" />
    <circle
       style="fill:#0000ff;fill-rule:evenodd;stroke-width:0.264583"
       id="circle6802"
       cx="10.16"
       cy="68.880035"
       r="3.9242003"
       inkscape:label="lucc7" />
    <circle
       style="fill:#0000ff;fill-rule:evenodd;stroke-width:0.264583"
       id="circle6800"
       cx="10.16"
       cy="53.028339"
       r="3.9242003"
       inkscape:label="lucc4" />
    <circle
       style="fill:#0000ff;fill-rule:evenodd;stroke-width:0.264583"
       id="circle6798"
       cx="10.16"
       cy="37.176632"
       r="3.9242003"
       inkscape:label="lucc3" />
    <circle
       style="fill:#00ff00;fill-rule:evenodd;stroke-width:0.264583"
       id="path6698"
       cx="4.9429841"
       cy="22.719053"
       r="3.9242003"
       inkscape:label="clock" />
    <circle
       style="fill:#00ff00;fill-rule:evenodd;stroke-width:0.264583"
       id="circle4578"
       cx="15.162509"
       cy="22.719053"
       r="3.9242003"
       inkscape:label="reset" />
  </g>
</svg>
