<?xml version="1.0" encoding="UTF-8" standalone="no"?>
<!-- Created with Inkscape (http://www.inkscape.org/) -->

<svg
   width="25.4mm"
   height="128.5mm"
   viewBox="0 0 25.4 128.5"
   version="1.1"
   id="svg5"
   inkscape:version="1.2.1 (9c6d41e410, 2022-07-14)"
   sodipodi:docname="math.svg"
   xmlns:inkscape="http://www.inkscape.org/namespaces/inkscape"
   xmlns:sodipodi="http://sodipodi.sourceforge.net/DTD/sodipodi-0.dtd"
   xmlns="http://www.w3.org/2000/svg"
   xmlns:svg="http://www.w3.org/2000/svg">
  <sodipodi:namedview
     id="namedview7"
     pagecolor="#505050"
     bordercolor="#000000"
     borderopacity="1"
     inkscape:showpageshadow="0"
     inkscape:pageopacity="0"
     inkscape:pagecheckerboard="0"
     inkscape:deskcolor="#505050"
     inkscape:document-units="mm"
     showgrid="false"
     inkscape:zoom="1.3744101"
     inkscape:cx="33.468904"
     inkscape:cy="243.74093"
     inkscape:current-layer="layer1" />
  <defs
     id="defs2" />
  <g
     inkscape:label="Layer 1"
     inkscape:groupmode="layer"
     id="layer1">
    <rect
       style="display:none;fill:#ffffff;stroke-width:0.964999"
       id="rect283"
       width="27.528475"
       height="131.48216"
       x="-1.0642376"
       y="-1.4910812" />
    <g
       aria-label="math"
       id="text339"
       style="font-size:5.64444px;line-height:1.25;font-family:'Agency FB';-inkscape-font-specification:'Agency FB';stroke-width:0.264583;fill:#1a1a1a;fill-opacity:1">
      <path
         d="m 11.20483,14.870259 h -0.366558 v -2.353687 l -0.799262,0.02205 v 2.331639 H 9.6752083 v -2.353687 l -0.7992616,0.02205 v 2.331639 H 8.5093888 v -2.68166 h 0.3665579 v 0.07441 q 0.2149738,-0.02756 0.4299476,-0.05788 0.2618271,-0.03307 0.4327037,-0.03307 0.1681205,0 0.2480467,0.101974 0.2315103,-0.03032 0.4602643,-0.06339 0.300412,-0.03859 0.454752,-0.03859 0.303169,0 0.303169,0.300412 z"
         id="path395"
         style="fill:#1a1a1a;fill-opacity:1" />
      <path
         d="m 13.315982,14.870259 h -0.361045 v -0.07441 q -0.21773,0.03032 -0.43546,0.05788 -0.270095,0.03307 -0.432704,0.03307 -0.300412,0 -0.300412,-0.297656 v -0.978407 q 0,-0.30868 0.311437,-0.30868 h 0.862651 v -0.80753 h -0.788237 v 0.457509 h -0.355534 v -0.451997 q 0,-0.311436 0.30868,-0.311436 h 0.881944 q 0.30868,0 0.30868,0.311436 z m -0.355533,-0.333485 v -0.948089 h -0.818554 v 0.964626 z"
         id="path397"
         style="fill:#1a1a1a;fill-opacity:1" />
      <path
         d="m 14.881433,14.870259 h -0.520898 q -0.308681,0 -0.308681,-0.311436 V 12.51106 h -0.32246 v -0.322461 h 0.32246 V 11.353508 H 14.4129 v 0.835091 h 0.468533 V 12.51106 H 14.4129 v 2.036739 h 0.468533 z"
         id="path399"
         style="fill:#1a1a1a;fill-opacity:1" />
      <path
         d="m 16.890611,14.870259 h -0.366558 v -2.353687 l -0.80753,0.02205 v 2.331639 h -0.366558 v -4.313256 h 0.366558 v 1.70601 q 0.21773,-0.02756 0.43546,-0.05512 0.275607,-0.03583 0.432703,-0.03583 0.305925,0 0.305925,0.300412 z"
         id="path401"
         style="fill:#1a1a1a;fill-opacity:1" />
    </g>
    <rect
       style="fill:#1a1a1a;stroke-width:0.964999;fill-opacity:1"
       id="rect901"
       width="13.612288"
       height="67.516953"
       x="1.4973515"
       y="45.601166"
       rx="3"
       ry="3" />
    <g
       aria-label="A"
       id="text567"
       style="font-size:5.64444px;line-height:1.25;font-family:'Agency FB';-inkscape-font-specification:'Agency FB';stroke-width:0.264583;fill:#1a1a1a;fill-opacity:1">
      <path
         d="m 19.035733,27.143461 h -0.380338 l -0.151584,-0.959114 h -0.857139 l -0.151585,0.959114 h -0.369314 v -0.01102 l 0.768945,-4.313256 H 18.2723 Z M 18.454201,25.84535 18.076619,23.508199 17.696281,25.84535 Z"
         id="path920"
         style="fill:#1a1a1a;fill-opacity:1" />
    </g>
    <g
       aria-label="B"
       id="text631"
       style="font-size:5.64444px;line-height:1.25;font-family:'Agency FB';-inkscape-font-specification:'Agency FB';stroke-width:0.264583;fill:#1a1a1a;fill-opacity:1">
      <path
         d="m 19.024709,38.580455 q 0,0.135048 -0.08544,0.220486 -0.08544,0.08544 -0.220486,0.08544 H 17.29665 v -4.313256 h 1.41111 q 0.135048,0 0.220486,0.08544 0.08544,0.08544 0.08544,0.220486 v 1.281575 q 0,0.170876 -0.15434,0.286631 -0.151584,0.09095 -0.303168,0.181901 l 0.325217,0.209462 q 0.143316,0.08819 0.143316,0.275607 z M 18.627834,36.210231 V 34.91212 h -0.94809 v 1.557182 h 0.564996 z m 0.01102,2.337151 v -1.491036 l -0.388606,-0.253559 h -0.570508 v 1.744595 z"
         id="path923"
         style="fill:#1a1a1a;fill-opacity:1" />
    </g>
    <g
       aria-label="+"
       id="text637"
       style="font-size:5.64444px;line-height:1.25;font-family:'Agency FB';-inkscape-font-specification:'Agency FB';stroke-width:0.264583;fill:#1a1a1a;fill-opacity:1">
      <path
         d="m 20.160545,51.975833 h -0.793749 v 0.779969 H 19.027799 V 51.975833 H 18.23405 v -0.319704 h 0.793749 V 50.87616 h 0.338997 v 0.779969 h 0.793749 z"
         id="path926"
         style="fill:#1a1a1a;fill-opacity:1" />
    </g>
    <g
       aria-label="-"
       id="text643"
       style="font-size:5.64444px;line-height:1.25;font-family:'Agency FB';-inkscape-font-specification:'Agency FB';stroke-width:0.264583;fill:#1a1a1a;fill-opacity:1">
      <path
         d="M 19.44121,62.766398 H 18.305707 V 62.424645 H 19.44121 Z"
         id="path929"
         style="fill:#1a1a1a;fill-opacity:1" />
    </g>
    <g
       aria-label="*"
       id="text653"
       style="font-size:5.64444px;line-height:1.25;font-family:'Agency FB';-inkscape-font-specification:'Agency FB';stroke-width:0.264583;fill:#1a1a1a;fill-opacity:1">
      <path
         d="m 20.011717,73.922599 -0.1819,0.300412 -0.570508,-0.424435 0.0689,0.716579 h -0.338997 l 0.07441,-0.716579 -0.57602,0.424435 -0.176388,-0.300412 0.661457,-0.281119 -0.661457,-0.289388 0.176388,-0.292144 0.57602,0.416167 -0.07441,-0.716579 h 0.338997 l -0.0689,0.716579 0.570508,-0.416167 0.1819,0.292144 -0.661457,0.289388 z"
         id="path932"
         style="fill:#1a1a1a;fill-opacity:1" />
    </g>
    <g
       aria-label="/"
       id="text659"
       style="font-size:5.64444px;line-height:1.25;font-family:'Agency FB';-inkscape-font-specification:'Agency FB';stroke-width:0.264583;fill:#1a1a1a;fill-opacity:1">
      <path
         d="m 20.356227,82.512772 -1.824521,4.288452 h -0.366558 v -0.02205 l 1.824521,-4.291208 h 0.366558 z"
         id="path935"
         style="fill:#1a1a1a;fill-opacity:1" />
    </g>
    <g
       aria-label="%"
       id="text665"
       style="font-size:5.64444px;line-height:1.25;font-family:'Agency FB';-inkscape-font-specification:'Agency FB';stroke-width:0.264583;fill:#1a1a1a;fill-opacity:1">
      <path
         d="m 20.685411,94.282082 -2.370223,4.288452 h -0.316949 v -0.02205 l 2.37298,-4.291208 h 0.314192 z m 0.350022,4.007332 q 0,0.115755 -0.07993,0.198438 -0.07717,0.08268 -0.190169,0.08268 H 19.96332 q -0.101975,0 -0.184657,-0.08819 -0.07993,-0.09095 -0.07993,-0.192925 v -1.62884 q 0,-0.09922 0.08268,-0.190169 0.08268,-0.09371 0.181901,-0.09371 h 0.802018 q 0.107487,0 0.187413,0.08819 0.08268,0.08819 0.08268,0.195681 z m -0.333485,-0.02756 v -1.562694 h -0.669726 v 1.562694 z m -1.703254,-2.09186 q 0,0.115755 -0.07993,0.198437 -0.07717,0.08268 -0.190169,0.08268 h -0.802018 q -0.101975,0 -0.184657,-0.0882 -0.07993,-0.09095 -0.07993,-0.192925 v -1.62884 q 0,-0.09922 0.08268,-0.190169 0.08268,-0.09371 0.181901,-0.09371 h 0.802018 q 0.107487,0 0.187413,0.08819 0.08268,0.08819 0.08268,0.195681 z m -0.333485,-0.02756 v -1.562694 h -0.669726 v 1.562694 z"
         id="path938"
         style="fill:#1a1a1a;fill-opacity:1" />
    </g>
    <g
       aria-label="avg"
       id="text671"
       style="font-size:5.64444px;line-height:1.25;font-family:'Agency FB';-inkscape-font-specification:'Agency FB';stroke-width:0.264583;fill:#1a1a1a;fill-opacity:1">
      <path
         d="M 18.438346,109.12537 H 18.0773 v -0.0744 q -0.217729,0.0303 -0.435459,0.0579 -0.270096,0.0331 -0.432704,0.0331 -0.300412,0 -0.300412,-0.29765 v -0.97841 q 0,-0.30868 0.311436,-0.30868 h 0.862652 v -0.80753 h -0.788238 v 0.45751 h -0.355533 v -0.452 q 0,-0.31143 0.30868,-0.31143 h 0.881944 q 0.30868,0 0.30868,0.31143 z m -0.355533,-0.33349 v -0.94809 h -0.818554 v 0.96463 z"
         id="path941"
         style="fill:#1a1a1a;fill-opacity:1" />
      <path
         d="m 20.549499,106.44371 -0.664214,2.68717 H 19.5518 l -0.66697,-2.68717 h 0.377582 l 0.457509,2.11115 0.46302,-2.11115 z"
         id="path943"
         style="fill:#1a1a1a;fill-opacity:1" />
      <path
         d="m 22.522848,109.83092 q 0,0.31144 -0.311436,0.31144 h -0.87092 q -0.316948,0 -0.316948,-0.39412 0,-0.0468 0.0028,-0.14056 0.0055,-0.091 0.0055,-0.13229 h 0.361046 v 0.35553 h 0.766188 v -0.70555 h -0.60358 q -0.24529,0 -0.407899,-0.16261 -0.162608,-0.16537 -0.162608,-0.41341 v -1.56821 q 0,-0.23702 0.143316,-0.39412 0.143316,-0.15985 0.377582,-0.15985 0.06339,0 0.653189,0.0909 v -0.0744 h 0.363802 z m -0.363802,-1.02801 v -2.02572 q -0.435459,-0.0276 -0.507117,-0.0276 -0.303168,0 -0.303168,0.30868 v 1.43592 q 0,0.30868 0.303168,0.30868 z"
         id="path945"
         style="fill:#1a1a1a;fill-opacity:1" />
    </g>
    <g
       aria-label="×"
       id="text3498"
       style="font-size:11.2889px;line-height:1.25;font-family:serif;-inkscape-font-specification:serif;stroke-width:0.264583;fill:#1a1a1a;fill-opacity:1"
       transform="translate(2.5399975,-2.11596)"
       inkscape:label="alef">
      <path
         d="m 12.036893,124.89348 h -0.148829 q -0.03307,-0.42444 -0.286632,-0.71107 l -2.3922767,-2.74506 q -0.6118496,0.30868 -0.6118496,0.79375 0,0.37483 0.3913632,0.96463 0.451997,0.67249 0.451997,1.06936 0,0.52917 -0.4023875,0.52917 h -1.041798 v -0.14883 q 0.3307295,-0.0882 0.3307295,-0.38034 0,-0.1819 -0.209462,-0.72209 -0.209462,-0.53468 -0.209462,-0.82683 0,-0.88745 1.0914074,-1.51033 l -0.6779955,-0.76619 q -0.4244362,-0.48507 -0.4244362,-1.00872 0,-0.47405 0.3858511,-0.89297 h 0.1433161 q 0.027561,0.47956 0.2866322,0.7717 l 2.072572,2.35369 q 0.159852,-0.79375 0.611849,-1.48277 -0.876433,-0.14331 -0.876433,-0.88194 0,-0.43546 0.225998,-0.76068 h 0.143317 q 0.08819,0.34175 0.424436,0.42443 l 0.474045,0.11025 q 0.622874,0.14883 0.622874,0.70004 0,0.24254 -0.04961,0.39137 -0.181901,0.0551 -0.600825,0.0551 -0.573265,0.90399 -0.573265,1.47726 0,0.42443 0.292145,0.76067 l 0.51263,0.5898 q 0.429949,0.49059 0.429949,1.01424 0,0.47405 -0.385851,0.83234 z"
         id="path15128"
         style="fill:#1a1a1a;fill-opacity:1" />
    </g>
  </g>
  <g
     inkscape:groupmode="layer"
     id="layer2"
     inkscape:label="components"
     style="display:none">
    <circle
       style="fill:#00ff00;stroke-width:0.964999"
       id="path509"
       cx="10.599415"
       cy="24.981319"
       r="4.2351499"
       inkscape:label="a" />
    <circle
       style="fill:#00ff00;stroke-width:0.964999"
       id="circle627"
       cx="10.599415"
       cy="36.724236"
       r="4.2351499"
       inkscape:label="b" />
    <circle
       style="fill:#0000ff;stroke-width:0.964999"
       id="circle633"
       cx="8.285326"
       cy="51.54726"
       r="4.2351499"
       inkscape:label="add" />
    <circle
       style="fill:#0000ff;stroke-width:0.964999"
       id="circle639"
       cx="8.285326"
       cy="62.078751"
       r="4.2351499"
       inkscape:label="sub" />
    <circle
       style="fill:#0000ff;stroke-width:0.964999"
       id="circle649"
       cx="8.285326"
       cy="73.563103"
       r="4.2351499"
       inkscape:label="mult" />
    <circle
       style="fill:#0000ff;stroke-width:0.964999"
       id="circle655"
       cx="8.285326"
       cy="84.639076"
       r="4.2351499"
       inkscape:label="div" />
    <circle
       style="fill:#0000ff;stroke-width:0.964999"
       id="circle661"
       cx="8.285326"
       cy="96.023376"
       r="4.2351499"
       inkscape:label="mod" />
    <circle
       style="fill:#0000ff;stroke-width:0.964999"
       id="circle667"
       cx="8.285326"
       cy="106.96323"
       r="4.2351499"
       inkscape:label="avg" />
  </g>
</svg>
