<?xml version="1.0" encoding="UTF-8" standalone="no"?>
<!-- Created with Inkscape (http://www.inkscape.org/) -->

<svg
   width="10.16mm"
   height="128.5mm"
   viewBox="0 0 10.16 128.5"
   version="1.1"
   id="svg5"
   inkscape:version="1.2.1 (9c6d41e410, 2022-07-14)"
   sodipodi:docname="mlt.svg"
   xmlns:inkscape="http://www.inkscape.org/namespaces/inkscape"
   xmlns:sodipodi="http://sodipodi.sourceforge.net/DTD/sodipodi-0.dtd"
   xmlns="http://www.w3.org/2000/svg"
   xmlns:svg="http://www.w3.org/2000/svg">
  <sodipodi:namedview
     id="namedview7"
     pagecolor="#505050"
     bordercolor="#000000"
     borderopacity="1"
     inkscape:showpageshadow="0"
     inkscape:pageopacity="0"
     inkscape:pagecheckerboard="0"
     inkscape:deskcolor="#505050"
     inkscape:document-units="mm"
     showgrid="false"
     inkscape:zoom="1.3744101"
     inkscape:cx="-60.753337"
     inkscape:cy="246.65127"
     inkscape:current-layer="layer1" />
  <defs
     id="defs2" />
  <g
     inkscape:label="panel"
     inkscape:groupmode="layer"
     id="layer1">
    <rect
       style="display:none;fill:#ffffff;stroke-width:0.964999"
       id="rect491"
       width="11.165396"
       height="130.51962"
       x="-0.50269794"
       y="-1.0098114"
       inkscape:label="background" />
    <g
       aria-label="mlt"
       id="text548"
       style="font-size:5.64444px;line-height:1.25;font-family:'Agency FB';-inkscape-font-specification:'Agency FB';stroke-width:0.264583"
       inkscape:label="mlt"
       transform="translate(0,-5.7171612)">
      <path
         d="M 5.1447678,14.870259 H 4.7782099 v -2.353687 l -0.7992615,0.02205 v 2.331639 H 3.6151466 V 12.516572 L 2.815885,12.53862 v 2.331639 H 2.4493272 v -2.68166 H 2.815885 v 0.07441 q 0.2149738,-0.02756 0.4299476,-0.05788 0.2618271,-0.03307 0.4327037,-0.03307 0.1681205,0 0.2480467,0.101974 0.2315102,-0.03032 0.4602644,-0.06339 0.3004121,-0.03859 0.4547522,-0.03859 0.3031682,0 0.3031682,0.300412 z"
         id="path604" />
      <path
         d="M 6.1231741,14.870259 H 5.7621284 v -4.313256 h 0.3610457 z"
         id="path606" />
      <path
         d="m 7.7106727,14.870259 h -0.520898 q -0.3086804,0 -0.3086804,-0.311436 V 12.51106 H 6.5586336 v -0.322461 h 0.3224607 v -0.835091 h 0.3610458 v 0.835091 H 7.7106727 V 12.51106 H 7.2421401 v 2.036739 h 0.4685326 z"
         id="path608" />
    </g>
    <rect
       style="fill:#000000;stroke-width:1.02999"
       id="rect1406"
       width="9.246191"
       height="43.148891"
       x="0.47833541"
       y="19.571297"
       rx="3"
       ry="3" />
    <rect
       style="fill:#000000;stroke-width:1.02999"
       id="rect365"
       width="9.246191"
       height="43.148891"
       x="0.47833541"
       y="72.114723"
       rx="3"
       ry="3" />
  </g>
  <g
     aria-label="×"
     id="text3498"
     style="font-size:11.2889px;line-height:1.25;font-family:serif;-inkscape-font-specification:serif;stroke-width:0.264583"
     transform="translate(-5.0800024,-2.11596)"
     inkscape:label="alef">
    <path
       d="m 12.036893,124.89348 h -0.148829 q -0.03307,-0.42444 -0.286632,-0.71107 l -2.3922767,-2.74506 q -0.6118496,0.30868 -0.6118496,0.79375 0,0.37483 0.3913632,0.96463 0.451997,0.67249 0.451997,1.06936 0,0.52917 -0.4023875,0.52917 h -1.041798 v -0.14883 q 0.3307295,-0.0882 0.3307295,-0.38034 0,-0.1819 -0.209462,-0.72209 -0.209462,-0.53468 -0.209462,-0.82683 0,-0.88745 1.0914074,-1.51033 l -0.6779955,-0.76619 q -0.4244362,-0.48507 -0.4244362,-1.00872 0,-0.47405 0.3858511,-0.89297 h 0.1433161 q 0.027561,0.47956 0.2866322,0.7717 l 2.072572,2.35369 q 0.159852,-0.79375 0.611849,-1.48277 -0.876433,-0.14331 -0.876433,-0.88194 0,-0.43546 0.225998,-0.76068 h 0.143317 q 0.08819,0.34175 0.424436,0.42443 l 0.474045,0.11025 q 0.622874,0.14883 0.622874,0.70004 0,0.24254 -0.04961,0.39137 -0.181901,0.0551 -0.600825,0.0551 -0.573265,0.90399 -0.573265,1.47726 0,0.42443 0.292145,0.76067 l 0.51263,0.5898 q 0.429949,0.49059 0.429949,1.01424 0,0.47405 -0.385851,0.83234 z"
       id="path15128" />
  </g>
  <g
     inkscape:groupmode="layer"
     id="layer2"
     inkscape:label="components"
     style="display:none;fill:#00ff00">
    <circle
       style="fill:#00ff00;stroke-width:0.964999"
       id="path1270"
       cx="5.0799999"
       cy="14.678888"
       r="3.0801091"
       inkscape:label="a" />
    <circle
       style="fill:#0000ff;stroke-width:0.964999"
       id="circle1272"
       cx="5.0799999"
       cy="24.848721"
       r="3.0801091"
       inkscape:label="a1" />
    <circle
       style="fill:#0000ff;stroke-width:0.964999"
       id="circle1276"
       cx="5.0799999"
       cy="32.963203"
       r="3.0801091"
       inkscape:label="a2" />
    <circle
       style="fill:#0000ff;stroke-width:0.964999"
       id="circle1278"
       cx="5.0799999"
       cy="41.077682"
       r="3.0801091"
       inkscape:label="a3" />
    <circle
       style="fill:#0000ff;stroke-width:0.964999"
       id="circle1280"
       cx="5.0799999"
       cy="49.192165"
       r="3.0801091"
       inkscape:label="a4" />
    <circle
       style="fill:#0000ff;stroke-width:0.964999"
       id="circle1282"
       cx="5.0799999"
       cy="57.306644"
       r="3.0801091"
       inkscape:label="a5" />
    <circle
       style="fill:#00ff00;stroke-width:0.964999"
       id="circle1286"
       cx="5.0799999"
       cy="67.157516"
       r="3.0801091"
       inkscape:label="b" />
    <circle
       style="fill:#0000ff;stroke-width:0.964999"
       id="circle1288"
       cx="5.0799999"
       cy="77.407089"
       r="3.0801091"
       inkscape:label="b1" />
    <circle
       style="fill:#0000ff;stroke-width:0.964999"
       id="circle1292"
       cx="5.0799999"
       cy="85.725754"
       r="3.0801091"
       inkscape:label="b2" />
    <circle
       style="fill:#0000ff;stroke-width:0.964999"
       id="circle1294"
       cx="5.0799999"
       cy="94.044418"
       r="3.0801091"
       inkscape:label="b3" />
    <circle
       style="fill:#0000ff;stroke-width:0.964999"
       id="circle1296"
       cx="5.0799999"
       cy="102.36308"
       r="3.0801091"
       inkscape:label="b4" />
    <circle
       style="fill:#0000ff;stroke-width:0.964999"
       id="circle1298"
       cx="5.0799999"
       cy="110.68174"
       r="3.0801091"
       inkscape:label="b5" />
  </g>
</svg>
