<?xml version="1.0" encoding="UTF-8" standalone="no"?>
<!-- Created with Inkscape (http://www.inkscape.org/) -->

<svg
   width="20.32mm"
   height="128.5mm"
   viewBox="0 0 20.32 128.5"
   version="1.1"
   id="svg5"
   inkscape:version="1.1.1 (3bf5ae0d25, 2021-09-20)"
   sodipodi:docname="noize.svg"
   xmlns:inkscape="http://www.inkscape.org/namespaces/inkscape"
   xmlns:sodipodi="http://sodipodi.sourceforge.net/DTD/sodipodi-0.dtd"
   xmlns="http://www.w3.org/2000/svg"
   xmlns:svg="http://www.w3.org/2000/svg">
  <sodipodi:namedview
     id="namedview7"
     pagecolor="#505050"
     bordercolor="#000000"
     borderopacity="1"
     inkscape:pageshadow="0"
     inkscape:pageopacity="0"
     inkscape:pagecheckerboard="0"
     inkscape:document-units="mm"
     showgrid="false"
     borderlayer="true"
     inkscape:zoom="1.2810466"
     inkscape:cx="-15.221929"
     inkscape:cy="243.16055"
     inkscape:current-layer="layer1" />
  <defs
     id="defs2" />
  <g
     inkscape:label="Layer 1"
     inkscape:groupmode="layer"
     id="layer1">
    <rect
       style="fill:#ffffff;stroke-width:0.964999"
       id="rect846"
       width="22.925591"
       height="130.32475"
       x="-1.3027954"
       y="-0.9123764" />
    <g
       aria-label="×"
       id="text3498"
       style="font-size:11.2889px;line-height:1.25;font-family:serif;-inkscape-font-specification:serif;stroke-width:0.264583"
       transform="translate(-2.4525879e-6,-2.11696)">
      <path
         d="m 12.036893,124.89348 h -0.148829 q -0.03307,-0.42444 -0.286632,-0.71107 l -2.3922767,-2.74506 q -0.6118496,0.30868 -0.6118496,0.79375 0,0.37483 0.3913632,0.96463 0.451997,0.67249 0.451997,1.06936 0,0.52917 -0.4023875,0.52917 h -1.041798 v -0.14883 q 0.3307295,-0.0882 0.3307295,-0.38034 0,-0.1819 -0.209462,-0.72209 -0.209462,-0.53468 -0.209462,-0.82683 0,-0.88745 1.0914074,-1.51033 l -0.6779955,-0.76619 q -0.4244362,-0.48507 -0.4244362,-1.00872 0,-0.47405 0.3858511,-0.89297 h 0.1433161 q 0.027561,0.47956 0.2866322,0.7717 l 2.072572,2.35369 q 0.159852,-0.79375 0.611849,-1.48277 -0.876433,-0.14331 -0.876433,-0.88194 0,-0.43546 0.225998,-0.76068 h 0.143317 q 0.08819,0.34175 0.424436,0.42443 l 0.474045,0.11025 q 0.622874,0.14883 0.622874,0.70004 0,0.24254 -0.04961,0.39137 -0.181901,0.0551 -0.600825,0.0551 -0.573265,0.90399 -0.573265,1.47726 0,0.42443 0.292145,0.76067 l 0.51263,0.5898 q 0.429949,0.49059 0.429949,1.01424 0,0.47405 -0.385851,0.83234 z"
         id="path15128" />
    </g>
    <g
       aria-label="duration"
       id="text7148"
       style="font-size:4.23333px;line-height:1.25;font-family:'Agency FB';-inkscape-font-specification:'Agency FB';stroke-width:0.264583">
      <path
         d="M 5.9215023,35.937412 H 5.648651 v -0.05581 q -0.4423499,0.06821 -0.4898922,0.06821 -0.1756997,0 -0.2831866,-0.117823 Q 4.7680853,35.7121 4.7680853,35.534333 v -1.176154 q 0,-0.186035 0.1219563,-0.307991 0.1219563,-0.124024 0.3059242,-0.124024 H 5.648651 V 32.70247 H 5.9215023 Z M 5.648651,35.687299 V 34.168013 H 5.2683128 q -0.2273761,0 -0.2273761,0.233577 v 1.074869 q 0,0.23151 0.2273761,0.23151 0.053743,0 0.3803382,-0.02067 z"
         id="path9408" />
      <path
         d="M 7.5255375,35.937412 H 7.2547532 v -0.05581 q -0.1653645,0.02274 -0.3286619,0.04341 -0.1984373,0.02481 -0.3286618,0.02481 -0.223242,0 -0.223242,-0.223242 V 33.926174 H 6.6449718 V 35.69144 L 7.2547532,35.6749 v -1.748729 h 0.2707843 z"
         id="path9410" />
      <path
         d="M 9.0262196,34.587625 H 8.7554354 v -0.415478 l -0.5064287,0.01654 v 1.748729 H 7.9740884 v -2.011245 h 0.2749183 v 0.05581 q 0.1364257,-0.02067 0.2749184,-0.04341 0.1653645,-0.02481 0.2749184,-0.02481 0.2273761,0 0.2273761,0.225309 z"
         id="path9412" />
      <path
         d="m 10.512433,35.937412 h -0.270784 v -0.05581 q -0.163298,0.02274 -0.3265952,0.04341 -0.2025714,0.02481 -0.3245277,0.02481 -0.225309,0 -0.225309,-0.223242 v -0.733805 q 0,-0.23151 0.2335772,-0.23151 H 10.245783 V 34.15561 H 9.6546048 v 0.343132 H 9.3879547 v -0.338998 q 0,-0.233577 0.2315102,-0.233577 h 0.6614581 q 0.23151,0 0.23151,0.233577 z m -0.26665,-0.250113 V 34.976231 H 9.6318672 v 0.72347 z"
         id="path9414" />
      <path
         d="m 11.68652,35.937412 h -0.390673 q -0.23151,0 -0.23151,-0.233577 v -1.535822 h -0.241846 v -0.241846 h 0.241846 v -0.626318 h 0.270784 v 0.626318 h 0.351399 v 0.241846 h -0.351399 v 1.527554 h 0.351399 z"
         id="path9416" />
      <path
         d="m 12.329375,33.485884 h -0.279053 v -0.347265 h 0.279053 z m -0.0041,2.451528 h -0.270784 v -2.011245 h 0.270784 z"
         id="path9418" />
      <path
         d="m 13.947879,35.703835 q 0,0.233577 -0.233577,0.233577 h -0.690397 q -0.23151,0 -0.23151,-0.233577 v -1.544091 q 0,-0.233577 0.23151,-0.233577 h 0.690397 q 0.233577,0 0.233577,0.233577 z m -0.274919,-0.0083 v -1.527554 h -0.605647 v 1.527554 z"
         id="path9420" />
      <path
         d="m 15.551914,35.937412 h -0.274918 v -1.765265 l -0.605647,0.01654 v 1.748729 H 14.39643 v -2.011245 h 0.274919 v 0.05581 q 0.16123,-0.02067 0.324527,-0.04341 0.198438,-0.02481 0.326595,-0.02481 0.229443,0 0.229443,0.225309 z"
         id="path9422" />
    </g>
    <g
       aria-label="noize"
       id="text2867"
       style="font-size:6.35px;line-height:1.25;font-family:'Agency FB';-inkscape-font-specification:'Agency FB';stroke-width:0.264583">
      <path
         d="M 7.0656152,14.755194 H 6.6532373 v -2.647901 l -0.9084716,0.0248 v 2.623096 h -0.412378 v -3.01687 h 0.412378 v 0.08371 q 0.2418457,-0.03101 0.4867919,-0.06511 0.2976563,-0.03721 0.4898926,-0.03721 0.344165,0 0.344165,0.337964 z"
         id="path13938" />
      <path
         d="m 9.4654687,14.404828 q 0,0.350366 -0.3503662,0.350366 H 8.0795068 q -0.3472656,0 -0.3472656,-0.350366 V 12.08869 q 0,-0.350366 0.3472656,-0.350366 h 1.0355957 q 0.3503662,0 0.3503662,0.350366 z m -0.4123779,-0.0124 V 12.101092 H 8.1446191 v 2.291333 z"
         id="path13940" />
      <path
         d="m 10.575479,11.077899 h -0.41858 V 10.557 h 0.41858 z m -0.0062,3.677295 h -0.406176 v -3.01687 h 0.406176 z"
         id="path13942" />
      <path
         d="m 12.714883,14.755194 h -1.5875 v -0.189136 l 1.100708,-2.458765 h -0.985986 v -0.368969 h 1.472778 v 0.192236 l -1.103809,2.455664 h 1.103809 z"
         id="path13944" />
      <path
         d="m 14.987612,14.404828 q 0,0.350366 -0.347265,0.350366 h -0.992188 q -0.347265,0 -0.347265,-0.350366 V 12.08869 q 0,-0.350366 0.347265,-0.350366 h 0.992188 q 0.347265,0 0.347265,0.350366 v 1.085205 l -0.139526,0.145727 h -1.147217 v 1.091407 h 0.886768 v -0.551905 h 0.399975 z M 14.587637,12.99096 v -0.908471 h -0.886768 v 0.908471 z"
         id="path13946" />
    </g>
  </g>
  <g
     inkscape:groupmode="layer"
     id="layer2"
     inkscape:label="components"
     style="display:none">
    <circle
       style="fill:#ff0000;fill-rule:evenodd;stroke-width:0.264583"
       id="path13989"
       cx="10.16"
       cy="27.056328"
       r="3.9242003"
       inkscape:label="frequency" />
    <circle
       style="fill:#00ff00;fill-rule:evenodd;stroke-width:0.264583"
       id="circle13991"
       cx="10.16"
       cy="109.25799"
       r="3.9242003"
       inkscape:label="noise" />
  </g>
</svg>
