<?xml version="1.0" encoding="UTF-8" standalone="no"?>
<svg
   id="svg5"
   width="20.32mm"
   height="128.5mm"
   viewBox="0 0 57.6 364.252"
   version="1.1"
   sodipodi:docname="noize.svg"
   inkscape:version="1.2.1 (9c6d41e410, 2022-07-14)"
   xmlns:inkscape="http://www.inkscape.org/namespaces/inkscape"
   xmlns:sodipodi="http://sodipodi.sourceforge.net/DTD/sodipodi-0.dtd"
   xmlns="http://www.w3.org/2000/svg"
   xmlns:svg="http://www.w3.org/2000/svg">
  <defs
     id="defs1875" />
  <sodipodi:namedview
     id="namedview1873"
     pagecolor="#505050"
     bordercolor="#eeeeee"
     borderopacity="1"
     inkscape:showpageshadow="0"
     inkscape:pageopacity="0"
     inkscape:pagecheckerboard="0"
     inkscape:deskcolor="#505050"
     inkscape:document-units="mm"
     showgrid="false"
     inkscape:zoom="1.7748703"
     inkscape:cx="2.5353965"
     inkscape:cy="242.83465"
     inkscape:current-layer="svg5" />
  <g
     id="layer1">
    <rect
       id="rect846"
       width="57.599998"
       height="364.25201"
       style="display:none;fill:#ffffff"
       x="0"
       y="0" />
    <g
       id="text3498">
      <path
         id="path15128"
         d="M34.12,348.028H33.7a3.342,3.342,0,0,0-.812-2.016l-6.781-7.781a2.585,2.585,0,0,0-1.735,2.25,5.4,5.4,0,0,0,1.11,2.734,6.09,6.09,0,0,1,1.281,3.032q0,1.5-1.141,1.5H22.667v-.422a1.073,1.073,0,0,0,.938-1.078,7.377,7.377,0,0,0-.594-2.047,7.04,7.04,0,0,1-.594-2.344q0-2.516,3.094-4.281L23.589,335.4a4.311,4.311,0,0,1-1.2-2.86,3.693,3.693,0,0,1,1.094-2.531h.406A3.494,3.494,0,0,0,24.7,332.2l5.875,6.672a11.905,11.905,0,0,1,1.735-4.2q-2.484-.4-2.485-2.5a3.687,3.687,0,0,1,.641-2.156h.406a1.551,1.551,0,0,0,1.2,1.2l1.344.313a1.954,1.954,0,0,1,1.766,1.984,3.59,3.59,0,0,1-.141,1.11,6.531,6.531,0,0,1-1.7.156,8.509,8.509,0,0,0-1.625,4.187,3.2,3.2,0,0,0,.828,2.157l1.453,1.671a4.338,4.338,0,0,1,1.219,2.875,3.132,3.132,0,0,1-1.094,2.36Z" />
    </g>
    <g
       id="text7148">
      <path
         id="path9408"
         d="M16.785,101.87h-.773v-.158q-1.254.193-1.389.193a1.032,1.032,0,0,1-.8-.334,1.215,1.215,0,0,1-.3-.844V97.393a1.183,1.183,0,0,1,.346-.873,1.165,1.165,0,0,1,.867-.351h1.283V92.7h.773Zm-.773-.709V96.854H14.934a.578.578,0,0,0-.645.662v3.047a.575.575,0,0,0,.645.656C15.035,101.219,15.4,101.2,16.012,101.161Z" />
      <path
         id="path9410"
         d="M21.332,101.87h-.767v-.158c-.313.043-.623.084-.932.123a7.745,7.745,0,0,1-.932.07.559.559,0,0,1-.632-.633v-5.1h.767v5l1.729-.047V96.169h.767Z" />
      <path
         id="path9412"
         d="M25.586,98.044h-.767V96.866l-1.436.047v4.957H22.6v-5.7h.779v.158q.387-.059.779-.123a5.443,5.443,0,0,1,.78-.071.567.567,0,0,1,.644.639Z" />
      <path
         id="path9414"
         d="M29.8,101.87h-.768v-.158c-.308.043-.617.084-.925.123a7.926,7.926,0,0,1-.92.07.562.562,0,0,1-.639-.633v-2.08a.583.583,0,0,1,.662-.656h1.834V96.819H27.367v.973h-.755v-.961a.582.582,0,0,1,.656-.662h1.875a.582.582,0,0,1,.656.662Zm-.756-.709V99.145H27.3V101.2Z" />
      <path
         id="path9416"
         d="M33.127,101.87H32.02a.583.583,0,0,1-.657-.662V96.854h-.685v-.685h.685V94.393h.768v1.776h1v.685h-1v4.33h1Z" />
      <path
         id="path9418"
         d="M34.949,94.921h-.791v-.985h.791Zm-.011,6.949H34.17v-5.7h.768Z" />
      <path
         id="path9420"
         d="M39.537,101.208a.585.585,0,0,1-.662.662H36.918a.583.583,0,0,1-.656-.662V96.831a.582.582,0,0,1,.656-.662h1.957a.585.585,0,0,1,.662.662Zm-.779-.024v-4.33H37.041v4.33Z" />
      <path
         id="path9422"
         d="M44.084,101.87h-.779v-5l-1.717.047v4.957h-.779v-5.7h.779v.158c.3-.039.611-.08.92-.123a7.747,7.747,0,0,1,.926-.071.57.57,0,0,1,.65.639Z" />
    </g>
    <g
       id="text2867">
      <path
         id="path13938"
         d="M20.029,41.826H18.86V34.32l-2.576.07v7.436H15.115V33.274h1.169v.237q.686-.087,1.38-.184a11.508,11.508,0,0,1,1.389-.106.855.855,0,0,1,.976.958Z" />
      <path
         id="path13940"
         d="M26.831,40.833a.878.878,0,0,1-.993.993H22.9a.874.874,0,0,1-.985-.993V34.267a.874.874,0,0,1,.985-.993h2.935a.878.878,0,0,1,.993.993ZM25.662,40.8V34.3H23.087V40.8Z" />
      <path
         id="path13942"
         d="M29.978,31.4H28.791V29.925h1.187ZM29.96,41.826H28.809V33.274H29.96Z" />
      <path
         id="path13944"
         d="M36.042,41.826h-4.5V41.29l3.12-6.97H31.867V33.274h4.175v.545L32.913,40.78h3.129Z" />
      <path
         id="path13946"
         d="M42.485,40.833a.874.874,0,0,1-.985.993H38.688a.874.874,0,0,1-.985-.993V34.267a.874.874,0,0,1,.985-.993H41.5a.874.874,0,0,1,.985.993v3.076l-.4.413H38.837V40.85h2.514V39.286h1.134Zm-1.134-4.008V34.25H38.837v2.575Z" />
    </g>
    <path
       id="rect32999"
       d="M20.29,292.143H37.31c5.162,0,9.346,3.482,9.346,7.779v18.984c0,4.3-4.184,7.779-9.346,7.779H20.29c-5.162,0-9.346-3.483-9.346-7.779V299.922C10.944,295.625,15.128,292.143,20.29,292.143Z" />
    <path
       id="knob_circle"
       data-name="knob circle"
       d="M37.72,89.742l-.92-1.565a16.03,16.03,0,1,0-16.073-.043L19.9,89.742"
       style="fill: none;stroke: #000;stroke-miterlimit: 20.842119867904092;stroke-width: 0.9513382441237018px" />
  </g>
</svg>
