<?xml version="1.0" encoding="UTF-8" standalone="no"?>
<!-- Created with Inkscape (http://www.inkscape.org/) -->

<svg
   width="20.32mm"
   height="128.5mm"
   viewBox="0 0 20.32 128.5"
   version="1.1"
   id="svg5"
   inkscape:version="1.2.2 (732a01da63, 2022-12-09)"
   sodipodi:docname="nos.svg"
   xmlns:inkscape="http://www.inkscape.org/namespaces/inkscape"
   xmlns:sodipodi="http://sodipodi.sourceforge.net/DTD/sodipodi-0.dtd"
   xmlns="http://www.w3.org/2000/svg"
   xmlns:svg="http://www.w3.org/2000/svg">
  <sodipodi:namedview
     id="namedview7"
     pagecolor="#505050"
     bordercolor="#000000"
     borderopacity="1"
     inkscape:showpageshadow="0"
     inkscape:pageopacity="0"
     inkscape:pagecheckerboard="0"
     inkscape:deskcolor="#505050"
     inkscape:document-units="mm"
     showgrid="false"
     inkscape:zoom="1.2550228"
     inkscape:cx="-16.334365"
     inkscape:cy="231.8683"
     inkscape:current-layer="layer1" />
  <defs
     id="defs2" />
  <g
     inkscape:label="Layer 1"
     inkscape:groupmode="layer"
     id="layer1">
    <g
       aria-label="nos"
       id="text628"
       style="font-size:6.35px;line-height:1.25;font-family:'Agency FB';-inkscape-font-specification:'Agency FB';fill:#1a1a1a;stroke-width:0.264583">
      <path
         d="M 8.6779199,13.592474 H 8.265542 v -2.6479 l -0.9084717,0.0248 v 2.623096 H 6.9446924 v -3.01687 h 0.4123779 v 0.08372 q 0.2418457,-0.03101 0.486792,-0.06511 0.2976563,-0.03721 0.4898926,-0.03721 0.344165,0 0.344165,0.337964 z"
         id="path4945" />
      <path
         d="m 11.077773,13.242108 q 0,0.350366 -0.350366,0.350366 H 9.6918115 q -0.3472656,0 -0.3472656,-0.350366 V 10.92597 q 0,-0.350366 0.3472656,-0.350366 h 1.0355955 q 0.350366,0 0.350366,0.350366 z m -0.412378,-0.0124 V 10.938372 H 9.7569238 v 2.291333 z"
         id="path4947" />
      <path
         d="m 13.375308,13.242108 q 0,0.350366 -0.350367,0.350366 h -0.945678 q -0.350366,0 -0.350366,-0.350366 v -0.68523 h 0.406176 v 0.679029 h 0.834058 V 12.634393 L 11.890127,11.750726 Q 11.735098,11.626703 11.735098,11.428265 V 10.92597 q 0,-0.350366 0.350366,-0.350366 h 0.933276 q 0.350366,0 0.350366,0.350366 v 0.601514 h -0.399975 v -0.595313 h -0.834058 v 0.5271 l 1.088306,0.883667 q 0.151929,0.120923 0.151929,0.328662 z"
         id="path4949" />
    </g>
    <g
       id="text3498"
       style="fill:#1a1a1a;fill-opacity:1"
       transform="matrix(0.35277774,0,0,0.35277774,-8.8100894e-4,1.7080034e-4)">
      <path
         id="path15128"
         d="M 34.12,348.028 H 33.7 a 3.342,3.342 0 0 0 -0.812,-2.016 l -6.781,-7.781 a 2.585,2.585 0 0 0 -1.735,2.25 5.4,5.4 0 0 0 1.11,2.734 6.09,6.09 0 0 1 1.281,3.032 q 0,1.5 -1.141,1.5 h -2.955 v -0.422 a 1.073,1.073 0 0 0 0.938,-1.078 7.377,7.377 0 0 0 -0.594,-2.047 7.04,7.04 0 0 1 -0.594,-2.344 q 0,-2.516 3.094,-4.281 L 23.589,335.4 a 4.311,4.311 0 0 1 -1.2,-2.86 3.693,3.693 0 0 1 1.094,-2.531 h 0.406 A 3.494,3.494 0 0 0 24.7,332.2 l 5.875,6.672 a 11.905,11.905 0 0 1 1.735,-4.2 q -2.484,-0.4 -2.485,-2.5 a 3.687,3.687 0 0 1 0.641,-2.156 h 0.406 a 1.551,1.551 0 0 0 1.2,1.2 l 1.344,0.313 a 1.954,1.954 0 0 1 1.766,1.984 3.59,3.59 0 0 1 -0.141,1.11 6.531,6.531 0 0 1 -1.7,0.156 8.509,8.509 0 0 0 -1.625,4.187 3.2,3.2 0 0 0 0.828,2.157 l 1.453,1.671 a 4.338,4.338 0 0 1 1.219,2.875 3.132,3.132 0 0 1 -1.094,2.36 z"
         style="fill:#1a1a1a;fill-opacity:1" />
    </g>
    <path
       id="rect32999"
       d="m 7.1578612,96.997932 h 6.0042768 c 1.821039,0 3.297061,1.228373 3.297061,2.744249 v 6.697139 c 0,1.51694 -1.476022,2.74426 -3.297061,2.74426 H 7.1578612 c -1.8210386,0 -3.2970607,-1.22873 -3.2970607,-2.74426 v -6.697139 c 0,-1.515876 1.4760221,-2.744249 3.2970607,-2.744249 z"
       style="fill:#1a1a1a;fill-opacity:1;stroke-width:0.352778" />
    <g
       aria-label="freq"
       id="text3423"
       style="font-size:4.93889px;line-height:1.25;font-family:'Agency FB';-inkscape-font-specification:'Agency FB';fill:#1a1a1a;stroke-width:0.264583"
       transform="translate(0,5.6921276)">
      <path
         d="M 8.1318721,20.752296 H 7.6784975 v 1.145494 h 0.4003202 v 0.282154 H 7.6784975 v 2.064302 H 7.3625822 V 22.179944 H 7.090075 V 21.89779 h 0.2725072 v -1.15514 q 0,-0.272507 0.2700955,-0.272507 h 0.4991944 z"
         id="path4952" />
      <path
         d="M 9.6463365,22.669492 H 9.3304212 v -0.484725 l -0.590834,0.01929 v 2.040186 H 8.4188487 V 21.89779 h 0.3207385 v 0.06511 q 0.1591634,-0.02412 0.3207384,-0.05064 0.1929254,-0.02894 0.3207385,-0.02894 0.2652724,0 0.2652724,0.262861 z"
         id="path4954" />
      <path
         d="m 11.365784,23.971738 q 0,0.272508 -0.270096,0.272508 h -0.771701 q -0.270096,0 -0.270096,-0.272508 v -1.80144 q 0,-0.272508 0.270096,-0.272508 h 0.771701 q 0.270096,0 0.270096,0.272508 v 0.844048 l -0.108521,0.113344 h -0.89228 v 0.848872 h 0.689709 v -0.429259 h 0.311092 z m -0.311092,-1.099674 v -0.70659 h -0.689709 v 0.70659 z"
         id="path4956" />
      <path
         d="m 13.229926,25.134114 h -0.318327 v -0.889868 h -0.528133 q -0.21463,0 -0.356912,-0.142283 -0.142283,-0.144694 -0.142283,-0.361735 v -1.372182 q 0,-0.207395 0.125402,-0.344854 0.125401,-0.139871 0.330384,-0.139871 0.05547,0 0.571542,0.07958 v -0.06511 h 0.318327 z M 12.911599,23.962092 V 22.18959 q -0.381028,-0.02412 -0.443729,-0.02412 -0.265272,0 -0.265272,0.270096 v 1.256427 q 0,0.270095 0.265272,0.270095 z"
         id="path4958" />
    </g>
    <g
       aria-label="inject"
       id="text4879"
       style="font-size:4.93889px;line-height:1.25;font-family:'Agency FB';-inkscape-font-specification:'Agency FB';fill:#1a1a1a;stroke-width:0.264583"
       transform="translate(0,12.438353)">
      <path
         d="M 6.4244823,50.898865 H 6.0989207 v -0.405144 h 0.3255616 z m -0.00482,2.860119 H 6.1037438 v -2.346455 h 0.3159153 z"
         id="path4961" />
      <path
         d="M 8.3127395,53.758984 H 7.9920011 v -2.059479 l -0.7065893,0.01929 v 2.040186 H 6.9646733 v -2.346455 h 0.3207385 v 0.06511 q 0.1881023,-0.02412 0.3786161,-0.05064 0.2315105,-0.02894 0.3810276,-0.02894 0.267684,0 0.267684,0.262861 z"
         id="path4963" />
      <path
         d="M 9.1712574,50.898865 H 8.8456958 v -0.405144 h 0.3255616 z m -0.00482,3.47748 q 0,0.272507 -0.2725071,0.272507 H 8.493607 v -0.282153 h 0.356912 v -2.95417 h 0.3159153 z"
         id="path4965" />
      <path
         d="m 11.023341,53.486476 q 0,0.272508 -0.270095,0.272508 H 9.9815443 q -0.2700956,0 -0.2700956,-0.272508 v -1.80144 q 0,-0.272507 0.2700956,-0.272507 h 0.7717017 q 0.270095,0 0.270095,0.272507 v 0.844048 l -0.10852,0.113344 h -0.89228 V 53.4913 h 0.689708 v -0.429259 h 0.311092 z m -0.311092,-1.099674 v -0.706589 h -0.689708 v 0.706589 z"
         id="path4967" />
      <path
         d="m 12.856132,53.486476 q 0,0.272508 -0.270095,0.272508 h -0.762055 q -0.270096,0 -0.270096,-0.272508 v -1.80144 q 0,-0.272507 0.270096,-0.272507 h 0.762055 q 0.270095,0 0.270095,0.272507 v 0.467844 h -0.315915 v -0.458198 h -0.665593 v 1.782148 h 0.665593 v -0.52331 h 0.315915 z"
         id="path4969" />
      <path
         d="m 14.221079,53.758984 h -0.455786 q -0.270095,0 -0.270095,-0.272508 v -1.791794 h -0.282154 v -0.282153 h 0.282154 v -0.730705 h 0.315915 v 0.730705 h 0.409966 v 0.282153 h -0.409966 v 1.782148 h 0.409966 z"
         id="path4971" />
    </g>
  </g>
  <g
     inkscape:groupmode="layer"
     id="layer2"
     inkscape:label="components"
     style="display:none" />
</svg>
