<?xml version="1.0" encoding="UTF-8" standalone="no"?>
<svg
   id="svg1116"
   width="15.24mm"
   height="128.5mm"
   viewBox="0 0 43.2 364.252"
   version="1.1"
   sodipodi:docname="octsclr.svg"
   inkscape:version="1.2.1 (9c6d41e410, 2022-07-14)"
   xmlns:inkscape="http://www.inkscape.org/namespaces/inkscape"
   xmlns:sodipodi="http://sodipodi.sourceforge.net/DTD/sodipodi-0.dtd"
   xmlns="http://www.w3.org/2000/svg"
   xmlns:svg="http://www.w3.org/2000/svg">
  <defs
     id="defs161" />
  <sodipodi:namedview
     id="namedview159"
     pagecolor="#505050"
     bordercolor="#eeeeee"
     borderopacity="1"
     inkscape:showpageshadow="0"
     inkscape:pageopacity="0"
     inkscape:pagecheckerboard="0"
     inkscape:deskcolor="#505050"
     inkscape:document-units="mm"
     showgrid="false"
     inkscape:zoom="1.99173"
     inkscape:cx="-7.7821793"
     inkscape:cy="272.12524"
     inkscape:current-layer="Layer-1" />
  <g
     id="Layer-1">
    <rect
       id="rect846"
       width="43.200001"
       height="364.25201"
       style="display:none;fill:#ffffff"
       x="0"
       y="0" />
    <g
       id="text3498"
       style="fill:#1a1a1a;fill-opacity:1">
      <path
         id="path15128"
         d="M26.956,347.987h-.422a3.344,3.344,0,0,0-.811-2.014L18.949,338.2a2.584,2.584,0,0,0-1.734,2.248,5.4,5.4,0,0,0,1.109,2.731,6.089,6.089,0,0,1,1.28,3.028q0,1.5-1.14,1.5h-2.95v-.422a1.072,1.072,0,0,0,.937-1.078,7.389,7.389,0,0,0-.593-2.044,7.026,7.026,0,0,1-.594-2.341q0-2.514,3.091-4.277l-1.92-2.17a4.308,4.308,0,0,1-1.2-2.857,3.689,3.689,0,0,1,1.093-2.528h.406a3.487,3.487,0,0,0,.811,2.185l5.869,6.665a11.888,11.888,0,0,1,1.733-4.2q-2.481-.405-2.482-2.5a3.687,3.687,0,0,1,.64-2.154h.406a1.549,1.549,0,0,0,1.2,1.2l1.342.313a1.952,1.952,0,0,1,1.765,1.982,3.588,3.588,0,0,1-.141,1.109,6.522,6.522,0,0,1-1.7.156,8.5,8.5,0,0,0-1.623,4.183,3.2,3.2,0,0,0,.827,2.153l1.452,1.671a4.331,4.331,0,0,1,1.217,2.872A3.127,3.127,0,0,1,26.956,347.987Z"
         transform="translate(-0.041)"
         style="fill:#1a1a1a;fill-opacity:1" />
    </g>
    <g
       id="text3196"
       style="fill:#1a1a1a;fill-opacity:1">
      <path
         id="path6248"
         d="M15.89,55.31a.877.877,0,0,1-.992.993H12.219a.877.877,0,0,1-.992-.993V53.37h1.151v1.923H14.74v-1.7l-3.056-2.5a1.116,1.116,0,0,1-.439-.914V48.752a.877.877,0,0,1,.992-.992H14.88a.877.877,0,0,1,.993.992v1.7H14.74V48.77H12.378v1.492l3.082,2.5a1.124,1.124,0,0,1,.43.93Z"
         transform="translate(-0.041)"
         style="fill:#1a1a1a;fill-opacity:1" />
      <path
         id="path6250"
         d="M22.484,55.31a.874.874,0,0,1-.984.993H18.726a.873.873,0,0,1-.983-.993V48.752a.873.873,0,0,1,.983-.992H21.5a.873.873,0,0,1,.984.992v1.7H21.333V48.787H18.911v6.488h2.422V53.37h1.151Z"
         transform="translate(-0.041)"
         style="fill:#1a1a1a;fill-opacity:1" />
      <rect
         id="path6252"
         x="24.409"
         y="42.562"
         width="1.15"
         height="13.741"
         style="fill:#1a1a1a;fill-opacity:1" />
      <path
         id="path6254"
         d="M32.054,50.569H30.9V48.805l-2.151.07V56.3H27.585V47.76h1.168V48q.579-.088,1.168-.184a8.035,8.035,0,0,1,1.167-.106.849.849,0,0,1,.966.957Z"
         transform="translate(-0.041)"
         style="fill:#1a1a1a;fill-opacity:1" />
    </g>
    <g
       id="text2678"
       style="fill:#1a1a1a;fill-opacity:1">
      <path
         id="path5356"
         d="M18.316,39.857a.869.869,0,0,1-.983.984H14.426a.865.865,0,0,1-.974-.984v-6.5a.865.865,0,0,1,.974-.983h2.907a.869.869,0,0,1,.983.983Zm-1.157-.034V33.391h-2.55v6.432Z"
         transform="translate(-0.041)"
         style="fill-rule:evenodd;fill:#1a1a1a;fill-opacity:1" />
      <path
         id="path5358"
         d="M24.9,39.857a.865.865,0,0,1-.974.984H21.18a.866.866,0,0,1-.975-.984v-6.5a.865.865,0,0,1,.975-.983h2.75a.865.865,0,0,1,.974.983v1.689h-1.14V33.391h-2.4v6.432h2.4V37.934H24.9Z"
         transform="translate(-0.041)"
         style="fill-rule:evenodd;fill:#1a1a1a;fill-opacity:1" />
      <path
         id="path5360"
         d="M29.83,40.841H28.185a.865.865,0,0,1-.974-.984V33.391H26.192V32.373h1.019V29.736h1.14v2.637H29.83v1.018H28.351v6.432H29.83Z"
         transform="translate(-0.041)"
         style="fill-rule:evenodd;fill:#1a1a1a;fill-opacity:1" />
    </g>
    <path
       id="rect6565"
       d="M39.248,291.993a8.123,8.123,0,0,0-8.12-8.119H12.153a8.123,8.123,0,0,0-8.119,8.119v18.975a8.123,8.123,0,0,0,8.119,8.12H31.128a8.123,8.123,0,0,0,8.12-8.12Z"
       transform="translate(-0.041)"
       style="fill-rule:evenodd;fill:#1a1a1a;fill-opacity:1" />
    <path
       id="knob_circle"
       data-name="knob circle"
       d="M30.6,96.194l-.92-1.565a16.03,16.03,0,1,0-16.073-.043l-.829,1.608"
       transform="translate(-0.041)"
       style="fill:none;stroke:#1a1a1a;stroke-miterlimit:20.8421198679041;stroke-width:0.951338244123702px;stroke-opacity:1" />
    <path
       id="knob_circle-2"
       data-name="knob circle"
       d="M30.6,154.119l-.92-1.566a16.029,16.029,0,1,0-16.073-.042l-.829,1.608"
       transform="translate(-0.041)"
       style="fill:none;stroke:#1a1a1a;stroke-miterlimit:20.8421198679041;stroke-width:0.951338244123702px;stroke-opacity:1" />
    <g
       id="text_-_offset"
       data-name="text - offset"
       style="fill:#1a1a1a;fill-opacity:1">
      <path
         id="path1087"
         d="M14.764,167.674a.558.558,0,0,1-.632.632H12.263a.556.556,0,0,1-.627-.632v-4.18a.557.557,0,0,1,.627-.632h1.869a.559.559,0,0,1,.632.632Zm-.745-.022v-4.135H12.381v4.135Z"
         transform="translate(-0.041)"
         style="fill:#1a1a1a;fill-opacity:1" />
      <path
         id="path1089"
         d="M18.036,160.205H16.985v2.657h.929v.655h-.929v4.789h-.733v-4.789H15.62v-.655h.632v-2.68a.557.557,0,0,1,.627-.632h1.157Z"
         transform="translate(-0.041)"
         style="fill:#1a1a1a;fill-opacity:1" />
      <path
         id="path1091"
         d="M20.761,160.205H19.709v2.657h.929v.655h-.929v4.789h-.732v-4.789h-.632v-.655h.632v-2.68a.556.556,0,0,1,.626-.632h1.158Z"
         transform="translate(-0.041)"
         style="fill:#1a1a1a;fill-opacity:1" />
      <path
         id="path1093"
         d="M24.359,167.674a.559.559,0,0,1-.633.632H22.02a.558.558,0,0,1-.632-.632v-1.237h.733v1.225h1.505v-1.085l-1.947-1.594a.714.714,0,0,1-.28-.583v-.906a.559.559,0,0,1,.632-.632h1.685a.559.559,0,0,1,.632.632v1.086h-.722v-1.074H22.121v.951l1.963,1.594a.717.717,0,0,1,.275.593Z"
         transform="translate(-0.041)"
         style="fill:#1a1a1a;fill-opacity:1" />
      <path
         id="path1095"
         d="M28.582,167.674a.555.555,0,0,1-.626.632h-1.79a.556.556,0,0,1-.627-.632v-4.18a.557.557,0,0,1,.627-.632h1.79a.556.556,0,0,1,.626.632v1.959l-.251.262h-2.07v1.97h1.6v-1h.721Zm-.721-2.552v-1.639h-1.6v1.639Z"
         transform="translate(-0.041)"
         style="fill:#1a1a1a;fill-opacity:1" />
      <path
         id="path1097"
         d="M31.771,168.306H30.714a.555.555,0,0,1-.626-.632v-4.157h-.655v-.655h.655v-1.695h.732v1.695h.951v.655H30.82v4.135h.951Z"
         transform="translate(-0.041)"
         style="fill:#1a1a1a;fill-opacity:1" />
    </g>
    <g
       aria-label="scale"
       id="text375"
       style="font-size:12px;line-height:1.25;font-family:'Agency FB';-inkscape-font-specification:'Agency FB';stroke-width:0.75;fill:#1a1a1a;fill-opacity:1">
      <path
         d="m 15.409572,110.53239 q 0,0.66211 -0.66211,0.66211 h -1.787109 q -0.662109,0 -0.662109,-0.66211 v -1.29492 h 0.767578 v 1.28321 h 1.576172 v -1.13672 l -2.039063,-1.66992 q -0.292969,-0.23438 -0.292969,-0.60938 v -0.94922 q 0,-0.66211 0.66211,-0.66211 h 1.763672 q 0.662109,0 0.662109,0.66211 v 1.13672 h -0.755859 v -1.125 h -1.576172 v 0.99609 l 2.05664,1.66993 q 0.28711,0.22851 0.28711,0.62109 z"
         id="path377"
         style="fill:#1a1a1a;fill-opacity:1" />
      <path
         d="m 19.809962,110.53239 q 0,0.66211 -0.65625,0.66211 H 17.30215 q -0.65625,0 -0.65625,-0.66211 v -4.37695 q 0,-0.66211 0.65625,-0.66211 h 1.851562 q 0.65625,0 0.65625,0.66211 v 1.13672 h -0.767578 v -1.11328 h -1.617187 v 4.33008 h 1.617187 v -1.27149 h 0.767578 z"
         id="path379"
         style="fill:#1a1a1a;fill-opacity:1" />
      <path
         d="m 24.298244,111.1945 h -0.767579 v -0.1582 q -0.46289,0.0645 -0.925781,0.12305 -0.574219,0.0703 -0.919922,0.0703 -0.638672,0 -0.638672,-0.63281 v -2.08008 q 0,-0.65625 0.66211,-0.65625 h 1.833984 v -1.7168 h -1.675781 v 0.97266 h -0.755859 v -0.96094 q 0,-0.66211 0.65625,-0.66211 h 1.875 q 0.65625,0 0.65625,0.66211 z m -0.75586,-0.70898 v -2.01563 H 21.80215 v 2.05079 z"
         id="path381"
         style="fill:#1a1a1a;fill-opacity:1" />
      <path
         d="m 26.39004,111.1945 h -0.767578 v -9.16992 h 0.767578 z"
         id="path383"
         style="fill:#1a1a1a;fill-opacity:1" />
      <path
         d="m 30.901759,110.53239 q 0,0.66211 -0.65625,0.66211 h -1.875 q -0.65625,0 -0.65625,-0.66211 v -4.37695 q 0,-0.66211 0.65625,-0.66211 h 1.875 q 0.65625,0 0.65625,0.66211 v 2.05078 l -0.263672,0.27539 h -2.167968 v 2.0625 H 30.1459 v -1.04297 h 0.755859 z M 30.1459,107.86052 v -1.7168 h -1.675781 v 1.7168 z"
         id="path385"
         style="fill:#1a1a1a;fill-opacity:1" />
    </g>
  </g>
</svg>
