<?xml version="1.0" encoding="UTF-8" standalone="no"?>
<svg
   width="100%"
   height="100%"
   viewBox="0 0 45 380"
   version="1.1"
   xml:space="preserve"
   style="fill-rule:evenodd;clip-rule:evenodd;stroke-miterlimit:10;"
   id="svg1116"
   sodipodi:docname="octsclr.svg"
   inkscape:version="1.1.1 (3bf5ae0d25, 2021-09-20)"
   xmlns:inkscape="http://www.inkscape.org/namespaces/inkscape"
   xmlns:sodipodi="http://sodipodi.sourceforge.net/DTD/sodipodi-0.dtd"
   xmlns="http://www.w3.org/2000/svg"
   xmlns:svg="http://www.w3.org/2000/svg"
   xmlns:serif="http://www.serif.com/"><defs
   id="defs1120" /><sodipodi:namedview
   id="namedview1118"
   pagecolor="#505050"
   bordercolor="#eeeeee"
   borderopacity="1"
   inkscape:pageshadow="0"
   inkscape:pageopacity="0"
   inkscape:pagecheckerboard="0"
   showgrid="false"
   inkscape:zoom="1.7868421"
   inkscape:cx="5.8762887"
   inkscape:cy="190"
   inkscape:current-layer="Layer-1" />
    <g
   id="Layer-1"
   serif:id="Layer 1"
   transform="matrix(1.04626,0,0,1.04626,-0.0992113,-1.47269)"
   style="display:inline">
        <rect
   id="rect846"
   x="-5.0250001"
   y="-6.4990001"
   width="53.25"
   height="377.25"
   style="fill:#ffffff" />
        <g
   id="text3498"
   transform="translate(-7.20001,-5.998)">
            <path
   id="path15128"
   d="m 34.12,354.029 h -0.422 c -0.062,-0.802 -0.333,-1.474 -0.812,-2.016 l -6.781,-7.781 c -1.157,0.583 -1.735,1.333 -1.735,2.25 0,0.708 0.37,1.62 1.11,2.734 0.854,1.271 1.281,2.282 1.281,3.031 0,1.001 -0.38,1.501 -1.141,1.501 h -2.953 v -0.422 c 0.625,-0.167 0.938,-0.526 0.938,-1.079 0,-0.343 -0.198,-1.026 -0.594,-2.046 -0.396,-1.011 -0.594,-1.792 -0.594,-2.344 0,-1.677 1.031,-3.104 3.094,-4.281 l -1.922,-2.172 c -0.802,-0.917 -1.203,-1.87 -1.203,-2.86 0,-0.895 0.365,-1.739 1.094,-2.531 h 0.406 c 0.052,0.906 0.323,1.636 0.812,2.188 l 5.875,6.671 c 0.303,-1.5 0.881,-2.901 1.735,-4.203 -1.656,-0.27 -2.485,-1.104 -2.485,-2.5 0,-0.823 0.214,-1.541 0.641,-2.156 h 0.406 c 0.167,0.646 0.568,1.047 1.203,1.203 l 1.344,0.313 c 1.177,0.281 1.766,0.942 1.766,1.984 0,0.458 -0.047,0.828 -0.141,1.11 -0.344,0.104 -0.911,0.156 -1.703,0.156 -1.083,1.708 -1.625,3.104 -1.625,4.187 0,0.802 0.276,1.521 0.828,2.156 l 1.453,1.672 c 0.813,0.927 1.219,1.886 1.219,2.875 0,0.896 -0.365,1.683 -1.094,2.36 z"
   style="fill-rule:nonzero" />
        </g>
        <g
   id="text3196"
   transform="translate(0,12.837647)">
            <path
   id="path6248"
   d="m 15.843,41.516 c 0,0.662 -0.331,0.994 -0.993,0.994 h -2.681 c -0.662,0 -0.993,-0.332 -0.993,-0.994 v -1.942 h 1.152 v 1.925 h 2.364 V 39.794 L 11.633,37.289 C 11.34,37.054 11.194,36.75 11.194,36.375 v -1.424 c 0,-0.662 0.331,-0.993 0.993,-0.993 h 2.645 c 0.663,0 0.994,0.331 0.994,0.993 v 1.705 h -1.134 v -1.687 h -2.364 v 1.494 l 3.085,2.505 c 0.287,0.228 0.43,0.539 0.43,0.931 z"
   style="fill-rule:nonzero" />
            <path
   id="path6250"
   d="m 22.444,41.516 c 0,0.662 -0.328,0.994 -0.985,0.994 h -2.777 c -0.656,0 -0.984,-0.332 -0.984,-0.994 v -6.565 c 0,-0.662 0.328,-0.993 0.984,-0.993 h 2.777 c 0.657,0 0.985,0.331 0.985,0.993 v 1.705 h -1.152 v -1.67 h -2.425 v 6.495 h 2.425 v -1.907 h 1.152 z"
   style="fill-rule:nonzero" />
            <rect
   id="path6252"
   x="24.412001"
   y="28.754999"
   width="1.151"
   height="13.755"
   style="fill-rule:nonzero" />
            <path
   id="path6254"
   d="m 32.024,36.77 h -1.152 v -1.766 l -2.153,0.07 V 42.51 H 27.55 v -8.552 h 1.169 v 0.237 c 0.387,-0.059 0.777,-0.12 1.169,-0.184 0.469,-0.071 0.858,-0.106 1.169,-0.106 0.645,0 0.967,0.319 0.967,0.958 z"
   style="fill-rule:nonzero" />
        </g><g
   aria-label="oct"
   id="text2678"
   style="font-size:17.8413px;line-height:1.25;font-family:'Agency FB';-inkscape-font-specification:'Agency FB';stroke-width:0.955785"><path
     d="m 18.272175,38.885149 q 0,0.984407 -0.984408,0.984407 h -2.909665 q -0.975696,0 -0.975696,-0.984407 v -6.507544 q 0,-0.984408 0.975696,-0.984408 h 2.909665 q 0.984408,0 0.984408,0.984408 z m -1.158639,-0.03485 v -6.437852 h -2.552491 v 6.437852 z"
     id="path5356" /><path
     d="m 24.866834,38.885149 q 0,0.984407 -0.975696,0.984407 h -2.752856 q -0.975697,0 -0.975697,-0.984407 v -6.507544 q 0,-0.984408 0.975697,-0.984408 h 2.752856 q 0.975696,0 0.975696,0.984408 v 1.690045 h -1.141216 v -1.655199 h -2.404393 v 6.437852 h 2.404393 v -1.890412 h 1.141216 z"
     id="path5358" /><path
     d="m 29.797585,39.869556 h -1.646488 q -0.975696,0 -0.975696,-0.984407 v -6.472698 h -1.019253 v -1.019254 h 1.019253 v -2.639606 h 1.141216 v 2.639606 h 1.480968 v 1.019254 h -1.480968 v 6.437852 h 1.480968 z"
     id="path5360" /></g>
        <g
   id="range"
   transform="matrix(0.955786,0,0,0.955786,-1.68253,-2.64746)">
            <path
   d="m 16.983,112.575 h -0.768 v -1.178 l -1.436,0.047 v 4.957 H 14 V 110.7 h 0.779 v 0.158 c 0.258,-0.039 0.518,-0.08 0.78,-0.123 0.312,-0.047 0.572,-0.071 0.779,-0.071 0.43,0 0.645,0.213 0.645,0.639 z"
   style="fill-rule:nonzero"
   id="path981" />
            <path
   d="m 21.196,116.401 h -0.768 v -0.158 c -0.309,0.042 -0.617,0.084 -0.926,0.123 -0.383,0.046 -0.689,0.07 -0.92,0.07 -0.426,0 -0.638,-0.211 -0.638,-0.633 v -2.08 c 0,-0.438 0.22,-0.656 0.662,-0.656 h 1.834 v -1.717 h -1.676 v 0.973 h -0.756 v -0.961 c 0,-0.442 0.219,-0.662 0.656,-0.662 h 1.875 c 0.438,0 0.657,0.22 0.657,0.662 z m -0.756,-0.709 v -2.016 h -1.741 v 2.051 z"
   style="fill-rule:nonzero"
   id="path983" />
            <path
   d="m 25.748,116.401 h -0.779 v -5.004 l -1.717,0.047 v 4.957 H 22.473 V 110.7 h 0.779 v 0.158 c 0.305,-0.039 0.611,-0.08 0.92,-0.123 0.375,-0.047 0.684,-0.071 0.926,-0.071 0.433,0 0.65,0.213 0.65,0.639 z"
   style="fill-rule:nonzero"
   id="path985" />
            <path
   d="m 30.248,117.901 c 0,0.441 -0.22,0.662 -0.662,0.662 h -1.851 c -0.45,0 -0.674,-0.279 -0.674,-0.838 0,-0.066 0.003,-0.165 0.009,-0.296 0.005,-0.131 0.008,-0.226 0.008,-0.284 h 0.768 v 0.756 h 1.629 v -1.5 h -1.283 c -0.348,0 -0.637,-0.116 -0.868,-0.349 -0.23,-0.232 -0.345,-0.524 -0.345,-0.876 v -3.334 c 0,-0.336 0.101,-0.616 0.304,-0.841 0.204,-0.224 0.471,-0.337 0.803,-0.337 0.09,0 0.553,0.065 1.389,0.194 V 110.7 h 0.773 z m -0.773,-2.186 v -4.306 c -0.617,-0.04 -0.977,-0.059 -1.078,-0.059 -0.43,0 -0.645,0.219 -0.645,0.656 v 3.053 c 0,0.437 0.215,0.656 0.645,0.656 z"
   style="fill-rule:nonzero"
   id="path987" />
            <path
   d="m 34.719,115.739 c 0,0.441 -0.219,0.662 -0.656,0.662 h -1.875 c -0.438,0 -0.657,-0.221 -0.657,-0.662 v -4.377 c 0,-0.442 0.219,-0.662 0.657,-0.662 h 1.875 c 0.437,0 0.656,0.22 0.656,0.662 v 2.05 l -0.264,0.276 h -2.168 v 2.062 h 1.676 v -1.043 h 0.756 z m -0.756,-2.672 v -1.717 h -1.676 v 1.717 z"
   style="fill-rule:nonzero"
   id="path989" />
        </g>
        <path
   id="rect6565"
   d="m 39.225,291.879 c 0,-4.486 -3.642,-8.128 -8.128,-8.128 H 12.103 c -4.486,0 -8.128,3.642 -8.128,8.128 v 18.994 c 0,4.486 3.642,8.128 8.128,8.128 h 18.994 c 4.486,0 8.128,-3.642 8.128,-8.128 z" />
        <g
   id="knob-graphic"
   serif:id="knob graphic"
   transform="matrix(0.955786,0,0,0.955786,3.87506,64.3666)">
            <g
   transform="translate(4.3088,1.807)"
   id="g995">
                <path
   d="M 0,4.287 1.592,5.643 C 3.488,3.393 5.967,1.659 8.792,0.648 L 8.077,-1.356"
   style="fill:none;fill-rule:nonzero;stroke:#000000;stroke-width:1px"
   id="path993" />
            </g>
            <g
   transform="translate(24.163,7.6471)"
   id="g999">
                <path
   d="m 0,-7.558 -0.624,2.074 C 2.644,-4.511 5.498,-2.576 7.602,0 l 1.684,-1.383"
   style="fill:none;fill-rule:nonzero;stroke:#000000;stroke-width:1px"
   id="path997" />
            </g>
            <g
   transform="translate(33.4486,16.3581)"
   id="g1003">
                <path
   d="m 0,-10.094 -1.684,1.383 c 1.986,2.432 3.3,5.429 3.671,8.711 l 2.144,-0.257"
   style="fill:none;fill-rule:nonzero;stroke:#000000;stroke-width:1px"
   id="path1001" />
            </g>
            <g
   transform="matrix(0.336039,0.941848,0.941848,-0.336039,17.0692,-4.55026)"
   id="g1007">
                <path
   d="m 3.136,-6.091 h 2.128 c -0.001,1.877 0.294,3.784 0.961,5.654 0.56,1.568 1.335,2.995 2.272,4.275 L 6.753,5.123"
   style="fill:none;fill-rule:nonzero;stroke:#000000;stroke-width:1px"
   id="path1005" />
            </g>
            <g
   transform="translate(35.5441,8.6983)"
   id="g1011">
                <path
   d="m 0,18.264 -1.892,-0.966 c -1.487,2.857 -3.769,5.228 -6.555,6.83 l 0.788,1.359 -0.788,-1.359 c 2.786,-1.602 5.068,-3.973 6.555,-6.83 1.206,-2.317 1.899,-4.944 1.899,-7.735 0,-0.644 -0.045,-1.277 -0.116,-1.903 -0.371,-3.282 -1.684,-6.28 -3.67,-8.711 -2.104,-2.577 -4.958,-4.512 -8.226,-5.484 -1.52,-0.452 -3.125,-0.704 -4.79,-0.704 -1.985,0 -3.88,0.363 -5.648,0.996 -2.825,1.011 -5.304,2.744 -7.201,4.995 -2.074,2.462 -3.451,5.524 -3.835,8.89 -0.072,0.631 -0.118,1.27 -0.118,1.921 0,2.649 0.631,5.146 1.725,7.375 1.454,2.965 3.75,5.434 6.583,7.102 l -0.85,1.463 0.85,-1.463 c -2.833,-1.668 -5.129,-4.137 -6.583,-7.102 l -1.819,0.9"
   style="fill:none;fill-rule:nonzero;stroke:#000000;stroke-width:1px"
   id="path1009" />
            </g>
            <g
   transform="translate(0.0342,6.3196)"
   id="g1015">
                <path
   d="M 0,9.794 2.031,10.02 C 2.415,6.655 3.792,3.592 5.866,1.131 L 4.275,-0.226"
   style="fill:none;fill-rule:nonzero;stroke:#000000;stroke-width:1px"
   id="path1013" />
            </g>
            <g
   transform="matrix(0.896292,-0.443465,-0.443465,-0.896292,4.1639,25.9955)"
   id="g1019">
                <path
   d="m -2.311,0.54 h 2.03 c 0.008,2.483 0.549,5.001 1.724,7.375 0.288,0.583 0.613,1.135 0.958,1.67 l -1.72,1.103"
   style="fill:none;fill-rule:nonzero;stroke:#000000;stroke-width:1px"
   id="path1017" />
            </g>
        </g>
    </g>
    <g
   id="Layer-11"
   serif:id="Layer 1"
   transform="translate(5.07285,139.802)"
   style="display:inline">
        <g
   transform="matrix(-0.772796,0.634655,0.634655,0.772796,38.9419,5.49345)"
   id="g1025">
            <path
   d="m -2.781,-14.162 h 2.266 c 0,3.739 1.244,7.502 3.803,10.618 0.59,0.719 1.24,1.359 1.918,1.954 L 3.717,0.116"
   style="fill:none;fill-rule:nonzero;stroke:#231f20;stroke-width:1px"
   id="path1023" />
        </g>
        <g
   transform="matrix(-0.772796,0.634655,0.634655,0.772796,39.0079,5.49345)"
   id="g1029">
            <path
   d="m -2.781,-14.162 h 2.266 c 0,3.739 1.244,7.502 3.803,10.618 0.59,0.719 1.24,1.359 1.918,1.954 L 3.717,0.116"
   style="fill:none;fill-rule:nonzero;stroke:#231f20;stroke-width:1px"
   id="path1027" />
        </g>
        <g
   transform="matrix(4.41306e-4,-1,-1,-4.41306e-4,18.5364,-13.0346)"
   id="g1033">
            <path
   d="M -1.133,1.133 H 1.134"
   style="fill:none;fill-rule:nonzero;stroke:#231f20;stroke-width:1px"
   id="path1031" />
        </g>
        <g
   transform="matrix(4.41306e-4,-1,-1,-4.41306e-4,18.6025,-13.0346)"
   id="g1037">
            <path
   d="M -1.133,1.133 H 1.134"
   style="fill:none;fill-rule:nonzero;stroke:#231f20;stroke-width:1px"
   id="path1035" />
        </g>
        <g
   transform="matrix(0.761154,0.648571,0.648571,-0.761154,3.61701,-7.85104)"
   id="g1041">
            <path
   d="M -0.27,-0.734 H 1.994"
   style="fill:none;fill-rule:nonzero;stroke:#231f20;stroke-width:1px"
   id="path1039" />
        </g>
        <g
   transform="matrix(0.761154,0.648571,0.648571,-0.761154,3.68302,-7.85104)"
   id="g1045">
            <path
   d="M -0.27,-0.734 H 1.994"
   style="fill:none;fill-rule:nonzero;stroke:#231f20;stroke-width:1px"
   id="path1043" />
        </g>
        <g
   transform="translate(17.4029,-5.77761)"
   id="g1049">
            <path
   d="m 0,-6.125 h 0.005 c 5.215,0 9.873,2.386 12.944,6.125 L 14.7,-1.439"
   style="fill:none;fill-rule:nonzero;stroke:#231f20;stroke-width:1px"
   id="path1047" />
        </g>
        <g
   transform="translate(17.469,-5.77761)"
   id="g1053">
            <path
   d="m 0,-6.125 h 0.005 c 5.215,0 9.873,2.386 12.944,6.125 L 14.7,-1.439"
   style="fill:none;fill-rule:nonzero;stroke:#231f20;stroke-width:1px"
   id="path1051" />
        </g>
        <g
   transform="translate(7.79645,7.78649)"
   id="g1057">
            <path
   d="M 0,13.437 1.138,11.48 C -2.996,9.045 -5.988,4.895 -6.858,0 l -2.227,0.416"
   style="fill:none;fill-rule:nonzero;stroke:#231f20;stroke-width:1px"
   id="path1055" />
        </g>
        <g
   transform="translate(7.86246,7.78649)"
   id="g1061">
            <path
   d="M 0,13.437 1.138,11.48 C -2.996,9.045 -5.988,4.895 -6.858,0 l -2.227,0.416"
   style="fill:none;fill-rule:nonzero;stroke:#231f20;stroke-width:1px"
   id="path1059" />
        </g>
        <g
   transform="translate(33.9102,21.2815)"
   id="g1065">
            <path
   d="m 0,-13.713 c -0.825,5.026 -3.878,9.292 -8.122,11.754 L -6.987,0"
   style="fill:none;fill-rule:nonzero;stroke:#231f20;stroke-width:1px"
   id="path1063" />
        </g>
        <g
   transform="translate(33.9763,21.2815)"
   id="g1069">
            <path
   d="m 0,-13.713 c -0.825,5.026 -3.878,9.292 -8.122,11.754 L -6.987,0"
   style="fill:none;fill-rule:nonzero;stroke:#231f20;stroke-width:1px"
   id="path1067" />
        </g>
        <g
   transform="matrix(0.982982,-0.183702,-0.183702,-0.982982,0.201553,8.6155)"
   id="g1073">
            <path
   d="m -1.389,0.68 h 2.265 c 0.009,0.972 0.087,1.956 0.272,2.945 0.76,4.067 2.936,7.506 5.918,9.921 l -1.425,1.761"
   style="fill:none;fill-rule:nonzero;stroke:#231f20;stroke-width:1px"
   id="path1071" />
        </g>
        <g
   transform="matrix(0.982982,-0.183702,-0.183702,-0.982982,0.267569,8.6155)"
   id="g1077">
            <path
   d="m -1.389,0.68 h 2.265 c 0.009,0.972 0.087,1.956 0.272,2.945 0.76,4.067 2.936,7.506 5.918,9.921 l -1.425,1.761"
   style="fill:none;fill-rule:nonzero;stroke:#231f20;stroke-width:1px"
   id="path1075" />
        </g>
        <g
   transform="matrix(-0.907358,0.420358,0.420358,0.907358,6.49016,-3.59356)"
   id="g1081">
            <path
   d="m -13.395,-2.952 c 4.636,-2.146 9.744,-1.982 14.046,0"
   style="fill:none;fill-rule:nonzero;stroke:#231f20;stroke-width:1px"
   id="path1079" />
        </g>
        <g
   transform="matrix(-0.907358,0.420358,0.420358,0.907358,6.55617,-3.59356)"
   id="g1085">
            <path
   d="m -13.395,-2.952 c 4.636,-2.146 9.744,-1.982 14.046,0"
   style="fill:none;fill-rule:nonzero;stroke:#231f20;stroke-width:1px"
   id="path1083" />
        </g>
        <g
   transform="translate(-14.5781,-162.53)"
   id="g1099">
            <path
   d="m 24.803,197.897 c 0,0.442 -0.221,0.662 -0.662,0.662 h -1.957 c -0.438,0 -0.657,-0.22 -0.657,-0.662 v -4.377 c 0,-0.441 0.219,-0.662 0.657,-0.662 h 1.957 c 0.441,0 0.662,0.221 0.662,0.662 z m -0.78,-0.023 v -4.33 h -1.716 v 4.33 z"
   style="fill:#060000;fill-rule:nonzero"
   id="path1087" />
            <path
   d="m 28.23,190.075 h -1.101 v 2.783 h 0.973 v 0.686 h -0.973 v 5.015 h -0.768 v -5.015 h -0.662 v -0.686 h 0.662 v -2.807 c 0,-0.441 0.219,-0.662 0.657,-0.662 h 1.212 z"
   style="fill:#060000;fill-rule:nonzero"
   id="path1089" />
            <path
   d="m 31.084,190.075 h -1.102 v 2.783 h 0.973 v 0.686 h -0.973 v 5.015 h -0.767 v -5.015 h -0.662 v -0.686 h 0.662 v -2.807 c 0,-0.441 0.219,-0.662 0.656,-0.662 h 1.213 z"
   style="fill:#060000;fill-rule:nonzero"
   id="path1091" />
            <path
   d="m 34.852,197.897 c 0,0.442 -0.221,0.662 -0.663,0.662 h -1.787 c -0.441,0 -0.662,-0.22 -0.662,-0.662 v -1.295 h 0.768 v 1.283 h 1.576 v -1.136 l -2.039,-1.67 c -0.195,-0.156 -0.293,-0.36 -0.293,-0.61 v -0.949 c 0,-0.441 0.221,-0.662 0.662,-0.662 h 1.764 c 0.441,0 0.662,0.221 0.662,0.662 v 1.137 h -0.756 v -1.125 h -1.576 v 0.996 l 2.056,1.67 c 0.192,0.152 0.288,0.359 0.288,0.621 z"
   style="fill:#060000;fill-rule:nonzero"
   id="path1093" />
            <path
   d="m 39.275,197.897 c 0,0.442 -0.218,0.662 -0.656,0.662 h -1.875 c -0.437,0 -0.656,-0.22 -0.656,-0.662 v -4.377 c 0,-0.441 0.219,-0.662 0.656,-0.662 h 1.875 c 0.438,0 0.656,0.221 0.656,0.662 v 2.051 l -0.263,0.275 h -2.168 v 2.063 h 1.676 v -1.043 h 0.755 z m -0.755,-2.672 v -1.717 h -1.676 v 1.717 z"
   style="fill:#060000;fill-rule:nonzero"
   id="path1095" />
            <path
   d="m 42.615,198.559 h -1.107 c -0.438,0 -0.656,-0.22 -0.656,-0.662 v -4.353 h -0.686 v -0.686 h 0.686 v -1.775 h 0.767 v 1.775 h 0.996 v 0.686 h -0.996 v 4.33 h 0.996 z"
   style="fill:#060000;fill-rule:nonzero"
   id="path1097" />
        </g>
        <g
   transform="translate(-14.5121,-162.53)"
   id="g1113">
            <path
   d="m 24.803,197.897 c 0,0.442 -0.221,0.662 -0.662,0.662 h -1.957 c -0.438,0 -0.657,-0.22 -0.657,-0.662 v -4.377 c 0,-0.441 0.219,-0.662 0.657,-0.662 h 1.957 c 0.441,0 0.662,0.221 0.662,0.662 z m -0.78,-0.023 v -4.33 h -1.716 v 4.33 z"
   style="fill:#060000;fill-rule:nonzero"
   id="path1101" />
            <path
   d="m 28.23,190.075 h -1.101 v 2.783 h 0.973 v 0.686 h -0.973 v 5.015 h -0.768 v -5.015 h -0.662 v -0.686 h 0.662 v -2.807 c 0,-0.441 0.219,-0.662 0.657,-0.662 h 1.212 z"
   style="fill:#060000;fill-rule:nonzero"
   id="path1103" />
            <path
   d="m 31.084,190.075 h -1.102 v 2.783 h 0.973 v 0.686 h -0.973 v 5.015 h -0.767 v -5.015 h -0.662 v -0.686 h 0.662 v -2.807 c 0,-0.441 0.219,-0.662 0.656,-0.662 h 1.213 z"
   style="fill:#060000;fill-rule:nonzero"
   id="path1105" />
            <path
   d="m 34.852,197.897 c 0,0.442 -0.221,0.662 -0.663,0.662 h -1.787 c -0.441,0 -0.662,-0.22 -0.662,-0.662 v -1.295 h 0.768 v 1.283 h 1.576 v -1.136 l -2.039,-1.67 c -0.195,-0.156 -0.293,-0.36 -0.293,-0.61 v -0.949 c 0,-0.441 0.221,-0.662 0.662,-0.662 h 1.764 c 0.441,0 0.662,0.221 0.662,0.662 v 1.137 h -0.756 v -1.125 h -1.576 v 0.996 l 2.056,1.67 c 0.192,0.152 0.288,0.359 0.288,0.621 z"
   style="fill:#060000;fill-rule:nonzero"
   id="path1107" />
            <path
   d="m 39.275,197.897 c 0,0.442 -0.218,0.662 -0.656,0.662 h -1.875 c -0.437,0 -0.656,-0.22 -0.656,-0.662 v -4.377 c 0,-0.441 0.219,-0.662 0.656,-0.662 h 1.875 c 0.438,0 0.656,0.221 0.656,0.662 v 2.051 l -0.263,0.275 h -2.168 v 2.063 h 1.676 v -1.043 h 0.755 z m -0.755,-2.672 v -1.717 h -1.676 v 1.717 z"
   style="fill:#060000;fill-rule:nonzero"
   id="path1109" />
            <path
   d="m 42.615,198.559 h -1.107 c -0.438,0 -0.656,-0.22 -0.656,-0.662 v -4.353 h -0.686 v -0.686 h 0.686 v -1.775 h 0.767 v 1.775 h 0.996 v 0.686 h -0.996 v 4.33 h 0.996 z"
   style="fill:#060000;fill-rule:nonzero"
   id="path1111" />
        </g>
    </g>
</svg>
