<?xml version="1.0" encoding="UTF-8" standalone="no"?>
<!-- Created with Inkscape (http://www.inkscape.org/) -->

<svg
   width="15.24mm"
   height="128.5mm"
   viewBox="0 0 15.24 128.5"
   version="1.1"
   id="svg5"
   inkscape:version="1.2.2 (732a01da63, 2022-12-09)"
   sodipodi:docname="polycounter.svg"
   xml:space="preserve"
   xmlns:inkscape="http://www.inkscape.org/namespaces/inkscape"
   xmlns:sodipodi="http://sodipodi.sourceforge.net/DTD/sodipodi-0.dtd"
   xmlns="http://www.w3.org/2000/svg"
   xmlns:svg="http://www.w3.org/2000/svg"><sodipodi:namedview
     id="namedview7"
     pagecolor="#505050"
     bordercolor="#000000"
     borderopacity="1"
     inkscape:pageshadow="0"
     inkscape:pageopacity="0"
     inkscape:pagecheckerboard="0"
     inkscape:document-units="mm"
     showgrid="false"
     borderlayer="true"
     inkscape:zoom="1.2810466"
     inkscape:cx="-118.26268"
     inkscape:cy="251.35698"
     inkscape:current-layer="layer1"
     inkscape:showpageshadow="0"
     inkscape:deskcolor="#505050" /><defs
     id="defs2" /><g
     inkscape:label="panel"
     inkscape:groupmode="layer"
     id="layer1"><rect
       style="display:none;fill:#ffffff;stroke:#000000;stroke-width:0"
       id="rect864"
       width="39.035465"
       height="136.52086"
       x="-4.2777328"
       y="-4.0104294"
       inkscape:label="bg" /><g
       aria-label="×"
       id="text3112"
       style="font-size:35.2778px;line-height:1.25;font-family:'CaskaydiaCove NF';-inkscape-font-specification:'CaskaydiaCove NF';display:none;stroke-width:0.264583"><path
         d="m 21.105285,74.180496 h -0.465088 q -0.103353,-1.326362 -0.895726,-2.222088 l -7.475862,-8.578293 q -1.912029,0.964627 -1.912029,2.48047 0,1.171333 1.223009,3.014461 1.412491,2.101509 1.412491,3.341745 0,1.653647 -1.257461,1.653647 H 8.4790014 v -0.465089 q 1.0335294,-0.275607 1.0335294,-1.188558 0,-0.568441 -0.6545686,-2.256539 -0.6545686,-1.670873 -0.6545686,-2.583824 0,-2.773303 3.4106464,-4.719784 L 9.4953053,60.262301 q -1.3263627,-1.515843 -1.3263627,-3.152264 0,-1.481392 1.2057842,-2.790529 h 0.4478628 q 0.086127,1.498617 0.8957254,2.411568 l 6.476784,7.355284 q 0.499539,-2.480471 1.912029,-4.633657 -2.738853,-0.447862 -2.738853,-2.756078 0,-1.360814 0.706245,-2.377117 h 0.447863 q 0.275608,1.06798 1.326363,1.326362 l 1.481392,0.34451 q 1.94648,0.465088 1.94648,2.187637 0,0.757922 -0.155029,1.22301 -0.568441,0.172255 -1.877579,0.172255 -1.79145,2.82498 -1.79145,4.616431 0,1.326362 0.91295,2.377117 l 1.601971,1.843128 q 1.343588,1.533068 1.343588,3.16949 0,1.481392 -1.205784,2.601048 z"
         style="font-family:serif;-inkscape-font-specification:serif"
         id="path31112" /></g><g
       id="text3498"
       transform="matrix(0.35277774,0,0,0.35277774,-5.2846505e-4,2.8468836e-4)"
       style="fill:#1a1a1a;fill-opacity:1"><path
         id="path15128"
         d="m 26.956,347.987 h -0.422 a 3.344,3.344 0 0 0 -0.811,-2.014 L 18.949,338.2 a 2.584,2.584 0 0 0 -1.734,2.248 5.4,5.4 0 0 0 1.109,2.731 6.089,6.089 0 0 1 1.28,3.028 q 0,1.5 -1.14,1.5 h -2.95 v -0.422 a 1.072,1.072 0 0 0 0.937,-1.078 7.389,7.389 0 0 0 -0.593,-2.044 7.026,7.026 0 0 1 -0.594,-2.341 q 0,-2.514 3.091,-4.277 l -1.92,-2.17 a 4.308,4.308 0 0 1 -1.2,-2.857 3.689,3.689 0 0 1 1.093,-2.528 h 0.406 a 3.487,3.487 0 0 0 0.811,2.185 l 5.869,6.665 a 11.888,11.888 0 0 1 1.733,-4.2 q -2.481,-0.405 -2.482,-2.5 a 3.687,3.687 0 0 1 0.64,-2.154 h 0.406 a 1.549,1.549 0 0 0 1.2,1.2 l 1.342,0.313 a 1.952,1.952 0 0 1 1.765,1.982 3.588,3.588 0 0 1 -0.141,1.109 6.522,6.522 0 0 1 -1.7,0.156 8.5,8.5 0 0 0 -1.623,4.183 3.2,3.2 0 0 0 0.827,2.153 l 1.452,1.671 a 4.331,4.331 0 0 1 1.217,2.872 3.127,3.127 0 0 1 -1.094,2.362 z"
         transform="translate(-0.041)"
         style="fill:#1a1a1a;fill-opacity:1" /></g><rect
       style="fill:#1a1a1a;stroke-width:0.964999"
       id="rect440"
       width="11.772601"
       height="15.283727"
       x="1.7336993"
       y="97.691925"
       rx="3"
       ry="3" /><g
       aria-label="trigger"
       id="text469"
       style="font-size:4.9389px;line-height:1.25;font-family:'Agency FB';-inkscape-font-specification:'Agency FB';fill:#1a1a1a;stroke-width:0.264583"
       transform="translate(0.41307404,-19.345038)"><path
         d="M 3.2647002,44.405422 H 2.808913 q -0.2700961,0 -0.2700961,-0.272507 V 42.341116 H 2.256663 v -0.282154 h 0.2821539 v -0.730706 h 0.315916 v 0.730706 h 0.4099673 v 0.282154 H 2.8547329 v 1.782152 h 0.4099673 z"
         id="path563" /><path
         d="m 4.9021578,42.830666 h -0.315916 v -0.484727 l -0.5908352,0.01929 v 2.04019 H 3.6746675 v -2.34646 h 0.3207391 v 0.06511 q 0.1591638,-0.02412 0.3207391,-0.05064 0.1929258,-0.02894 0.3207391,-0.02894 0.265273,0 0.265273,0.262861 z"
         id="path565" /><path
         d="M 5.6497452,41.545298 H 5.3241829 v -0.405145 h 0.3255623 z m -0.00482,2.860124 H 5.3290061 v -2.34646 H 5.644922 Z"
         id="path567" /><path
         d="m 7.5235369,45.022785 q 0,0.272507 -0.2725076,0.272507 H 6.4889724 q -0.2773308,0 -0.2773308,-0.344854 0,-0.041 0.00241,-0.122991 0.00482,-0.07958 0.00482,-0.115755 h 0.315916 v 0.311093 H 7.2052094 V 44.405422 H 6.6770751 q -0.21463,0 -0.3569127,-0.142283 -0.1422828,-0.144694 -0.1422828,-0.361735 v -1.372185 q 0,-0.207395 0.1254018,-0.344855 0.1254017,-0.139871 0.3303854,-0.139871 0.055466,0 0.5715426,0.07958 v -0.06511 H 7.5235369 Z M 7.2052094,44.123268 v -1.772505 q -0.3810284,-0.02412 -0.4437293,-0.02412 -0.2652729,0 -0.2652729,0.270096 v 1.256429 q 0,0.270096 0.2652729,0.270096 z"
         id="path569" /><path
         d="m 9.3852709,45.022785 q 0,0.272507 -0.2725077,0.272507 H 8.3507064 q -0.2773309,0 -0.2773309,-0.344854 0,-0.041 0.00241,-0.122991 0.00482,-0.07958 0.00482,-0.115755 h 0.3159159 v 0.311093 H 9.0669433 V 44.405422 H 8.538809 q -0.2146299,0 -0.3569127,-0.142283 -0.1422828,-0.144694 -0.1422828,-0.361735 v -1.372185 q 0,-0.207395 0.1254018,-0.344855 0.1254017,-0.139871 0.3303854,-0.139871 0.055466,0 0.5715426,0.07958 v -0.06511 H 9.3852709 Z M 9.0669433,44.123268 v -1.772505 q -0.3810284,-0.02412 -0.4437293,-0.02412 -0.2652729,0 -0.2652729,0.270096 v 1.256429 q 0,0.270096 0.2652729,0.270096 z"
         id="path571" /><path
         d="m 11.2253,44.132915 q 0,0.272507 -0.270096,0.272507 h -0.771703 q -0.2700962,0 -0.2700962,-0.272507 V 42.33147 q 0,-0.272508 0.2700962,-0.272508 h 0.771703 q 0.270096,0 0.270096,0.272508 v 0.84405 l -0.108521,0.113344 h -0.892281 v 0.848874 h 0.689709 v -0.42926 H 11.2253 Z m -0.311093,-1.099677 v -0.706591 h -0.689709 v 0.706591 z"
         id="path573" /><path
         d="m 12.983337,42.830666 h -0.315916 v -0.484727 l -0.590836,0.01929 v 2.04019 h -0.320739 v -2.34646 h 0.320739 v 0.06511 q 0.159164,-0.02412 0.32074,-0.05064 0.192925,-0.02894 0.320739,-0.02894 0.265273,0 0.265273,0.262861 z"
         id="path575" /></g><g
       aria-label="reset"
       id="text523"
       style="font-size:4.9389px;line-height:1.25;font-family:'Agency FB';-inkscape-font-specification:'Agency FB';fill:#1a1a1a;stroke-width:0.264583"
       transform="translate(-4.3311618e-7,-19.549162)"><path
         d="M 4.8792481,58.320927 H 4.5633322 v -0.484726 l -0.5908352,0.01929 v 2.04019 H 3.6517578 v -2.34646 H 3.972497 v 0.06511 q 0.1591637,-0.02412 0.3207391,-0.05064 0.1929257,-0.02894 0.3207391,-0.02894 0.2652729,0 0.2652729,0.262861 z"
         id="path578" /><path
         d="m 6.5986992,59.623176 q 0,0.272507 -0.2700961,0.272507 H 5.5568999 q -0.2700961,0 -0.2700961,-0.272507 v -1.801445 q 0,-0.272508 0.2700961,-0.272508 h 0.7717032 q 0.2700961,0 0.2700961,0.272508 v 0.84405 L 6.4901784,58.779125 H 5.5978967 v 0.848874 h 0.6897096 v -0.42926 H 6.5986992 Z M 6.2876063,58.523499 V 57.816908 H 5.5978967 v 0.706591 z"
         id="path580" /><path
         d="m 8.3929088,59.623176 q 0,0.272507 -0.2725077,0.272507 H 7.3848716 q -0.2725077,0 -0.2725077,-0.272507 v -0.532958 h 0.315916 v 0.528134 H 8.0769928 V 59.150507 L 7.2377657,58.463209 Q 7.1171871,58.366746 7.1171871,58.212406 v -0.390675 q 0,-0.272508 0.2725076,-0.272508 H 8.115578 q 0.2725077,0 0.2725077,0.272508 v 0.467845 H 8.0769928 V 57.826554 H 7.4282799 v 0.409968 l 0.8464619,0.687298 q 0.118167,0.09405 0.118167,0.255626 z"
         id="path582" /><path
         d="m 10.213646,59.623176 q 0,0.272507 -0.2700961,0.272507 H 9.1718468 q -0.2700961,0 -0.2700961,-0.272507 v -1.801445 q 0,-0.272508 0.2700961,-0.272508 h 0.7717031 q 0.2700961,0 0.2700961,0.272508 v 0.84405 l -0.108521,0.113344 H 9.2128435 v 0.848874 h 0.6897097 v -0.42926 H 10.213646 Z M 9.9025532,58.523499 V 57.816908 H 9.2128435 v 0.706591 z"
         id="path584" /><path
         d="m 11.588242,59.895683 h -0.455787 q -0.270096,0 -0.270096,-0.272507 v -1.791799 h -0.282154 v -0.282154 h 0.282154 v -0.730706 h 0.315916 v 0.730706 h 0.409967 v 0.282154 h -0.409967 v 1.782152 h 0.409967 z"
         id="path586" /></g><g
       aria-label="output"
       id="text527"
       style="font-size:4.9389px;line-height:1.25;font-family:'Agency FB';-inkscape-font-specification:'Agency FB';fill:#e6e6e6;stroke-width:0.264583"
       transform="translate(0,25.817106)"><path
         d="m 4.185921,76.765731 q 0,0.272508 -0.2725076,0.272508 H 3.1079482 q -0.2700961,0 -0.2700961,-0.272508 v -1.801445 q 0,-0.272507 0.2700961,-0.272507 h 0.8054652 q 0.2725076,0 0.2725076,0.272507 z m -0.3207391,-0.0096 V 74.973933 H 3.1585912 v 1.782152 z"
         id="path589"
         style="fill:#e6e6e6" /><path
         d="M 6.052478,77.038239 H 5.736562 v -0.06511 q -0.1929258,0.02653 -0.38344,0.05064 -0.2315109,0.02894 -0.38344,0.02894 -0.2604498,0 -0.2604498,-0.26045 V 74.69178 h 0.315916 v 2.059482 l 0.7114138,-0.01929 v -2.04019 h 0.315916 z"
         id="path591"
         style="fill:#e6e6e6" /><path
         d="M 7.4198394,77.038239 H 6.9640522 q -0.2700961,0 -0.2700961,-0.272508 V 74.973933 H 6.4118022 v -0.282154 h 0.2821539 v -0.730707 h 0.315916 v 0.730707 h 0.4099673 v 0.282154 H 7.0098721 v 1.782152 h 0.4099673 z"
         id="path593"
         style="fill:#e6e6e6" /><path
         d="m 9.1778758,76.53422 q 0,0.217041 -0.1422827,0.361736 -0.1422828,0.142283 -0.3569127,0.142283 H 8.150546 v 0.88987 H 7.8298069 v -3.23633 H 8.150546 v 0.06511 q 0.1905142,-0.02412 0.3810285,-0.04823 0.2411572,-0.03135 0.3786168,-0.03135 0.2676845,0 0.2676845,0.262862 z M 8.8571367,76.48599 v -1.507232 l -0.7065907,0.01929 v 1.758037 h 0.4437293 q 0.2628614,0 0.2628614,-0.270097 z"
         id="path595"
         style="fill:#e6e6e6" /><path
         d="M 11.034786,77.038239 H 10.71887 v -0.06511 q -0.192926,0.02653 -0.38344,0.05064 -0.231511,0.02894 -0.3834398,0.02894 -0.2604498,0 -0.2604498,-0.26045 V 74.69178 h 0.3159156 v 2.059482 l 0.711414,-0.01929 v -2.04019 h 0.315916 z"
         id="path597"
         style="fill:#e6e6e6" /><path
         d="m 12.402148,77.038239 h -0.455787 q -0.270096,0 -0.270096,-0.272508 v -1.791798 h -0.282154 v -0.282154 h 0.282154 v -0.730707 h 0.315915 v 0.730707 h 0.409968 v 0.282154 H 11.99218 v 1.782152 h 0.409968 z"
         id="path599"
         style="fill:#e6e6e6" /></g><g
       aria-label="start"
       id="text447"
       style="font-size:4.9389px;line-height:1.25;font-family:'Agency FB';-inkscape-font-specification:'Agency FB';fill:#1a1a1a;stroke-width:0.264583"
       transform="translate(-1.5742206e-7,29.947843)"><path
         d="m 5.4507255,25.131524 q 0,0.272508 -0.2725076,0.272508 H 4.4426883 q -0.2725076,0 -0.2725076,-0.272508 v -0.532957 h 0.3159159 v 0.528134 h 0.648713 V 24.658856 L 4.2955824,23.971558 Q 4.1750038,23.875095 4.1750038,23.720754 V 23.33008 q 0,-0.272508 0.2725077,-0.272508 h 0.7258832 q 0.2725077,0 0.2725077,0.272508 v 0.467845 H 5.1348096 v -0.463022 h -0.648713 v 0.409967 l 0.8464619,0.687298 q 0.118167,0.09405 0.118167,0.255627 z"
         id="path530" /><path
         d="M 6.8036176,25.404032 H 6.3478304 q -0.270096,0 -0.270096,-0.272508 v -1.791798 h -0.282154 v -0.282154 h 0.282154 v -0.730706 h 0.3159159 v 0.730706 h 0.4099673 v 0.282154 H 6.3936503 v 1.782152 h 0.4099673 z"
         id="path532" /><path
         d="M 8.5399495,25.404032 H 8.2240336 v -0.06511 q -0.1905142,0.02653 -0.3810285,0.05064 -0.236334,0.02894 -0.3786168,0.02894 -0.2628614,0 -0.2628614,-0.26045 v -0.856108 q 0,-0.270096 0.2725077,-0.270096 H 8.2288567 V 23.325256 H 7.539147 v 0.400321 H 7.2280542 V 23.33008 q 0,-0.272508 0.2700961,-0.272508 h 0.7717031 q 0.2700961,0 0.2700961,0.272508 z m -0.3110928,-0.2918 v -0.829581 h -0.716237 v 0.84405 z"
         id="path534" /><path
         d="M 10.293163,23.829275 H 9.9772466 v -0.484726 l -0.5908352,0.01929 v 2.04019 H 9.0656723 v -2.34646 h 0.3207391 v 0.06511 q 0.1591638,-0.02411 0.3207391,-0.05064 0.1929258,-0.02894 0.3207395,-0.02894 0.265273,0 0.265273,0.262861 z"
         id="path536" /><path
         d="m 11.544769,25.404032 h -0.455788 q -0.270096,0 -0.270096,-0.272508 v -1.791798 h -0.282154 v -0.282154 h 0.282154 v -0.730706 h 0.315916 v 0.730706 h 0.409968 v 0.282154 h -0.409968 v 1.782152 h 0.409968 z"
         id="path538" /></g><g
       aria-label="end"
       id="text451"
       style="font-size:4.9389px;line-height:1.25;font-family:'Agency FB';-inkscape-font-specification:'Agency FB';fill:#1a1a1a;stroke-width:0.264583"
       transform="translate(-1.5742206e-7,31.393601)"><path
         d="m 6.1185675,38.969493 q 0,0.272508 -0.2700961,0.272508 H 5.0767683 q -0.2700961,0 -0.2700961,-0.272508 v -1.801445 q 0,-0.272507 0.2700961,-0.272507 h 0.7717031 q 0.2700961,0 0.2700961,0.272507 v 0.844051 L 6.0100468,38.125443 H 5.117765 v 0.848873 h 0.6897097 v -0.42926 H 6.1185675 Z M 5.8074747,37.869816 V 37.163225 H 5.117765 v 0.706591 z"
         id="path541" /><path
         d="M 7.9971823,39.242001 H 7.6764432 v -2.059483 l -0.7065907,0.01929 v 2.040191 H 6.6491134 v -2.34646 h 0.3207391 v 0.06511 q 0.1881027,-0.02412 0.3786169,-0.05064 0.2315109,-0.02894 0.3810284,-0.02894 0.2676845,0 0.2676845,0.262862 z"
         id="path543" /><path
         d="M 9.8492699,39.242001 H 9.5309423 v -0.06511 q -0.5160764,0.07958 -0.5715426,0.07958 -0.2049836,0 -0.3303854,-0.13746 Q 8.5036126,38.97914 8.5036126,38.771745 V 37.39956 q 0,-0.217041 0.1422827,-0.359324 0.1422828,-0.144694 0.3569127,-0.144694 H 9.5309423 V 35.46789 H 9.8492699 Z M 9.5309423,38.9502 V 37.177695 H 9.0872131 q -0.265273,0 -0.265273,0.272507 v 1.254018 q 0,0.270096 0.265273,0.270096 0.062701,0 0.4437292,-0.02412 z"
         id="path545" /></g><g
       aria-label="poly counter"
       id="text441"
       style="font-size:4.9389px;line-height:1.05;font-family:'Agency FB';-inkscape-font-specification:'Agency FB';text-align:center;text-anchor:middle;fill:#1a1a1a;stroke-width:0.264583"><path
         d="m 6.0078639,10.442435 q 0,0.217042 -0.1422828,0.361736 -0.1422827,0.142283 -0.3569127,0.142283 H 4.9805341 v 0.88987 H 4.659795 V 8.5999942 h 0.3207391 v 0.065113 q 0.1905142,-0.024116 0.3810284,-0.048231 0.2411572,-0.03135 0.3786169,-0.03135 0.2676845,0 0.2676845,0.2628614 z M 5.6871248,10.394204 V 8.8869713 L 4.9805341,8.9062639 V 10.6643 h 0.4437293 q 0.2628614,0 0.2628614,-0.270096 z"
         id="path507" /><path
         d="m 7.8695977,10.673946 q 0,0.272508 -0.2725077,0.272508 H 6.7916249 q -0.2700961,0 -0.2700961,-0.272508 V 8.8725019 q 0,-0.2725077 0.2700961,-0.2725077 H 7.59709 q 0.2725077,0 0.2725077,0.2725077 z M 7.5488586,10.6643 V 8.8821482 H 6.8422679 V 10.6643 Z"
         id="path509" /><path
         d="M 8.7281173,10.946454 H 8.4122013 V 7.1723435 h 0.315916 z"
         id="path511" /><path
         d="M 10.594674,8.5999942 10.030366,10.927161 9.7964437,11.836324 H 9.4805277 L 9.7168618,10.927161 9.1380845,8.5999942 h 0.3303854 l 0.400321,1.8472648 0.4051441,-1.8472648 z"
         id="path513" /><path
         d="m 3.0464531,15.859791 q 0,0.272508 -0.270096,0.272508 H 2.0143002 q -0.2700961,0 -0.2700961,-0.272508 v -1.801444 q 0,-0.272508 0.2700961,-0.272508 h 0.7620569 q 0.270096,0 0.270096,0.272508 v 0.467845 H 2.7305372 v -0.458199 h -0.665594 v 1.782152 h 0.665594 v -0.523311 h 0.3159159 z"
         id="path515" /><path
         d="m 4.9154216,15.859791 q 0,0.272508 -0.2725076,0.272508 H 3.8374488 q -0.2700961,0 -0.2700961,-0.272508 v -1.801444 q 0,-0.272508 0.2700961,-0.272508 H 4.642914 q 0.2725076,0 0.2725076,0.272508 z m -0.3207391,-0.0096 V 14.067993 H 3.8880918 v 1.782152 z"
         id="path517" /><path
         d="m 6.7819785,16.132299 h -0.315916 v -0.06511 q -0.1929258,0.02653 -0.38344,0.05064 -0.2315109,0.02894 -0.38344,0.02894 -0.2604498,0 -0.2604498,-0.26045 v -2.100479 h 0.315916 v 2.059483 l 0.7114138,-0.01929 v -2.04019 h 0.315916 z"
         id="path519" /><path
         d="M 8.6533587,16.132299 H 8.3326196 v -2.059483 l -0.7065907,0.01929 v 2.04019 H 7.3052898 v -2.34646 h 0.3207391 v 0.06511 q 0.1881027,-0.02412 0.3786169,-0.05064 0.2315109,-0.02894 0.3810284,-0.02894 0.2676845,0 0.2676845,0.262861 z"
         id="path521" /><path
         d="M 10.015897,16.132299 H 9.5601096 q -0.2700961,0 -0.2700961,-0.272508 V 14.067993 H 9.0078596 v -0.282154 h 0.2821539 v -0.730706 h 0.315916 v 0.730706 h 0.4099675 v 0.282154 H 9.6059295 v 1.782152 h 0.4099675 z"
         id="path523" /><path
         d="m 11.737759,15.859791 q 0,0.272508 -0.270096,0.272508 H 10.69596 q -0.270096,0 -0.270096,-0.272508 v -1.801444 q 0,-0.272508 0.270096,-0.272508 h 0.771703 q 0.270096,0 0.270096,0.272508 v 0.84405 l -0.108521,0.113344 h -0.892281 v 0.848873 h 0.689709 v -0.42926 h 0.311093 z m -0.311093,-1.099677 v -0.70659 h -0.689709 v 0.70659 z"
         id="path525" /><path
         d="M 13.495796,14.557542 H 13.17988 v -0.484726 l -0.590836,0.01929 v 2.04019 h -0.320739 v -2.34646 h 0.320739 v 0.06511 q 0.159164,-0.02412 0.32074,-0.05064 0.192925,-0.02894 0.320739,-0.02894 0.265273,0 0.265273,0.262861 z"
         id="path527" /></g><g
       aria-label="inc"
       id="text455"
       style="font-size:4.9389px;line-height:1.25;font-family:'Agency FB';-inkscape-font-specification:'Agency FB';fill:#1a1a1a;stroke-width:0.264583"
       transform="translate(-1.5742206e-7,32.219748)"><path
         d="M 5.928282,50.013307 H 5.6027197 V 49.608163 H 5.928282 Z m -0.00482,2.860125 H 5.6075429 v -2.34646 h 0.3159159 z"
         id="path548" /><path
         d="M 7.8165431,52.873432 H 7.4958039 v -2.059483 l -0.7065906,0.01929 v 2.04019 H 6.4684742 v -2.34646 h 0.3207391 v 0.06511 q 0.1881026,-0.02412 0.3786168,-0.05064 0.2315109,-0.02894 0.3810284,-0.02894 0.2676846,0 0.2676846,0.262861 z"
         id="path550" /><path
         d="m 9.6372802,52.600924 q 0,0.272508 -0.2700961,0.272508 H 8.6051273 q -0.2700961,0 -0.2700961,-0.272508 V 50.79948 q 0,-0.272508 0.2700961,-0.272508 h 0.7620568 q 0.2700961,0 0.2700961,0.272508 v 0.467845 H 9.3213642 V 50.809126 H 8.6557703 v 1.782152 h 0.6655939 v -0.523311 h 0.315916 z"
         id="path552" /></g></g><g
     inkscape:groupmode="layer"
     id="layer2"
     inkscape:label="components"
     style="display:none" /></svg>
