<?xml version="1.0" encoding="UTF-8" standalone="no"?>
<!-- Created with Inkscape (http://www.inkscape.org/) -->

<svg
   width="20.32mm"
   height="128.5mm"
   viewBox="0 0 20.32 128.5"
   version="1.1"
   id="svg5"
   inkscape:version="1.2.1 (9c6d41e410, 2022-07-14)"
   sodipodi:docname="polyplay.svg"
   xmlns:inkscape="http://www.inkscape.org/namespaces/inkscape"
   xmlns:sodipodi="http://sodipodi.sourceforge.net/DTD/sodipodi-0.dtd"
   xmlns="http://www.w3.org/2000/svg"
   xmlns:svg="http://www.w3.org/2000/svg">
  <sodipodi:namedview
     id="namedview7"
     pagecolor="#505050"
     bordercolor="#000000"
     borderopacity="1"
     inkscape:showpageshadow="0"
     inkscape:pageopacity="0"
     inkscape:pagecheckerboard="0"
     inkscape:deskcolor="#505050"
     inkscape:document-units="mm"
     showgrid="false"
     inkscape:zoom="1.2550228"
     inkscape:cx="-115.53575"
     inkscape:cy="240.63308"
     inkscape:current-layer="layer1" />
  <defs
     id="defs2" />
  <g
     inkscape:label="Layer 1"
     inkscape:groupmode="layer"
     id="layer1">
    <rect
       style="display:none;fill:#ffffff;stroke-width:0.695871"
       id="rect231"
       width="21.92523"
       height="130.28647"
       x="-0.76195335"
       y="-0.89323425" />
    <g
       aria-label="out"
       id="text543"
       style="font-size:6.35px;line-height:1.25;font-family:'Agency FB';-inkscape-font-specification:'Agency FB';stroke-width:0.264583;fill:#1a1a1a;fill-opacity:1"
       transform="translate(0,-0.84327817)">
      <path
         d="m 8.9476705,87.561377 q 0,0.350366 -0.3503662,0.350366 H 7.5617086 q -0.3472656,0 -0.3472656,-0.350366 v -2.316138 q 0,-0.350366 0.3472656,-0.350366 h 1.0355957 q 0.3503662,0 0.3503662,0.350366 z m -0.4123779,-0.0124 V 85.257642 H 7.6268209 v 2.291333 z"
         id="path575"
         style="fill:#1a1a1a;fill-opacity:1" />
      <path
         d="m 11.347524,87.911743 h -0.406177 v -0.08372 q -0.248047,0.03411 -0.492993,0.06511 -0.297656,0.03721 -0.492993,0.03721 -0.3348633,0 -0.3348633,-0.334864 v -2.70061 h 0.4061763 v 2.6479 l 0.914673,-0.0248 v -2.623096 h 0.406177 z"
         id="path577"
         style="fill:#1a1a1a;fill-opacity:1" />
      <path
         d="m 13.105556,87.911743 h -0.58601 q -0.347266,0 -0.347266,-0.350366 v -2.303735 h -0.362769 v -0.362769 h 0.362769 v -0.939477 h 0.406177 v 0.939477 h 0.527099 v 0.362769 h -0.527099 v 2.291333 h 0.527099 z"
         id="path579"
         style="fill:#1a1a1a;fill-opacity:1" />
    </g>
    <g
       id="text3498"
       transform="matrix(0.35277774,0,0,0.35277774,2.5394715,2.8468836e-4)"
       style="fill:#1a1a1a;fill-opacity:1">
      <path
         id="path15128"
         d="m 26.956,347.987 h -0.422 a 3.344,3.344 0 0 0 -0.811,-2.014 L 18.949,338.2 a 2.584,2.584 0 0 0 -1.734,2.248 5.4,5.4 0 0 0 1.109,2.731 6.089,6.089 0 0 1 1.28,3.028 q 0,1.5 -1.14,1.5 h -2.95 v -0.422 a 1.072,1.072 0 0 0 0.937,-1.078 7.389,7.389 0 0 0 -0.593,-2.044 7.026,7.026 0 0 1 -0.594,-2.341 q 0,-2.514 3.091,-4.277 l -1.92,-2.17 a 4.308,4.308 0 0 1 -1.2,-2.857 3.689,3.689 0 0 1 1.093,-2.528 h 0.406 a 3.487,3.487 0 0 0 0.811,2.185 l 5.869,6.665 a 11.888,11.888 0 0 1 1.733,-4.2 q -2.481,-0.405 -2.482,-2.5 a 3.687,3.687 0 0 1 0.64,-2.154 h 0.406 a 1.549,1.549 0 0 0 1.2,1.2 l 1.342,0.313 a 1.952,1.952 0 0 1 1.765,1.982 3.588,3.588 0 0 1 -0.141,1.109 6.522,6.522 0 0 1 -1.7,0.156 8.5,8.5 0 0 0 -1.623,4.183 3.2,3.2 0 0 0 0.827,2.153 l 1.452,1.671 a 4.331,4.331 0 0 1 1.217,2.872 3.127,3.127 0 0 1 -1.094,2.362 z"
         transform="translate(-0.041)"
         style="fill:#1a1a1a;fill-opacity:1" />
    </g>
    <g
       aria-label="trigger"
       id="text542"
       style="font-size:5.64444px;line-height:0.95;font-family:'Agency FB';-inkscape-font-specification:'Agency FB';text-align:center;text-anchor:middle;stroke-width:0.264583;fill:#1a1a1a;fill-opacity:1"
       transform="translate(0,2.3190139)">
      <path
         d="M 5.1825301,41.484043 H 4.661632 q -0.3086803,0 -0.3086803,-0.311436 V 39.124844 H 4.030491 v -0.322461 h 0.3224607 v -0.835091 h 0.3610457 v 0.835091 h 0.4685327 v 0.322461 H 4.7139974 v 2.036738 h 0.4685327 z"
         id="path666"
         style="fill:#1a1a1a;fill-opacity:1" />
      <path
         d="M 7.0539045,39.684327 H 6.6928588 v -0.553971 l -0.6752382,0.02205 v 2.331639 H 5.6510627 v -2.68166 h 0.3665579 v 0.07441 q 0.1819009,-0.02756 0.3665579,-0.05788 0.2204859,-0.03307 0.3665579,-0.03307 0.3031681,0 0.3031681,0.300412 z"
         id="path668"
         style="fill:#1a1a1a;fill-opacity:1" />
      <path
         d="m 7.9082874,38.215339 h -0.37207 v -0.46302 h 0.37207 z m -0.00551,3.268704 H 7.5417296 v -2.68166 h 0.3610457 z"
         id="path670"
         style="fill:#1a1a1a;fill-opacity:1" />
      <path
         d="m 10.049757,42.189598 q 0,0.311437 -0.3114362,0.311437 H 8.8674013 q -0.3169485,0 -0.3169485,-0.394119 0,-0.04685 0.00276,-0.14056 0.00551,-0.09095 0.00551,-0.132291 h 0.3610457 v 0.355533 H 9.6859554 V 41.484043 H 9.0823751 q -0.2452906,0 -0.407899,-0.162608 Q 8.5118677,41.15607 8.5118677,40.908024 v -1.568207 q 0,-0.237022 0.1433159,-0.394118 0.1433159,-0.159853 0.3775822,-0.159853 0.06339,0 0.6531896,0.09095 v -0.07441 H 10.049757 Z M 9.6859554,41.161582 v -2.025714 q -0.4354598,-0.02756 -0.5071177,-0.02756 -0.3031682,0 -0.3031682,0.30868 v 1.435915 q 0,0.30868 0.3031682,0.30868 z"
         id="path672"
         style="fill:#1a1a1a;fill-opacity:1" />
      <path
         d="m 12.177447,42.189598 q 0,0.311437 -0.311437,0.311437 h -0.870919 q -0.316949,0 -0.316949,-0.394119 0,-0.04685 0.0028,-0.14056 0.0055,-0.09095 0.0055,-0.132291 h 0.361046 v 0.355533 h 0.766189 v -0.705555 h -0.603581 q -0.24529,0 -0.407899,-0.162608 -0.162608,-0.165365 -0.162608,-0.413411 v -1.568207 q 0,-0.237022 0.143316,-0.394118 0.143316,-0.159853 0.377582,-0.159853 0.06339,0 0.65319,0.09095 v -0.07441 h 0.363802 z m -0.363802,-1.028016 v -2.025714 q -0.43546,-0.02756 -0.507118,-0.02756 -0.303168,0 -0.303168,0.30868 v 1.435915 q 0,0.30868 0.303168,0.30868 z"
         id="path674"
         style="fill:#1a1a1a;fill-opacity:1" />
      <path
         d="m 14.280331,41.172607 q 0,0.311436 -0.30868,0.311436 h -0.881944 q -0.30868,0 -0.30868,-0.311436 v -2.058788 q 0,-0.311436 0.30868,-0.311436 h 0.881944 q 0.30868,0 0.30868,0.311436 v 0.964626 l -0.124023,0.129536 H 13.13656 v 0.970138 h 0.788238 v -0.490581 h 0.355533 z m -0.355533,-1.25677 v -0.80753 H 13.13656 v 0.80753 z"
         id="path676"
         style="fill:#1a1a1a;fill-opacity:1" />
      <path
         d="m 16.289509,39.684327 h -0.361046 v -0.553971 l -0.675238,0.02205 v 2.331639 h -0.366558 v -2.68166 h 0.366558 v 0.07441 q 0.181901,-0.02756 0.366558,-0.05788 0.220486,-0.03307 0.366558,-0.03307 0.303168,0 0.303168,0.300412 z"
         id="path678"
         style="fill:#1a1a1a;fill-opacity:1" />
    </g>
    <g
       aria-label="channels"
       id="text374"
       style="font-size:5.64444px;line-height:1.25;font-family:'Agency FB';-inkscape-font-specification:'Agency FB';stroke-width:0.264583;fill:#1a1a1a;fill-opacity:1"
       transform="translate(0,-7.378684)">
      <path
         d="m 4.0704536,33.208869 q 0,0.311437 -0.3086803,0.311437 H 2.8908538 q -0.3086803,0 -0.3086803,-0.311437 v -2.058787 q 0,-0.311437 0.3086803,-0.311437 h 0.8709195 q 0.3086803,0 0.3086803,0.311437 V 31.68476 H 3.7094079 V 31.161106 H 2.9487314 v 2.036739 h 0.7606765 v -0.598068 h 0.3610457 z"
         id="path376"
         style="fill:#1a1a1a;fill-opacity:1" />
      <path
         d="M 6.2064112,33.520306 H 5.8398533 v -2.353688 l -0.8075297,0.02205 v 2.331639 H 4.6657657 V 29.20705 h 0.3665579 v 1.70601 q 0.2177298,-0.02756 0.4354597,-0.05512 0.2756074,-0.03583 0.4327037,-0.03583 0.3059242,0 0.3059242,0.300412 z"
         id="path378"
         style="fill:#1a1a1a;fill-opacity:1" />
      <path
         d="M 8.3148084,33.520306 H 7.9537627 v -0.07441 q -0.2177299,0.03032 -0.4354598,0.05788 -0.2700953,0.03307 -0.4327037,0.03307 -0.3004121,0 -0.3004121,-0.297656 v -0.97841 q 0,-0.308681 0.3114364,-0.308681 H 7.9592748 V 31.14457 H 7.1710376 v 0.457508 H 6.815504 v -0.451996 q 0,-0.311437 0.3086803,-0.311437 h 0.8819438 q 0.3086803,0 0.3086803,0.311437 z M 7.9592748,33.186821 v -0.94809 H 7.1407207 v 0.964626 z"
         id="path380"
         style="fill:#1a1a1a;fill-opacity:1" />
      <path
         d="M 10.456278,33.520306 H 10.08972 v -2.353688 l -0.8075297,0.02205 v 2.331639 H 8.9156324 v -2.681661 h 0.3665579 v 0.07441 q 0.2149738,-0.02756 0.4327037,-0.05788 0.2645831,-0.03307 0.43546,-0.03307 0.305924,0 0.305924,0.300412 z"
         id="path382"
         style="fill:#1a1a1a;fill-opacity:1" />
      <path
         d="m 12.58948,33.520306 h -0.366558 v -2.353688 l -0.80753,0.02205 v 2.331639 h -0.366558 v -2.681661 h 0.366558 v 0.07441 q 0.214974,-0.02756 0.432704,-0.05788 0.264583,-0.03307 0.435459,-0.03307 0.305925,0 0.305925,0.300412 z"
         id="path384"
         style="fill:#1a1a1a;fill-opacity:1" />
      <path
         d="m 14.68134,33.208869 q 0,0.311437 -0.30868,0.311437 h -0.881944 q -0.30868,0 -0.30868,-0.311437 v -2.058787 q 0,-0.311437 0.30868,-0.311437 h 0.881944 q 0.30868,0 0.30868,0.311437 v 0.964626 l -0.124023,0.129535 h -1.019748 v 0.970138 h 0.788237 V 32.7238 h 0.355534 z m -0.355534,-1.25677 V 31.14457 h -0.788237 v 0.807529 z"
         id="path386"
         style="fill:#1a1a1a;fill-opacity:1" />
      <path
         d="M 15.67077,33.520306 H 15.309725 V 29.207049 H 15.67077 Z"
         id="path388"
         style="fill:#1a1a1a;fill-opacity:1" />
      <path
         d="m 17.737826,33.208869 q 0,0.311437 -0.311436,0.311437 h -0.840603 q -0.311436,0 -0.311436,-0.311437 v -0.609092 h 0.361045 v 0.60358 h 0.741384 v -0.534678 l -0.959113,-0.785482 q -0.137804,-0.110242 -0.137804,-0.286631 v -0.446484 q 0,-0.311437 0.311436,-0.311437 h 0.829579 q 0.311436,0 0.311436,0.311437 V 31.68476 H 17.37678 v -0.529166 h -0.741384 v 0.468533 l 0.967382,0.785481 q 0.135048,0.107487 0.135048,0.292144 z"
         id="path390"
         style="fill:#1a1a1a;fill-opacity:1" />
    </g>
    <g
       aria-label="polyplay"
       id="text383"
       style="font-size:6.35px;line-height:1.25;font-family:'Agency FB';-inkscape-font-specification:'Agency FB';stroke-width:0.264583;fill:#1a1a1a;fill-opacity:1">
      <path
         d="m 4.0223903,14.694394 q 0,0.279053 -0.1829346,0.465088 -0.1829345,0.182935 -0.4588867,0.182935 H 2.7015407 v 1.144116 H 2.2891628 v -4.160986 h 0.4123779 v 0.08372 q 0.2449463,-0.03101 0.4898926,-0.06201 0.3100586,-0.04031 0.486792,-0.04031 0.344165,0 0.344165,0.337964 z m -0.4123779,-0.06201 v -1.937867 l -0.9084717,0.02481 v 2.260327 h 0.5705078 q 0.3379639,0 0.3379639,-0.347265 z"
         id="path618"
         style="fill:#1a1a1a;fill-opacity:1" />
      <path
         d="m 6.4160425,14.992051 q 0,0.350366 -0.3503662,0.350366 H 5.0300806 q -0.3472656,0 -0.3472656,-0.350366 v -2.316138 q 0,-0.350366 0.3472656,-0.350366 h 1.0355957 q 0.3503662,0 0.3503662,0.350366 z m -0.4123779,-0.0124 V 12.688315 H 5.0951929 v 2.291333 z"
         id="path620"
         style="fill:#1a1a1a;fill-opacity:1" />
      <path
         d="M 7.5198512,15.342417 H 7.1136744 V 10.49 h 0.4061768 z"
         id="path622"
         style="fill:#1a1a1a;fill-opacity:1" />
      <path
         d="M 9.9197047,12.325547 9.1941676,15.317612 8.8934107,16.486533 H 8.487234 L 8.7910914,15.317612 8.0469508,12.325547 h 0.4247803 l 0.5146972,2.375048 0.5208984,-2.375048 z"
         id="path624"
         style="fill:#1a1a1a;fill-opacity:1" />
      <path
         d="m 12.158328,14.694394 q 0,0.279053 -0.182935,0.465088 -0.182934,0.182935 -0.458886,0.182935 h -0.679029 v 1.144116 H 10.4251 v -4.160986 h 0.412378 v 0.08372 q 0.244947,-0.03101 0.489893,-0.06201 0.310059,-0.04031 0.486792,-0.04031 0.344165,0 0.344165,0.337964 z m -0.412378,-0.06201 v -1.937867 l -0.908472,0.02481 v 2.260327 h 0.570508 q 0.337964,0 0.337964,-0.347265 z"
         id="path626"
         style="fill:#1a1a1a;fill-opacity:1" />
      <path
         d="M 13.249734,15.342417 H 12.843557 V 10.49 h 0.406177 z"
         id="path628"
         style="fill:#1a1a1a;fill-opacity:1" />
      <path
         d="m 15.655789,15.342417 h -0.406177 v -0.08372 q -0.244946,0.03411 -0.489893,0.06511 -0.303857,0.03721 -0.486792,0.03721 -0.337964,0 -0.337964,-0.334863 v -1.100708 q 0,-0.347266 0.350367,-0.347266 h 0.970483 v -0.908471 h -0.886768 v 0.514697 H 13.96907 v -0.508496 q 0,-0.350366 0.347265,-0.350366 h 0.992188 q 0.347266,0 0.347266,0.350366 z m -0.399976,-0.375171 v -1.066602 h -0.920874 v 1.085205 z"
         id="path630"
         style="fill:#1a1a1a;fill-opacity:1" />
      <path
         d="m 18.030837,12.325547 -0.725537,2.992065 -0.300757,1.168921 h -0.406177 l 0.303858,-1.168921 -0.744141,-2.992065 h 0.42478 l 0.514697,2.375048 0.520899,-2.375048 z"
         id="path632"
         style="fill:#1a1a1a;fill-opacity:1" />
    </g>
    <rect
       style="fill:#1a1a1a;stroke-width:0.964999;fill-opacity:1"
       id="rect539"
       width="13.492451"
       height="24.244246"
       x="3.4137745"
       y="89.809128"
       rx="3"
       ry="3" />
    <g
       aria-label="phase"
       id="text272"
       style="font-size:5.64444px;line-height:1.25;font-family:'Agency FB';-inkscape-font-specification:'Agency FB';stroke-width:0.264583;fill:#1a1a1a;fill-opacity:1"
       transform="translate(0,1.0540977)">
      <path
         d="m 6.7493542,65.199676 q 0,0.248047 -0.1626084,0.413411 -0.1626083,0.162609 -0.407899,0.162609 H 5.5752666 v 1.016991 H 5.2087087 v -3.698651 h 0.3665579 v 0.07441 q 0.2177298,-0.02756 0.4354597,-0.05512 0.2756074,-0.03583 0.4327037,-0.03583 0.3059242,0 0.3059242,0.300412 z m -0.3665579,-0.05512 v -1.722547 l -0.8075297,0.02205 v 2.009178 h 0.5071176 q 0.3004121,0 0.3004121,-0.30868 z"
         id="path436"
         style="fill:#1a1a1a;fill-opacity:1" />
      <path
         d="M 8.8770436,65.775696 H 8.5104857 v -2.353688 l -0.8075298,0.02205 v 2.331639 H 7.336398 V 61.46244 h 0.3665579 v 1.70601 q 0.2177299,-0.02756 0.4354598,-0.05512 0.2756074,-0.03583 0.4327036,-0.03583 0.3059243,0 0.3059243,0.300412 z"
         id="path438"
         style="fill:#1a1a1a;fill-opacity:1" />
      <path
         d="m 10.985441,65.775696 h -0.361046 v -0.07441 q -0.21773,0.03032 -0.43546,0.05788 -0.2700952,0.03307 -0.4327036,0.03307 -0.3004121,0 -0.3004121,-0.297656 v -0.97841 q 0,-0.30868 0.3114364,-0.30868 H 10.629907 V 63.39996 H 9.8416697 v 0.457508 H 9.4861361 v -0.451996 q 0,-0.311436 0.3086803,-0.311436 H 10.67676 q 0.308681,0 0.308681,0.311436 z m -0.355534,-0.333485 v -0.94809 H 9.8113529 v 0.964626 z"
         id="path440"
         style="fill:#1a1a1a;fill-opacity:1" />
      <path
         d="m 13.030447,65.464259 q 0,0.311437 -0.311436,0.311437 h -0.840603 q -0.311436,0 -0.311436,-0.311437 v -0.609092 h 0.361046 v 0.60358 h 0.741384 v -0.534678 l -0.959114,-0.785481 q -0.137804,-0.110243 -0.137804,-0.286632 v -0.446484 q 0,-0.311436 0.311437,-0.311436 h 0.829578 q 0.311436,0 0.311436,0.311436 v 0.534678 h -0.355533 v -0.529166 h -0.741384 v 0.468533 l 0.967382,0.785481 q 0.135047,0.107487 0.135047,0.292144 z"
         id="path442"
         style="fill:#1a1a1a;fill-opacity:1" />
      <path
         d="m 15.111284,65.464259 q 0,0.311437 -0.30868,0.311437 H 13.92066 q -0.308681,0 -0.308681,-0.311437 v -2.058787 q 0,-0.311436 0.308681,-0.311436 h 0.881944 q 0.30868,0 0.30868,0.311436 v 0.964626 l -0.124024,0.129535 h -1.019747 v 0.970139 H 14.75575 V 64.97919 h 0.355534 z M 14.75575,64.20749 v -0.80753 h -0.788237 v 0.80753 z"
         id="path444"
         style="fill:#1a1a1a;fill-opacity:1" />
    </g>
    <rect
       style="fill:#1a1a1a;stroke-width:0.719893;fill-opacity:1"
       id="rect382"
       width="13.492451"
       height="13.492449"
       x="3.4137745"
       y="68.72718"
       rx="3"
       ry="3" />
  </g>
  <g
     inkscape:groupmode="layer"
     id="layer2"
     inkscape:label="components" />
</svg>
