<?xml version="1.0" encoding="UTF-8" standalone="no"?>
<!-- Created with Inkscape (http://www.inkscape.org/) -->

<svg
   width="10.16mm"
   height="128.5mm"
   viewBox="0 0 10.16 128.5"
   version="1.1"
   id="svg5"
   inkscape:version="1.2.1 (9c6d41e410, 2022-07-14)"
   sodipodi:docname="polyrand.svg"
   xmlns:inkscape="http://www.inkscape.org/namespaces/inkscape"
   xmlns:sodipodi="http://sodipodi.sourceforge.net/DTD/sodipodi-0.dtd"
   xmlns="http://www.w3.org/2000/svg"
   xmlns:svg="http://www.w3.org/2000/svg">
  <sodipodi:namedview
     id="namedview7"
     pagecolor="#505050"
     bordercolor="#000000"
     borderopacity="1"
     inkscape:pageshadow="0"
     inkscape:pageopacity="0"
     inkscape:pagecheckerboard="0"
     inkscape:document-units="mm"
     showgrid="false"
     borderlayer="true"
     inkscape:zoom="1.2810466"
     inkscape:cx="-70.645361"
     inkscape:cy="233.40291"
     inkscape:current-layer="layer1"
     inkscape:showpageshadow="0"
     inkscape:deskcolor="#505050" />
  <defs
     id="defs2" />
  <g
     inkscape:label="panel"
     inkscape:groupmode="layer"
     id="layer1">
    <rect
       style="display:none;fill:#ffffff;stroke:none;stroke-width:0.964999"
       id="rect846"
       width="15.07719"
       height="133.21626"
       x="-2.4585953"
       y="-2.3581314"
       inkscape:label="bg" />
    <g
       aria-label="poly rand"
       id="text2742"
       style="font-size:5.64444px;line-height:0.95;font-family:'Agency FB';-inkscape-font-specification:'Agency FB';text-align:center;text-anchor:middle;stroke-width:0.264583;fill:#000000"
       transform="translate(0,5.7826346)">
      <path
         d="m 3.3064661,8.5116022 q 0,0.2480466 -0.1626084,0.4134111 Q 2.9812494,9.0876217 2.7359588,9.0876217 H 2.1323785 V 10.104613 H 1.7658206 V 6.4059614 h 0.3665579 v 0.074414 q 0.2177298,-0.027561 0.4354597,-0.055121 0.2756074,-0.035829 0.4327037,-0.035829 0.3059242,0 0.3059242,0.3004121 z M 2.9399082,8.4564807 V 6.7339342 L 2.1323785,6.7559828 V 8.765161 h 0.5071176 q 0.3004121,0 0.3004121,-0.3086803 z"
         id="path22860"
         style="fill:#000000" />
      <path
         d="m 5.4341555,8.7761853 q 0,0.3114364 -0.3114364,0.3114364 H 4.2021903 q -0.3086803,0 -0.3086803,-0.3114364 V 6.7173978 q 0,-0.3114364 0.3086803,-0.3114364 h 0.9205288 q 0.3114364,0 0.3114364,0.3114364 z M 5.0675976,8.765161 V 6.7284221 H 4.2600678 V 8.765161 Z"
         id="path22862"
         style="fill:#000000" />
      <path
         d="M 6.4153181,9.0876217 H 6.0542724 V 4.7743654 h 0.3610457 z"
         id="path22864"
         style="fill:#000000" />
      <path
         d="M 8.5485197,6.4059614 7.9035983,9.0655731 7.6362591,10.104613 H 7.2752133 L 7.5453086,9.0655731 6.8838508,6.4059614 H 7.261433 L 7.7189413,8.5171143 8.1819618,6.4059614 Z"
         id="path22866"
         style="fill:#000000" />
      <path
         d="M 2.6615447,12.650123 H 2.300499 v -0.553971 l -0.6752382,0.02205 V 14.44984 H 1.2587029 v -2.681661 h 0.3665579 v 0.07441 q 0.1819009,-0.02756 0.3665579,-0.05788 0.2204859,-0.03307 0.3665579,-0.03307 0.3031681,0 0.3031681,0.300412 z"
         id="path22868"
         style="fill:#000000" />
      <path
         d="M 4.6431622,14.44984 H 4.2821164 v -0.07441 q -0.2177298,0.03032 -0.4354597,0.05788 -0.2700953,0.03307 -0.4327037,0.03307 -0.3004121,0 -0.3004121,-0.297656 v -0.978406 q 0,-0.30868 0.3114364,-0.30868 h 0.8626513 v -0.80753 H 3.4993913 v 0.457508 H 3.1438577 V 12.07962 q 0,-0.311437 0.3086804,-0.311437 h 0.8819437 q 0.3086804,0 0.3086804,0.311437 z M 4.2876286,14.116355 v -0.94809 H 3.4690745 v 0.964626 z"
         id="path22870"
         style="fill:#000000" />
      <path
         d="M 6.7846318,14.44984 H 6.418074 v -2.353688 l -0.8075298,0.02205 V 14.44984 H 5.2439863 v -2.681661 h 0.3665579 v 0.07441 q 0.2149738,-0.02756 0.4327036,-0.05788 0.2645832,-0.03307 0.4354598,-0.03307 0.3059242,0 0.3059242,0.300412 z"
         id="path22872"
         style="fill:#000000" />
      <path
         d="M 8.901297,14.44984 H 8.5374952 v -0.07441 q -0.5897999,0.09095 -0.6531896,0.09095 -0.2342663,0 -0.3775822,-0.157096 -0.1433159,-0.159852 -0.1433159,-0.396875 v -1.568206 q 0,-0.248047 0.1626084,-0.410655 0.1626084,-0.165365 0.407899,-0.165365 H 8.5374952 V 10.136584 H 8.901297 Z M 8.5374952,14.116355 V 12.09064 H 8.0303775 q -0.3031682,0 -0.3031682,0.311437 v 1.433158 q 0,0.308681 0.3031682,0.308681 0.071658,0 0.5071177,-0.02756 z"
         id="path22874"
         style="fill:#000000" />
    </g>
    <g
       aria-label="trig"
       id="text10427"
       style="font-size:4.93889px;line-height:1.25;font-family:'Agency FB';-inkscape-font-specification:'Agency FB';stroke-width:0.264583">
      <path
         d="M 3.4546041,37.383171 H 2.9988178 q -0.2700955,0 -0.2700955,-0.272507 V 35.318869 H 2.4465689 v -0.282153 h 0.2821534 v -0.730705 h 0.3159153 v 0.730705 h 0.4099665 v 0.282153 H 3.0446376 v 1.782149 h 0.4099665 z"
         id="path22781" />
      <path
         d="M 5.0920584,35.808418 H 4.776143 v -0.484725 l -0.590834,0.01929 v 2.040186 H 3.8645706 V 35.036716 H 4.185309 v 0.06511 q 0.1591635,-0.02411 0.3207385,-0.05064 0.1929254,-0.02894 0.3207384,-0.02894 0.2652725,0 0.2652725,0.26286 z"
         id="path22783" />
      <path
         d="M 5.8396441,34.523052 H 5.5140825 v -0.405143 h 0.3255616 z m -0.00482,2.860119 H 5.5189057 V 35.036716 H 5.834821 Z"
         id="path22785" />
      <path
         d="m 7.7134322,38.000532 q 0,0.272507 -0.2725071,0.272507 H 6.6788698 q -0.2773303,0 -0.2773303,-0.344854 0,-0.041 0.00241,-0.12299 0.00482,-0.07958 0.00482,-0.115755 h 0.3159154 v 0.311092 H 7.3951053 V 37.383171 H 6.866972 q -0.2146295,0 -0.3569119,-0.142282 -0.1422825,-0.144694 -0.1422825,-0.361735 v -1.372182 q 0,-0.207395 0.1254015,-0.344854 0.1254015,-0.139871 0.3303847,-0.139871 0.055466,0 0.5715415,0.07958 v -0.06511 H 7.7134322 Z M 7.3951053,37.101018 V 35.328516 Q 7.0140777,35.3044 6.9513769,35.3044 q -0.2652724,0 -0.2652724,0.270096 v 1.256426 q 0,0.270096 0.2652724,0.270096 z"
         id="path22787" />
    </g>
    <g
       aria-label="poly"
       id="text11237"
       style="font-size:4.93889px;line-height:1.25;font-family:'Agency FB';-inkscape-font-specification:'Agency FB';stroke-width:0.264583">
      <path
         d="m 3.4606331,53.402103 q 0,0.217041 -0.1422825,0.361735 -0.1422825,0.142282 -0.356912,0.142282 H 2.4333054 v 0.889869 H 2.1125669 v -3.236324 h 0.3207385 v 0.06511 q 0.1905138,-0.02412 0.3810276,-0.04823 0.2411567,-0.03135 0.3786161,-0.03135 0.267684,0 0.267684,0.262861 z m -0.3207385,-0.04823 v -1.507229 l -0.7065892,0.01929 v 1.758033 h 0.4437284 q 0.2628608,0 0.2628608,-0.270096 z"
         id="path22808" />
      <path
         d="m 5.322363,53.633613 q 0,0.272507 -0.2725071,0.272507 H 4.2443924 q -0.2700955,0 -0.2700955,-0.272507 v -1.801441 q 0,-0.272507 0.2700955,-0.272507 h 0.8054635 q 0.2725071,0 0.2725071,0.272507 z m -0.3207384,-0.0096 V 51.841819 H 4.2950353 v 1.782148 z"
         id="path22810" />
      <path
         d="M 6.1808809,53.90612 H 5.8649656 v -3.774103 h 0.3159153 z"
         id="path22812" />
      <path
         d="m 8.0474343,51.559665 -0.5643068,2.327163 -0.233922,0.909161 H 6.9332901 L 7.1696238,53.886828 6.5908476,51.559665 h 0.3303847 l 0.4003202,1.847261 0.4051433,-1.847261 z"
         id="path22814" />
    </g>
    <g
       aria-label="out"
       id="text15367"
       style="font-size:4.93889px;line-height:1.25;font-family:'Agency FB';-inkscape-font-specification:'Agency FB';stroke-width:0.264583"
       transform="translate(0,-6.7906591)">
      <path
         d="m 4.1370775,119.31233 q 0,0.27251 -0.2725071,0.27251 H 3.0591069 q -0.2700956,0 -0.2700956,-0.27251 v -1.80144 q 0,-0.27251 0.2700956,-0.27251 h 0.8054635 q 0.2725071,0 0.2725071,0.27251 z m -0.3207385,-0.01 v -1.78215 H 3.1097498 v 1.78215 z"
         id="path22835" />
      <path
         d="M 6.0036306,119.58484 H 5.6877153 v -0.0651 q -0.1929254,0.0265 -0.3834392,0.0506 -0.2315105,0.0289 -0.3834392,0.0289 -0.2604493,0 -0.2604493,-0.26045 v -2.10048 h 0.3159153 v 2.05948 l 0.7114124,-0.0193 v -2.04019 h 0.3159153 z"
         id="path22837" />
      <path
         d="M 7.3709892,119.58484 H 6.915203 q -0.2700955,0 -0.2700955,-0.27251 v -1.79179 H 6.3629541 v -0.28216 h 0.2821534 v -0.7307 h 0.3159153 v 0.7307 h 0.4099664 v 0.28216 H 6.9610228 v 1.78215 h 0.4099664 z"
         id="path22839" />
    </g>
    <g
       aria-label="×"
       id="text3498"
       style="font-size:11.2889px;line-height:1.25;font-family:serif;-inkscape-font-specification:serif;stroke-width:0.264583"
       transform="translate(-5.0800024,-2.1162934)">
      <path
         d="m 12.036893,124.89348 h -0.148829 q -0.03307,-0.42444 -0.286632,-0.71107 l -2.3922767,-2.74506 q -0.6118496,0.30868 -0.6118496,0.79375 0,0.37483 0.3913632,0.96463 0.451997,0.67249 0.451997,1.06936 0,0.52917 -0.4023875,0.52917 h -1.041798 v -0.14883 q 0.3307295,-0.0882 0.3307295,-0.38034 0,-0.1819 -0.209462,-0.72209 -0.209462,-0.53468 -0.209462,-0.82683 0,-0.88745 1.0914074,-1.51033 l -0.6779955,-0.76619 q -0.4244362,-0.48507 -0.4244362,-1.00872 0,-0.47405 0.3858511,-0.89297 h 0.1433161 q 0.027561,0.47956 0.2866322,0.7717 l 2.072572,2.35369 q 0.159852,-0.79375 0.611849,-1.48277 -0.876433,-0.14331 -0.876433,-0.88194 0,-0.43546 0.225998,-0.76068 h 0.143317 q 0.08819,0.34175 0.424436,0.42443 l 0.474045,0.11025 q 0.622874,0.14883 0.622874,0.70004 0,0.24254 -0.04961,0.39137 -0.181901,0.0551 -0.600825,0.0551 -0.573265,0.90399 -0.573265,1.47726 0,0.42443 0.292145,0.76067 l 0.51263,0.5898 q 0.429949,0.49059 0.429949,1.01424 0,0.47405 -0.385851,0.83234 z"
         id="path15128" />
    </g>
    <rect
       style="fill:#000000;stroke-width:0.964999"
       id="rect407"
       width="8.6895952"
       height="8.6895952"
       x="0.73021805"
       y="100.69707"
       rx="3"
       ry="2.9208722" />
  </g>
  <g
     inkscape:groupmode="layer"
     id="layer2"
     inkscape:label="components"
     style="display:none">
    <circle
       style="fill:#00ff00;fill-rule:evenodd;stroke-width:0.264583"
       id="path8745"
       cx="5.0799999"
       cy="30.154381"
       r="3.3045897"
       inkscape:label="trigger" />
    <circle
       style="fill:#00ff00;fill-rule:evenodd;stroke-width:0.264583"
       id="circle8827"
       cx="5.0799999"
       cy="46.05772"
       r="3.3045897"
       inkscape:label="poly" />
    <circle
       style="fill:#0000ff;fill-rule:evenodd;stroke-width:0.264583"
       id="circle8829"
       cx="5.0799999"
       cy="105.12726"
       r="3.3045897"
       inkscape:label="random" />
  </g>
</svg>
