<?xml version="1.0" encoding="UTF-8" standalone="no"?>
<!-- Created with Inkscape (http://www.inkscape.org/) -->

<svg
   width="15.24mm"
   height="128.5mm"
   viewBox="0 0 15.24 128.5"
   version="1.1"
   id="svg5"
   inkscape:version="1.2.1 (9c6d41e410, 2022-07-14)"
   sodipodi:docname="probablynot.svg"
   xmlns:inkscape="http://www.inkscape.org/namespaces/inkscape"
   xmlns:sodipodi="http://sodipodi.sourceforge.net/DTD/sodipodi-0.dtd"
   xmlns="http://www.w3.org/2000/svg"
   xmlns:svg="http://www.w3.org/2000/svg">
  <sodipodi:namedview
     id="namedview7"
     pagecolor="#505050"
     bordercolor="#000000"
     borderopacity="1"
     inkscape:showpageshadow="0"
     inkscape:pageopacity="0"
     inkscape:pagecheckerboard="0"
     inkscape:deskcolor="#505050"
     inkscape:document-units="mm"
     showgrid="false"
     inkscape:zoom="1.2550228"
     inkscape:cx="-76.891033"
     inkscape:cy="243.02347"
     inkscape:current-layer="layer1" />
  <defs
     id="defs2" />
  <g
     inkscape:label="Layer 1"
     inkscape:groupmode="layer"
     id="layer1">
    <rect
       style="display:none;fill:#ffffff;stroke-width:0.964999"
       id="rect283"
       width="17.287201"
       height="130.49728"
       x="-1.0236006"
       y="-0.99864197" />
    <g
       aria-label="prob not"
       id="text391"
       style="font-size:5.64444px;line-height:0.85;font-family:'Agency FB';-inkscape-font-specification:'Agency FB';text-align:center;text-anchor:middle;stroke-width:0.264583">
      <path
         d="m 5.3228119,11.440694 q 0,0.248046 -0.1626084,0.413411 -0.1626083,0.162608 -0.4078989,0.162608 H 4.1487243 v 1.016992 H 3.7821664 V 9.3350528 h 0.3665579 v 0.074414 q 0.2177298,-0.027561 0.4354597,-0.055122 0.2756074,-0.035829 0.4327037,-0.035829 0.3059242,0 0.3059242,0.3004121 z M 4.956254,11.385572 V 9.6630257 l -0.8075297,0.022049 v 2.0091777 h 0.5071176 q 0.3004121,0 0.3004121,-0.30868 z"
         id="path503" />
      <path
         d="M 7.3126976,10.216997 H 6.9516518 V 9.6630257 L 6.2764136,9.6850743 V 12.016713 H 5.9098558 V 9.3350528 h 0.3665578 v 0.074414 q 0.1819009,-0.027561 0.3665579,-0.057878 0.220486,-0.033073 0.3665579,-0.033073 0.3031682,0 0.3031682,0.3004121 z"
         id="path505" />
      <path
         d="m 9.3191198,11.705277 q 0,0.311436 -0.3114364,0.311436 H 8.0871546 q -0.3086804,0 -0.3086804,-0.311436 V 9.6464892 q 0,-0.3114364 0.3086804,-0.3114364 h 0.9205288 q 0.3114364,0 0.3114364,0.3114364 z M 8.9525619,11.694252 V 9.6575135 H 8.1450321 v 2.0367385 z"
         id="path507" />
      <path
         d="m 11.457833,11.440694 q 0,0.248046 -0.162608,0.413411 -0.162609,0.162608 -0.407899,0.162608 H 9.9171876 V 7.7034569 h 0.3665574 v 1.70601 q 0.21773,-0.027561 0.43546,-0.055122 0.275608,-0.035829 0.432704,-0.035829 0.305924,0 0.305924,0.3004121 z m -0.366558,-0.05512 V 9.6630257 l -0.80753,0.022049 v 2.0091777 h 0.507118 q 0.300412,0 0.300412,-0.30868 z"
         id="path509" />
      <path
         d="M 6.6071426,16.814487 H 6.2405847 V 14.4608 l -0.8075298,0.02205 v 2.331638 H 5.066497 v -2.68166 h 0.3665579 v 0.07441 q 0.2149738,-0.02756 0.4327037,-0.05788 0.2645831,-0.03307 0.4354597,-0.03307 0.3059243,0 0.3059243,0.300412 z"
         id="path511" />
      <path
         d="m 8.7403442,16.503051 q 0,0.311436 -0.3114364,0.311436 H 7.5083789 q -0.3086803,0 -0.3086803,-0.311436 v -2.058787 q 0,-0.311437 0.3086803,-0.311437 h 0.9205289 q 0.3114364,0 0.3114364,0.311437 z M 8.3737863,16.492027 V 14.455288 H 7.5662565 v 2.036739 z"
         id="path513" />
      <path
         d="M 10.303038,16.814487 H 9.7821404 q -0.3086803,0 -0.3086803,-0.311436 V 14.455288 H 9.1509994 v -0.322461 h 0.3224607 v -0.83509 h 0.3610457 v 0.83509 h 0.4685322 v 0.322461 H 9.8345058 v 2.036739 h 0.4685322 z"
         id="path515" />
    </g>
    <g
       aria-label="×"
       id="text3498"
       style="font-size:11.2889px;line-height:1.25;font-family:serif;-inkscape-font-specification:serif;stroke-width:0.264583"
       transform="translate(-2.5400024,-2.11596)"
       inkscape:label="alef">
      <path
         d="m 12.036893,124.89348 h -0.148829 q -0.03307,-0.42444 -0.286632,-0.71107 l -2.3922767,-2.74506 q -0.6118496,0.30868 -0.6118496,0.79375 0,0.37483 0.3913632,0.96463 0.451997,0.67249 0.451997,1.06936 0,0.52917 -0.4023875,0.52917 h -1.041798 v -0.14883 q 0.3307295,-0.0882 0.3307295,-0.38034 0,-0.1819 -0.209462,-0.72209 -0.209462,-0.53468 -0.209462,-0.82683 0,-0.88745 1.0914074,-1.51033 l -0.6779955,-0.76619 q -0.4244362,-0.48507 -0.4244362,-1.00872 0,-0.47405 0.3858511,-0.89297 h 0.1433161 q 0.027561,0.47956 0.2866322,0.7717 l 2.072572,2.35369 q 0.159852,-0.79375 0.611849,-1.48277 -0.876433,-0.14331 -0.876433,-0.88194 0,-0.43546 0.225998,-0.76068 h 0.143317 q 0.08819,0.34175 0.424436,0.42443 l 0.474045,0.11025 q 0.622874,0.14883 0.622874,0.70004 0,0.24254 -0.04961,0.39137 -0.181901,0.0551 -0.600825,0.0551 -0.573265,0.90399 -0.573265,1.47726 0,0.42443 0.292145,0.76067 l 0.51263,0.5898 q 0.429949,0.49059 0.429949,1.01424 0,0.47405 -0.385851,0.83234 z"
         id="path15128" />
    </g>
    <g
       aria-label="signal"
       id="text777"
       style="font-size:4.93889px;line-height:1.25;font-family:'Agency FB';-inkscape-font-specification:'Agency FB';stroke-width:0.264583">
      <path
         d="m 4.6079531,35.355995 q 0,0.272507 -0.2725072,0.272507 h -0.735528 q -0.2725071,0 -0.2725071,-0.272507 v -0.532957 h 0.3159153 v 0.528134 H 4.2920377 V 34.883328 L 3.4528123,34.196031 Q 3.3322339,34.099568 3.3322339,33.945228 v -0.390674 q 0,-0.272507 0.2725071,-0.272507 h 0.7258818 q 0.2725071,0 0.2725071,0.272507 v 0.467844 H 4.2920377 V 33.559377 H 3.6433261 v 0.409967 l 0.8464602,0.687296 q 0.1181668,0.09405 0.1181668,0.255626 z"
         id="path930" />
      <path
         d="M 5.4568248,32.768383 H 5.1312632 V 32.36324 h 0.3255616 z m -0.00482,2.860119 H 5.1360864 v -2.346455 h 0.3159153 z"
         id="path932" />
      <path
         d="m 7.3306128,36.245863 q 0,0.272507 -0.2725071,0.272507 H 6.2960504 q -0.2773303,0 -0.2773303,-0.344854 0,-0.041 0.00241,-0.12299 0.00482,-0.07958 0.00482,-0.115755 h 0.3159154 v 0.311092 H 7.0122859 V 35.628502 H 6.4841526 q -0.2146295,0 -0.3569119,-0.142283 -0.1422825,-0.144694 -0.1422825,-0.361735 v -1.372182 q 0,-0.207394 0.1254015,-0.344854 0.1254015,-0.139871 0.3303847,-0.139871 0.055466,0 0.5715415,0.07958 v -0.06511 H 7.3306128 Z M 7.0122859,35.346349 v -1.772503 q -0.3810277,-0.02412 -0.4437284,-0.02412 -0.2652724,0 -0.2652724,0.270095 v 1.256427 q 0,0.270096 0.2652724,0.270096 z"
         id="path934" />
      <path
         d="M 9.2068118,35.628502 H 8.8860733 v -2.059479 l -0.7065892,0.01929 v 2.040186 H 7.8587456 v -2.346455 h 0.3207385 v 0.06511 q 0.1881023,-0.02412 0.3786161,-0.05064 0.2315104,-0.02894 0.3810276,-0.02894 0.267684,0 0.267684,0.262861 z"
         id="path936" />
      <path
         d="m 11.051661,35.628502 h -0.315915 v -0.06511 q -0.190514,0.02653 -0.381028,0.05064 -0.236334,0.02894 -0.378616,0.02894 -0.2628609,0 -0.2628609,-0.260449 v -0.856106 q 0,-0.270096 0.2725071,-0.270096 h 0.7548208 v -0.706589 h -0.689708 v 0.40032 H 9.7397684 v -0.395497 q 0,-0.272507 0.2700956,-0.272507 h 0.771701 q 0.270096,0 0.270096,0.272507 z m -0.311092,-0.2918 v -0.829579 h -0.716236 v 0.844049 z"
         id="path938" />
      <path
         d="m 11.912591,35.628502 h -0.315915 v -3.774103 h 0.315915 z"
         id="path940" />
    </g>
    <g
       aria-label="prob"
       id="text781"
       style="font-size:4.93889px;line-height:1.25;font-family:'Agency FB';-inkscape-font-specification:'Agency FB';stroke-width:0.264583"
       transform="translate(0,12.227534)">
      <path
         d="m 5.6099585,53.887424 q 0,0.217041 -0.1422824,0.361735 -0.1422825,0.142282 -0.356912,0.142282 H 4.5826308 V 55.28131 H 4.2618924 v -3.236324 h 0.3207384 v 0.06511 q 0.1905139,-0.02412 0.3810277,-0.04823 0.2411567,-0.03135 0.3786161,-0.03135 0.2676839,0 0.2676839,0.262861 z m -0.3207384,-0.04823 v -1.507229 l -0.7065893,0.01929 v 1.758033 h 0.4437284 q 0.2628609,0 0.2628609,-0.270096 z"
         id="path921" />
      <path
         d="M 7.3511102,52.816688 H 7.0351948 v -0.484725 l -0.590834,0.01929 v 2.040186 H 6.1236224 v -2.346455 h 0.3207384 v 0.06511 q 0.1591635,-0.02412 0.3207385,-0.05064 0.1929254,-0.02894 0.3207384,-0.02894 0.2652725,0 0.2652725,0.262861 z"
         id="path923" />
      <path
         d="m 9.1067313,54.118934 q 0,0.272507 -0.2725071,0.272507 H 8.0287607 q -0.2700955,0 -0.2700955,-0.272507 v -1.801441 q 0,-0.272507 0.2700955,-0.272507 h 0.8054635 q 0.2725071,0 0.2725071,0.272507 z m -0.3207384,-0.0096 V 52.32714 H 8.0794036 v 1.782148 z"
         id="path925" />
      <path
         d="m 10.978107,53.887424 q 0,0.217041 -0.142282,0.361735 -0.142283,0.142282 -0.356912,0.142282 H 9.6300412 v -3.774103 h 0.3207385 v 1.492761 q 0.1905133,-0.02412 0.3810273,-0.04823 0.241157,-0.03135 0.378616,-0.03135 0.267684,0 0.267684,0.262861 z m -0.320738,-0.04823 v -1.507229 l -0.7065893,0.01929 v 1.758033 h 0.4437283 q 0.262861,0 0.262861,-0.270096 z"
         id="path927" />
    </g>
    <g
       aria-label="prob cv"
       id="text835"
       style="font-size:4.93889px;line-height:1.25;font-family:'Agency FB';-inkscape-font-specification:'Agency FB';stroke-width:0.264583"
       transform="translate(0,6.957045)">
      <path
         d="m 3.2924421,75.391017 q 0,0.217041 -0.1422825,0.361735 -0.1422824,0.142283 -0.3569119,0.142283 H 2.2651144 v 0.889868 H 1.9443759 V 73.54858 h 0.3207385 v 0.06511 q 0.1905138,-0.02412 0.3810276,-0.04823 0.2411568,-0.03135 0.3786161,-0.03135 0.267684,0 0.267684,0.262861 z m -0.3207385,-0.04823 v -1.50723 l -0.7065892,0.01929 v 1.758032 h 0.4437284 q 0.2628608,0 0.2628608,-0.270095 z"
         id="path908" />
      <path
         d="M 5.0335937,74.320281 H 4.7176784 v -0.484725 l -0.590834,0.01929 v 2.040186 H 3.8061059 V 73.54858 h 0.3207385 v 0.06511 q 0.1591634,-0.02412 0.3207384,-0.05064 0.1929254,-0.02894 0.3207385,-0.02894 0.2652724,0 0.2652724,0.262861 z"
         id="path910" />
      <path
         d="m 6.7892149,75.622528 q 0,0.272507 -0.2725071,0.272507 H 5.7112443 q -0.2700956,0 -0.2700956,-0.272507 v -1.801441 q 0,-0.272507 0.2700956,-0.272507 h 0.8054635 q 0.2725071,0 0.2725071,0.272507 z m -0.3207385,-0.0096 V 73.830733 H 5.7618872 v 1.782148 z"
         id="path912" />
      <path
         d="m 8.6605909,75.391017 q 0,0.217041 -0.1422825,0.361735 -0.1422824,0.142283 -0.3569119,0.142283 H 7.3125247 v -3.774103 h 0.3207385 v 1.49276 q 0.1905138,-0.02412 0.3810277,-0.04823 0.2411567,-0.03135 0.378616,-0.03135 0.267684,0 0.267684,0.262861 z m -0.3207385,-0.04823 v -1.50723 l -0.7065892,0.01929 v 1.758032 h 0.4437284 q 0.2628608,0 0.2628608,-0.270095 z"
         id="path914" />
      <path
         d="m 11.453186,75.622528 q 0,0.272507 -0.270095,0.272507 h -0.762056 q -0.270095,0 -0.270095,-0.272507 v -1.801441 q 0,-0.272507 0.270095,-0.272507 h 0.762056 q 0.270095,0 0.270095,0.272507 v 0.467844 h -0.315915 v -0.458198 h -0.665593 v 1.782148 h 0.665593 v -0.52331 h 0.315915 z"
         id="path916" />
      <path
         d="m 13.295624,73.54858 -0.581188,2.351278 h -0.2918 L 11.839037,73.54858 h 0.330385 l 0.40032,1.84726 0.405143,-1.84726 z"
         id="path918" />
    </g>
    <rect
       style="fill:#000000;stroke-width:0.964999"
       id="rect889"
       width="11.805894"
       height="11.805894"
       x="1.7170529"
       y="87.911751"
       rx="3"
       ry="3" />
    <g
       aria-label="output"
       id="text893"
       style="font-size:4.93889px;line-height:1.25;font-family:'Agency FB';-inkscape-font-specification:'Agency FB';stroke-width:0.264583">
      <path
         d="m 4.1859278,104.50481 q 0,0.2725 -0.2725071,0.2725 H 3.1079572 q -0.2700956,0 -0.2700956,-0.2725 v -1.80144 q 0,-0.27251 0.2700956,-0.27251 h 0.8054635 q 0.2725071,0 0.2725071,0.27251 z m -0.3207385,-0.01 v -1.78215 H 3.1586001 v 1.78215 z"
         id="path895" />
      <path
         d="M 6.0524809,104.77731 H 5.7365656 v -0.0651 q -0.1929254,0.0265 -0.3834392,0.0506 -0.2315105,0.0289 -0.3834392,0.0289 -0.2604493,0 -0.2604493,-0.26045 v -2.10047 h 0.3159153 v 2.05948 l 0.7114124,-0.0193 v -2.04018 h 0.3159153 z"
         id="path897" />
      <path
         d="M 7.4198395,104.77731 H 6.9640533 q -0.2700955,0 -0.2700955,-0.2725 v -1.7918 H 6.4118044 v -0.28215 h 0.2821534 v -0.73071 h 0.3159153 v 0.73071 h 0.4099664 v 0.28215 H 7.0098731 v 1.78215 h 0.4099664 z"
         id="path899" />
      <path
         d="m 9.1778721,104.2733 q 0,0.21704 -0.1422825,0.36173 -0.1422825,0.14228 -0.356912,0.14228 H 8.1505444 v 0.88987 H 7.8298059 v -3.23632 h 0.3207385 v 0.0651 q 0.1905138,-0.0241 0.3810276,-0.0482 0.2411568,-0.0313 0.3786161,-0.0313 0.267684,0 0.267684,0.26286 z m -0.3207385,-0.0482 v -1.50723 l -0.7065892,0.0193 v 1.75803 h 0.4437284 q 0.2628608,0 0.2628608,-0.2701 z"
         id="path901" />
      <path
         d="m 11.034779,104.77731 h -0.315915 v -0.0651 q -0.192926,0.0265 -0.383439,0.0506 -0.231511,0.0289 -0.3834397,0.0289 -0.2604493,0 -0.2604493,-0.26045 v -2.10047 h 0.315915 v 2.05948 l 0.711413,-0.0193 v -2.04018 h 0.315915 z"
         id="path903" />
      <path
         d="m 12.402138,104.77731 h -0.455786 q -0.270095,0 -0.270095,-0.2725 v -1.7918 h -0.282154 v -0.28215 h 0.282154 v -0.73071 h 0.315915 v 0.73071 h 0.409966 v 0.28215 h -0.409966 v 1.78215 h 0.409966 z"
         id="path905" />
    </g>
    <g
       aria-label="trigger"
       id="text390"
       style="display:inline;fill:#000000;font-size:4.93889px;line-height:1.25;font-family:'Agency FB';-inkscape-font-specification:'Agency FB';stroke-width:0.264583">
      <path
         d="M 3.2647103,50.596687 H 2.8089241 q -0.2700955,0 -0.2700955,-0.272507 V 48.532386 H 2.2566752 v -0.282154 h 0.2821534 v -0.730705 h 0.3159153 v 0.730705 h 0.4099664 v 0.282154 H 2.8547439 v 1.782148 h 0.4099664 z"
         id="path442" />
      <path
         d="M 4.9021646,49.021934 H 4.5862493 v -0.484725 l -0.590834,0.01929 v 2.040186 H 3.6746768 v -2.346455 h 0.3207385 v 0.06511 q 0.1591635,-0.02412 0.3207385,-0.05064 0.1929254,-0.02894 0.3207384,-0.02894 0.2652724,0 0.2652724,0.262861 z"
         id="path444" />
      <path
         d="M 5.6497504,47.736568 H 5.3241888 v -0.405143 h 0.3255616 z m -0.00482,2.860119 H 5.3290119 v -2.346455 h 0.3159154 z"
         id="path446" />
      <path
         d="m 7.5235385,51.214049 q 0,0.272507 -0.2725071,0.272507 H 6.4889761 q -0.2773303,0 -0.2773303,-0.344854 0,-0.041 0.00241,-0.12299 0.00482,-0.07958 0.00482,-0.115756 h 0.3159153 v 0.311093 H 7.2052116 V 50.596687 H 6.6770783 q -0.2146295,0 -0.3569119,-0.142282 Q 6.1778839,50.309711 6.1778839,50.09267 v -1.372182 q 0,-0.207395 0.1254015,-0.344854 0.1254015,-0.139871 0.3303847,-0.139871 0.055466,0 0.5715415,0.07958 v -0.06511 H 7.5235385 Z M 7.2052116,50.314534 v -1.772502 q -0.3810277,-0.02412 -0.4437284,-0.02412 -0.2652724,0 -0.2652724,0.270096 v 1.256426 q 0,0.270096 0.2652724,0.270096 z"
         id="path448" />
      <path
         d="m 9.3852686,51.214049 q 0,0.272507 -0.2725071,0.272507 H 8.3507062 q -0.2773303,0 -0.2773303,-0.344854 0,-0.041 0.00241,-0.12299 0.00482,-0.07958 0.00482,-0.115756 h 0.3159153 v 0.311093 H 9.0669417 V 50.596687 H 8.5388084 q -0.2146295,0 -0.3569119,-0.142282 Q 8.039614,50.309711 8.039614,50.09267 v -1.372182 q 0,-0.207395 0.1254015,-0.344854 0.1254015,-0.139871 0.3303847,-0.139871 0.055466,0 0.5715415,0.07958 v -0.06511 H 9.3852686 Z M 9.0669417,50.314534 v -1.772502 q -0.3810277,-0.02412 -0.4437284,-0.02412 -0.2652724,0 -0.2652724,0.270096 v 1.256426 q 0,0.270096 0.2652724,0.270096 z"
         id="path450" />
      <path
         d="m 11.225294,50.32418 q 0,0.272507 -0.270095,0.272507 h -0.771702 q -0.2700956,0 -0.2700956,-0.272507 v -1.801441 q 0,-0.272507 0.2700956,-0.272507 h 0.771702 q 0.270095,0 0.270095,0.272507 v 0.844049 l -0.10852,0.113344 h -0.89228 v 0.848871 h 0.689708 v -0.429259 h 0.311092 z m -0.311092,-1.099675 v -0.706589 h -0.689708 v 0.706589 z"
         id="path452" />
      <path
         d="m 12.983327,49.021934 h -0.315915 v -0.484725 l -0.590834,0.01929 v 2.040186 h -0.320739 v -2.346455 h 0.320739 v 0.06511 q 0.159163,-0.02412 0.320738,-0.05064 0.192925,-0.02894 0.320739,-0.02894 0.265272,0 0.265272,0.262861 z"
         id="path454" />
    </g>
  </g>
  <g
     inkscape:groupmode="layer"
     id="layer2"
     inkscape:label="components"
     style="display:none;fill:#00ff00">
    <circle
       style="fill:#00ff00;stroke-width:0.964999"
       id="path767"
       cx="7.6199999"
       cy="27.195721"
       r="3.7947519"
       inkscape:label="signal" />
    <circle
       style="fill:#ff0000;stroke-width:0.964999"
       id="circle769"
       cx="7.6199999"
       cy="57.764557"
       r="3.7947519"
       inkscape:label="probability" />
    <circle
       style="fill:#00ff00;stroke-width:0.964999"
       id="circle771"
       cx="7.6199999"
       cy="73.576012"
       r="3.7947519"
       inkscape:label="probability_cv" />
    <circle
       style="fill:#0000ff;stroke-width:0.964999"
       id="circle773"
       cx="7.6199999"
       cy="94.025513"
       r="3.7947519"
       inkscape:label="signal" />
    <circle
       style="fill:#00ff00;stroke-width:0.964999"
       id="circle334"
       cx="7.6199999"
       cy="42.16391"
       r="3.7947519"
       inkscape:label="trigger" />
  </g>
</svg>
