<?xml version="1.0" encoding="UTF-8" standalone="no"?>
<!-- Created with Inkscape (http://www.inkscape.org/) -->

<svg
   width="20.32mm"
   height="128.5mm"
   viewBox="0 0 20.32 128.5"
   version="1.1"
   id="svg5"
   inkscape:version="1.2.1 (9c6d41e410, 2022-07-14)"
   sodipodi:docname="shift.svg"
   xmlns:inkscape="http://www.inkscape.org/namespaces/inkscape"
   xmlns:sodipodi="http://sodipodi.sourceforge.net/DTD/sodipodi-0.dtd"
   xmlns="http://www.w3.org/2000/svg"
   xmlns:svg="http://www.w3.org/2000/svg">
  <sodipodi:namedview
     id="namedview7"
     pagecolor="#505050"
     bordercolor="#000000"
     borderopacity="1"
     inkscape:showpageshadow="0"
     inkscape:pageopacity="0"
     inkscape:pagecheckerboard="0"
     inkscape:deskcolor="#505050"
     inkscape:document-units="mm"
     showgrid="false"
     inkscape:zoom="1.3744101"
     inkscape:cx="8.0034334"
     inkscape:cy="242.28576"
     inkscape:current-layer="layer2" />
  <defs
     id="defs2" />
  <g
     inkscape:label="panel"
     inkscape:groupmode="layer"
     id="layer1">
    <rect
       style="fill:#ffffff;stroke-width:0.964999"
       id="rect283"
       width="22.523298"
       height="131.09715"
       x="-1.1016493"
       y="-1.2985764"
       inkscape:label="background" />
    <g
       aria-label="shift"
       id="text2056"
       style="font-size:5.64444px;line-height:1.25;font-family:'Agency FB';-inkscape-font-specification:'Agency FB';stroke-width:0.264583"
       inkscape:label="shift">
      <path
         d="m 7.8779702,14.558823 q 0,0.311436 -0.3114364,0.311436 H 6.7259311 q -0.3114364,0 -0.3114364,-0.311436 V 13.94973 h 0.3610458 v 0.603581 h 0.741384 V 14.018632 L 6.5578106,13.233151 Q 6.4200069,13.122908 6.4200069,12.946519 v -0.446484 q 0,-0.311436 0.3114364,-0.311436 h 0.8295784 q 0.3114364,0 0.3114364,0.311436 v 0.534679 H 7.5169245 v -0.529166 h -0.741384 v 0.468532 l 0.9673821,0.785481 q 0.1350476,0.107487 0.1350476,0.292144 z"
         id="path2425" />
      <path
         d="M 10.000147,14.870259 H 9.6335896 v -2.353687 l -0.8075298,0.02205 v 2.331639 H 8.4595019 v -4.313256 h 0.3665579 v 1.70601 q 0.2177299,-0.02756 0.4354597,-0.05512 0.2756075,-0.03583 0.4327037,-0.03583 0.3059238,0 0.3059238,0.300412 z"
         id="path2427" />
      <path
         d="m 10.98131,11.601555 h -0.37207 v -0.46302 h 0.37207 z m -0.0055,3.268704 h -0.361046 v -2.68166 h 0.361046 z"
         id="path2429" />
      <path
         d="m 12.612906,10.879464 h -0.518142 v 1.309135 h 0.457509 v 0.322461 h -0.457509 v 2.359199 H 11.733719 V 12.51106 h -0.311437 v -0.322461 h 0.311437 v -1.32016 q 0,-0.311436 0.30868,-0.311436 h 0.570507 z"
         id="path2431" />
      <path
         d="m 13.905505,14.870259 h -0.520898 q -0.308681,0 -0.308681,-0.311436 V 12.51106 h -0.32246 v -0.322461 h 0.32246 v -0.835091 h 0.361046 v 0.835091 h 0.468533 v 0.322461 h -0.468533 v 2.036739 h 0.468533 z"
         id="path2433" />
    </g>
    <g
       aria-label="×"
       id="text3498"
       style="font-size:11.2889px;line-height:1.25;font-family:serif;-inkscape-font-specification:serif;stroke-width:0.264583"
       transform="translate(-2.4525879e-6,-2.11596)"
       inkscape:label="alef">
      <path
         d="m 12.036893,124.89348 h -0.148829 q -0.03307,-0.42444 -0.286632,-0.71107 l -2.3922767,-2.74506 q -0.6118496,0.30868 -0.6118496,0.79375 0,0.37483 0.3913632,0.96463 0.451997,0.67249 0.451997,1.06936 0,0.52917 -0.4023875,0.52917 h -1.041798 v -0.14883 q 0.3307295,-0.0882 0.3307295,-0.38034 0,-0.1819 -0.209462,-0.72209 -0.209462,-0.53468 -0.209462,-0.82683 0,-0.88745 1.0914074,-1.51033 l -0.6779955,-0.76619 q -0.4244362,-0.48507 -0.4244362,-1.00872 0,-0.47405 0.3858511,-0.89297 h 0.1433161 q 0.027561,0.47956 0.2866322,0.7717 l 2.072572,2.35369 q 0.159852,-0.79375 0.611849,-1.48277 -0.876433,-0.14331 -0.876433,-0.88194 0,-0.43546 0.225998,-0.76068 h 0.143317 q 0.08819,0.34175 0.424436,0.42443 l 0.474045,0.11025 q 0.622874,0.14883 0.622874,0.70004 0,0.24254 -0.04961,0.39137 -0.181901,0.0551 -0.600825,0.0551 -0.573265,0.90399 -0.573265,1.47726 0,0.42443 0.292145,0.76067 l 0.51263,0.5898 q 0.429949,0.49059 0.429949,1.01424 0,0.47405 -0.385851,0.83234 z"
         id="path15128" />
    </g>
    <rect
       style="fill:#000000;stroke-width:1.00891"
       id="rect2289"
       width="14.052998"
       height="79.1203"
       x="3.1335011"
       y="34.073708"
       rx="3"
       ry="3"
       inkscape:label="outs_box" />
    <g
       aria-label="trig"
       id="text2349"
       style="font-size:5.64444px;line-height:1.25;font-family:'Agency FB';-inkscape-font-specification:'Agency FB';stroke-width:0.264583"
       inkscape:label="trig">
      <path
         d="m 13.307583,29.838556 h -0.520898 q -0.30868,0 -0.30868,-0.311436 v -2.047763 h -0.322461 v -0.322461 h 0.322461 v -0.835091 h 0.361046 v 0.835091 h 0.468532 v 0.322461 h -0.468532 v 2.036739 h 0.468532 z"
         id="path2403" />
      <path
         d="m 15.178958,28.03884 h -0.361046 v -0.553971 l -0.675238,0.02205 v 2.331639 h -0.366558 v -2.68166 h 0.366558 v 0.07441 q 0.181901,-0.02756 0.366558,-0.05788 0.220486,-0.03307 0.366558,-0.03307 0.303168,0 0.303168,0.300412 z"
         id="path2405" />
      <path
         d="m 16.033341,26.569852 h -0.37207 v -0.46302 h 0.37207 z m -0.0055,3.268704 h -0.361046 v -2.68166 h 0.361046 z"
         id="path2407" />
      <path
         d="m 18.174811,30.544111 q 0,0.311437 -0.311437,0.311437 h -0.870919 q -0.316949,0 -0.316949,-0.394119 0,-0.04685 0.0028,-0.14056 0.0055,-0.09095 0.0055,-0.132291 h 0.361046 v 0.355533 h 0.766189 v -0.705555 h -0.603581 q -0.24529,0 -0.407899,-0.162608 -0.162608,-0.165365 -0.162608,-0.413411 V 27.69433 q 0,-0.237022 0.143316,-0.394118 0.143316,-0.159852 0.377582,-0.159852 0.06339,0 0.65319,0.09095 v -0.07441 h 0.363802 z m -0.363802,-1.028015 v -2.025715 q -0.43546,-0.02756 -0.507118,-0.02756 -0.303168,0 -0.303168,0.308681 v 1.435914 q 0,0.308681 0.303168,0.308681 z"
         id="path2409" />
    </g>
    <g
       aria-label="in"
       id="text2295"
       style="font-size:5.64444px;line-height:1.25;font-family:'Agency FB';-inkscape-font-specification:'Agency FB';stroke-width:0.264583"
       inkscape:label="in">
      <path
         d="m 4.454361,26.569852 h -0.37207 v -0.46302 h 0.37207 z m -0.00551,3.268704 H 4.0878032 v -2.68166 h 0.3610457 z"
         id="path2412" />
      <path
         d="M 6.6123672,29.838556 H 6.2458094 v -2.353687 l -0.8075298,0.02205 v 2.331639 H 5.0717217 v -2.68166 h 0.3665579 v 0.07441 q 0.2149738,-0.02756 0.4327037,-0.05788 0.2645831,-0.03307 0.4354597,-0.03307 0.3059242,0 0.3059242,0.300412 z"
         id="path2414" />
    </g>
  </g>
  <g
     inkscape:groupmode="layer"
     id="layer2"
     inkscape:label="components"
     style="display:none">
    <circle
       style="fill:#00ff00;stroke-width:0.873094"
       id="path390"
       cx="5.3473291"
       cy="21.056578"
       r="3.6576295"
       inkscape:label="signal" />
    <circle
       style="fill:#00ff00;stroke-width:0.873094"
       id="circle2291"
       cx="15.165177"
       cy="21.056578"
       r="3.6576295"
       inkscape:label="trigger" />
    <circle
       style="fill:#0000ff;stroke-width:0.873094"
       id="circle1108"
       cx="10.16"
       cy="41.654808"
       r="3.6576295"
       inkscape:label="register_1_" />
    <circle
       style="fill:#0000ff;stroke-width:0.873094"
       id="circle1110"
       cx="10.16"
       cy="50.764179"
       r="3.6576295"
       inkscape:label="register_2_" />
    <circle
       style="fill:#0000ff;stroke-width:0.873094"
       id="circle1112"
       cx="10.16"
       cy="59.873547"
       r="3.6576295"
       inkscape:label="register_3_" />
    <circle
       style="fill:#0000ff;stroke-width:0.873094"
       id="circle1114"
       cx="10.16"
       cy="68.982918"
       r="3.6576295"
       inkscape:label="register_4_" />
    <circle
       style="fill:#0000ff;stroke-width:0.873094"
       id="circle1116"
       cx="10.16"
       cy="78.092285"
       r="3.6576295"
       inkscape:label="register_5_" />
    <circle
       style="fill:#0000ff;stroke-width:0.873094"
       id="circle1118"
       cx="10.16"
       cy="87.201653"
       r="3.6576295"
       inkscape:label="register_6_" />
    <circle
       style="fill:#0000ff;stroke-width:0.873094"
       id="circle1120"
       cx="10.16"
       cy="96.311028"
       r="3.6576295"
       inkscape:label="register_7_" />
    <circle
       style="fill:#0000ff;stroke-width:0.873094"
       id="circle1122"
       cx="10.16"
       cy="105.42039"
       r="3.6576295"
       inkscape:label="register_8_" />
  </g>
</svg>
