<?xml version="1.0" encoding="UTF-8" standalone="no"?>
<!-- Created with Inkscape (http://www.inkscape.org/) -->

<svg
   width="20.32mm"
   height="128.5mm"
   viewBox="0 0 20.32 128.5"
   version="1.1"
   id="svg971"
   inkscape:version="1.1.1 (3bf5ae0d25, 2021-09-20)"
   sodipodi:docname="simplexvco.svg"
   xmlns:inkscape="http://www.inkscape.org/namespaces/inkscape"
   xmlns:sodipodi="http://sodipodi.sourceforge.net/DTD/sodipodi-0.dtd"
   xmlns="http://www.w3.org/2000/svg"
   xmlns:svg="http://www.w3.org/2000/svg">
  <sodipodi:namedview
     id="namedview973"
     pagecolor="#505050"
     bordercolor="#eeeeee"
     borderopacity="1"
     inkscape:pageshadow="0"
     inkscape:pageopacity="0"
     inkscape:pagecheckerboard="0"
     inkscape:document-units="mm"
     showgrid="false"
     borderlayer="true"
     inkscape:zoom="1.2810466"
     inkscape:cx="-70.645361"
     inkscape:cy="229.10954"
     inkscape:current-layer="layer1" />
  <defs
     id="defs968" />
  <g
     inkscape:label="panel"
     inkscape:groupmode="layer"
     id="layer1">
    <rect
       style="fill:#ffffff;stroke:#000000;stroke-width:0"
       id="rect1054"
       width="23.132128"
       height="131.97705"
       x="-1.406064"
       y="-1.7385254"
       inkscape:label="bg" />
    <rect
       style="fill:#000000;stroke:#000000;stroke-width:0"
       id="rect32999"
       width="15.283727"
       height="17.762169"
       x="2.4784422"
       y="97.485382"
       ry="4"
       rx="4" />
    <g
       aria-label="simplex
VCO"
       id="text6210"
       style="font-size:5.64444px;line-height:1.05;font-family:'Agency FB';-inkscape-font-specification:'Agency FB';text-align:center;text-anchor:middle;stroke-width:0.264583">
      <path
         d="m 5.1053601,14.14582 q 0,0.311436 -0.3114364,0.311436 H 3.9533211 q -0.3114364,0 -0.3114364,-0.311436 v -0.609093 h 0.3610457 v 0.603581 h 0.741384 V 13.605629 L 3.7852005,12.820148 Q 3.6473968,12.709905 3.6473968,12.533516 v -0.446484 q 0,-0.311436 0.3114364,-0.311436 h 0.8295784 q 0.3114364,0 0.3114364,0.311436 v 0.534679 H 4.7443144 v -0.529166 h -0.741384 v 0.468532 l 0.9673821,0.785481 q 0.1350476,0.107487 0.1350476,0.292144 z"
         id="path15430" />
      <path
         d="m 6.0754983,11.188552 h -0.37207 v -0.46302 h 0.37207 z m -0.00551,3.268704 H 5.7089404 v -2.68166 h 0.3610458 z"
         id="path15432" />
      <path
         d="M 9.3882996,14.457256 H 9.0217418 v -2.353687 l -0.7992616,0.02205 v 2.331639 H 7.8586784 v -2.353687 l -0.7992616,0.02205 V 14.45726 H 6.692859 V 11.7756 h 0.3665578 v 0.07441 q 0.2149738,-0.02756 0.4299476,-0.05788 0.2618271,-0.03307 0.4327037,-0.03307 0.1681205,0 0.2480467,0.101974 0.2315102,-0.03032 0.4602644,-0.06339 0.3004121,-0.03858 0.4547523,-0.03858 0.3031681,0 0.3031681,0.300412 z"
         id="path15434" />
      <path
         d="m 11.524257,13.881237 q 0,0.248046 -0.162608,0.413411 -0.162609,0.162608 -0.407899,0.162608 h -0.603581 v 1.016992 H 9.9836116 v -3.698652 h 0.3665574 v 0.07441 q 0.21773,-0.02756 0.43546,-0.05512 0.275608,-0.03583 0.432704,-0.03583 0.305924,0 0.305924,0.300412 z m -0.366558,-0.05512 v -1.722546 l -0.80753,0.02205 V 14.1348 h 0.507118 q 0.300412,0 0.300412,-0.308681 z"
         id="path15436" />
      <path
         d="M 12.494395,14.457256 H 12.13335 V 10.144 h 0.361045 z"
         id="path15438" />
      <path
         d="m 14.616573,14.14582 q 0,0.311436 -0.308681,0.311436 h -0.881944 q -0.30868,0 -0.30868,-0.311436 v -2.058788 q 0,-0.311436 0.30868,-0.311436 h 0.881944 q 0.308681,0 0.308681,0.311436 v 0.964626 l -0.124024,0.129536 h -1.019747 v 0.970138 h 0.788237 v -0.490581 h 0.355534 z m -0.355534,-1.25677 v -0.80753 h -0.788237 v 0.80753 z"
         id="path15440" />
      <path
         d="m 16.678116,14.457256 h -0.37207 l -0.451996,-1.061088 -0.457509,1.061088 h -0.361046 v -0.01102 L 15.661124,13.079223 15.074081,11.7756 h 0.37207 l 0.413411,0.983919 0.424435,-0.983919 h 0.355534 v 0.01102 l -0.587044,1.281575 z"
         id="path15442" />
      <path
         d="M 8.549075,16.070662 7.8021788,20.394943 H 7.4411331 L 6.694237,16.070662 h 0.3803382 l 0.5346784,3.434069 q 0,0 0.016536,0.281119 0.00276,-0.09646 0.019293,-0.281119 L 8.179761,16.070662 Z"
         id="path15444" />
      <path
         d="m 10.795276,20.077994 q 0,0.135048 -0.08819,0.220486 -0.08819,0.08544 -0.223242,0.08544 H 9.3731412 q -0.1350476,0 -0.220486,-0.08544 -0.085438,-0.08544 -0.085438,-0.220486 v -3.701408 q 0,-0.135047 0.085438,-0.220486 0.085438,-0.08544 0.220486,-0.08544 h 1.1106978 q 0.135048,0 0.223242,0.08544 0.08819,0.08544 0.08819,0.220486 v 1.003211 H 10.409425 V 16.409659 H 9.4503113 v 3.635262 h 0.9591137 v -1.061089 h 0.385851 z"
         id="path15446" />
      <path
         d="m 13.286767,20.077994 q 0,0.135048 -0.08819,0.220486 -0.08544,0.08544 -0.220486,0.08544 h -1.20716 q -0.135048,0 -0.220486,-0.08544 -0.08544,-0.08544 -0.08544,-0.220486 v -3.701408 q 0,-0.135047 0.08544,-0.220486 0.08544,-0.08544 0.220486,-0.08544 h 1.20716 q 0.135048,0 0.220486,0.08544 0.08819,0.08544 0.08819,0.220486 z m -0.383095,-0.03307 v -3.635262 h -1.055576 v 3.635262 z"
         id="path15448" />
    </g>
    <g
       aria-label="x"
       id="text7052"
       style="font-size:4.23333px;line-height:1.25;font-family:'Agency FB';-inkscape-font-specification:'Agency FB';stroke-width:0.264583"
       transform="matrix(1.8215284,0,0,1.8215284,-8.3467278,-53.939261)">
      <path
         d="M 10.775982,58.366447 H 10.49693 L 10.157932,57.570631 9.8148012,58.366447 H 9.5440169 v -0.0083 L 10.013239,57.33292 9.5729557,56.355202 h 0.2790525 l 0.3100588,0.737939 0.318326,-0.737939 h 0.26665 v 0.0083 l -0.440283,0.96118 z"
         id="path33333" />
    </g>
    <g
       aria-label="y"
       id="text10596"
       style="font-size:4.23333px;line-height:1.25;font-family:'Agency FB';-inkscape-font-specification:'Agency FB';stroke-width:0.264583"
       transform="matrix(1.2978193,0,0,1.2978193,-3.0258439,-28.010646)">
      <path
         d="M 10.784251,69.780091 10.30056,71.7748 10.100055,72.55408 H 9.829271 L 10.031842,71.7748 9.5357491,69.780091 h 0.2831866 l 0.3431313,1.583365 0.347265,-1.583365 z"
         id="path33312" />
    </g>
    <g
       aria-label="scale"
       id="text14360"
       style="font-size:4.23333px;line-height:1.25;font-family:'Agency FB';-inkscape-font-specification:'Agency FB';stroke-width:0.264583"
       transform="matrix(1.2517629,0,0,1.2517629,-2.5579107,-28.140666)">
      <path
         d="m 7.976156,86.08022 q 0,0.233577 -0.2335773,0.233577 H 7.1121268 q -0.2335773,0 -0.2335773,-0.233577 V 85.6234 h 0.2707843 v 0.452686 H 7.7053717 V 85.675077 L 6.9860364,85.085966 Q 6.8826836,85.003284 6.8826836,84.870992 v -0.334863 q 0,-0.233577 0.2335773,-0.233577 h 0.6221837 q 0.2335773,0 0.2335773,0.233577 v 0.401009 H 7.7053717 V 84.540263 H 7.1493338 v 0.3514 l 0.7255365,0.589111 q 0.1012857,0.08062 0.1012857,0.219107 z"
         id="path33283" />
      <path
         d="m 9.5285147,86.08022 q 0,0.233577 -0.2315102,0.233577 H 8.6438149 q -0.2315102,0 -0.2315102,-0.233577 v -1.544091 q 0,-0.233577 0.2315102,-0.233577 h 0.6531896 q 0.2315102,0 0.2315102,0.233577 v 0.401009 H 9.2577304 V 84.544397 H 8.6872231 v 1.527554 H 9.2577304 V 85.6234 h 0.2707843 z"
         id="path33285" />
      <path
         d="m 11.111879,86.313797 h -0.270784 v -0.05581 q -0.163297,0.02274 -0.326595,0.04341 -0.202571,0.0248 -0.324528,0.0248 -0.2253086,0 -0.2253086,-0.223242 v -0.733804 q 0,-0.231511 0.2335776,-0.231511 h 0.646988 v -0.605647 h -0.591178 v 0.343131 h -0.26665 v -0.338997 q 0,-0.233577 0.23151,-0.233577 h 0.661458 q 0.23151,0 0.23151,0.233577 z m -0.26665,-0.250114 v -0.711067 h -0.613915 v 0.72347 z"
         id="path33287" />
      <path
         d="m 11.849818,86.313797 h -0.270784 v -3.234942 h 0.270784 z"
         id="path33289" />
      <path
         d="m 13.441451,86.08022 q 0,0.233577 -0.231511,0.233577 h -0.661457 q -0.231511,0 -0.231511,-0.233577 v -1.544091 q 0,-0.233577 0.231511,-0.233577 h 0.661457 q 0.231511,0 0.231511,0.233577 v 0.72347 l -0.09302,0.09715 h -0.76481 v 0.727604 H 13.1748 v -0.367936 h 0.266651 z M 13.1748,85.137642 v -0.605647 h -0.591177 v 0.605647 z"
         id="path33291" />
    </g>
    <g
       aria-label="detail"
       id="text14364"
       style="font-size:4.23333px;line-height:1.25;font-family:'Agency FB';-inkscape-font-specification:'Agency FB';stroke-width:0.264583"
       transform="matrix(1.2398281,0,0,1.2398281,-2.4366535,-30.8943)">
      <path
         d="M 7.8686688,102.01061 H 7.5958174 v -0.0558 q -0.4423498,0.0682 -0.4898921,0.0682 -0.1756997,0 -0.2831866,-0.11782 -0.1074869,-0.11989 -0.1074869,-0.29765 v -1.17616 q 0,-0.18603 0.1219563,-0.30799 0.1219562,-0.124023 0.3059242,-0.124023 H 7.5958174 V 98.775671 H 7.8686688 Z M 7.5958174,101.7605 v -1.51929 H 7.2154792 q -0.2273761,0 -0.2273761,0.23358 v 1.07487 q 0,0.23151 0.2273761,0.23151 0.053744,0 0.3803382,-0.0207 z"
         id="path33252" />
      <path
         d="m 9.4458322,101.77704 q 0,0.23357 -0.2315102,0.23357 H 8.5528642 q -0.2315102,0 -0.2315102,-0.23357 v -1.5441 q 0,-0.233573 0.2315102,-0.233573 H 9.214322 q 0.2315102,0 0.2315102,0.233573 v 0.72347 l -0.093018,0.0972 H 8.5880041 v 0.7276 H 9.179182 v -0.36794 H 9.4458322 Z M 9.179182,100.83446 v -0.60565 H 8.5880041 v 0.60565 z"
         id="path33254" />
      <path
         d="M 10.624054,102.01061 H 10.23338 q -0.23151,0 -0.23151,-0.23357 v -1.53583 H 9.7600246 V 99.999367 H 10.00187 V 99.37305 h 0.270784 v 0.626317 h 0.3514 v 0.241843 h -0.3514 v 1.52756 h 0.3514 z"
         id="path33256" />
      <path
         d="M 12.112334,102.01061 H 11.84155 v -0.0558 q -0.163298,0.0227 -0.326595,0.0434 -0.202571,0.0248 -0.324528,0.0248 -0.225309,0 -0.225309,-0.22324 v -0.7338 q 0,-0.23151 0.233578,-0.23151 h 0.646988 v -0.60565 h -0.591178 v 0.34313 h -0.26665 v -0.339 q 0,-0.233573 0.23151,-0.233573 h 0.661458 q 0.23151,0 0.23151,0.233573 z m -0.26665,-0.25011 v -0.71107 h -0.613916 v 0.72347 z"
         id="path33258" />
      <path
         d="m 12.854407,99.559085 h -0.279052 v -0.347266 h 0.279052 z m -0.0041,2.451525 h -0.270784 v -2.011243 h 0.270784 z"
         id="path33260" />
      <path
         d="m 13.604748,102.01061 h -0.270784 v -3.234939 h 0.270784 z"
         id="path33262" />
    </g>
    <g
       aria-label="out"
       id="text27874"
       style="font-size:4.23333px;line-height:1.25;font-family:'Agency FB';-inkscape-font-specification:'Agency FB';fill:#ffffff;stroke-width:0.264583"
       transform="matrix(1.6235169,0,0,1.6235169,-6.3349313,-81.192365)">
      <path
         d="m 9.3517809,120.3647 q 0,0.23358 -0.2335773,0.23358 H 8.4278071 q -0.2315102,0 -0.2315102,-0.23358 v -1.54409 q 0,-0.23357 0.2315102,-0.23357 h 0.6903965 q 0.2335773,0 0.2335773,0.23357 z m -0.2749184,-0.008 v -1.52756 H 8.4712152 v 1.52756 z"
         id="path33227" />
      <path
         d="m 10.951682,120.59828 h -0.270784 v -0.0558 q -0.165365,0.0227 -0.328662,0.0434 -0.198438,0.0248 -0.328662,0.0248 -0.223242,0 -0.223242,-0.22324 v -1.8004 h 0.270784 v 1.76526 l 0.609782,-0.0165 v -1.74873 h 0.270784 z"
         id="path33229" />
      <path
         d="m 12.123702,120.59828 h -0.390673 q -0.23151,0 -0.23151,-0.23358 v -1.53582 h -0.241846 v -0.24184 h 0.241846 v -0.62632 h 0.270784 v 0.62632 h 0.351399 v 0.24184 h -0.351399 v 1.52756 h 0.351399 z"
         id="path33231" />
    </g>
    <g
       aria-label="pitch"
       id="text7786"
       style="font-size:4.23333px;line-height:1.25;font-family:'Agency FB';-inkscape-font-specification:'Agency FB';stroke-width:0.264583"
       transform="matrix(1.2017195,0,0,1.2017195,-2.04947,-15.17373)">
      <path
         d="m 8.2438393,42.237926 q 0,0.186035 -0.1219563,0.310059 -0.1219563,0.121956 -0.3059242,0.121956 H 7.3632736 v 0.762743 H 7.0883552 v -2.773988 h 0.2749184 v 0.05581 q 0.1632974,-0.02067 0.3265948,-0.04134 0.2067055,-0.02687 0.3245277,-0.02687 0.2294432,0 0.2294432,0.225309 z m -0.2749184,-0.04134 v -1.291909 l -0.6056473,0.01654 V 42.4281 h 0.3803382 q 0.2253091,0 0.2253091,-0.23151 z"
         id="path9070" />
      <path
         d="M 8.975577,40.218413 H 8.6965245 V 39.871148 H 8.975577 Z m -0.00413,2.451528 H 8.7006586 v -2.011245 h 0.2707842 z"
         id="path9072" />
      <path
         d="M 10.162067,42.669941 H 9.7713933 q -0.2315102,0 -0.2315102,-0.233577 V 40.900541 H 9.2980376 v -0.241845 h 0.2418455 v -0.626318 h 0.2707843 v 0.626318 h 0.3513996 v 0.241845 H 9.8106674 v 1.527554 h 0.3513996 z"
         id="path9074" />
      <path
         d="m 11.629676,42.436364 q 0,0.233577 -0.23151,0.233577 h -0.653189 q -0.231511,0 -0.231511,-0.233577 v -1.544091 q 0,-0.233577 0.231511,-0.233577 h 0.653189 q 0.23151,0 0.23151,0.233577 v 0.401009 h -0.270784 v -0.392741 h -0.570507 v 1.527554 h 0.570507 v -0.448551 h 0.270784 z"
         id="path9076" />
      <path
         d="m 13.231644,42.669941 h -0.274918 v -1.765265 l -0.605647,0.01654 v 1.748729 H 12.07616 v -3.234942 h 0.274919 v 1.279507 q 0.163297,-0.02067 0.326594,-0.04134 0.206706,-0.02687 0.324528,-0.02687 0.229443,0 0.229443,0.225309 z"
         id="path9078" />
    </g>
    <g
       aria-label="×"
       id="text3498"
       style="font-size:11.2889px;line-height:1.25;font-family:serif;-inkscape-font-specification:serif;stroke-width:0.264583"
       transform="translate(-2.4525879e-6,-2.1162934)">
      <path
         d="m 12.036893,124.89348 h -0.148829 q -0.03307,-0.42444 -0.286632,-0.71107 l -2.3922767,-2.74506 q -0.6118496,0.30868 -0.6118496,0.79375 0,0.37483 0.3913632,0.96463 0.451997,0.67249 0.451997,1.06936 0,0.52917 -0.4023875,0.52917 h -1.041798 v -0.14883 q 0.3307295,-0.0882 0.3307295,-0.38034 0,-0.1819 -0.209462,-0.72209 -0.209462,-0.53468 -0.209462,-0.82683 0,-0.88745 1.0914074,-1.51033 l -0.6779955,-0.76619 q -0.4244362,-0.48507 -0.4244362,-1.00872 0,-0.47405 0.3858511,-0.89297 h 0.1433161 q 0.027561,0.47956 0.2866322,0.7717 l 2.072572,2.35369 q 0.159852,-0.79375 0.611849,-1.48277 -0.876433,-0.14331 -0.876433,-0.88194 0,-0.43546 0.225998,-0.76068 h 0.143317 q 0.08819,0.34175 0.424436,0.42443 l 0.474045,0.11025 q 0.622874,0.14883 0.622874,0.70004 0,0.24254 -0.04961,0.39137 -0.181901,0.0551 -0.600825,0.0551 -0.573265,0.90399 -0.573265,1.47726 0,0.42443 0.292145,0.76067 l 0.51263,0.5898 q 0.429949,0.49059 0.429949,1.01424 0,0.47405 -0.385851,0.83234 z"
         id="path15128" />
    </g>
  </g>
  <g
     inkscape:groupmode="layer"
     id="layer2"
     inkscape:label="components"
     style="display:none">
    <circle
       style="display:inline;fill:#ff0000;fill-rule:evenodd;stroke-width:0.264583"
       id="path16344"
       cx="5.4977374"
       cy="26.850113"
       r="4.1307373"
       inkscape:label="frequency" />
    <circle
       style="display:inline;fill:#ff0000;fill-rule:evenodd;stroke-width:0.264583"
       id="circle952"
       cx="5.4977374"
       cy="43.992672"
       r="4.1307373"
       inkscape:label="x" />
    <circle
       style="display:inline;fill:#00ff00;fill-rule:evenodd;stroke-width:0.264583"
       id="circle10536"
       cx="14.791896"
       cy="26.850113"
       r="4.1307373"
       inkscape:label="frequency" />
    <circle
       style="display:inline;fill:#00ff00;fill-rule:evenodd;stroke-width:0.264583"
       id="circle10574"
       cx="14.791738"
       cy="43.992672"
       r="4.1307373"
       inkscape:label="x" />
    <circle
       style="display:inline;fill:#ff0000;fill-rule:evenodd;stroke-width:0.264583"
       id="circle10598"
       cx="5.4977374"
       cy="57.211033"
       r="4.1307373"
       inkscape:label="y" />
    <circle
       style="display:inline;fill:#00ff00;fill-rule:evenodd;stroke-width:0.264583"
       id="circle10600"
       cx="14.791738"
       cy="57.211033"
       r="4.1307373"
       inkscape:label="y" />
    <circle
       style="display:inline;fill:#ff0000;fill-rule:evenodd;stroke-width:0.264583"
       id="circle14366"
       cx="5.4977374"
       cy="71.113876"
       r="4.1307373"
       inkscape:label="scale" />
    <circle
       style="display:inline;fill:#00ff00;fill-rule:evenodd;stroke-width:0.264583"
       id="circle14368"
       cx="14.791738"
       cy="71.113876"
       r="4.1307373"
       inkscape:label="scale" />
    <circle
       style="display:inline;fill:#ff0000;fill-rule:evenodd;stroke-width:0.264583"
       id="circle14370"
       cx="5.4977374"
       cy="85.984528"
       r="4.1307373"
       inkscape:label="detail" />
    <circle
       style="display:inline;fill:#00ff00;fill-rule:evenodd;stroke-width:0.264583"
       id="circle14372"
       cx="14.791738"
       cy="85.984528"
       r="4.1307373"
       inkscape:label="detail" />
    <circle
       style="display:inline;fill:#0000ff;fill-rule:evenodd;stroke-width:0.264583"
       id="circle27852"
       cx="10.16"
       cy="104.57265"
       r="4.1307373"
       inkscape:label="out" />
  </g>
</svg>
