<?xml version="1.0" encoding="UTF-8" standalone="no"?>
<!-- Created with Inkscape (http://www.inkscape.org/) -->

<svg
   width="20.32mm"
   height="128.5mm"
   viewBox="0 0 20.32 128.5"
   version="1.1"
   id="svg958"
   inkscape:version="1.1.1 (3bf5ae0d25, 2021-09-20)"
   sodipodi:docname="simplexandhold.svg"
   xmlns:inkscape="http://www.inkscape.org/namespaces/inkscape"
   xmlns:sodipodi="http://sodipodi.sourceforge.net/DTD/sodipodi-0.dtd"
   xmlns="http://www.w3.org/2000/svg"
   xmlns:svg="http://www.w3.org/2000/svg">
  <sodipodi:namedview
     id="namedview960"
     pagecolor="#505050"
     bordercolor="#eeeeee"
     borderopacity="1"
     inkscape:pageshadow="0"
     inkscape:pageopacity="0"
     inkscape:pagecheckerboard="0"
     inkscape:document-units="mm"
     showgrid="false"
     borderlayer="true"
     inkscape:zoom="0.90583673"
     inkscape:cx="25.390889"
     inkscape:cy="266.60434"
     inkscape:current-layer="layer1" />
  <defs
     id="defs955" />
  <g
     inkscape:label="panel"
     inkscape:groupmode="layer"
     id="layer1">
    <rect
       style="fill:#ffffff;stroke:#000000;stroke-width:0"
       id="rect1041"
       width="22.719053"
       height="130.32475"
       x="-1.1995268"
       y="-0.9123764"
       rx="0.69182432"
       ry="1.0000006"
       inkscape:label="bg"
       sodipodi:insensitive="true" />
    <rect
       style="fill:#1a1a1a;stroke:#000000;stroke-width:0"
       id="rect1058"
       width="15.903337"
       height="18.522711"
       x="2.2083313"
       y="94.316872"
       rx="4"
       ry="4" />
    <g
       aria-label="range"
       id="text3205"
       style="font-size:5.64444px;line-height:1.25;font-family:'Agency FB';-inkscape-font-specification:'Agency FB';stroke-width:0.264583"
       inkscape:label="range">
      <path
         d="M 6.6601378,86.605481 H 6.2990921 V 86.05151 l -0.6752382,0.02205 v 2.331639 H 5.257296 v -2.68166 h 0.3665579 v 0.07441 Q 5.8057548,85.77039 5.9904118,85.740073 6.2108977,85.707 6.3569697,85.707 q 0.3031681,0 0.3031681,0.300412 z"
         id="path5069" />
      <path
         d="M 8.6417552,88.405197 H 8.2807095 v -0.07441 q -0.2177299,0.03032 -0.4354597,0.05788 -0.2700953,0.03307 -0.4327037,0.03307 -0.3004121,0 -0.3004121,-0.297656 v -0.978407 q 0,-0.30868 0.3114364,-0.30868 h 0.8626513 v -0.80753 H 7.4979844 v 0.457508 H 7.1424508 v -0.451996 q 0,-0.311436 0.3086803,-0.311436 h 0.8819438 q 0.3086803,0 0.3086803,0.311436 z M 8.2862217,88.071712 V 87.123623 H 7.4676676 v 0.964626 z"
         id="path5071" />
      <path
         d="M 10.783225,88.405197 H 10.416667 V 86.05151 l -0.8075297,0.02205 v 2.331639 H 9.2425794 v -2.68166 h 0.3665579 v 0.07441 q 0.2149738,-0.02756 0.4327037,-0.05788 0.264583,-0.03307 0.43546,-0.03307 0.305924,0 0.305924,0.300412 z"
         id="path5073" />
      <path
         d="m 12.89989,89.110752 q 0,0.311437 -0.311436,0.311437 h -0.87092 q -0.316948,0 -0.316948,-0.394119 0,-0.04685 0.0028,-0.14056 0.0055,-0.09095 0.0055,-0.132291 H 11.7699 v 0.355533 h 0.766188 v -0.705555 h -0.60358 q -0.245291,0 -0.407899,-0.162608 -0.162608,-0.165365 -0.162608,-0.413411 v -1.568207 q 0,-0.237022 0.143315,-0.394118 0.143316,-0.159853 0.377583,-0.159853 0.06339,0 0.653189,0.09095 v -0.07441 h 0.363802 z m -0.363802,-1.028016 v -2.025714 q -0.435459,-0.02756 -0.507117,-0.02756 -0.303169,0 -0.303169,0.30868 v 1.435915 q 0,0.30868 0.303169,0.30868 z"
         id="path5075" />
      <path
         d="m 15.002775,88.093761 q 0,0.311436 -0.30868,0.311436 h -0.881944 q -0.30868,0 -0.30868,-0.311436 v -2.058788 q 0,-0.311436 0.30868,-0.311436 h 0.881944 q 0.30868,0 0.30868,0.311436 v 0.964626 l -0.124023,0.129536 h -1.019748 v 0.970138 h 0.788238 v -0.490581 h 0.355533 z m -0.355533,-1.25677 v -0.80753 h -0.788238 v 0.80753 z"
         id="path5077" />
    </g>
    <g
       aria-label="x out"
       id="text18567"
       style="font-size:5.64444px;line-height:0.85;font-family:'Agency FB';-inkscape-font-specification:'Agency FB';text-align:center;text-anchor:middle;fill:#ffffff;stroke-width:0.264583"
       inkscape:label="sample"
       transform="translate(2.3553266,20.034075)">
      <g
         aria-label="sample"
         id="text4382"
         style="line-height:1.25;fill:#ffffff;stroke-width:0.0700042">
        <path
           d="m 3.2254559,90.06126 q 0,0.311436 -0.3114364,0.311436 H 2.0734169 q -0.3114364,0 -0.3114364,-0.311436 v -0.609093 h 0.3610457 v 0.60358 h 0.741384 V 89.521069 L 1.9052963,88.735588 Q 1.7674926,88.625345 1.7674926,88.448956 v -0.446484 q 0,-0.311436 0.3114364,-0.311436 h 0.8295784 q 0.3114364,0 0.3114364,0.311436 V 88.53715 H 2.8644102 v -0.529166 h -0.741384 v 0.468533 l 0.9673821,0.785481 q 0.1350476,0.107487 0.1350476,0.292144 z"
           id="path6814"
           style="fill:#ffffff" />
        <path
           d="M 5.3228285,90.372696 H 4.9617828 v -0.07441 q -0.2177299,0.03032 -0.4354598,0.05788 -0.2700952,0.03307 -0.4327036,0.03307 -0.3004121,0 -0.3004121,-0.297656 v -0.97841 q 0,-0.30868 0.3114364,-0.30868 H 4.9672949 V 87.99696 H 4.1790577 v 0.457508 H 3.8235241 v -0.451996 q 0,-0.311436 0.3086803,-0.311436 h 0.8819438 q 0.3086803,0 0.3086803,0.311436 z M 4.9672949,90.039211 v -0.94809 h -0.818554 v 0.964626 z"
           id="path6816"
           style="fill:#ffffff" />
        <path
           d="M 8.6190934,90.372696 H 8.2525356 v -2.353688 l -0.7992616,0.02205 v 2.331639 H 7.0894722 v -2.353688 l -0.7992616,0.02205 v 2.331639 H 5.9236528 v -2.68166 h 0.3665578 v 0.07441 q 0.2149738,-0.02756 0.4299476,-0.05788 0.2618271,-0.03307 0.4327037,-0.03307 0.1681205,0 0.2480467,0.101975 0.2315102,-0.03032 0.4602644,-0.06339 0.3004121,-0.03858 0.4547523,-0.03858 0.3031681,0 0.3031681,0.300412 z"
           id="path6818"
           style="fill:#ffffff" />
        <path
           d="m 10.755051,89.796676 q 0,0.248047 -0.162609,0.413412 -0.162608,0.162608 -0.407899,0.162608 H 9.5809631 v 1.016991 H 9.2144052 v -3.698651 h 0.3665579 v 0.07441 q 0.2177298,-0.02756 0.4354599,-0.05512 0.275607,-0.03583 0.432703,-0.03583 0.305925,0 0.305925,0.300412 z m -0.366558,-0.05512 v -1.722547 l -0.8075299,0.02205 v 2.009178 h 0.5071179 q 0.300412,0 0.300412,-0.308681 z"
           id="path6820"
           style="fill:#ffffff" />
        <path
           d="M 11.725189,90.372696 H 11.364143 V 86.05944 h 0.361046 z"
           id="path6822"
           style="fill:#ffffff" />
        <path
           d="m 13.847366,90.06126 q 0,0.311436 -0.30868,0.311436 h -0.881944 q -0.30868,0 -0.30868,-0.311436 v -2.058788 q 0,-0.311436 0.30868,-0.311436 h 0.881944 q 0.30868,0 0.30868,0.311436 v 0.964626 l -0.124023,0.129536 h -1.019748 v 0.970138 h 0.788238 V 89.57619 h 0.355533 z m -0.355533,-1.25677 v -0.80753 h -0.788238 v 0.80753 z"
           id="path6824"
           style="fill:#ffffff" />
      </g>
    </g>
    <g
       aria-label="trigger"
       id="text16496"
       style="font-size:5.64444px;line-height:0.85;font-family:'Agency FB';-inkscape-font-specification:'Agency FB';text-align:center;text-anchor:middle;stroke-width:0.264583"
       inkscape:label="trigger"
       transform="translate(-4.9697571,-1.2392211)">
      <path
         d="M 10.152287,46.883865 H 9.6313891 q -0.3086803,0 -0.3086803,-0.311436 V 44.524666 H 9.0002481 v -0.322461 h 0.3224607 v -0.83509 h 0.3610457 v 0.83509 h 0.4685325 v 0.322461 H 9.6837545 v 2.036739 h 0.4685325 z"
         id="path21230" />
      <path
         d="m 12.023662,45.084149 h -0.361046 v -0.553971 l -0.675238,0.02205 v 2.331639 H 10.62082 v -2.68166 h 0.366558 v 0.07441 q 0.181901,-0.02756 0.366558,-0.05788 0.220485,-0.03307 0.366557,-0.03307 0.303169,0 0.303169,0.300412 z"
         id="path21232" />
      <path
         d="m 12.878045,43.615161 h -0.372071 v -0.46302 h 0.372071 z m -0.0055,3.268704 H 12.5115 v -2.68166 h 0.361045 z"
         id="path21234" />
      <path
         d="m 15.019514,47.58942 q 0,0.311437 -0.311436,0.311437 h -0.87092 q -0.316948,0 -0.316948,-0.394119 0,-0.04685 0.0028,-0.14056 0.0055,-0.09095 0.0055,-0.132291 h 0.361046 v 0.355533 h 0.766188 v -0.705555 h -0.60358 q -0.24529,0 -0.407899,-0.162608 -0.162608,-0.165364 -0.162608,-0.413411 V 44.73964 q 0,-0.237023 0.143316,-0.394119 0.143316,-0.159852 0.377582,-0.159852 0.06339,0 0.653189,0.09095 v -0.07441 h 0.363802 z M 14.655712,46.561405 V 44.53569 q -0.435459,-0.02756 -0.507117,-0.02756 -0.303168,0 -0.303168,0.308681 v 1.435914 q 0,0.308681 0.303168,0.308681 z"
         id="path21236" />
      <path
         d="m 17.147204,47.58942 q 0,0.311437 -0.311437,0.311437 h -0.870919 q -0.316949,0 -0.316949,-0.394119 0,-0.04685 0.0028,-0.14056 0.0055,-0.09095 0.0055,-0.132291 h 0.361046 v 0.355533 h 0.766189 v -0.705555 h -0.60358 q -0.245291,0 -0.407899,-0.162608 -0.162609,-0.165364 -0.162609,-0.413411 V 44.73964 q 0,-0.237023 0.143316,-0.394119 0.143316,-0.159852 0.377582,-0.159852 0.06339,0 0.65319,0.09095 v -0.07441 h 0.363802 z M 16.783402,46.561405 V 44.53569 q -0.43546,-0.02756 -0.507118,-0.02756 -0.303168,0 -0.303168,0.308681 v 1.435914 q 0,0.308681 0.303168,0.308681 z"
         id="path21238" />
      <path
         d="m 19.250088,46.572429 q 0,0.311436 -0.30868,0.311436 h -0.881944 q -0.30868,0 -0.30868,-0.311436 v -2.058788 q 0,-0.311436 0.30868,-0.311436 h 0.881944 q 0.30868,0 0.30868,0.311436 v 0.964626 l -0.124023,0.129536 h -1.019748 v 0.970138 h 0.788238 V 46.08736 h 0.355533 z m -0.355533,-1.25677 v -0.80753 h -0.788238 v 0.80753 z"
         id="path21240" />
      <path
         d="M 21.259266,45.084149 H 20.89822 v -0.553971 l -0.675238,0.02205 v 2.331639 h -0.366558 v -2.68166 h 0.366558 v 0.07441 q 0.181901,-0.02756 0.366558,-0.05788 0.220486,-0.03307 0.366558,-0.03307 0.303168,0 0.303168,0.300412 z"
         id="path21242" />
    </g>
    <g
       aria-label="simplex and hold"
       id="text4653"
       style="font-size:5.64444px;line-height:0.85;font-family:'Agency FB';-inkscape-font-specification:'Agency FB';text-align:center;text-anchor:middle;stroke-width:0.264583"
       inkscape:label="title"
       transform="translate(-5.0800005)">
      <path
         d="m 10.18536,14.559217 q 0,0.311436 -0.3114363,0.311436 H 9.033321 q -0.3114364,0 -0.3114364,-0.311436 v -0.609093 h 0.3610457 v 0.603581 h 0.741384 V 14.019026 L 8.8652005,13.233545 Q 8.7273967,13.123302 8.7273967,12.946913 v -0.446484 q 0,-0.311436 0.3114364,-0.311436 h 0.8295784 q 0.3114365,0 0.3114365,0.311436 v 0.534679 H 9.8243143 v -0.529167 h -0.741384 v 0.468533 l 0.9673817,0.785481 q 0.135048,0.107487 0.135048,0.292144 z"
         id="path21183" />
      <path
         d="m 11.155498,11.601949 h -0.37207 v -0.46302 h 0.37207 z m -0.0055,3.268704 H 10.78894 v -2.68166 h 0.361046 z"
         id="path21185" />
      <path
         d="m 14.4683,14.870653 h -0.366558 v -2.353687 l -0.799262,0.02205 v 2.331639 h -0.363802 v -2.353687 l -0.799261,0.02205 v 2.331639 h -0.366558 v -2.68166 h 0.366558 v 0.07441 q 0.214974,-0.02756 0.429947,-0.05788 0.261827,-0.03307 0.432704,-0.03307 0.168121,0 0.248047,0.101975 0.23151,-0.03032 0.460264,-0.06339 0.300412,-0.03858 0.454752,-0.03858 0.303169,0 0.303169,0.300413 z"
         id="path21187" />
      <path
         d="m 16.604257,14.294634 q 0,0.248046 -0.162608,0.413411 -0.162609,0.162608 -0.407899,0.162608 h -0.603581 v 1.016992 h -0.366557 v -3.698652 h 0.366557 v 0.07441 q 0.21773,-0.02756 0.43546,-0.05512 0.275608,-0.03583 0.432704,-0.03583 0.305924,0 0.305924,0.300413 z m -0.366558,-0.05512 v -1.722546 l -0.80753,0.02205 v 2.009178 h 0.507118 q 0.300412,0 0.300412,-0.30868 z"
         id="path21189" />
      <path
         d="m 17.574395,14.870653 h -0.361046 v -4.313256 h 0.361046 z"
         id="path21191" />
      <path
         d="m 19.696572,14.559217 q 0,0.311436 -0.30868,0.311436 h -0.881944 q -0.30868,0 -0.30868,-0.311436 v -2.058788 q 0,-0.311436 0.30868,-0.311436 h 0.881944 q 0.30868,0 0.30868,0.311436 v 0.964626 l -0.124023,0.129536 h -1.019747 v 0.970138 h 0.788237 v -0.490581 h 0.355533 z m -0.355533,-1.25677 v -0.80753 h -0.788237 v 0.80753 z"
         id="path21193" />
      <path
         d="m 21.758116,14.870653 h -0.37207 l -0.451997,-1.061088 -0.457508,1.061088 h -0.361046 v -0.01102 L 20.741124,13.49262 20.15408,12.188997 h 0.37207 l 0.413412,0.983918 0.424435,-0.983918 h 0.355534 v 0.01102 l -0.587044,1.281575 z"
         id="path21195" />
      <path
         d="m 13.746208,19.668427 h -0.60358 v -0.09646 q -0.214974,0.03307 -0.429948,0.06615 -0.281119,0.04134 -0.427191,0.04134 -0.34451,0 -0.34451,-0.338997 v -1.003211 q 0,-0.34451 0.355534,-0.34451 H 13.14814 V 17.353325 H 12.54456 V 17.7502 h -0.570508 v -0.520898 q 0,-0.34451 0.355534,-0.34451 h 1.066601 q 0.350021,0 0.350021,0.34451 z M 13.14814,19.166822 v -0.746896 h -0.60358 v 0.768945 z"
         style="font-weight:bold"
         id="path21197" />
      <path
         d="m 16.055798,19.668427 h -0.633897 v -2.257224 l -0.592556,0.01102 v 2.2462 h -0.631141 v -2.783635 h 0.631141 v 0.101975 q 0.220486,-0.03583 0.438216,-0.0689 0.270095,-0.0441 0.443728,-0.0441 0.344509,0 0.344509,0.338997 z"
         style="font-weight:bold"
         id="path21199" />
      <path
         d="m 18.354364,19.668427 h -0.628385 v -0.09646 q -0.639409,0.112999 -0.716579,0.112999 -0.237022,0 -0.37207,-0.137804 -0.135048,-0.14056 -0.135048,-0.380338 v -1.722547 q 0,-0.338997 0.242535,-0.471288 0.176389,-0.09922 0.534678,-0.09922 0.07993,0 0.231511,0.0055 0.151584,0.0055 0.214973,0.0055 v -1.529621 h 0.628385 z m -0.628385,-0.542946 v -1.714278 h -0.388606 q -0.209462,0 -0.209462,0.209461 v 1.331184 q 0,0.20395 0.198438,0.20395 0.04685,0 0.39963,-0.03032 z"
         style="font-weight:bold"
         id="path21201" />
      <path
         d="m 13.294212,24.466202 h -0.366558 v -2.353688 l -0.80753,0.02205 v 2.331639 h -0.366558 v -4.313257 h 0.366558 v 1.70601 q 0.21773,-0.02756 0.43546,-0.05512 0.275607,-0.03583 0.432704,-0.03583 0.305924,0 0.305924,0.300412 z"
         id="path21203" />
      <path
         d="m 15.427413,24.154765 q 0,0.311437 -0.311436,0.311437 h -0.920529 q -0.30868,0 -0.30868,-0.311437 v -2.058787 q 0,-0.311437 0.30868,-0.311437 h 0.920529 q 0.311436,0 0.311436,0.311437 z m -0.366557,-0.01102 v -2.036739 h -0.80753 v 2.036739 z"
         id="path21205" />
      <path
         d="M 16.408576,24.466202 H 16.04753 v -4.313257 h 0.361046 z"
         id="path21207" />
      <path
         d="m 18.555558,24.466202 h -0.363802 v -0.07441 q -0.5898,0.09095 -0.653189,0.09095 -0.234267,0 -0.377583,-0.157096 -0.143315,-0.159852 -0.143315,-0.396875 v -1.568206 q 0,-0.248047 0.162608,-0.410655 0.162608,-0.165365 0.407899,-0.165365 h 0.60358 v -1.631596 h 0.363802 z m -0.363802,-0.333485 v -2.025715 h -0.507117 q -0.303169,0 -0.303169,0.311437 v 1.433158 q 0,0.30868 0.303169,0.30868 0.07166,0 0.507117,-0.02756 z"
         id="path21209" />
    </g>
    <g
       aria-label="+/-5"
       id="text8077"
       style="font-size:2.82222px;line-height:1.25;font-family:'Agency FB';-inkscape-font-specification:'Agency FB';stroke-width:0.264583">
      <path
         d="m 15.967777,82.15901 h -0.396874 v 0.389984 H 15.401404 V 82.15901 h -0.396875 v -0.159853 h 0.396875 v -0.389984 h 0.169499 v 0.389984 h 0.396874 z"
         id="path13855" />
      <path
         d="m 17.220413,80.881569 -0.91226,2.144226 h -0.183279 v -0.01102 l 0.91226,-2.145604 h 0.183279 z"
         id="path13857" />
      <path
         d="m 17.982468,82.288545 h -0.567752 v -0.170877 h 0.567752 z"
         id="path13859" />
      <path
         d="m 19.116592,82.872833 q 0,0.06752 -0.04272,0.110243 -0.04272,0.04272 -0.110243,0.04272 h -0.530544 q -0.06752,0 -0.110243,-0.04272 -0.04134,-0.04272 -0.04134,-0.110243 v -0.547081 h 0.191547 v 0.530544 h 0.451996 v -1.015613 h -0.638031 l 0.02481,-0.971516 h 0.788237 v 0.169498 h -0.600824 l -0.02343,0.632519 h 0.487825 q 0.06752,0 0.110243,0.04272 0.04272,0.04272 0.04272,0.110243 z"
         id="path13861" />
    </g>
    <g
       aria-label="+/-1"
       id="text5067"
       style="font-size:2.82222px;line-height:1.25;font-family:'Agency FB';-inkscape-font-specification:'Agency FB';stroke-width:0.264583">
      <path
         d="M 2.1666557,82.15901 H 1.769781 v 0.389984 H 1.6002825 V 82.15901 H 1.2034078 V 81.999157 H 1.6002825 V 81.609173 H 1.769781 v 0.389984 h 0.3968747 z"
         id="path13828" />
      <path
         d="M 3.4192915,80.881569 2.5070309,83.025795 H 2.323752 v -0.01102 l 0.9122606,-2.145604 h 0.1832789 z"
         id="path13830" />
      <path
         d="M 4.1813462,82.288545 H 3.6135949 v -0.170877 h 0.5677513 z"
         id="path13832" />
      <path
         d="M 4.7008661,83.025795 H 4.5079409 v -1.49517 h -0.08406 v -0.0069 l 0.1212673,-0.654567 h 0.1557182 z"
         id="path13834" />
    </g>
    <g
       aria-label="+/-3"
       id="text11613"
       style="font-size:2.82222px;line-height:1.25;font-family:'Agency FB';-inkscape-font-specification:'Agency FB';stroke-width:0.264583"
       inkscape:label="text11613">
      <path
         d="M 9.0513688,73.104307 H 8.6544941 v 0.389984 H 8.4849955 V 73.104307 H 8.0881208 V 72.944455 H 8.4849955 V 72.55447 h 0.1694986 v 0.389985 h 0.3968747 z"
         id="path13801" />
      <path
         d="M 10.304005,71.826866 9.391744,73.971092 H 9.2084651 v -0.01102 l 0.9122609,-2.145604 h 0.183279 z"
         id="path13803" />
      <path
         d="m 11.066059,73.233842 h -0.567751 v -0.170876 h 0.567751 z"
         id="path13805" />
      <path
         d="m 12.231879,73.81813 q 0,0.06752 -0.04272,0.110243 -0.04272,0.04272 -0.110243,0.04272 h -0.555349 q -0.06752,0 -0.110243,-0.04272 -0.04272,-0.04272 -0.04272,-0.110243 v -0.547081 h 0.191547 v 0.530545 h 0.476801 v -0.66008 L 11.658615,72.85626 v -0.04272 l 0.377582,-0.28112 v -0.548458 h -0.471288 v 0.485069 h -0.191548 v -0.501606 q 0,-0.06752 0.04272,-0.110243 0.04272,-0.04272 0.110243,-0.04272 h 0.549836 q 0.06752,0 0.110243,0.04272 0.04272,0.04272 0.04272,0.110243 v 0.525032 q 0,0.103353 -0.08268,0.161231 l -0.256315,0.180523 0.259071,0.180522 q 0.08268,0.0565 0.08268,0.163987 z"
         id="path13807" />
    </g>
    <g
       aria-label="×"
       id="text3498"
       style="font-size:11.2889px;line-height:1.25;font-family:serif;-inkscape-font-specification:serif;stroke-width:0.264583"
       transform="translate(0,-2.1166667)">
      <path
         d="m 12.036893,124.89348 h -0.148829 q -0.03307,-0.42444 -0.286632,-0.71107 l -2.3922767,-2.74506 q -0.6118496,0.30868 -0.6118496,0.79375 0,0.37483 0.3913632,0.96463 0.451997,0.67249 0.451997,1.06936 0,0.52917 -0.4023875,0.52917 h -1.041798 v -0.14883 q 0.3307295,-0.0882 0.3307295,-0.38034 0,-0.1819 -0.209462,-0.72209 -0.209462,-0.53468 -0.209462,-0.82683 0,-0.88745 1.0914074,-1.51033 l -0.6779955,-0.76619 q -0.4244362,-0.48507 -0.4244362,-1.00872 0,-0.47405 0.3858511,-0.89297 h 0.1433161 q 0.027561,0.47956 0.2866322,0.7717 l 2.072572,2.35369 q 0.159852,-0.79375 0.611849,-1.48277 -0.876433,-0.14331 -0.876433,-0.88194 0,-0.43546 0.225998,-0.76068 h 0.143317 q 0.08819,0.34175 0.424436,0.42443 l 0.474045,0.11025 q 0.622874,0.14883 0.622874,0.70004 0,0.24254 -0.04961,0.39137 -0.181901,0.0551 -0.600825,0.0551 -0.573265,0.90399 -0.573265,1.47726 0,0.42443 0.292145,0.76067 l 0.51263,0.5898 q 0.429949,0.49059 0.429949,1.01424 0,0.47405 -0.385851,0.83234 z"
         id="path15128" />
    </g>
  </g>
  <g
     inkscape:groupmode="layer"
     id="layer2"
     inkscape:label="components"
     style="display:none">
    <circle
       style="fill:#00ff00;fill-rule:evenodd;stroke-width:0.264583"
       id="path16344"
       cx="10.16"
       cy="35.937412"
       r="4.1307373"
       inkscape:label="trigger" />
    <circle
       style="fill:#0000ff;fill-rule:evenodd;stroke-width:0.264583"
       id="circle16468"
       cx="10.16"
       cy="100.44576"
       r="4.1307373"
       inkscape:label="sample" />
    <circle
       style="fill:#ff0000;fill-rule:evenodd;stroke-width:0.264583"
       id="circle959"
       cx="10.006349"
       cy="79.538597"
       r="4.1307373"
       inkscape:label="range" />
  </g>
</svg>
