<?xml version="1.0" encoding="UTF-8" standalone="no"?>
<!-- Created with Inkscape (http://www.inkscape.org/) -->

<svg
   width="20.32mm"
   height="128.5mm"
   viewBox="0 0 20.32 128.5"
   version="1.1"
   id="svg971"
   inkscape:version="1.1.1 (3bf5ae0d25, 2021-09-20)"
   sodipodi:docname="simplexvco.svg"
   xmlns:inkscape="http://www.inkscape.org/namespaces/inkscape"
   xmlns:sodipodi="http://sodipodi.sourceforge.net/DTD/sodipodi-0.dtd"
   xmlns="http://www.w3.org/2000/svg"
   xmlns:svg="http://www.w3.org/2000/svg">
  <sodipodi:namedview
     id="namedview973"
     pagecolor="#505050"
     bordercolor="#eeeeee"
     borderopacity="1"
     inkscape:pageshadow="0"
     inkscape:pageopacity="0"
     inkscape:pagecheckerboard="0"
     inkscape:document-units="mm"
     showgrid="false"
     borderlayer="true"
     inkscape:zoom="1.2810466"
     inkscape:cx="-1.9515293"
     inkscape:cy="229.10954"
     inkscape:current-layer="layer2" />
  <defs
     id="defs968" />
  <g
     inkscape:label="panel"
     inkscape:groupmode="layer"
     id="layer1">
    <rect
       style="fill:#ffffff;stroke:#000000;stroke-width:0"
       id="rect1054"
       width="23.132128"
       height="131.97705"
       x="-1.406064"
       y="-1.7385254"
       inkscape:label="bg" />
    <rect
       style="fill:#000000;stroke:#000000;stroke-width:0"
       id="rect32999"
       width="15.283727"
       height="17.762169"
       x="2.4784422"
       y="104.3011"
       ry="4"
       rx="4" />
    <g
       aria-label="frequency"
       id="text12506"
       style="font-size:5.64444px;line-height:1.25;font-family:'Agency FB';-inkscape-font-specification:'Agency FB';stroke-width:0.264583"
       transform="translate(0,-2.4784421)">
      <path
         d="M 2.557362,42.235462 H 2.03922 v 1.309135 h 0.4575083 v 0.322461 H 2.03922 v 2.359199 H 1.6781743 V 43.867058 H 1.3667379 v -0.322461 h 0.3114364 v -1.32016 q 0,-0.311436 0.3086803,-0.311436 H 2.557362 Z"
         id="path17232" />
      <path
         d="M 4.2881766,44.426541 H 3.9271309 V 43.87257 l -0.6752382,0.02205 v 2.331639 H 2.8853348 v -2.68166 h 0.3665579 v 0.07441 q 0.1819009,-0.02756 0.3665578,-0.05788 0.220486,-0.03307 0.3665579,-0.03307 0.3031682,0 0.3031682,0.300412 z"
         id="path17234" />
      <path
         d="m 6.2532574,45.914821 q 0,0.311436 -0.3086803,0.311436 H 5.0626333 q -0.3086803,0 -0.3086803,-0.311436 v -2.058788 q 0,-0.311436 0.3086803,-0.311436 h 0.8819438 q 0.3086803,0 0.3086803,0.311436 v 0.964626 L 6.1292341,44.950195 H 5.1094866 v 0.970138 h 0.7882373 v -0.490581 h 0.3555335 z m -0.3555335,-1.25677 v -0.80753 H 5.1094866 v 0.80753 z"
         id="path17236" />
      <path
         d="M 8.383703,47.243249 H 8.0199012 V 46.226257 H 7.4163209 q -0.2452906,0 -0.407899,-0.162608 -0.1626084,-0.165365 -0.1626084,-0.413411 v -1.568206 q 0,-0.237023 0.1433159,-0.394119 0.1433159,-0.159852 0.3775822,-0.159852 0.06339,0 0.6531896,0.09095 v -0.07441 H 8.383703 Z M 8.0199012,45.903797 v -2.025715 q -0.4354597,-0.02756 -0.5071177,-0.02756 -0.3031682,0 -0.3031682,0.308681 v 1.435914 q 0,0.308681 0.3031682,0.308681 z"
         id="path17238" />
      <path
         d="m 10.522417,46.226257 h -0.361046 v -0.07441 q -0.220486,0.03032 -0.4382159,0.05788 -0.2645831,0.03307 -0.4382158,0.03307 -0.297656,0 -0.297656,-0.297656 V 43.544597 H 9.348329 v 2.353687 l 0.813042,-0.02205 v -2.331639 h 0.361046 z"
         id="path17240" />
      <path
         d="m 12.619789,45.914821 q 0,0.311436 -0.30868,0.311436 h -0.881944 q -0.30868,0 -0.30868,-0.311436 v -2.058788 q 0,-0.311436 0.30868,-0.311436 h 0.881944 q 0.30868,0 0.30868,0.311436 v 0.964626 l -0.124023,0.129536 h -1.019748 v 0.970138 h 0.788238 v -0.490581 h 0.355533 z m -0.355533,-1.25677 v -0.80753 h -0.788238 v 0.80753 z"
         id="path17242" />
      <path
         d="M 14.766771,46.226257 H 14.400213 V 43.87257 l -0.80753,0.02205 v 2.331639 h -0.366558 v -2.68166 h 0.366558 v 0.07441 q 0.214974,-0.02756 0.432704,-0.05788 0.264583,-0.03307 0.43546,-0.03307 0.305924,0 0.305924,0.300412 z"
         id="path17244" />
      <path
         d="m 16.847607,45.914821 q 0,0.311436 -0.30868,0.311436 h -0.87092 q -0.30868,0 -0.30868,-0.311436 v -2.058788 q 0,-0.311436 0.30868,-0.311436 h 0.87092 q 0.30868,0 0.30868,0.311436 v 0.534679 h -0.361046 v -0.523654 h -0.760676 v 2.036739 h 0.760676 v -0.598068 h 0.361046 z"
         id="path17246" />
      <path
         d="m 18.953248,43.544597 -0.644921,2.659612 -0.26734,1.03904 h -0.361045 l 0.270095,-1.03904 -0.661458,-2.659612 h 0.377582 l 0.457509,2.111153 0.46302,-2.111153 z"
         id="path17248" />
    </g>
    <g
       aria-label="simplex vco"
       id="text4051"
       style="font-size:5.64444px;line-height:0.85;font-family:'Agency FB';-inkscape-font-specification:'Agency FB';text-align:center;text-anchor:middle;stroke-width:0.264583">
      <path
         d="m 5.1053601,14.558823 q 0,0.311436 -0.3114364,0.311436 H 3.9533211 q -0.3114364,0 -0.3114364,-0.311436 V 13.94973 h 0.3610457 v 0.603581 h 0.741384 V 14.018632 L 3.7852005,13.233151 Q 3.6473968,13.122908 3.6473968,12.946519 v -0.446484 q 0,-0.311436 0.3114364,-0.311436 h 0.8295784 q 0.3114364,0 0.3114364,0.311436 v 0.534679 H 4.7443144 v -0.529166 h -0.741384 v 0.468532 l 0.9673821,0.785481 q 0.1350476,0.107487 0.1350476,0.292144 z"
         id="path10507" />
      <path
         d="m 6.0754983,11.601555 h -0.37207 v -0.46302 h 0.37207 z m -0.00551,3.268704 H 5.7089404 v -2.68166 h 0.3610458 z"
         id="path10509" />
      <path
         d="M 9.3882996,14.870259 H 9.0217418 v -2.353687 l -0.7992616,0.02205 v 2.331639 H 7.8586784 v -2.353687 l -0.7992616,0.02205 v 2.331639 H 6.692859 v -2.68166 h 0.3665578 v 0.07441 q 0.2149738,-0.02756 0.4299476,-0.05788 0.2618271,-0.03307 0.4327037,-0.03307 0.1681205,0 0.2480467,0.101974 0.2315102,-0.03032 0.4602644,-0.06339 0.3004121,-0.03859 0.4547523,-0.03859 0.3031681,0 0.3031681,0.300412 z"
         id="path10511" />
      <path
         d="m 11.524257,14.29424 q 0,0.248046 -0.162608,0.413411 -0.162609,0.162608 -0.407899,0.162608 h -0.603581 v 1.016992 H 9.9836116 v -3.698652 h 0.3665574 v 0.07441 q 0.21773,-0.02756 0.43546,-0.05512 0.275608,-0.03583 0.432704,-0.03583 0.305924,0 0.305924,0.300412 z m -0.366558,-0.05512 v -1.722546 l -0.80753,0.02205 v 2.009179 h 0.507118 q 0.300412,0 0.300412,-0.308681 z"
         id="path10513" />
      <path
         d="M 12.494395,14.870259 H 12.13335 v -4.313256 h 0.361045 z"
         id="path10515" />
      <path
         d="m 14.616573,14.558823 q 0,0.311436 -0.308681,0.311436 h -0.881944 q -0.30868,0 -0.30868,-0.311436 v -2.058788 q 0,-0.311436 0.30868,-0.311436 h 0.881944 q 0.308681,0 0.308681,0.311436 v 0.964626 l -0.124024,0.129536 h -1.019747 v 0.970138 h 0.788237 v -0.490581 h 0.355534 z m -0.355534,-1.25677 v -0.80753 h -0.788237 v 0.80753 z"
         id="path10517" />
      <path
         d="m 16.678116,14.870259 h -0.37207 l -0.451996,-1.061088 -0.457509,1.061088 h -0.361046 v -0.01102 l 0.625629,-1.367013 -0.587043,-1.303623 h 0.37207 l 0.413411,0.983919 0.424435,-0.983919 h 0.355534 v 0.01102 l -0.587044,1.281575 z"
         id="path10519" />
      <path
         d="m 8.7957436,16.986373 -0.6642139,2.687173 h -0.333485 l -0.66697,-2.687173 h 0.3775822 l 0.4575084,2.111153 0.4630204,-2.111153 z"
         id="path10521" />
      <path
         d="m 10.733264,19.356597 q 0,0.311437 -0.30868,0.311437 H 9.5536641 q -0.3086803,0 -0.3086803,-0.311437 V 17.29781 q 0,-0.311437 0.3086803,-0.311437 h 0.8709199 q 0.30868,0 0.30868,0.311437 v 0.534678 H 10.372218 V 17.308834 H 9.6115416 v 2.036739 h 0.7606764 v -0.598068 h 0.361046 z"
         id="path10523" />
      <path
         d="m 12.869221,19.356597 q 0,0.311437 -0.311436,0.311437 h -0.920529 q -0.30868,0 -0.30868,-0.311437 V 17.29781 q 0,-0.311437 0.30868,-0.311437 h 0.920529 q 0.311436,0 0.311436,0.311437 z m -0.366558,-0.01102 v -2.036739 h -0.807529 v 2.036739 z"
         id="path10525" />
    </g>
    <g
       aria-label="x"
       id="text7052"
       style="font-size:4.23333px;line-height:1.25;font-family:'Agency FB';-inkscape-font-specification:'Agency FB';stroke-width:0.264583">
      <path
         d="M 10.775982,58.366447 H 10.49693 L 10.157932,57.570631 9.8148012,58.366447 H 9.5440169 v -0.0083 L 10.013239,57.33292 9.5729557,56.355202 h 0.2790525 l 0.3100588,0.737939 0.318326,-0.737939 h 0.26665 v 0.0083 l -0.440283,0.96118 z"
         id="path33333" />
    </g>
    <g
       aria-label="y"
       id="text10596"
       style="font-size:4.23333px;line-height:1.25;font-family:'Agency FB';-inkscape-font-specification:'Agency FB';stroke-width:0.264583">
      <path
         d="M 10.784251,69.780091 10.30056,71.7748 10.100055,72.55408 H 9.829271 L 10.031842,71.7748 9.5357491,69.780091 h 0.2831866 l 0.3431313,1.583365 0.347265,-1.583365 z"
         id="path33312" />
    </g>
    <g
       aria-label="scale"
       id="text14360"
       style="font-size:4.23333px;line-height:1.25;font-family:'Agency FB';-inkscape-font-specification:'Agency FB';stroke-width:0.264583">
      <path
         d="m 7.976156,86.08022 q 0,0.233577 -0.2335773,0.233577 H 7.1121268 q -0.2335773,0 -0.2335773,-0.233577 V 85.6234 h 0.2707843 v 0.452686 H 7.7053717 V 85.675077 L 6.9860364,85.085966 Q 6.8826836,85.003284 6.8826836,84.870992 v -0.334863 q 0,-0.233577 0.2335773,-0.233577 h 0.6221837 q 0.2335773,0 0.2335773,0.233577 v 0.401009 H 7.7053717 V 84.540263 H 7.1493338 v 0.3514 l 0.7255365,0.589111 q 0.1012857,0.08062 0.1012857,0.219107 z"
         id="path33283" />
      <path
         d="m 9.5285147,86.08022 q 0,0.233577 -0.2315102,0.233577 H 8.6438149 q -0.2315102,0 -0.2315102,-0.233577 v -1.544091 q 0,-0.233577 0.2315102,-0.233577 h 0.6531896 q 0.2315102,0 0.2315102,0.233577 v 0.401009 H 9.2577304 V 84.544397 H 8.6872231 v 1.527554 H 9.2577304 V 85.6234 h 0.2707843 z"
         id="path33285" />
      <path
         d="m 11.111879,86.313797 h -0.270784 v -0.05581 q -0.163297,0.02274 -0.326595,0.04341 -0.202571,0.0248 -0.324528,0.0248 -0.2253086,0 -0.2253086,-0.223242 v -0.733804 q 0,-0.231511 0.2335776,-0.231511 h 0.646988 v -0.605647 h -0.591178 v 0.343131 h -0.26665 v -0.338997 q 0,-0.233577 0.23151,-0.233577 h 0.661458 q 0.23151,0 0.23151,0.233577 z m -0.26665,-0.250114 v -0.711067 h -0.613915 v 0.72347 z"
         id="path33287" />
      <path
         d="m 11.849818,86.313797 h -0.270784 v -3.234942 h 0.270784 z"
         id="path33289" />
      <path
         d="m 13.441451,86.08022 q 0,0.233577 -0.231511,0.233577 h -0.661457 q -0.231511,0 -0.231511,-0.233577 v -1.544091 q 0,-0.233577 0.231511,-0.233577 h 0.661457 q 0.231511,0 0.231511,0.233577 v 0.72347 l -0.09302,0.09715 h -0.76481 v 0.727604 H 13.1748 v -0.367936 h 0.266651 z M 13.1748,85.137642 v -0.605647 h -0.591177 v 0.605647 z"
         id="path33291" />
    </g>
    <g
       aria-label="detail"
       id="text14364"
       style="font-size:4.23333px;line-height:1.25;font-family:'Agency FB';-inkscape-font-specification:'Agency FB';stroke-width:0.264583">
      <path
         d="M 7.8686688,102.01061 H 7.5958174 v -0.0558 q -0.4423498,0.0682 -0.4898921,0.0682 -0.1756997,0 -0.2831866,-0.11782 -0.1074869,-0.11989 -0.1074869,-0.29765 v -1.17616 q 0,-0.18603 0.1219563,-0.30799 0.1219562,-0.124023 0.3059242,-0.124023 H 7.5958174 V 98.775671 H 7.8686688 Z M 7.5958174,101.7605 v -1.51929 H 7.2154792 q -0.2273761,0 -0.2273761,0.23358 v 1.07487 q 0,0.23151 0.2273761,0.23151 0.053744,0 0.3803382,-0.0207 z"
         id="path33252" />
      <path
         d="m 9.4458322,101.77704 q 0,0.23357 -0.2315102,0.23357 H 8.5528642 q -0.2315102,0 -0.2315102,-0.23357 v -1.5441 q 0,-0.233573 0.2315102,-0.233573 H 9.214322 q 0.2315102,0 0.2315102,0.233573 v 0.72347 l -0.093018,0.0972 H 8.5880041 v 0.7276 H 9.179182 v -0.36794 H 9.4458322 Z M 9.179182,100.83446 v -0.60565 H 8.5880041 v 0.60565 z"
         id="path33254" />
      <path
         d="M 10.624054,102.01061 H 10.23338 q -0.23151,0 -0.23151,-0.23357 v -1.53583 H 9.7600246 V 99.999367 H 10.00187 V 99.37305 h 0.270784 v 0.626317 h 0.3514 v 0.241843 h -0.3514 v 1.52756 h 0.3514 z"
         id="path33256" />
      <path
         d="M 12.112334,102.01061 H 11.84155 v -0.0558 q -0.163298,0.0227 -0.326595,0.0434 -0.202571,0.0248 -0.324528,0.0248 -0.225309,0 -0.225309,-0.22324 v -0.7338 q 0,-0.23151 0.233578,-0.23151 h 0.646988 v -0.60565 h -0.591178 v 0.34313 h -0.26665 v -0.339 q 0,-0.233573 0.23151,-0.233573 h 0.661458 q 0.23151,0 0.23151,0.233573 z m -0.26665,-0.25011 v -0.71107 h -0.613916 v 0.72347 z"
         id="path33258" />
      <path
         d="m 12.854407,99.559085 h -0.279052 v -0.347266 h 0.279052 z m -0.0041,2.451525 h -0.270784 v -2.011243 h 0.270784 z"
         id="path33260" />
      <path
         d="m 13.604748,102.01061 h -0.270784 v -3.234939 h 0.270784 z"
         id="path33262" />
    </g>
    <g
       aria-label="out"
       id="text27874"
       style="font-size:4.23333px;line-height:1.25;font-family:'Agency FB';-inkscape-font-specification:'Agency FB';fill:#ffffff;stroke-width:0.264583">
      <path
         d="m 9.3517809,120.3647 q 0,0.23358 -0.2335773,0.23358 H 8.4278071 q -0.2315102,0 -0.2315102,-0.23358 v -1.54409 q 0,-0.23357 0.2315102,-0.23357 h 0.6903965 q 0.2335773,0 0.2335773,0.23357 z m -0.2749184,-0.008 v -1.52756 H 8.4712152 v 1.52756 z"
         id="path33227" />
      <path
         d="m 10.951682,120.59828 h -0.270784 v -0.0558 q -0.165365,0.0227 -0.328662,0.0434 -0.198438,0.0248 -0.328662,0.0248 -0.223242,0 -0.223242,-0.22324 v -1.8004 h 0.270784 v 1.76526 l 0.609782,-0.0165 v -1.74873 h 0.270784 z"
         id="path33229" />
      <path
         d="m 12.123702,120.59828 h -0.390673 q -0.23151,0 -0.23151,-0.23358 v -1.53582 h -0.241846 v -0.24184 h 0.241846 v -0.62632 h 0.270784 v 0.62632 h 0.351399 v 0.24184 h -0.351399 v 1.52756 h 0.351399 z"
         id="path33231" />
    </g>
  </g>
  <g
     inkscape:groupmode="layer"
     id="layer2"
     inkscape:label="components"
     style="display:none">
    <circle
       style="display:inline;fill:#ff0000;fill-rule:evenodd;stroke-width:0.264583"
       id="path16344"
       cx="5.4977374"
       cy="33.665829"
       r="4.1307373"
       inkscape:label="frequency" />
    <circle
       style="display:inline;fill:#ff0000;fill-rule:evenodd;stroke-width:0.264583"
       id="circle952"
       cx="5.4977374"
       cy="50.808388"
       r="4.1307373"
       inkscape:label="x" />
    <circle
       style="display:inline;fill:#00ff00;fill-rule:evenodd;stroke-width:0.264583"
       id="circle10536"
       cx="14.791896"
       cy="33.665829"
       r="4.1307373"
       inkscape:label="frequency" />
    <circle
       style="display:inline;fill:#00ff00;fill-rule:evenodd;stroke-width:0.264583"
       id="circle10574"
       cx="14.791738"
       cy="50.808388"
       r="4.1307373"
       inkscape:label="x" />
    <circle
       style="display:inline;fill:#ff0000;fill-rule:evenodd;stroke-width:0.264583"
       id="circle10598"
       cx="5.4977374"
       cy="64.026749"
       r="4.1307373"
       inkscape:label="y" />
    <circle
       style="display:inline;fill:#00ff00;fill-rule:evenodd;stroke-width:0.264583"
       id="circle10600"
       cx="14.791738"
       cy="64.026749"
       r="4.1307373"
       inkscape:label="y" />
    <circle
       style="display:inline;fill:#ff0000;fill-rule:evenodd;stroke-width:0.264583"
       id="circle14366"
       cx="5.4977374"
       cy="77.929596"
       r="4.1307373"
       inkscape:label="scale" />
    <circle
       style="display:inline;fill:#00ff00;fill-rule:evenodd;stroke-width:0.264583"
       id="circle14368"
       cx="14.791738"
       cy="77.929596"
       r="4.1307373"
       inkscape:label="scale" />
    <circle
       style="display:inline;fill:#ff0000;fill-rule:evenodd;stroke-width:0.264583"
       id="circle14370"
       cx="5.4977374"
       cy="92.800247"
       r="4.1307373"
       inkscape:label="detail" />
    <circle
       style="display:inline;fill:#00ff00;fill-rule:evenodd;stroke-width:0.264583"
       id="circle14372"
       cx="14.791738"
       cy="92.800247"
       r="4.1307373"
       inkscape:label="detail" />
    <circle
       style="display:inline;fill:#0000ff;fill-rule:evenodd;stroke-width:0.264583"
       id="circle27852"
       cx="10.16"
       cy="111.38837"
       r="4.1307373"
       inkscape:label="out" />
  </g>
</svg>
