<?xml version="1.0" encoding="UTF-8" standalone="no"?>
<!-- Created with Inkscape (http://www.inkscape.org/) -->

<svg
   width="60.959999mm"
   height="128.5mm"
   viewBox="0 0 60.96 128.5"
   version="1.1"
   id="svg5"
   inkscape:version="1.2.2 (732a01da63, 2022-12-09)"
   sodipodi:docname="slips.svg"
   xmlns:inkscape="http://www.inkscape.org/namespaces/inkscape"
   xmlns:sodipodi="http://sodipodi.sourceforge.net/DTD/sodipodi-0.dtd"
   xmlns="http://www.w3.org/2000/svg"
   xmlns:svg="http://www.w3.org/2000/svg">
  <sodipodi:namedview
     id="namedview7"
     pagecolor="#505050"
     bordercolor="#000000"
     borderopacity="1"
     inkscape:showpageshadow="0"
     inkscape:pageopacity="0"
     inkscape:pagecheckerboard="0"
     inkscape:deskcolor="#505050"
     inkscape:document-units="mm"
     showgrid="false"
     inkscape:zoom="1.7748703"
     inkscape:cx="107.89521"
     inkscape:cy="221.98805"
     inkscape:current-layer="layer1" />
  <defs
     id="defs2" />
  <g
     inkscape:label="Layer 1"
     inkscape:groupmode="layer"
     id="layer1">
    <g
       aria-label="mod gen"
       id="text693"
       style="font-size:4.9389px;line-height:1.25;font-family:'Agency FB';-inkscape-font-specification:'Agency FB';fill:#1a1a1a;stroke-width:0.264583">
      <path
         d="M 7.0935365,70.958237 H 6.7727974 v -2.059483 l -0.6993559,0.01929 v 2.04019 H 5.7551139 v -2.059483 l -0.6993559,0.01929 v 2.04019 H 4.7350189 v -2.34646 H 5.055758 v 0.06511 q 0.1881026,-0.02412 0.3762052,-0.05064 0.2290994,-0.02894 0.3786169,-0.02894 0.1471059,0 0.2170415,0.08923 0.2025721,-0.02653 0.4027326,-0.05547 0.2628613,-0.03376 0.3979094,-0.03376 0.2652729,0 0.2652729,0.262862 z"
         id="path700" />
      <path
         d="m 8.9625049,70.685729 q 0,0.272508 -0.2725076,0.272508 H 7.8845321 q -0.2700961,0 -0.2700961,-0.272508 v -1.801444 q 0,-0.272508 0.2700961,-0.272508 h 0.8054652 q 0.2725076,0 0.2725076,0.272508 z m -0.3207391,-0.0096 V 68.893931 H 7.9351751 v 1.782152 z"
         id="path702" />
      <path
         d="m 10.819416,70.958237 h -0.318328 v -0.06511 q -0.5160764,0.07958 -0.5715426,0.07958 -0.2049836,0 -0.3303854,-0.137459 Q 9.4737583,70.695375 9.4737583,70.48798 v -1.372185 q 0,-0.217041 0.1422827,-0.359324 0.1422828,-0.144694 0.3569127,-0.144694 h 0.5281343 v -1.427651 h 0.318328 z m -0.318328,-0.291801 v -1.772505 h -0.443729 q -0.2652732,0 -0.2652732,0.272508 v 1.254017 q 0,0.270096 0.2652732,0.270096 0.0627,0 0.443729,-0.02412 z"
         id="path704" />
      <path
         d="m 13.64819,71.575599 q 0,0.272508 -0.272508,0.272508 h -0.762056 q -0.277331,0 -0.277331,-0.344855 0,-0.041 0.0024,-0.12299 0.0048,-0.07958 0.0048,-0.115756 h 0.315916 v 0.311093 h 0.670418 v -0.617362 h -0.528135 q -0.21463,0 -0.356913,-0.142283 -0.142282,-0.144694 -0.142282,-0.361736 v -1.372185 q 0,-0.207395 0.125401,-0.344854 0.125402,-0.139872 0.330386,-0.139872 0.05547,0 0.571543,0.07958 v -0.06511 h 0.318327 z m -0.318327,-0.899516 v -1.772506 q -0.381029,-0.02412 -0.44373,-0.02412 -0.265273,0 -0.265273,0.270096 v 1.25643 q 0,0.270096 0.265273,0.270096 z"
         id="path706" />
      <path
         d="m 15.488219,70.685729 q 0,0.272508 -0.270096,0.272508 H 14.44642 q -0.270096,0 -0.270096,-0.272508 v -1.801444 q 0,-0.272508 0.270096,-0.272508 h 0.771703 q 0.270096,0 0.270096,0.272508 v 0.84405 l -0.10852,0.113344 h -0.892282 v 0.848873 h 0.68971 v -0.42926 h 0.311092 z m -0.311092,-1.099677 v -0.706591 h -0.68971 v 0.706591 z"
         id="path708" />
      <path
         d="m 17.366834,70.958237 h -0.320739 v -2.059483 l -0.70659,0.01929 v 2.04019 h -0.320739 v -2.34646 h 0.320739 v 0.06511 q 0.188102,-0.02412 0.378617,-0.05064 0.23151,-0.02894 0.381028,-0.02894 0.267684,0 0.267684,0.262862 z"
         id="path710" />
    </g>
    <rect
       style="display:none;fill:#ffffff;stroke-width:0.966595"
       id="rect283"
       width="63.878319"
       height="130.70811"
       x="-1.4591599"
       y="-1.1040573" />
    <rect
       style="fill:#1a1a1a;fill-opacity:1;stroke-width:2.01712"
       id="rect693"
       width="42.792732"
       height="10.455471"
       x="3.049392"
       y="90.429543"
       rx="3"
       ry="3" />
    <g
       id="text3498"
       transform="matrix(0.35277774,0,0,0.35277774,22.859471,2.8468836e-4)"
       style="fill:#1a1a1a;fill-opacity:1">
      <path
         id="path15128"
         d="m 26.956,347.987 h -0.422 a 3.344,3.344 0 0 0 -0.811,-2.014 L 18.949,338.2 a 2.584,2.584 0 0 0 -1.734,2.248 5.4,5.4 0 0 0 1.109,2.731 6.089,6.089 0 0 1 1.28,3.028 q 0,1.5 -1.14,1.5 h -2.95 v -0.422 a 1.072,1.072 0 0 0 0.937,-1.078 7.389,7.389 0 0 0 -0.593,-2.044 7.026,7.026 0 0 1 -0.594,-2.341 q 0,-2.514 3.091,-4.277 l -1.92,-2.17 a 4.308,4.308 0 0 1 -1.2,-2.857 3.689,3.689 0 0 1 1.093,-2.528 h 0.406 a 3.487,3.487 0 0 0 0.811,2.185 l 5.869,6.665 a 11.888,11.888 0 0 1 1.733,-4.2 q -2.481,-0.405 -2.482,-2.5 a 3.687,3.687 0 0 1 0.64,-2.154 h 0.406 a 1.549,1.549 0 0 0 1.2,1.2 l 1.342,0.313 a 1.952,1.952 0 0 1 1.765,1.982 3.588,3.588 0 0 1 -0.141,1.109 6.522,6.522 0 0 1 -1.7,0.156 8.5,8.5 0 0 0 -1.623,4.183 3.2,3.2 0 0 0 0.827,2.153 l 1.452,1.671 a 4.331,4.331 0 0 1 1.217,2.872 3.127,3.127 0 0 1 -1.094,2.362 z"
         transform="translate(-0.041)"
         style="fill:#1a1a1a;fill-opacity:1" />
    </g>
    <g
       aria-label="clock"
       id="text653"
       style="font-size:4.9389px;line-height:1.25;font-family:'Agency FB';-inkscape-font-specification:'Agency FB';stroke-width:0.264583;fill:#1a1a1a;fill-opacity:1"
       inkscape:label="clock"
       transform="translate(0,-1.7408153)">
      <path
         d="m 6.29936,19.755349 q 0,0.272508 -0.2700961,0.272508 H 5.2672071 q -0.2700961,0 -0.2700961,-0.272508 v -1.801444 q 0,-0.272508 0.2700961,-0.272508 h 0.7620568 q 0.2700961,0 0.2700961,0.272508 V 18.42175 H 5.983444 V 17.963551 H 5.3178501 v 1.782152 H 5.983444 V 19.222392 H 6.29936 Z"
         id="path361"
         style="fill:#1a1a1a;fill-opacity:1" />
      <path
         d="M 7.1554681,20.027857 H 6.8395522 v -3.774111 h 0.3159159 z"
         id="path363"
         style="fill:#1a1a1a;fill-opacity:1" />
      <path
         d="m 9.0485523,19.755349 q 0,0.272508 -0.2725076,0.272508 H 7.9705795 q -0.2700961,0 -0.2700961,-0.272508 v -1.801444 q 0,-0.272508 0.2700961,-0.272508 h 0.8054652 q 0.2725076,0 0.2725076,0.272508 z m -0.3207391,-0.0096 V 17.963551 H 8.0212226 v 1.782152 z"
         id="path365"
         style="fill:#1a1a1a;fill-opacity:1" />
      <path
         d="m 10.874113,19.755349 q 0,0.272508 -0.270096,0.272508 H 9.8419599 q -0.2700961,0 -0.2700961,-0.272508 v -1.801444 q 0,-0.272508 0.2700961,-0.272508 h 0.7620571 q 0.270096,0 0.270096,0.272508 V 18.42175 H 10.558197 V 17.963551 H 9.8926029 v 1.782152 h 0.6655941 v -0.523311 h 0.315916 z"
         id="path367"
         style="fill:#1a1a1a;fill-opacity:1" />
      <path
         d="m 12.71173,20.027857 h -0.349677 l -0.646302,-1.19614 v 1.19614 h -0.320739 v -3.774111 h 0.320739 v 2.397103 l 0.602893,-0.969452 h 0.344855 v 0.0096 l -0.682475,1.036976 z"
         id="path369"
         style="fill:#1a1a1a;fill-opacity:1" />
    </g>
    <g
       aria-label="reset"
       id="text657"
       style="font-size:4.9389px;line-height:1.25;font-family:'Agency FB';-inkscape-font-specification:'Agency FB';stroke-width:0.264583;fill:#1a1a1a;fill-opacity:1"
       inkscape:label="reset"
       transform="translate(0,0.01645779)">
      <path
         d="m 6.1136689,33.421287 h -0.315916 v -0.484726 l -0.5908352,0.01929 v 2.04019 H 4.8861786 v -2.34646 h 0.3207391 v 0.06511 q 0.1591638,-0.02412 0.3207391,-0.05064 0.1929258,-0.02894 0.3207392,-0.02894 0.2652729,0 0.2652729,0.262861 z"
         id="path383"
         style="fill:#1a1a1a;fill-opacity:1" />
      <path
         d="m 7.8331199,34.723536 q 0,0.272508 -0.2700961,0.272508 H 6.7913207 q -0.2700961,0 -0.2700961,-0.272508 v -1.801444 q 0,-0.272508 0.2700961,-0.272508 h 0.7717031 q 0.2700961,0 0.2700961,0.272508 v 0.84405 L 7.7245992,33.879486 H 6.8323174 V 34.72836 H 7.5220271 V 34.2991 H 7.8331199 Z M 7.5220271,33.62386 V 32.917269 H 6.8323174 v 0.706591 z"
         id="path385"
         style="fill:#1a1a1a;fill-opacity:1" />
      <path
         d="m 9.6273296,34.723536 q 0,0.272508 -0.2725077,0.272508 H 8.6192924 q -0.2725077,0 -0.2725077,-0.272508 v -0.532957 h 0.315916 v 0.528134 H 9.3114136 V 34.250868 L 8.4721865,33.56357 Q 8.3516078,33.467107 8.3516078,33.312767 v -0.390675 q 0,-0.272508 0.2725077,-0.272508 h 0.7258833 q 0.2725076,0 0.2725076,0.272508 v 0.467845 H 9.3114136 V 32.926915 H 8.6627007 v 0.409967 l 0.8464618,0.687299 q 0.1181671,0.09405 0.1181671,0.255626 z"
         id="path387"
         style="fill:#1a1a1a;fill-opacity:1" />
      <path
         d="m 11.448067,34.723536 q 0,0.272508 -0.270096,0.272508 h -0.771703 q -0.270097,0 -0.270097,-0.272508 v -1.801444 q 0,-0.272508 0.270097,-0.272508 h 0.771703 q 0.270096,0 0.270096,0.272508 v 0.84405 l -0.108521,0.113344 h -0.892282 v 0.848874 h 0.68971 V 34.2991 h 0.311093 z M 11.136974,33.62386 v -0.706591 h -0.68971 v 0.706591 z"
         id="path389"
         style="fill:#1a1a1a;fill-opacity:1" />
      <path
         d="m 12.822663,34.996044 h -0.455787 q -0.270096,0 -0.270096,-0.272508 v -1.791798 h -0.282154 v -0.282154 h 0.282154 v -0.730706 h 0.315916 v 0.730706 h 0.409967 v 0.282154 h -0.409967 v 1.782152 h 0.409967 z"
         id="path391"
         style="fill:#1a1a1a;fill-opacity:1" />
    </g>
    <g
       aria-label="steps"
       id="text711"
       style="font-size:4.9389px;line-height:1.25;font-family:'Agency FB';-inkscape-font-specification:'Agency FB';stroke-width:0.264583;fill:#1a1a1a;fill-opacity:1"
       inkscape:label="steps"
       transform="translate(0,-2.5342228)">
      <path
         d="m 49.057142,19.755349 q 0,0.272508 -0.272508,0.272508 h -0.735529 q -0.272508,0 -0.272508,-0.272508 v -0.532957 h 0.315916 v 0.528134 h 0.648713 V 19.282681 L 47.901999,18.595383 Q 47.78142,18.49892 47.78142,18.344579 v -0.390674 q 0,-0.272508 0.272508,-0.272508 h 0.725883 q 0.272508,0 0.272508,0.272508 v 0.467845 h -0.311093 v -0.463022 h -0.648713 v 0.409967 l 0.846462,0.687298 q 0.118167,0.09405 0.118167,0.255627 z"
         id="path372"
         style="fill:#1a1a1a;fill-opacity:1" />
      <path
         d="m 50.410034,20.027857 h -0.455787 q -0.270096,0 -0.270096,-0.272508 v -1.791798 h -0.282154 v -0.282154 h 0.282154 v -0.730706 h 0.315916 v 0.730706 h 0.409967 v 0.282154 h -0.409967 v 1.782152 h 0.409967 z"
         id="path374"
         style="fill:#1a1a1a;fill-opacity:1" />
      <path
         d="m 52.131897,19.755349 q 0,0.272508 -0.270097,0.272508 h -0.771703 q -0.270096,0 -0.270096,-0.272508 v -1.801444 q 0,-0.272508 0.270096,-0.272508 H 51.8618 q 0.270097,0 0.270097,0.272508 v 0.84405 l -0.108521,0.113344 h -0.892282 v 0.848873 h 0.68971 v -0.42926 h 0.311093 z m -0.311093,-1.099677 v -0.70659 h -0.68971 v 0.70659 z"
         id="path376"
         style="fill:#1a1a1a;fill-opacity:1" />
      <path
         d="m 54.010511,19.523838 q 0,0.217042 -0.142283,0.361736 -0.142282,0.142283 -0.356912,0.142283 h -0.528135 v 0.88987 h -0.320739 v -3.23633 h 0.320739 v 0.06511 q 0.190515,-0.02411 0.381029,-0.04823 0.241157,-0.03135 0.378617,-0.03135 0.267684,0 0.267684,0.262861 z m -0.320739,-0.04823 v -1.507233 l -0.706591,0.01929 v 1.758036 h 0.44373 q 0.262861,0 0.262861,-0.270096 z"
         id="path378"
         style="fill:#1a1a1a;fill-opacity:1" />
      <path
         d="m 55.78784,19.755349 q 0,0.272508 -0.272508,0.272508 h -0.735529 q -0.272508,0 -0.272508,-0.272508 v -0.532957 h 0.315916 v 0.528134 h 0.648713 v -0.467845 l -0.839227,-0.687298 q -0.120579,-0.09646 -0.120579,-0.250804 v -0.390674 q 0,-0.272508 0.272508,-0.272508 h 0.725883 q 0.272508,0 0.272508,0.272508 v 0.467845 h -0.311093 v -0.463022 h -0.648713 v 0.409967 l 0.846462,0.687298 q 0.118167,0.09405 0.118167,0.255627 z"
         id="path380"
         style="fill:#1a1a1a;fill-opacity:1" />
    </g>
    <g
       aria-label="root"
       id="text715"
       style="font-size:4.9389px;line-height:1.25;font-family:'Agency FB';-inkscape-font-specification:'Agency FB';stroke-width:0.264583;fill:#1a1a1a;fill-opacity:1"
       inkscape:label="root"
       transform="translate(-21.503594,-17.057475)">
      <path
         d="m 49.89878,33.421287 h -0.315916 v -0.484726 l -0.590835,0.01929 v 2.04019 H 48.67129 v -2.34646 h 0.320739 v 0.06511 q 0.159163,-0.02412 0.320739,-0.05064 0.192926,-0.02894 0.320739,-0.02894 0.265273,0 0.265273,0.262861 z"
         id="path394"
         style="fill:#1a1a1a;fill-opacity:1" />
      <path
         d="m 51.654404,34.723536 q 0,0.272508 -0.272507,0.272508 h -0.805465 q -0.270096,0 -0.270096,-0.272508 v -1.801444 q 0,-0.272508 0.270096,-0.272508 h 0.805465 q 0.272507,0 0.272507,0.272508 z m -0.320739,-0.0096 v -1.782152 h -0.70659 v 1.782152 z"
         id="path396"
         style="fill:#1a1a1a;fill-opacity:1" />
      <path
         d="m 53.525785,34.723536 q 0,0.272508 -0.272508,0.272508 h -0.805465 q -0.270096,0 -0.270096,-0.272508 v -1.801444 q 0,-0.272508 0.270096,-0.272508 h 0.805465 q 0.272508,0 0.272508,0.272508 z m -0.32074,-0.0096 v -1.782152 h -0.70659 v 1.782152 z"
         id="path398"
         style="fill:#1a1a1a;fill-opacity:1" />
      <path
         d="m 54.893146,34.996044 h -0.455787 q -0.270096,0 -0.270096,-0.272508 v -1.791798 h -0.282154 v -0.282154 h 0.282154 v -0.730706 h 0.315916 v 0.730706 h 0.409967 v 0.282154 h -0.409967 v 1.782152 h 0.409967 z"
         id="path400"
         style="fill:#1a1a1a;fill-opacity:1" />
    </g>
    <g
       aria-label="scale"
       id="text719"
       style="font-size:4.9389px;line-height:1.25;font-family:'Agency FB';-inkscape-font-specification:'Agency FB';stroke-width:0.264583;fill:#1a1a1a;fill-opacity:1"
       inkscape:label="scale"
       transform="translate(-21.503594,-14.188852)">
      <path
         d="m 49.234392,49.270083 q 0,0.272508 -0.272508,0.272508 h -0.735529 q -0.272508,0 -0.272508,-0.272508 v -0.532957 h 0.315916 v 0.528134 h 0.648713 V 48.797415 L 48.079249,48.110117 Q 47.95867,48.013654 47.95867,47.859314 v -0.390675 q 0,-0.272508 0.272508,-0.272508 h 0.725883 q 0.272508,0 0.272508,0.272508 v 0.467845 h -0.311093 v -0.463022 h -0.648713 v 0.409967 l 0.846462,0.687298 q 0.118167,0.09405 0.118167,0.255627 z"
         id="path403"
         style="fill:#1a1a1a;fill-opacity:1" />
      <path
         d="m 51.045483,49.270083 q 0,0.272508 -0.270096,0.272508 H 50.01333 q -0.270096,0 -0.270096,-0.272508 v -1.801444 q 0,-0.272508 0.270096,-0.272508 h 0.762057 q 0.270096,0 0.270096,0.272508 v 0.467845 h -0.315916 v -0.458199 h -0.665594 v 1.782152 h 0.665594 v -0.523311 h 0.315916 z"
         id="path405"
         style="fill:#1a1a1a;fill-opacity:1" />
      <path
         d="m 52.892747,49.542591 h -0.315916 v -0.06511 q -0.190514,0.02653 -0.381028,0.05064 -0.236334,0.02894 -0.378617,0.02894 -0.262862,0 -0.262862,-0.26045 v -0.856108 q 0,-0.270097 0.272508,-0.270097 h 0.754822 v -0.70659 h -0.689709 v 0.400321 h -0.311093 v -0.395498 q 0,-0.272508 0.270096,-0.272508 h 0.771703 q 0.270096,0 0.270096,0.272508 z m -0.311093,-0.2918 V 48.42121 h -0.716237 v 0.84405 z"
         id="path407"
         style="fill:#1a1a1a;fill-opacity:1" />
      <path
         d="m 53.753678,49.542591 h -0.315916 v -3.77411 h 0.315916 z"
         id="path409"
         style="fill:#1a1a1a;fill-opacity:1" />
      <path
         d="m 55.610589,49.270083 q 0,0.272508 -0.270096,0.272508 H 54.56879 q -0.270096,0 -0.270096,-0.272508 v -1.801444 q 0,-0.272508 0.270096,-0.272508 h 0.771703 q 0.270096,0 0.270096,0.272508 v 0.84405 l -0.108521,0.113344 h -0.892281 v 0.848874 h 0.689709 v -0.42926 h 0.311093 z m -0.311093,-1.099677 v -0.70659 h -0.689709 v 0.70659 z"
         id="path411"
         style="fill:#1a1a1a;fill-opacity:1" />
    </g>
    <g
       aria-label="gen"
       id="text733"
       style="font-size:4.9389px;line-height:1.25;font-family:'Agency FB';-inkscape-font-specification:'Agency FB';fill:#1a1a1a;fill-opacity:1;stroke-width:0.264583"
       inkscape:label="gen"
       transform="translate(5.366589,3.2059289)">
      <path
         d="m 7.6679273,49.738319 q 0,0.272508 -0.2725077,0.272508 H 6.6333628 q -0.2773308,0 -0.2773308,-0.344855 0,-0.041 0.00241,-0.12299 0.00482,-0.07958 0.00482,-0.115756 h 0.315916 v 0.311093 H 7.349595 V 49.120956 H 6.8214654 q -0.2146299,0 -0.3569127,-0.142282 Q 6.32227,48.833979 6.32227,48.616938 v -1.372185 q 0,-0.207395 0.1254017,-0.344855 0.1254018,-0.139871 0.3303854,-0.139871 0.055466,0 0.5715426,0.07958 v -0.06511 H 7.6679273 Z M 7.3495997,48.838802 v -1.772505 q -0.3810284,-0.02412 -0.4437293,-0.02412 -0.2652729,0 -0.2652729,0.270096 v 1.256429 q 0,0.270096 0.2652729,0.270096 z"
         id="path414"
         style="fill:#1a1a1a;fill-opacity:1" />
      <path
         d="m 9.5079569,48.848449 q 0,0.272507 -0.2700961,0.272507 H 8.4661577 q -0.2700961,0 -0.2700961,-0.272507 v -1.801445 q 0,-0.272507 0.2700961,-0.272507 h 0.7717031 q 0.2700961,0 0.2700961,0.272507 v 0.844051 L 9.3994362,48.004398 H 8.5071544 v 0.848874 h 0.6897097 v -0.42926 H 9.5079569 Z M 9.1968641,47.748772 V 47.042181 H 8.5071544 v 0.706591 z"
         id="path416"
         style="fill:#1a1a1a;fill-opacity:1" />
      <path
         d="m 11.386572,49.120956 h -0.320739 v -2.059482 l -0.706591,0.01929 v 2.04019 h -0.320739 v -2.346459 h 0.320739 v 0.06511 q 0.188103,-0.02412 0.378617,-0.05064 0.231511,-0.02894 0.381028,-0.02894 0.267685,0 0.267685,0.262862 z"
         id="path418"
         style="fill:#1a1a1a;fill-opacity:1" />
    </g>
    <g
       aria-label="slips"
       id="text739"
       style="font-size:4.9389px;line-height:1.25;font-family:'Agency FB';-inkscape-font-specification:'Agency FB';stroke-width:0.264583;fill:#1a1a1a;fill-opacity:1"
       inkscape:label="slips"
       transform="translate(0.4907555,6.9126975)">
      <path
         d="m 49.234392,63.816634 q 0,0.272508 -0.272508,0.272508 h -0.735529 q -0.272508,0 -0.272508,-0.272508 v -0.532957 h 0.315916 v 0.528134 h 0.648713 V 63.343966 L 48.079249,62.656668 Q 47.95867,62.560205 47.95867,62.405864 V 62.01519 q 0,-0.272508 0.272508,-0.272508 h 0.725883 q 0.272508,0 0.272508,0.272508 v 0.467845 h -0.311093 v -0.463022 h -0.648713 v 0.409967 l 0.846462,0.687298 q 0.118167,0.09405 0.118167,0.255627 z"
         id="path432"
         style="fill:#1a1a1a;fill-opacity:1" />
      <path
         d="m 50.078442,64.089142 h -0.315916 v -3.774111 h 0.315916 z"
         id="path434"
         style="fill:#1a1a1a;fill-opacity:1" />
      <path
         d="m 50.963489,61.229017 h -0.325562 v -0.405144 h 0.325562 z m -0.0048,2.860125 H 50.64275 v -2.34646 h 0.315916 z"
         id="path436"
         style="fill:#1a1a1a;fill-opacity:1" />
      <path
         d="m 52.85175,63.585123 q 0,0.217042 -0.142283,0.361736 -0.142282,0.142283 -0.356912,0.142283 H 51.82442 v 0.88987 h -0.320739 v -3.23633 h 0.320739 v 0.06511 q 0.190515,-0.02412 0.381029,-0.04823 0.241157,-0.03135 0.378617,-0.03135 0.267684,0 0.267684,0.262861 z m -0.320739,-0.04823 V 62.02966 l -0.706591,0.01929 v 1.758036 h 0.44373 q 0.262861,0 0.262861,-0.270096 z"
         id="path438"
         style="fill:#1a1a1a;fill-opacity:1" />
      <path
         d="m 54.629079,63.816634 q 0,0.272508 -0.272508,0.272508 h -0.735529 q -0.272508,0 -0.272508,-0.272508 v -0.532957 h 0.315916 v 0.528134 h 0.648713 v -0.467845 l -0.839227,-0.687298 q -0.120579,-0.09646 -0.120579,-0.250804 V 62.01519 q 0,-0.272508 0.272508,-0.272508 h 0.725883 q 0.272508,0 0.272508,0.272508 v 0.467845 H 54.313163 V 62.020013 H 53.66445 v 0.409967 l 0.846462,0.687298 q 0.118167,0.09405 0.118167,0.255627 z"
         id="path440"
         style="fill:#1a1a1a;fill-opacity:1" />
    </g>
    <g
       aria-label="seq"
       id="text689"
       style="font-size:4.9389px;line-height:1.25;font-family:'Agency FB';-inkscape-font-specification:'Agency FB';stroke-width:0.264583;fill:#1a1a1a;fill-opacity:1"
       inkscape:label="seq"
       transform="translate(0,6.76376)">
      <path
         d="m 7.6522519,81.525489 q 0,0.272508 -0.2725076,0.272508 H 6.6442147 q -0.2725076,0 -0.2725076,-0.272508 V 80.992531 H 6.687623 v 0.528135 H 7.336336 V 81.052821 L 6.4971088,80.365523 Q 6.3765302,80.26906 6.3765302,80.114719 v -0.390675 q 0,-0.272507 0.2725077,-0.272507 h 0.7258832 q 0.2725077,0 0.2725077,0.272507 v 0.467845 H 7.336336 V 79.728868 H 6.687623 v 0.409967 l 0.8464619,0.687298 q 0.118167,0.09405 0.118167,0.255627 z"
         id="path472"
         style="fill:#1a1a1a;fill-opacity:1" />
      <path
         d="m 9.472989,81.525489 q 0,0.272508 -0.2700961,0.272508 H 8.4311898 q -0.2700961,0 -0.2700961,-0.272508 v -1.801445 q 0,-0.272507 0.2700961,-0.272507 h 0.7717031 q 0.2700961,0 0.2700961,0.272507 v 0.844051 L 9.3644683,80.681439 H 8.4721865 v 0.848873 h 0.6897097 v -0.42926 H 9.472989 Z M 9.1618962,80.425812 V 79.719221 H 8.4721865 v 0.706591 z"
         id="path474"
         style="fill:#1a1a1a;fill-opacity:1" />
      <path
         d="m 11.337134,82.687867 h -0.318327 v -0.88987 h -0.528134 q -0.21463,0 -0.356913,-0.142283 -0.1422829,-0.144695 -0.1422829,-0.361736 v -1.372185 q 0,-0.207395 0.1254019,-0.344855 0.125402,-0.139871 0.330385,-0.139871 0.05547,0 0.571543,0.07958 v -0.06511 h 0.318327 z m -0.318327,-1.172024 v -1.772506 q -0.381029,-0.02412 -0.443729,-0.02412 -0.265273,0 -0.265273,0.270096 v 1.256429 q 0,0.270097 0.265273,0.270097 z"
         id="path476"
         style="fill:#1a1a1a;fill-opacity:1" />
    </g>
    <g
       aria-label="gate"
       id="text697"
       style="font-size:4.9389px;line-height:1.25;font-family:'Agency FB';-inkscape-font-specification:'Agency FB';stroke-width:0.264583;fill:#1a1a1a;fill-opacity:1"
       inkscape:label="gate"
       transform="translate(-1.2649173,7.1218785)">
      <path
         d="m 18.227618,82.415359 q 0,0.272508 -0.272508,0.272508 h -0.762057 q -0.277331,0 -0.277331,-0.344855 0,-0.041 0.0024,-0.12299 0.0048,-0.07958 0.0048,-0.115756 h 0.315916 v 0.311093 h 0.670417 v -0.617362 h -0.528134 q -0.21463,0 -0.356913,-0.142283 -0.142283,-0.144695 -0.142283,-0.361736 v -1.372185 q 0,-0.207395 0.125402,-0.344855 0.125402,-0.139871 0.330386,-0.139871 0.05547,0 0.571542,0.07958 v -0.06511 h 0.318328 z M 17.90929,81.515843 v -1.772506 q -0.381028,-0.02412 -0.443729,-0.02412 -0.265273,0 -0.265273,0.270096 v 1.256429 q 0,0.270097 0.265273,0.270097 z"
         id="path463"
         style="fill:#1a1a1a;fill-opacity:1" />
      <path
         d="m 20.082117,81.797997 h -0.315916 v -0.06511 q -0.190514,0.02653 -0.381029,0.05064 -0.236334,0.02894 -0.378616,0.02894 -0.262862,0 -0.262862,-0.26045 v -0.856108 q 0,-0.270096 0.272508,-0.270096 h 0.754822 v -0.706591 h -0.68971 v 0.400321 h -0.311092 v -0.395498 q 0,-0.272507 0.270096,-0.272507 h 0.771703 q 0.270096,0 0.270096,0.272507 z m -0.311093,-0.291801 v -0.829581 h -0.716237 v 0.844051 z"
         id="path465"
         style="fill:#1a1a1a;fill-opacity:1" />
      <path
         d="m 21.45189,81.797997 h -0.455787 q -0.270096,0 -0.270096,-0.272508 v -1.791798 h -0.282154 v -0.282154 h 0.282154 V 78.72083 h 0.315916 v 0.730707 h 0.409967 v 0.282154 h -0.409967 v 1.782152 h 0.409967 z"
         id="path467"
         style="fill:#1a1a1a;fill-opacity:1" />
      <path
         d="m 23.173752,81.525489 q 0,0.272508 -0.270096,0.272508 h -0.771703 q -0.270096,0 -0.270096,-0.272508 v -1.801445 q 0,-0.272507 0.270096,-0.272507 h 0.771703 q 0.270096,0 0.270096,0.272507 v 0.844051 l -0.10852,0.113344 H 22.17295 v 0.848873 h 0.68971 v -0.42926 h 0.311092 z M 22.86266,80.425812 v -0.706591 h -0.68971 v 0.706591 z"
         id="path469"
         style="fill:#1a1a1a;fill-opacity:1" />
    </g>
    <g
       aria-label="slip"
       id="text705"
       style="font-size:4.9389px;line-height:1.25;font-family:'Agency FB';-inkscape-font-specification:'Agency FB';stroke-width:0.264583;fill:#1a1a1a;fill-opacity:1"
       inkscape:label="slip_gate"
       transform="translate(-2.5298345,7.4703505)">
      <path
         d="m 30.243705,81.525489 q 0,0.272508 -0.272507,0.272508 h -0.73553 q -0.272507,0 -0.272507,-0.272508 v -0.532958 h 0.315916 v 0.528135 h 0.648713 v -0.467845 l -0.839228,-0.687298 q -0.120578,-0.09646 -0.120578,-0.250804 v -0.390675 q 0,-0.272507 0.272507,-0.272507 h 0.725884 q 0.272507,0 0.272507,0.272507 v 0.467845 H 29.92779 v -0.463021 h -0.648713 v 0.409967 l 0.846461,0.687298 q 0.118167,0.09405 0.118167,0.255627 z"
         id="path454"
         style="fill:#1a1a1a;fill-opacity:1" />
      <path
         d="M 31.087756,81.797997 H 30.77184 v -3.774111 h 0.315916 z"
         id="path456"
         style="fill:#1a1a1a;fill-opacity:1" />
      <path
         d="m 31.972803,78.937872 h -0.325562 v -0.405144 h 0.325562 z m -0.0048,2.860125 h -0.315916 v -2.34646 h 0.315916 z"
         id="path458"
         style="fill:#1a1a1a;fill-opacity:1" />
      <path
         d="m 33.861064,81.293978 q 0,0.217041 -0.142283,0.361736 -0.142283,0.142283 -0.356913,0.142283 h -0.528134 v 0.88987 h -0.320739 v -3.23633 h 0.320739 v 0.06511 q 0.190514,-0.02412 0.381028,-0.04823 0.241158,-0.03135 0.378617,-0.03135 0.267685,0 0.267685,0.262862 z m -0.320739,-0.04823 v -1.507232 l -0.706591,0.01929 v 1.758037 h 0.443729 q 0.262862,0 0.262862,-0.270097 z"
         id="path460"
         style="fill:#1a1a1a;fill-opacity:1" />
    </g>
    <g
       aria-label="slips"
       id="text663"
       style="font-size:6.35px;line-height:1.25;font-family:'Agency FB';-inkscape-font-specification:'Agency FB';stroke-width:0.264583;fill:#1a1a1a;fill-opacity:1"
       transform="translate(0,-5.547444)">
      <path
         d="m 27.835201,14.992051 q 0,0.350366 -0.350366,0.350366 h -0.945679 q -0.350366,0 -0.350366,-0.350366 v -0.68523 h 0.406176 v 0.679028 h 0.834058 V 14.384336 L 26.35002,13.500669 q -0.155029,-0.124024 -0.155029,-0.322461 v -0.502295 q 0,-0.350366 0.350366,-0.350366 h 0.933276 q 0.350367,0 0.350367,0.350366 v 0.601514 h -0.399976 v -0.595313 h -0.834058 v 0.5271 l 1.088306,0.883667 q 0.151929,0.120922 0.151929,0.328662 z"
         id="path665"
         style="fill:#1a1a1a;fill-opacity:1" />
      <path
         d="M 28.920406,15.342417 H 28.514229 V 10.49 h 0.406177 z"
         id="path667"
         style="fill:#1a1a1a;fill-opacity:1" />
      <path
         d="m 30.058321,11.665122 h -0.418579 v -0.520899 h 0.418579 z m -0.0062,3.677295 h -0.406177 v -3.01687 h 0.406177 z"
         id="path669"
         style="fill:#1a1a1a;fill-opacity:1" />
      <path
         d="m 32.48608,14.694394 q 0,0.279053 -0.182935,0.465088 -0.182934,0.182935 -0.458887,0.182935 H 31.16523 v 1.144116 h -0.412378 v -4.160986 h 0.412378 v 0.08372 q 0.244946,-0.03101 0.489893,-0.06201 0.310058,-0.04031 0.486792,-0.04031 0.344165,0 0.344165,0.337964 z m -0.412378,-0.06201 v -1.937867 l -0.908472,0.02481 v 2.260327 h 0.570508 q 0.337964,0 0.337964,-0.347265 z"
         id="path671"
         style="fill:#1a1a1a;fill-opacity:1" />
      <path
         d="m 34.771211,14.992051 q 0,0.350366 -0.350366,0.350366 h -0.945679 q -0.350366,0 -0.350366,-0.350366 v -0.68523 h 0.406177 v 0.679028 h 0.834057 v -0.601513 l -1.079003,-0.883667 q -0.15503,-0.124024 -0.15503,-0.322461 v -0.502295 q 0,-0.350366 0.350366,-0.350366 h 0.933277 q 0.350366,0 0.350366,0.350366 v 0.601514 h -0.399976 v -0.595313 h -0.834057 v 0.5271 l 1.088306,0.883667 q 0.151928,0.120922 0.151928,0.328662 z"
         id="path673"
         style="fill:#1a1a1a;fill-opacity:1" />
    </g>
    <g
       aria-label="start"
       id="text414"
       style="font-size:4.9389px;line-height:1.25;font-family:'Agency FB';-inkscape-font-specification:'Agency FB';display:inline;stroke-width:0.264583;fill:#1a1a1a;fill-opacity:1"
       transform="translate(-1.5e-6,0.00922679)">
      <path
         d="m 49.375471,34.723533 q 0,0.272507 -0.272508,0.272507 h -0.735529 q -0.272508,0 -0.272508,-0.272507 v -0.532958 h 0.315916 v 0.528135 h 0.648713 v -0.467845 l -0.839227,-0.687299 q -0.120579,-0.09646 -0.120579,-0.250803 v -0.390675 q 0,-0.272507 0.272508,-0.272507 h 0.725883 q 0.272508,0 0.272508,0.272507 v 0.467845 h -0.311093 v -0.463022 h -0.648713 v 0.409968 l 0.846462,0.687298 q 0.118167,0.09405 0.118167,0.255626 z"
         id="path785"
         style="fill:#1a1a1a;fill-opacity:1" />
      <path
         d="m 50.728363,34.99604 h -0.455787 q -0.270096,0 -0.270096,-0.272507 v -1.791799 h -0.282154 v -0.282153 h 0.282154 v -0.730707 h 0.315916 v 0.730707 h 0.409967 v 0.282153 h -0.409967 v 1.782152 h 0.409967 z"
         id="path787"
         style="fill:#1a1a1a;fill-opacity:1" />
      <path
         d="m 52.464695,34.99604 h -0.315916 v -0.06511 q -0.190514,0.02653 -0.381029,0.05064 -0.236334,0.02894 -0.378616,0.02894 -0.262862,0 -0.262862,-0.26045 v -0.856108 q 0,-0.270096 0.272508,-0.270096 h 0.754822 v -0.706591 h -0.68971 v 0.400321 H 51.1528 v -0.395498 q 0,-0.272507 0.270096,-0.272507 h 0.771703 q 0.270096,0 0.270096,0.272507 z m -0.311093,-0.2918 v -0.829581 h -0.716237 v 0.844051 z"
         id="path789"
         style="fill:#1a1a1a;fill-opacity:1" />
      <path
         d="m 54.217908,33.421284 h -0.315916 v -0.484726 l -0.590835,0.01929 v 2.04019 h -0.320739 v -2.346459 h 0.320739 v 0.06511 q 0.159163,-0.02412 0.320739,-0.05064 0.192926,-0.02894 0.320739,-0.02894 0.265273,0 0.265273,0.262861 z"
         id="path791"
         style="fill:#1a1a1a;fill-opacity:1" />
      <path
         d="m 55.469514,34.99604 h -0.455787 q -0.270096,0 -0.270096,-0.272507 v -1.791799 h -0.282154 v -0.282153 h 0.282154 v -0.730707 h 0.315916 v 0.730707 h 0.409967 v 0.282153 h -0.409967 v 1.782152 h 0.409967 z"
         id="path793"
         style="fill:#1a1a1a;fill-opacity:1" />
    </g>
    <g
       aria-label="prob"
       id="text557"
       style="font-size:4.9389px;line-height:1.25;font-family:'Agency FB';-inkscape-font-specification:'Agency FB';display:inline;stroke-width:0.264583;fill:#1a1a1a;fill-opacity:1"
       transform="translate(-5e-7,3.9125224)">
      <path
         d="m 49.772174,48.616934 q 0,0.217042 -0.142283,0.361736 -0.142283,0.142283 -0.356913,0.142283 h -0.528134 v 0.88987 h -0.320739 v -3.23633 h 0.320739 v 0.06511 q 0.190514,-0.02412 0.381028,-0.04823 0.241158,-0.03135 0.378617,-0.03135 0.267685,0 0.267685,0.262862 z m -0.320739,-0.04823 V 47.06147 l -0.706591,0.01929 v 1.758037 h 0.443729 q 0.262862,0 0.262862,-0.270096 z"
         id="path796"
         style="fill:#1a1a1a;fill-opacity:1" />
      <path
         d="M 51.513329,47.546196 H 51.197413 V 47.06147 l -0.590835,0.01929 v 2.040191 h -0.320739 v -2.34646 h 0.320739 v 0.06511 q 0.159163,-0.02412 0.320739,-0.05064 0.192926,-0.02894 0.320739,-0.02894 0.265273,0 0.265273,0.262862 z"
         id="path798"
         style="fill:#1a1a1a;fill-opacity:1" />
      <path
         d="m 53.268954,48.848445 q 0,0.272508 -0.272508,0.272508 h -0.805465 q -0.270096,0 -0.270096,-0.272508 V 47.047 q 0,-0.272507 0.270096,-0.272507 h 0.805465 q 0.272508,0 0.272508,0.272507 z m -0.320739,-0.0096 v -1.782152 h -0.706591 v 1.782152 z"
         id="path800"
         style="fill:#1a1a1a;fill-opacity:1" />
      <path
         d="m 55.140333,48.616934 q 0,0.217042 -0.142282,0.361736 -0.142283,0.142283 -0.356913,0.142283 h -0.848873 v -3.774111 h 0.320739 v 1.492763 q 0.190514,-0.02412 0.381028,-0.04823 0.241157,-0.03135 0.378617,-0.03135 0.267684,0 0.267684,0.262862 z m -0.320739,-0.04823 V 47.06147 l -0.70659,0.01929 v 1.758037 h 0.443729 q 0.262861,0 0.262861,-0.270096 z"
         id="path802"
         style="fill:#1a1a1a;fill-opacity:1" />
    </g>
    <g
       aria-label="eoc"
       id="text404"
       style="font-size:4.93889px;line-height:1.25;font-family:'Agency FB';-inkscape-font-specification:'Agency FB';fill:#1a1a1a;stroke-width:0.264583">
      <path
         d="m 29.082486,52.492076 q 0,0.272508 -0.270096,0.272508 h -0.771701 q -0.270096,0 -0.270096,-0.272508 v -1.80144 q 0,-0.272507 0.270096,-0.272507 h 0.771701 q 0.270096,0 0.270096,0.272507 v 0.844048 l -0.108521,0.113344 h -0.89228 V 52.4969 h 0.689709 v -0.429259 h 0.311092 z m -0.311092,-1.099674 v -0.706589 h -0.689709 v 0.706589 z"
         id="path1016" />
      <path
         d="m 30.961097,52.492076 q 0,0.272508 -0.272507,0.272508 h -0.805464 q -0.270095,0 -0.270095,-0.272508 v -1.80144 q 0,-0.272507 0.270095,-0.272507 h 0.805464 q 0.272507,0 0.272507,0.272507 z m -0.320739,-0.0096 v -1.782148 h -0.706589 v 1.782148 z"
         id="path1018" />
      <path
         d="m 32.786653,52.492076 q 0,0.272508 -0.270095,0.272508 h -0.762055 q -0.270096,0 -0.270096,-0.272508 v -1.80144 q 0,-0.272507 0.270096,-0.272507 h 0.762055 q 0.270095,0 0.270095,0.272507 v 0.467844 h -0.315915 v -0.458198 h -0.665593 v 1.782148 h 0.665593 v -0.52331 h 0.315915 z"
         id="path1020" />
    </g>
    <rect
       style="fill:#1a1a1a;fill-opacity:1;stroke-width:1.04542"
       id="rect1014"
       width="10.962616"
       height="10.962616"
       x="24.847494"
       y="54.243999"
       rx="3"
       ry="3" />
    <g
       aria-label="mod"
       id="text637"
       style="font-size:4.9389px;line-height:1.25;font-family:'Agency FB';-inkscape-font-specification:'Agency FB';fill:#1a1a1a;stroke-width:0.264583">
      <path
         d="m 38.696784,89.258835 h -0.320739 v -2.059483 l -0.699356,0.01929 v 2.04019 h -0.318327 v -2.059483 l -0.699356,0.01929 v 2.04019 h -0.32074 v -2.34646 h 0.32074 v 0.06511 q 0.188102,-0.02411 0.376205,-0.05064 0.229099,-0.02894 0.378617,-0.02894 0.147106,0 0.217041,0.08923 0.202572,-0.02653 0.402733,-0.05547 0.262861,-0.03376 0.397909,-0.03376 0.265273,0 0.265273,0.262861 z"
         id="path842" />
      <path
         d="m 40.565753,88.986327 q 0,0.272508 -0.272508,0.272508 H 39.48778 q -0.270096,0 -0.270096,-0.272508 v -1.801444 q 0,-0.272508 0.270096,-0.272508 h 0.805465 q 0.272508,0 0.272508,0.272508 z m -0.32074,-0.0096 v -1.782152 h -0.70659 v 1.782152 z"
         id="path844" />
      <path
         d="m 42.422663,89.258835 h -0.318327 v -0.06511 q -0.516077,0.07958 -0.571543,0.07958 -0.204984,0 -0.330385,-0.137459 -0.125402,-0.139872 -0.125402,-0.347267 v -1.372184 q 0,-0.217042 0.142283,-0.359325 0.142282,-0.144694 0.356912,-0.144694 h 0.528135 v -1.427651 h 0.318327 z m -0.318327,-0.2918 v -1.772506 h -0.44373 q -0.265273,0 -0.265273,0.272508 v 1.254017 q 0,0.270096 0.265273,0.270096 0.0627,0 0.44373,-0.02412 z"
         id="path846" />
    </g>
    <g
       aria-label="seq"
       id="text698"
       style="font-size:4.9389px;line-height:1.25;font-family:'Agency FB';-inkscape-font-specification:'Agency FB';fill:#1a1a1a;stroke-width:0.264583">
      <path
         d="m 6.4458988,52.051738 q 0,0.272507 -0.2725077,0.272507 H 5.4378615 q -0.2725076,0 -0.2725076,-0.272507 V 51.51878 h 0.3159159 v 0.528135 h 0.648713 V 51.57907 L 5.2907556,50.891772 Q 5.170177,50.795309 5.170177,50.640968 v -0.390675 q 0,-0.272507 0.2725077,-0.272507 h 0.7258832 q 0.2725077,0 0.2725077,0.272507 v 0.467845 H 6.1299828 v -0.463022 h -0.648713 v 0.409968 l 0.8464619,0.687298 q 0.1181671,0.09405 0.1181671,0.255626 z"
         id="path713" />
      <path
         d="m 8.2666358,52.051738 q 0,0.272507 -0.2700961,0.272507 H 7.2248366 q -0.2700961,0 -0.2700961,-0.272507 v -1.801445 q 0,-0.272507 0.2700961,-0.272507 h 0.7717031 q 0.2700961,0 0.2700961,0.272507 v 0.844051 L 8.1581151,51.207687 H 7.2658334 v 0.848874 H 7.955543 v -0.42926 H 8.2666358 Z M 7.955543,50.952061 V 50.24547 H 7.2658334 v 0.706591 z"
         id="path715" />
      <path
         d="M 10.130781,53.214116 H 9.8124537 V 52.324245 H 9.2843193 q -0.2146299,0 -0.3569127,-0.142282 -0.1422827,-0.144695 -0.1422827,-0.361736 v -1.372185 q 0,-0.207395 0.1254017,-0.344855 0.1254018,-0.139871 0.3303854,-0.139871 0.055466,0 0.5715427,0.07958 v -0.06511 H 10.130781 Z M 9.8124537,52.042091 v -1.772505 q -0.3810285,-0.02412 -0.4437293,-0.02412 -0.265273,0 -0.265273,0.270096 v 1.256429 q 0,0.270096 0.265273,0.270096 z"
         id="path717" />
    </g>
  </g>
  <g
     inkscape:groupmode="layer"
     id="layer2"
     inkscape:label="components"
     style="display:none;fill:#00ff00">
    <circle
       style="fill:#00ff00;stroke-width:0.964999"
       id="path641"
       cx="8.8544207"
       cy="24.080193"
       r="3.5839322"
       inkscape:label="clock" />
    <circle
       style="fill:#00ff00;stroke-width:0.964999"
       id="circle643"
       cx="8.8544207"
       cy="41.974464"
       r="3.5839322"
       inkscape:label="reset" />
    <circle
       style="display:inline;fill:#00ff00;stroke-width:0.964999"
       id="circle729"
       cx="8.5562782"
       cy="59.868736"
       r="3.5839322"
       inkscape:label="generate_trigger" />
    <circle
       style="display:inline;fill:#00ff00;stroke-width:0.964999"
       id="circle471"
       cx="8.2581348"
       cy="77.763008"
       r="3.5839322"
       inkscape:label="quantize" />
    <circle
       style="display:inline;fill:#00ff00;stroke-width:0.964999"
       id="circle723"
       cx="21.081955"
       cy="24.080193"
       r="3.5839322"
       inkscape:label="root_cv" />
    <circle
       style="display:inline;fill:#00ff00;stroke-width:0.964999"
       id="circle725"
       cx="21.081955"
       cy="41.974464"
       r="3.5839322"
       inkscape:label="scale_cv" />
    <circle
       style="display:inline;fill:#00ff00;stroke-width:0.964999"
       id="circle721"
       cx="42.585548"
       cy="24.080193"
       r="3.5839322"
       inkscape:label="steps_cv" />
    <circle
       style="display:inline;fill:#00ff00;stroke-width:0.964999"
       id="circle472"
       cx="42.585548"
       cy="41.974464"
       r="3.5839322"
       inkscape:label="start_cv" />
    <circle
       style="display:inline;fill:#00ff00;stroke-width:0.964999"
       id="circle561"
       cx="42.585548"
       cy="59.868736"
       r="3.5839322"
       inkscape:label="prob_cv" />
    <circle
       style="display:inline;fill:#00ff00;stroke-width:0.964999"
       id="circle741"
       cx="42.585548"
       cy="77.763008"
       r="3.5839322"
       inkscape:label="slips_cv" />
    <circle
       style="display:inline;fill:#00ff00;stroke-width:0.964999"
       id="circle763"
       cx="42.585548"
       cy="95.65728"
       r="3.5839322"
       inkscape:label="slip_range_cv" />
    <circle
       style="display:inline;fill:#ff0000;stroke-width:0.964999"
       id="circle727"
       cx="18.253975"
       cy="59.868736"
       r="3.5839322"
       inkscape:label="generate" />
    <circle
       style="display:inline;fill:#ff0000;stroke-width:0.964999"
       id="circle647"
       cx="30.278625"
       cy="24.080193"
       r="3.5839322"
       inkscape:label="root" />
    <circle
       style="display:inline;fill:#ff0000;stroke-width:0.964999"
       id="circle649"
       cx="30.278625"
       cy="41.974464"
       r="3.5839322"
       inkscape:label="scale" />
    <circle
       style="fill:#ff0000;stroke-width:0.964999"
       id="circle645"
       cx="51.782219"
       cy="24.080193"
       r="3.5839322"
       inkscape:label="steps" />
    <circle
       style="display:inline;fill:#ff0000;stroke-width:0.964999"
       id="circle470"
       cx="51.782219"
       cy="41.974464"
       r="3.5839322"
       inkscape:label="start" />
    <circle
       style="display:inline;fill:#ff0000;stroke-width:0.964999"
       id="circle559"
       cx="51.782219"
       cy="59.868736"
       r="3.5839322"
       inkscape:label="prob" />
    <circle
       style="fill:#ff0000;stroke-width:0.964999"
       id="circle735"
       cx="51.782219"
       cy="77.763008"
       r="3.5839322"
       inkscape:label="slips" />
    <circle
       style="fill:#ff0000;stroke-width:0.964999"
       id="circle761"
       cx="51.782219"
       cy="95.65728"
       r="3.5839322"
       inkscape:label="slip_range" />
    <circle
       style="fill:#0000ff;stroke-width:0.964999"
       id="circle469"
       cx="19.744694"
       cy="77.763008"
       r="3.5839322"
       inkscape:label="quantize" />
    <circle
       style="fill:#0000ff;stroke-width:0.964999"
       id="circle691"
       cx="8.8544207"
       cy="95.65728"
       r="3.5839322"
       inkscape:label="sequence" />
    <circle
       style="fill:#0000ff;stroke-width:0.964999"
       id="circle701"
       cx="18.762939"
       cy="95.65728"
       r="3.5839322"
       inkscape:label="gate" />
    <circle
       style="fill:#0000ff;stroke-width:0.964999"
       id="circle709"
       cx="28.882277"
       cy="95.65728"
       r="3.5839322"
       inkscape:label="slip_gate" />
    <circle
       style="fill:#ff00ff;stroke-width:0.964999"
       id="path857"
       cx="23.25522"
       cy="92.871811"
       r="1.6397913"
       inkscape:label="gate" />
    <circle
       style="fill:#ff00ff;stroke-width:0.964999"
       id="circle859"
       cx="33.541183"
       cy="92.871811"
       r="1.6397913"
       inkscape:label="slip_gate" />
  </g>
</svg>
