<?xml version="1.0" encoding="UTF-8" standalone="no"?>
<!-- Created with Inkscape (http://www.inkscape.org/) -->

<svg
   width="30.48mm"
   height="128.5mm"
   viewBox="0 0 30.48 128.5"
   version="1.1"
   id="svg5"
   inkscape:version="1.2.2 (732a01da63, 2022-12-09)"
   sodipodi:docname="slipspander.svg"
   xmlns:inkscape="http://www.inkscape.org/namespaces/inkscape"
   xmlns:sodipodi="http://sodipodi.sourceforge.net/DTD/sodipodi-0.dtd"
   xmlns="http://www.w3.org/2000/svg"
   xmlns:svg="http://www.w3.org/2000/svg">
  <sodipodi:namedview
     id="namedview7"
     pagecolor="#505050"
     bordercolor="#000000"
     borderopacity="1"
     inkscape:showpageshadow="0"
     inkscape:pageopacity="0"
     inkscape:pagecheckerboard="0"
     inkscape:deskcolor="#505050"
     inkscape:document-units="mm"
     showgrid="false"
     inkscape:zoom="1.2550228"
     inkscape:cx="0.39839914"
     inkscape:cy="226.29071"
     inkscape:current-layer="layer1" />
  <defs
     id="defs2" />
  <g
     inkscape:label="Layer 1"
     inkscape:groupmode="layer"
     id="layer1">
    <g
       aria-label="slip
spander"
       id="text418"
       style="font-size:6.35px;line-height:0.85;font-family:'Agency FB';-inkscape-font-specification:'Agency FB';text-align:center;text-anchor:middle;fill:#1a1a1a;stroke-width:0.264583"
       transform="translate(0.11007102)">
      <path
         d="m 13.559482,9.4850506 q 0,0.3503662 -0.350366,0.3503662 h -0.945679 q -0.350366,0 -0.350366,-0.3503662 V 8.7998211 h 0.406177 v 0.6790283 h 0.834057 V 8.8773358 L 12.074301,7.9936688 Q 11.919272,7.8696453 11.919272,7.6712078 V 7.1689129 q 0,-0.3503662 0.350366,-0.3503662 h 0.933277 q 0.350366,0 0.350366,0.3503662 V 7.7704266 H 13.153305 V 7.1751141 h -0.834057 v 0.5270996 l 1.088305,0.883667 q 0.151929,0.1209228 0.151929,0.3286621 z"
         id="path3184" />
      <path
         d="M 14.644687,9.8354168 H 14.23851 V 4.9829999 h 0.406177 z"
         id="path3186" />
      <path
         d="M 15.782602,6.1581219 H 15.364023 V 5.6372235 h 0.418579 z m -0.0062,3.6772949 H 15.370224 V 6.8185467 h 0.406177 z"
         id="path3188" />
      <path
         d="m 18.210361,9.1873943 q 0,0.2790528 -0.182935,0.4650879 -0.182934,0.1829346 -0.458886,0.1829346 H 16.889511 V 10.979533 H 16.477133 V 6.8185467 h 0.412378 v 0.083716 q 0.244947,-0.031006 0.489893,-0.062012 0.310058,-0.040308 0.486792,-0.040308 0.344165,0 0.344165,0.3379639 z M 17.797983,9.1253826 V 7.1875164 l -0.908472,0.024805 v 2.2603271 h 0.570508 q 0.337964,0 0.337964,-0.3472659 z"
         id="path3190" />
      <path
         d="m 8.8682956,14.882551 q 0,0.350366 -0.3503662,0.350366 H 7.5722507 q -0.3503662,0 -0.3503662,-0.350366 v -0.68523 h 0.4061767 v 0.679028 H 8.4621188 V 14.274836 L 7.3831149,13.391169 Q 7.2280856,13.267145 7.2280856,13.068708 v -0.502295 q 0,-0.350366 0.3503662,-0.350366 h 0.9332764 q 0.3503662,0 0.3503662,0.350366 v 0.601514 H 8.4621188 V 12.572614 H 7.6280612 v 0.5271 l 1.0883057,0.883667 q 0.1519287,0.120923 0.1519287,0.328662 z"
         id="path3192" />
      <path
         d="m 11.255747,14.584894 q 0,0.279053 -0.182935,0.465088 -0.182934,0.182935 -0.458887,0.182935 H 9.9348972 v 1.144116 h -0.412378 v -4.160986 h 0.412378 v 0.08372 q 0.2449458,-0.03101 0.4898928,-0.06201 0.310058,-0.04031 0.486792,-0.04031 0.344165,0 0.344165,0.337964 z m -0.412378,-0.06201 v -1.937866 l -0.9084718,0.0248 v 2.260327 h 0.5705078 q 0.337964,0 0.337964,-0.347265 z"
         id="path3194" />
      <path
         d="m 13.621493,15.232917 h -0.406176 v -0.08372 q -0.244947,0.03411 -0.489893,0.06511 -0.303857,0.03721 -0.486792,0.03721 -0.337964,0 -0.337964,-0.334863 v -1.100708 q 0,-0.347266 0.350366,-0.347266 h 0.970484 V 12.560212 H 12.33475 v 0.514697 h -0.399975 v -0.508496 q 0,-0.350366 0.347265,-0.350366 h 0.992188 q 0.347265,0 0.347265,0.350366 z m -0.399975,-0.375171 v -1.066602 h -0.920874 v 1.085205 z"
         id="path3196" />
      <path
         d="m 16.030649,15.232917 h -0.412378 v -2.6479 l -0.908472,0.0248 v 2.623096 h -0.412377 v -3.01687 h 0.412377 v 0.08372 q 0.241846,-0.03101 0.486792,-0.06511 0.297657,-0.03721 0.489893,-0.03721 0.344165,0 0.344165,0.337964 z"
         id="path3198" />
      <path
         d="m 18.411898,15.232917 h -0.409277 v -0.08372 q -0.663525,0.102319 -0.734839,0.102319 -0.26355,0 -0.42478,-0.176733 -0.161231,-0.179834 -0.161231,-0.446484 v -1.764234 q 0,-0.279052 0.182935,-0.461987 0.182935,-0.186035 0.458887,-0.186035 h 0.679028 V 10.3805 h 0.409277 z m -0.409277,-0.375171 v -2.278931 h -0.570508 q -0.341064,0 -0.341064,0.350367 v 1.612304 q 0,0.347266 0.341064,0.347266 0.08061,0 0.570508,-0.03101 z"
         id="path3200" />
      <path
         d="m 20.777646,14.882551 q 0,0.350366 -0.347266,0.350366 h -0.992187 q -0.347266,0 -0.347266,-0.350366 v -2.316138 q 0,-0.350366 0.347266,-0.350366 h 0.992187 q 0.347266,0 0.347266,0.350366 v 1.085205 l -0.139526,0.145728 h -1.147217 v 1.091406 h 0.886767 v -0.551904 h 0.399976 z M 20.37767,13.468683 v -0.908471 h -0.886767 v 0.908471 z"
         id="path3202" />
      <path
         d="m 23.037973,13.208234 h -0.406176 v -0.623217 l -0.759644,0.0248 v 2.623096 h -0.412378 v -3.01687 h 0.412378 v 0.08372 q 0.204639,-0.03101 0.412378,-0.06511 0.248047,-0.03721 0.412378,-0.03721 0.341064,0 0.341064,0.337964 z"
         id="path3204" />
    </g>
    <g
       id="text3498"
       transform="matrix(0.35277774,0,0,0.35277774,7.6194714,2.8468836e-4)"
       style="fill:#1a1a1a;fill-opacity:1">
      <path
         id="path15128"
         d="m 26.956,347.987 h -0.422 a 3.344,3.344 0 0 0 -0.811,-2.014 L 18.949,338.2 a 2.584,2.584 0 0 0 -1.734,2.248 5.4,5.4 0 0 0 1.109,2.731 6.089,6.089 0 0 1 1.28,3.028 q 0,1.5 -1.14,1.5 h -2.95 v -0.422 a 1.072,1.072 0 0 0 0.937,-1.078 7.389,7.389 0 0 0 -0.593,-2.044 7.026,7.026 0 0 1 -0.594,-2.341 q 0,-2.514 3.091,-4.277 l -1.92,-2.17 a 4.308,4.308 0 0 1 -1.2,-2.857 3.689,3.689 0 0 1 1.093,-2.528 h 0.406 a 3.487,3.487 0 0 0 0.811,2.185 l 5.869,6.665 a 11.888,11.888 0 0 1 1.733,-4.2 q -2.481,-0.405 -2.482,-2.5 a 3.687,3.687 0 0 1 0.64,-2.154 h 0.406 a 1.549,1.549 0 0 0 1.2,1.2 l 1.342,0.313 a 1.952,1.952 0 0 1 1.765,1.982 3.588,3.588 0 0 1 -0.141,1.109 6.522,6.522 0 0 1 -1.7,0.156 8.5,8.5 0 0 0 -1.623,4.183 3.2,3.2 0 0 0 0.827,2.153 l 1.452,1.671 a 4.331,4.331 0 0 1 1.217,2.872 3.127,3.127 0 0 1 -1.094,2.362 z"
         transform="translate(-0.041)"
         style="fill:#1a1a1a;fill-opacity:1" />
    </g>
  </g>
  <g
     inkscape:groupmode="layer"
     id="layer2"
     inkscape:label="components"
     style="display:none">
    <circle
       style="fill:#ff0000;stroke-width:0.964999"
       id="path283"
       cx="9.6532822"
       cy="32.627079"
       r="4.2163906"
       inkscape:label="a_sharp" />
    <circle
       style="fill:#ff0000;stroke-width:0.964999"
       id="circle339"
       cx="9.6532822"
       cy="45.170841"
       r="4.2163906"
       inkscape:label="g_sharp" />
    <circle
       style="fill:#ff0000;stroke-width:0.964999"
       id="circle395"
       cx="9.6532822"
       cy="57.7146"
       r="4.2163906"
       inkscape:label="f_sharp" />
    <circle
       style="fill:#ff0000;stroke-width:0.964999"
       id="circle397"
       cx="9.6532822"
       cy="82.380486"
       r="4.2163906"
       inkscape:label="d_sharp" />
    <circle
       style="fill:#ff0000;stroke-width:0.964999"
       id="circle399"
       cx="9.6532822"
       cy="94.608017"
       r="4.2163906"
       inkscape:label="c_sharp" />
    <circle
       style="fill:#ff0000;stroke-width:0.964999"
       id="circle413"
       cx="20.826717"
       cy="26.513302"
       r="4.2163906"
       inkscape:label="b" />
    <circle
       style="fill:#ff0000;stroke-width:0.964999"
       id="circle411"
       cx="20.826717"
       cy="39.092201"
       r="4.2163906"
       inkscape:label="a" />
    <circle
       style="fill:#ff0000;stroke-width:0.964999"
       id="circle409"
       cx="20.826717"
       cy="51.671101"
       r="4.2163906"
       inkscape:label="g" />
    <circle
       style="fill:#ff0000;stroke-width:0.964999"
       id="circle407"
       cx="20.826717"
       cy="64.25"
       r="4.2163906"
       inkscape:label="f" />
    <circle
       style="fill:#ff0000;stroke-width:0.964999"
       id="circle405"
       cx="20.826717"
       cy="76.828896"
       r="4.2163906"
       inkscape:label="e" />
    <circle
       style="fill:#ff0000;stroke-width:0.964999"
       id="circle403"
       cx="20.826717"
       cy="89.407799"
       r="4.2163906"
       inkscape:label="d" />
    <circle
       style="fill:#ff0000;stroke-width:0.964999"
       id="circle401"
       cx="20.826717"
       cy="101.98669"
       r="4.2163906"
       inkscape:label="c" />
  </g>
</svg>
