<?xml version="1.0" encoding="UTF-8" standalone="no"?>
<!-- Created with Inkscape (http://www.inkscape.org/) -->

<svg
   width="30.48mm"
   height="128.5mm"
   viewBox="0 0 30.48 128.5"
   version="1.1"
   id="svg5"
   inkscape:version="1.1.1 (3bf5ae0d25, 2021-09-20)"
   sodipodi:docname="steps.svg"
   xmlns:inkscape="http://www.inkscape.org/namespaces/inkscape"
   xmlns:sodipodi="http://sodipodi.sourceforge.net/DTD/sodipodi-0.dtd"
   xmlns="http://www.w3.org/2000/svg"
   xmlns:svg="http://www.w3.org/2000/svg">
  <sodipodi:namedview
     id="namedview7"
     pagecolor="#505050"
     bordercolor="#000000"
     borderopacity="1"
     inkscape:pageshadow="0"
     inkscape:pageopacity="0"
     inkscape:pagecheckerboard="0"
     inkscape:document-units="mm"
     showgrid="false"
     borderlayer="true"
     inkscape:zoom="1.2810466"
     inkscape:cx="19.515293"
     inkscape:cy="249.40545"
     inkscape:current-layer="layer1" />
  <defs
     id="defs2" />
  <g
     inkscape:label="Layer 1"
     inkscape:groupmode="layer"
     id="layer1">
    <rect
       style="fill:#ffffff;stroke-width:0.964999"
       id="rect846"
       width="33.045898"
       height="131.35744"
       x="-1.2829494"
       y="-1.4287186" />
    <g
       aria-label="steps"
       id="text2814"
       style="font-size:5.64444px;line-height:1.25;font-family:'Agency FB';-inkscape-font-specification:'Agency FB';stroke-width:0.264583">
      <path
         d="m 12.125632,13.349314 q 0,0.311436 -0.311437,0.311436 h -0.840602 q -0.311437,0 -0.311437,-0.311436 v -0.609092 h 0.361046 v 0.60358 h 0.741384 v -0.534679 l -0.959114,-0.785481 q -0.137804,-0.110243 -0.137804,-0.286631 v -0.446485 q 0,-0.311436 0.311437,-0.311436 h 0.829578 q 0.311437,0 0.311437,0.311436 v 0.534679 h -0.355534 v -0.529166 h -0.741384 v 0.468532 l 0.967382,0.785481 q 0.135048,0.107487 0.135048,0.292144 z"
         id="path928" />
      <path
         d="m 13.671789,13.66075 h -0.520898 q -0.30868,0 -0.30868,-0.311436 V 11.301551 H 12.51975 V 10.97909 h 0.322461 V 10.144 h 0.361046 v 0.83509 h 0.468532 v 0.322461 h -0.468532 v 2.036739 h 0.468532 z"
         id="path930" />
      <path
         d="m 15.639627,13.349314 q 0,0.311436 -0.308681,0.311436 h -0.881944 q -0.30868,0 -0.30868,-0.311436 v -2.058788 q 0,-0.311436 0.30868,-0.311436 h 0.881944 q 0.308681,0 0.308681,0.311436 v 0.964626 l -0.124024,0.129536 h -1.019747 v 0.970138 h 0.788237 v -0.490581 h 0.355534 z m -0.355534,-1.25677 v -0.80753 h -0.788237 v 0.80753 z"
         id="path932" />
      <path
         d="m 17.786609,13.084731 q 0,0.248047 -0.162609,0.413411 -0.162608,0.162608 -0.407899,0.162608 h -0.60358 v 1.016992 H 16.245963 V 10.97909 h 0.366558 v 0.07441 q 0.21773,-0.02756 0.43546,-0.05512 0.275607,-0.03583 0.432703,-0.03583 0.305925,0 0.305925,0.300412 z m -0.366558,-0.05512 v -1.722546 l -0.80753,0.02205 v 2.009178 h 0.507118 q 0.300412,0 0.300412,-0.308681 z"
         id="path934" />
      <path
         d="m 19.817835,13.349314 q 0,0.311436 -0.311436,0.311436 h -0.840603 q -0.311436,0 -0.311436,-0.311436 v -0.609092 h 0.361046 v 0.60358 h 0.741384 v -0.534679 l -0.959114,-0.785481 q -0.137804,-0.110243 -0.137804,-0.286631 v -0.446485 q 0,-0.311436 0.311436,-0.311436 h 0.829579 q 0.311436,0 0.311436,0.311436 v 0.534679 H 19.45679 v -0.529166 h -0.741384 v 0.468532 l 0.967382,0.785481 q 0.135047,0.107487 0.135047,0.292144 z"
         id="path936" />
    </g>
    <rect
       style="fill:#000000;stroke:#000000;stroke-width:0"
       id="rect32999"
       width="12.598748"
       height="23.545202"
       x="2.0653689"
       y="86.745483"
       ry="5.2020001"
       rx="3.7969999" />
    <g
       aria-label="×"
       id="text3498"
       style="font-size:11.2889px;line-height:1.25;font-family:serif;-inkscape-font-specification:serif;stroke-width:0.264583"
       transform="translate(5.0799975,-2.11596)">
      <path
         d="m 12.036893,124.89348 h -0.148829 q -0.03307,-0.42444 -0.286632,-0.71107 l -2.3922767,-2.74506 q -0.6118496,0.30868 -0.6118496,0.79375 0,0.37483 0.3913632,0.96463 0.451997,0.67249 0.451997,1.06936 0,0.52917 -0.4023875,0.52917 h -1.041798 v -0.14883 q 0.3307295,-0.0882 0.3307295,-0.38034 0,-0.1819 -0.209462,-0.72209 -0.209462,-0.53468 -0.209462,-0.82683 0,-0.88745 1.0914074,-1.51033 l -0.6779955,-0.76619 q -0.4244362,-0.48507 -0.4244362,-1.00872 0,-0.47405 0.3858511,-0.89297 h 0.1433161 q 0.027561,0.47956 0.2866322,0.7717 l 2.072572,2.35369 q 0.159852,-0.79375 0.611849,-1.48277 -0.876433,-0.14331 -0.876433,-0.88194 0,-0.43546 0.225998,-0.76068 h 0.143317 q 0.08819,0.34175 0.424436,0.42443 l 0.474045,0.11025 q 0.622874,0.14883 0.622874,0.70004 0,0.24254 -0.04961,0.39137 -0.181901,0.0551 -0.600825,0.0551 -0.573265,0.90399 -0.573265,1.47726 0,0.42443 0.292145,0.76067 l 0.51263,0.5898 q 0.429949,0.49059 0.429949,1.01424 0,0.47405 -0.385851,0.83234 z"
         id="path15128" />
    </g>
  </g>
  <g
     inkscape:groupmode="layer"
     id="layer2"
     inkscape:label="components"
     style="display:none">
    <circle
       style="fill:#ff0000;fill-rule:evenodd;stroke-width:0.264583"
       id="circle11265"
       cx="8.2614737"
       cy="34.698193"
       r="3.9242003"
       inkscape:label="steps" />
    <circle
       style="fill:#00ff00;fill-rule:evenodd;stroke-width:0.264583"
       id="path11165"
       cx="8.2614737"
       cy="23.545202"
       r="3.9242003"
       inkscape:label="clock" />
    <circle
       style="fill:#00ff00;fill-rule:evenodd;stroke-width:0.264583"
       id="circle11287"
       cx="8.2614737"
       cy="45.851185"
       r="3.9242003"
       inkscape:label="rand" />
    <circle
       style="fill:#ff0000;fill-rule:evenodd;stroke-width:0.264583"
       id="circle11307"
       cx="22.099443"
       cy="23.545347"
       r="3.9242003"
       inkscape:label="step1" />
    <circle
       style="fill:#ff0000;fill-rule:evenodd;stroke-width:0.264583"
       id="circle11327"
       cx="22.099443"
       cy="35.069267"
       r="3.9242003"
       inkscape:label="step2" />
    <circle
       style="fill:#ff0000;fill-rule:evenodd;stroke-width:0.264583"
       id="circle11329"
       cx="22.099443"
       cy="46.593189"
       r="3.9242003"
       inkscape:label="step3" />
    <circle
       style="fill:#ff0000;fill-rule:evenodd;stroke-width:0.264583"
       id="circle11331"
       cx="22.099443"
       cy="58.117107"
       r="3.9242003"
       inkscape:label="step4" />
    <circle
       style="fill:#ff0000;fill-rule:evenodd;stroke-width:0.264583"
       id="circle11333"
       cx="22.099443"
       cy="69.641029"
       r="3.9242003"
       inkscape:label="step5" />
    <circle
       style="fill:#ff0000;fill-rule:evenodd;stroke-width:0.264583"
       id="circle11335"
       cx="22.099443"
       cy="81.16494"
       r="3.9242003"
       inkscape:label="step6" />
    <circle
       style="fill:#ff0000;fill-rule:evenodd;stroke-width:0.264583"
       id="circle11337"
       cx="22.099443"
       cy="92.688866"
       r="3.9242003"
       inkscape:label="step7" />
    <circle
       style="fill:#ff0000;fill-rule:evenodd;stroke-width:0.264583"
       id="circle11339"
       cx="22.099443"
       cy="104.2128"
       r="3.9242003"
       inkscape:label="step8" />
    <circle
       style="fill:#0000ff;fill-rule:evenodd;stroke-width:0.264583"
       id="circle11341"
       cx="8.2614737"
       cy="92.689346"
       r="3.9242003"
       inkscape:label="eoc" />
    <circle
       style="fill:#0000ff;fill-rule:evenodd;stroke-width:0.264583"
       id="circle11343"
       cx="8.2614746"
       cy="104.21235"
       r="3.9242003"
       inkscape:label="cv" />
  </g>
</svg>
