<?xml version="1.0" encoding="UTF-8" standalone="no"?>
<!-- Created with Inkscape (http://www.inkscape.org/) -->

<svg
   width="45.720001mm"
   height="128.5mm"
   viewBox="0 0 45.720002 128.5"
   version="1.1"
   id="svg5"
   inkscape:version="1.2.1 (9c6d41e410, 2022-07-14)"
   sodipodi:docname="steps.svg"
   xmlns:inkscape="http://www.inkscape.org/namespaces/inkscape"
   xmlns:sodipodi="http://sodipodi.sourceforge.net/DTD/sodipodi-0.dtd"
   xmlns="http://www.w3.org/2000/svg"
   xmlns:svg="http://www.w3.org/2000/svg">
  <sodipodi:namedview
     id="namedview7"
     pagecolor="#505050"
     bordercolor="#000000"
     borderopacity="1"
     inkscape:pageshadow="0"
     inkscape:pageopacity="0"
     inkscape:pagecheckerboard="0"
     inkscape:document-units="mm"
     showgrid="false"
     borderlayer="true"
     inkscape:zoom="1.2810466"
     inkscape:cx="-135.82644"
     inkscape:cy="249.79575"
     inkscape:current-layer="layer1"
     inkscape:showpageshadow="0"
     inkscape:deskcolor="#505050" />
  <defs
     id="defs2" />
  <g
     inkscape:label="Layer 1"
     inkscape:groupmode="layer"
     id="layer1">
    <rect
       style="display:none;fill:#ffffff;stroke-width:1.17199"
       id="rect846"
       width="48.742699"
       height="131.35744"
       x="-1.2829494"
       y="-1.4287186" />
    <g
       aria-label="steps"
       id="text2814"
       style="font-size:5.64444px;line-height:1.25;font-family:'Agency FB';-inkscape-font-specification:'Agency FB';stroke-width:0.264583;fill:#1a1a1a;fill-opacity:1"
       transform="translate(7.6200051)">
      <path
         d="m 12.125632,13.349314 q 0,0.311436 -0.311437,0.311436 h -0.840602 q -0.311437,0 -0.311437,-0.311436 v -0.609092 h 0.361046 v 0.60358 h 0.741384 v -0.534679 l -0.959114,-0.785481 q -0.137804,-0.110243 -0.137804,-0.286631 v -0.446485 q 0,-0.311436 0.311437,-0.311436 h 0.829578 q 0.311437,0 0.311437,0.311436 v 0.534679 h -0.355534 v -0.529166 h -0.741384 v 0.468532 l 0.967382,0.785481 q 0.135048,0.107487 0.135048,0.292144 z"
         id="path928"
         style="fill:#1a1a1a;fill-opacity:1" />
      <path
         d="m 13.671789,13.66075 h -0.520898 q -0.30868,0 -0.30868,-0.311436 V 11.301551 H 12.51975 V 10.97909 h 0.322461 V 10.144 h 0.361046 v 0.83509 h 0.468532 v 0.322461 h -0.468532 v 2.036739 h 0.468532 z"
         id="path930"
         style="fill:#1a1a1a;fill-opacity:1" />
      <path
         d="m 15.639627,13.349314 q 0,0.311436 -0.308681,0.311436 h -0.881944 q -0.30868,0 -0.30868,-0.311436 v -2.058788 q 0,-0.311436 0.30868,-0.311436 h 0.881944 q 0.308681,0 0.308681,0.311436 v 0.964626 l -0.124024,0.129536 h -1.019747 v 0.970138 h 0.788237 v -0.490581 h 0.355534 z m -0.355534,-1.25677 v -0.80753 h -0.788237 v 0.80753 z"
         id="path932"
         style="fill:#1a1a1a;fill-opacity:1" />
      <path
         d="m 17.786609,13.084731 q 0,0.248047 -0.162609,0.413411 -0.162608,0.162608 -0.407899,0.162608 h -0.60358 v 1.016992 H 16.245963 V 10.97909 h 0.366558 v 0.07441 q 0.21773,-0.02756 0.43546,-0.05512 0.275607,-0.03583 0.432703,-0.03583 0.305925,0 0.305925,0.300412 z m -0.366558,-0.05512 v -1.722546 l -0.80753,0.02205 v 2.009178 h 0.507118 q 0.300412,0 0.300412,-0.308681 z"
         id="path934"
         style="fill:#1a1a1a;fill-opacity:1" />
      <path
         d="m 19.817835,13.349314 q 0,0.311436 -0.311436,0.311436 h -0.840603 q -0.311436,0 -0.311436,-0.311436 v -0.609092 h 0.361046 v 0.60358 h 0.741384 v -0.534679 l -0.959114,-0.785481 q -0.137804,-0.110243 -0.137804,-0.286631 v -0.446485 q 0,-0.311436 0.311436,-0.311436 h 0.829579 q 0.311436,0 0.311436,0.311436 v 0.534679 H 19.45679 v -0.529166 h -0.741384 v 0.468532 l 0.967382,0.785481 q 0.135047,0.107487 0.135047,0.292144 z"
         id="path936"
         style="fill:#1a1a1a;fill-opacity:1" />
    </g>
    <rect
       style="fill:#1a1a1a;stroke:#000000;stroke-width:0;fill-opacity:1"
       id="rect32999"
       width="12.599"
       height="30.567455"
       x="2.0876832"
       y="82.614746"
       ry="3.7969999"
       rx="3.7969999" />
    <g
       aria-label="×"
       id="text3498"
       style="font-size:11.2889px;line-height:1.25;font-family:serif;-inkscape-font-specification:serif;stroke-width:0.264583;fill:#1a1a1a;fill-opacity:1"
       transform="translate(12.699998,-2.11596)">
      <path
         d="m 12.036893,124.89348 h -0.148829 q -0.03307,-0.42444 -0.286632,-0.71107 l -2.3922767,-2.74506 q -0.6118496,0.30868 -0.6118496,0.79375 0,0.37483 0.3913632,0.96463 0.451997,0.67249 0.451997,1.06936 0,0.52917 -0.4023875,0.52917 h -1.041798 v -0.14883 q 0.3307295,-0.0882 0.3307295,-0.38034 0,-0.1819 -0.209462,-0.72209 -0.209462,-0.53468 -0.209462,-0.82683 0,-0.88745 1.0914074,-1.51033 l -0.6779955,-0.76619 q -0.4244362,-0.48507 -0.4244362,-1.00872 0,-0.47405 0.3858511,-0.89297 h 0.1433161 q 0.027561,0.47956 0.2866322,0.7717 l 2.072572,2.35369 q 0.159852,-0.79375 0.611849,-1.48277 -0.876433,-0.14331 -0.876433,-0.88194 0,-0.43546 0.225998,-0.76068 h 0.143317 q 0.08819,0.34175 0.424436,0.42443 l 0.474045,0.11025 q 0.622874,0.14883 0.622874,0.70004 0,0.24254 -0.04961,0.39137 -0.181901,0.0551 -0.600825,0.0551 -0.573265,0.90399 -0.573265,1.47726 0,0.42443 0.292145,0.76067 l 0.51263,0.5898 q 0.429949,0.49059 0.429949,1.01424 0,0.47405 -0.385851,0.83234 z"
         id="path15128"
         style="fill:#1a1a1a;fill-opacity:1" />
    </g>
    <g
       aria-label="cv"
       id="text17356"
       style="font-size:4.23333px;line-height:1.25;font-family:'Agency FB';-inkscape-font-specification:'Agency FB';fill:#e5e5e5;stroke-width:0.264583;fill-opacity:1"
       transform="translate(0,2.8915159)">
      <path
         d="m 7.9527652,107.37212 q 0,0.23358 -0.2315103,0.23358 H 7.0680654 q -0.2315102,0 -0.2315102,-0.23358 v -1.54409 q 0,-0.23358 0.2315102,-0.23358 h 0.6531895 q 0.2315103,0 0.2315103,0.23358 v 0.40101 H 7.6819809 V 105.8363 H 7.1114736 v 1.52755 h 0.5705073 v -0.44855 h 0.2707843 z"
         id="path20630"
         style="fill:#e5e5e5;fill-opacity:1" />
      <path
         d="m 9.5319956,105.59445 -0.4981604,2.01538 H 8.7837215 L 8.283494,105.59445 h 0.2831866 l 0.3431312,1.58337 0.3472654,-1.58337 z"
         id="path20632"
         style="fill:#e5e5e5;fill-opacity:1" />
    </g>
    <g
       aria-label="eoc"
       id="text14772"
       style="font-size:4.23333px;line-height:1.25;font-family:'Agency FB';-inkscape-font-specification:'Agency FB';fill:#e5e5e5;stroke-width:0.264583;fill-opacity:1"
       transform="translate(0,2.8915159)">
      <path
         d="m 7.1083198,93.534153 q 0,0.233578 -0.2315102,0.233578 H 6.2153518 q -0.2315102,0 -0.2315102,-0.233578 v -1.54409 q 0,-0.233577 0.2315102,-0.233577 h 0.6614578 q 0.2315102,0 0.2315102,0.233577 v 0.723469 l -0.093018,0.09715 H 6.2504917 v 0.727604 H 6.8416696 V 93.170352 H 7.1083198 Z M 6.8416696,92.591576 V 91.985929 H 6.2504917 v 0.605647 z"
         id="path20605"
         style="fill:#e5e5e5;fill-opacity:1" />
      <path
         d="m 8.7185561,93.534153 q 0,0.233578 -0.2335773,0.233578 H 7.7945822 q -0.2315102,0 -0.2315102,-0.233578 v -1.54409 q 0,-0.233577 0.2315102,-0.233577 h 0.6903966 q 0.2335773,0 0.2335773,0.233577 z m -0.2749184,-0.0083 V 91.998331 H 7.8379904 v 1.527554 z"
         id="path20607"
         style="fill:#e5e5e5;fill-opacity:1" />
      <path
         d="m 10.283317,93.534153 q 0,0.233578 -0.23151,0.233578 H 9.3986175 q -0.2315102,0 -0.2315102,-0.233578 v -1.54409 q 0,-0.233577 0.2315102,-0.233577 h 0.6531895 q 0.23151,0 0.23151,0.233577 v 0.401009 H 10.012533 V 91.998331 H 9.4420257 v 1.527554 h 0.5705073 v -0.448551 h 0.270784 z"
         id="path20609"
         style="fill:#e5e5e5;fill-opacity:1" />
    </g>
    <g
       aria-label="rand"
       id="text11228"
       style="font-size:4.23333px;line-height:1.25;font-family:'Agency FB';-inkscape-font-specification:'Agency FB';stroke-width:0.264583;fill:#1a1a1a;fill-opacity:1"
       transform="translate(0,-3.4494661)">
      <path
         d="M 6.2183469,60.611268 H 5.9475626 V 60.19579 L 5.441134,60.21233 v 1.748729 H 5.1662156 V 59.949811 H 5.441134 v 0.05581 q 0.1364256,-0.02067 0.2749184,-0.04341 0.1653644,-0.02481 0.2749183,-0.02481 0.2273762,0 0.2273762,0.225309 z"
         id="path20578"
         style="fill:#1a1a1a;fill-opacity:1" />
      <path
         d="M 7.7045598,61.961056 H 7.4337755 v -0.05581 q -0.1632974,0.02274 -0.3265948,0.04341 -0.2025714,0.02481 -0.3245277,0.02481 -0.2253091,0 -0.2253091,-0.223242 v -0.733805 q 0,-0.23151 0.2335773,-0.23151 H 7.4379096 V 60.179254 H 6.8467317 v 0.343131 H 6.5800815 v -0.338997 q 0,-0.233577 0.2315103,-0.233577 h 0.6614577 q 0.2315103,0 0.2315103,0.233577 z M 7.4379096,61.710942 V 60.999875 H 6.8239941 v 0.723469 z"
         id="path20580"
         style="fill:#1a1a1a;fill-opacity:1" />
      <path
         d="M 9.3106618,61.961056 H 9.0357434 V 60.19579 l -0.6056473,0.01654 v 1.748729 H 8.1551778 v -2.011245 h 0.2749183 v 0.05581 q 0.1612304,-0.02067 0.3245278,-0.04341 0.1984373,-0.02481 0.3265947,-0.02481 0.2294432,0 0.2294432,0.225309 z"
         id="path20582"
         style="fill:#1a1a1a;fill-opacity:1" />
      <path
         d="m 10.898161,61.961056 h -0.272852 v -0.05581 q -0.44235,0.06821 -0.489892,0.06821 -0.1756995,0 -0.2831864,-0.117822 Q 9.7447437,61.735747 9.7447437,61.55798 v -1.176155 q 0,-0.186035 0.1219563,-0.307991 0.1219562,-0.124023 0.305924,-0.124023 h 0.452685 v -1.223697 h 0.272852 z m -0.272852,-0.250114 v -1.519286 h -0.380338 q -0.227376,0 -0.227376,0.233577 v 1.074869 q 0,0.231511 0.227376,0.231511 0.05374,0 0.380338,-0.02067 z"
         id="path20584"
         style="fill:#1a1a1a;fill-opacity:1" />
    </g>
    <g
       aria-label="steps"
       id="text7750"
       style="font-size:4.23333px;line-height:1.25;font-family:'Agency FB';-inkscape-font-specification:'Agency FB';stroke-width:0.264583;fill:#1a1a1a;fill-opacity:1"
       transform="translate(0,-3.656003)">
      <path
         d="m 5.6457198,46.856823 q 0,0.233578 -0.2335773,0.233578 h -0.630452 q -0.2335772,0 -0.2335772,-0.233578 v -0.456819 h 0.2707842 v 0.452685 h 0.556038 V 46.451681 L 4.6556002,45.86257 Q 4.5522474,45.779887 4.5522474,45.647596 v -0.334863 q 0,-0.233577 0.2335773,-0.233577 h 0.6221837 q 0.2335773,0 0.2335773,0.233577 v 0.401009 H 5.3749355 v -0.396875 h -0.556038 v 0.351399 l 0.7255365,0.589111 q 0.1012858,0.08062 0.1012858,0.219108 z"
         id="path20549"
         style="fill:#1a1a1a;fill-opacity:1" />
      <path
         d="M 6.8053379,47.090401 H 6.4146644 q -0.2315102,0 -0.2315102,-0.233578 V 45.321001 H 5.9413087 v -0.241845 h 0.2418455 v -0.626318 h 0.2707843 v 0.626318 h 0.3513994 v 0.241845 H 6.4539385 v 1.527554 h 0.3513994 z"
         id="path20551"
         style="fill:#1a1a1a;fill-opacity:1" />
      <path
         d="m 8.2812157,46.856823 q 0,0.233578 -0.2315102,0.233578 H 7.3882477 q -0.2315102,0 -0.2315102,-0.233578 v -1.54409 q 0,-0.233577 0.2315102,-0.233577 h 0.6614578 q 0.2315102,0 0.2315102,0.233577 v 0.723469 l -0.093018,0.09715 h -0.76481 v 0.727604 H 8.0145655 V 46.493022 H 8.2812157 Z M 8.0145655,45.914246 V 45.308599 H 7.4233877 v 0.605647 z"
         id="path20553"
         style="fill:#1a1a1a;fill-opacity:1" />
      <path
         d="m 9.8914519,46.658386 q 0,0.186035 -0.1219563,0.310058 -0.1219563,0.121957 -0.3059242,0.121957 H 9.0108862 v 0.762743 H 8.7359678 v -2.773988 h 0.2749184 v 0.05581 q 0.1632974,-0.02067 0.3265948,-0.04134 0.2067055,-0.02687 0.3245277,-0.02687 0.2294432,0 0.2294432,0.225309 z m -0.2749184,-0.04134 v -1.29191 l -0.6056473,0.01654 v 1.506883 h 0.3803382 q 0.2253091,0 0.2253091,-0.23151 z"
         id="path20555"
         style="fill:#1a1a1a;fill-opacity:1" />
      <path
         d="m 11.414872,46.856823 q 0,0.233578 -0.233577,0.233578 h -0.630452 q -0.233578,0 -0.233578,-0.233578 v -0.456819 h 0.270785 v 0.452685 h 0.556038 V 46.451681 L 10.424752,45.86257 Q 10.3214,45.779887 10.3214,45.647596 v -0.334863 q 0,-0.233577 0.233577,-0.233577 h 0.622184 q 0.233577,0 0.233577,0.233577 v 0.401009 h -0.26665 V 45.316867 H 10.58805 v 0.351399 l 0.725536,0.589111 q 0.101286,0.08062 0.101286,0.219108 z"
         id="path20557"
         style="fill:#1a1a1a;fill-opacity:1" />
    </g>
    <g
       aria-label="clock"
       id="text2936"
       style="font-size:4.23333px;line-height:1.25;font-family:'Agency FB';-inkscape-font-specification:'Agency FB';stroke-width:0.264583;fill:#1a1a1a;fill-opacity:1"
       transform="translate(0,-3.656003)">
      <path
         d="m 6.2984034,31.573096 q 0,0.233577 -0.2315102,0.233577 H 5.4137037 q -0.2315103,0 -0.2315103,-0.233577 v -1.544091 q 0,-0.233577 0.2315103,-0.233577 h 0.6531895 q 0.2315102,0 0.2315102,0.233577 v 0.401009 H 6.0276192 V 30.037273 H 5.4571118 v 1.527555 h 0.5705074 v -0.448552 h 0.2707842 z"
         id="path20520"
         style="fill:#1a1a1a;fill-opacity:1" />
      <path
         d="M 7.0322081,31.806673 H 6.7614238 v -3.234942 h 0.2707843 z"
         id="path20522"
         style="fill:#1a1a1a;fill-opacity:1" />
      <path
         d="m 8.6548467,31.573096 q 0,0.233577 -0.2335773,0.233577 H 7.7308729 q -0.2315103,0 -0.2315103,-0.233577 v -1.544091 q 0,-0.233577 0.2315103,-0.233577 h 0.6903965 q 0.2335773,0 0.2335773,0.233577 z m -0.2749184,-0.0083 V 30.037273 H 7.774281 v 1.527555 z"
         id="path20524"
         style="fill:#1a1a1a;fill-opacity:1" />
      <path
         d="m 10.219608,31.573096 q 0,0.233577 -0.2315105,0.233577 H 9.334908 q -0.2315102,0 -0.2315102,-0.233577 v -1.544091 q 0,-0.233577 0.2315102,-0.233577 h 0.6531895 q 0.2315105,0 0.2315105,0.233577 v 0.401009 H 9.9488235 V 30.037273 H 9.3783162 v 1.527555 h 0.5705073 v -0.448552 h 0.2707845 z"
         id="path20526"
         style="fill:#1a1a1a;fill-opacity:1" />
      <path
         d="m 11.794704,31.806673 h -0.299723 l -0.553971,-1.02526 v 1.02526 h -0.274918 v -3.234942 h 0.274918 v 2.054653 l 0.516764,-0.830956 h 0.295589 v 0.0083 l -0.584977,0.888834 z"
         id="path20528"
         style="fill:#1a1a1a;fill-opacity:1" />
    </g>
    <g
       aria-label="reset"
       id="text4676"
       style="font-size:4.23333px;line-height:1.25;font-family:'Agency FB';-inkscape-font-specification:'Agency FB';stroke-width:0.264583;fill:#1a1a1a;fill-opacity:1">
      <path
         d="M 5.8212512,79.612668 H 5.5504669 V 79.19719 l -0.5064286,0.01654 v 1.748729 H 4.7691199 v -2.011245 h 0.2749184 v 0.05581 q 0.1364257,-0.02067 0.2749184,-0.04341 0.1653644,-0.02481 0.2749184,-0.02481 0.2273761,0 0.2273761,0.225309 z"
         id="path7386"
         style="fill:#1a1a1a;fill-opacity:1" />
      <path
         d="m 7.2950617,80.728878 q 0,0.233578 -0.2315102,0.233578 H 6.4020937 q -0.2315102,0 -0.2315102,-0.233578 v -1.54409 q 0,-0.233577 0.2315102,-0.233577 h 0.6614578 q 0.2315102,0 0.2315102,0.233577 v 0.723469 l -0.093018,0.09715 h -0.76481 v 0.727604 H 7.0284116 V 80.365077 H 7.2950617 Z M 7.0284116,79.786301 V 79.180654 H 6.4372337 v 0.605647 z"
         id="path7388"
         style="fill:#1a1a1a;fill-opacity:1" />
      <path
         d="m 8.8329511,80.728878 q 0,0.233578 -0.2335773,0.233578 h -0.630452 q -0.2335772,0 -0.2335772,-0.233578 v -0.456819 h 0.2707842 v 0.452685 h 0.556038 V 80.323736 L 7.8428315,79.734625 Q 7.7394787,79.651943 7.7394787,79.519651 v -0.334863 q 0,-0.233577 0.2335773,-0.233577 h 0.6221837 q 0.2335773,0 0.2335773,0.233577 v 0.401009 H 8.5621668 v -0.396875 h -0.556038 v 0.3514 l 0.7255365,0.58911 q 0.1012858,0.08062 0.1012858,0.219108 z"
         id="path7390"
         style="fill:#1a1a1a;fill-opacity:1" />
      <path
         d="m 10.393578,80.728878 q 0,0.233578 -0.23151,0.233578 H 9.5006101 q -0.2315102,0 -0.2315102,-0.233578 v -1.54409 q 0,-0.233577 0.2315102,-0.233577 h 0.6614579 q 0.23151,0 0.23151,0.233577 v 0.723469 l -0.09302,0.09715 H 9.53575 v 0.727604 h 0.591178 v -0.367936 h 0.26665 z m -0.26665,-0.942577 V 79.180654 H 9.53575 v 0.605647 z"
         id="path7392"
         style="fill:#1a1a1a;fill-opacity:1" />
      <path
         d="m 11.5718,80.962456 h -0.390674 q -0.23151,0 -0.23151,-0.233578 V 79.193056 H 10.70777 v -0.241845 h 0.241846 V 78.324893 H 11.2204 v 0.626318 h 0.3514 v 0.241845 h -0.3514 v 1.527554 h 0.3514 z"
         id="path7394"
         style="fill:#1a1a1a;fill-opacity:1" />
    </g>
    <rect
       style="fill:#1a1a1a;stroke:#000000;stroke-width:0;fill-opacity:1"
       id="rect979"
       width="10.740169"
       height="94.800415"
       x="31.828991"
       y="16.522955"
       ry="3.7969999"
       rx="3.236798" />
  </g>
  <g
     inkscape:groupmode="layer"
     id="layer2"
     inkscape:label="components"
     style="display:none">
    <circle
       style="fill:#ff0000;fill-rule:evenodd;stroke-width:0.264583"
       id="circle11265"
       cx="8.0828838"
       cy="35.069664"
       r="3.9242003"
       inkscape:label="steps" />
    <circle
       style="fill:#00ff00;fill-rule:evenodd;stroke-width:0.264583"
       id="path11165"
       cx="8.3363619"
       cy="19.8892"
       r="3.9242003"
       inkscape:label="clock" />
    <circle
       style="fill:#00ff00;fill-rule:evenodd;stroke-width:0.264583"
       id="circle11287"
       cx="8.4377527"
       cy="50.250122"
       r="3.9242003"
       inkscape:label="rand" />
    <circle
       style="fill:#ff0000;fill-rule:evenodd;stroke-width:0.264583"
       id="circle11307"
       cx="22.099443"
       cy="23.545347"
       r="3.9242003"
       inkscape:label="step1" />
    <circle
       style="fill:#ff0000;fill-rule:evenodd;stroke-width:0.264583"
       id="circle11327"
       cx="22.099443"
       cy="35.069267"
       r="3.9242003"
       inkscape:label="step2" />
    <circle
       style="fill:#ff0000;fill-rule:evenodd;stroke-width:0.264583"
       id="circle11329"
       cx="22.099443"
       cy="46.593189"
       r="3.9242003"
       inkscape:label="step3" />
    <circle
       style="fill:#ff0000;fill-rule:evenodd;stroke-width:0.264583"
       id="circle11331"
       cx="22.099443"
       cy="58.117107"
       r="3.9242003"
       inkscape:label="step4" />
    <circle
       style="fill:#ff0000;fill-rule:evenodd;stroke-width:0.264583"
       id="circle11333"
       cx="22.099443"
       cy="69.641029"
       r="3.9242003"
       inkscape:label="step5" />
    <circle
       style="fill:#ff0000;fill-rule:evenodd;stroke-width:0.264583"
       id="circle11335"
       cx="22.099443"
       cy="81.16494"
       r="3.9242003"
       inkscape:label="step6" />
    <circle
       style="fill:#ff0000;fill-rule:evenodd;stroke-width:0.264583"
       id="circle11337"
       cx="22.099443"
       cy="92.688866"
       r="3.9242003"
       inkscape:label="step7" />
    <circle
       style="fill:#ff0000;fill-rule:evenodd;stroke-width:0.264583"
       id="circle11339"
       cx="22.099443"
       cy="104.2128"
       r="3.9242003"
       inkscape:label="step8" />
    <circle
       style="display:inline;fill:#0000ff;fill-rule:evenodd;stroke-width:0.264583"
       id="circle11341"
       cx="8.2349701"
       cy="88.971687"
       r="3.9242003"
       inkscape:label="eoc" />
    <circle
       style="fill:#0000ff;fill-rule:evenodd;stroke-width:0.264583"
       id="circle11343"
       cx="8.2856665"
       cy="102.76659"
       r="3.9242003"
       inkscape:label="cv" />
    <circle
       style="fill:#0000ff;fill-rule:evenodd;stroke-width:0.264583"
       id="circle1020"
       cx="37.176636"
       cy="23.545347"
       r="3.9242003"
       inkscape:label="step1" />
    <circle
       style="fill:#0000ff;fill-rule:evenodd;stroke-width:0.264583"
       id="circle1040"
       cx="37.176907"
       cy="35.069267"
       r="3.9242003"
       inkscape:label="step2" />
    <circle
       style="fill:#0000ff;fill-rule:evenodd;stroke-width:0.264583"
       id="circle1060"
       cx="37.176907"
       cy="46.593189"
       r="3.9242003"
       inkscape:label="step3" />
    <circle
       style="fill:#0000ff;fill-rule:evenodd;stroke-width:0.264583"
       id="circle1080"
       cx="37.176907"
       cy="58.117107"
       r="3.9242003"
       inkscape:label="step4" />
    <circle
       style="fill:#0000ff;fill-rule:evenodd;stroke-width:0.264583"
       id="circle1100"
       cx="37.176907"
       cy="69.641029"
       r="3.9242003"
       inkscape:label="step5" />
    <circle
       style="fill:#0000ff;fill-rule:evenodd;stroke-width:0.264583"
       id="circle1120"
       cx="37.176907"
       cy="81.16494"
       r="3.9242003"
       inkscape:label="step6" />
    <circle
       style="fill:#0000ff;fill-rule:evenodd;stroke-width:0.264583"
       id="circle1140"
       cx="37.176907"
       cy="92.688866"
       r="3.9242003"
       inkscape:label="step7" />
    <circle
       style="fill:#0000ff;fill-rule:evenodd;stroke-width:0.264583"
       id="circle1160"
       cx="37.176907"
       cy="104.2128"
       r="3.9242003"
       inkscape:label="step8" />
  </g>
</svg>
