<?xml version="1.0" encoding="UTF-8" standalone="no"?>
<!-- Created with Inkscape (http://www.inkscape.org/) -->

<svg
   width="20.32mm"
   height="128.5mm"
   viewBox="0 0 20.32 128.5"
   version="1.1"
   id="svg5"
   inkscape:version="1.2.1 (9c6d41e410, 2022-07-14)"
   sodipodi:docname="switch.svg"
   xmlns:inkscape="http://www.inkscape.org/namespaces/inkscape"
   xmlns:sodipodi="http://sodipodi.sourceforge.net/DTD/sodipodi-0.dtd"
   xmlns="http://www.w3.org/2000/svg"
   xmlns:svg="http://www.w3.org/2000/svg">
  <sodipodi:namedview
     id="namedview7"
     pagecolor="#505050"
     bordercolor="#000000"
     borderopacity="1"
     inkscape:showpageshadow="0"
     inkscape:pageopacity="0"
     inkscape:pagecheckerboard="0"
     inkscape:deskcolor="#505050"
     inkscape:document-units="mm"
     showgrid="false"
     inkscape:zoom="1.4383661"
     inkscape:cx="32.328348"
     inkscape:cy="242.63642"
     inkscape:current-layer="layer2" />
  <defs
     id="defs2" />
  <g
     inkscape:label="Layer 1"
     inkscape:groupmode="layer"
     id="layer1">
    <rect
       style="fill:#ffffff;stroke-width:0.964999"
       id="rect283"
       width="21.889708"
       height="130.60246"
       x="-0.78485394"
       y="-1.0512314" />
    <g
       aria-label="switch"
       id="text393"
       style="font-size:6.35px;line-height:1.25;font-family:'Agency FB';-inkscape-font-specification:'Agency FB';stroke-width:0.264583"
       transform="translate(0,-2.9431543)">
      <path
         d="m 5.6424461,15.059051 q 0,0.350366 -0.3503662,0.350366 H 4.3464012 q -0.3503662,0 -0.3503662,-0.350366 v -0.68523 H 4.4022118 V 15.05285 H 5.2362694 V 14.451336 L 4.1572655,13.567669 Q 4.0022362,13.443646 4.0022362,13.245208 v -0.502295 q 0,-0.350366 0.3503662,-0.350366 h 0.9332763 q 0.3503662,0 0.3503662,0.350366 v 0.601514 H 5.2362694 V 12.749114 H 4.4022118 v 0.5271 l 1.0883056,0.883667 q 0.1519287,0.120923 0.1519287,0.328662 z"
         id="path787" />
      <path
         d="M 8.9941795,12.392547 8.3709617,15.415618 H 8.001992 L 7.5586082,13.124285 7.1152244,15.415618 H 6.7524559 L 6.1292381,12.392547 h 0.3875733 l 0.4247802,2.325439 0.4402832,-2.325439 h 0.359668 l 0.4402832,2.325439 0.4247803,-2.325439 z"
         id="path789" />
      <path
         d="M 9.9398584,11.732122 H 9.5212793 v -0.520898 h 0.4185791 z m -0.0062,3.677295 H 9.5274805 v -3.01687 h 0.4061768 z"
         id="path791" />
      <path
         d="m 11.719595,15.409417 h -0.586011 q -0.347266,0 -0.347266,-0.350366 V 12.755316 H 10.42355 v -0.362769 h 0.362768 V 11.45307 h 0.406177 v 0.939477 h 0.5271 v 0.362769 h -0.5271 v 2.291333 h 0.5271 z"
         id="path793" />
      <path
         d="m 13.921011,15.059051 q 0,0.350366 -0.347266,0.350366 H 12.59396 q -0.347266,0 -0.347266,-0.350366 v -2.316138 q 0,-0.350366 0.347266,-0.350366 h 0.979785 q 0.347266,0 0.347266,0.350366 v 0.601514 h -0.406177 v -0.589111 h -0.855762 v 2.291333 h 0.855762 v -0.672828 h 0.406177 z"
         id="path795" />
      <path
         d="m 16.323965,15.409417 h -0.412378 v -2.6479 l -0.908472,0.0248 v 2.623096 H 14.590737 V 10.557 h 0.412378 v 1.919263 q 0.244946,-0.03101 0.489893,-0.06201 0.310058,-0.04031 0.486792,-0.04031 0.344165,0 0.344165,0.337963 z"
         id="path797" />
    </g>
    <g
       aria-label="×"
       id="text3498"
       style="font-size:11.2889px;line-height:1.25;font-family:serif;-inkscape-font-specification:serif;stroke-width:0.264583"
       transform="translate(-2.4525879e-6,-2.11596)"
       inkscape:label="alef">
      <path
         d="m 12.036893,124.89348 h -0.148829 q -0.03307,-0.42444 -0.286632,-0.71107 l -2.3922767,-2.74506 q -0.6118496,0.30868 -0.6118496,0.79375 0,0.37483 0.3913632,0.96463 0.451997,0.67249 0.451997,1.06936 0,0.52917 -0.4023875,0.52917 h -1.041798 v -0.14883 q 0.3307295,-0.0882 0.3307295,-0.38034 0,-0.1819 -0.209462,-0.72209 -0.209462,-0.53468 -0.209462,-0.82683 0,-0.88745 1.0914074,-1.51033 l -0.6779955,-0.76619 q -0.4244362,-0.48507 -0.4244362,-1.00872 0,-0.47405 0.3858511,-0.89297 h 0.1433161 q 0.027561,0.47956 0.2866322,0.7717 l 2.072572,2.35369 q 0.159852,-0.79375 0.611849,-1.48277 -0.876433,-0.14331 -0.876433,-0.88194 0,-0.43546 0.225998,-0.76068 h 0.143317 q 0.08819,0.34175 0.424436,0.42443 l 0.474045,0.11025 q 0.622874,0.14883 0.622874,0.70004 0,0.24254 -0.04961,0.39137 -0.181901,0.0551 -0.600825,0.0551 -0.573265,0.90399 -0.573265,1.47726 0,0.42443 0.292145,0.76067 l 0.51263,0.5898 q 0.429949,0.49059 0.429949,1.01424 0,0.47405 -0.385851,0.83234 z"
         id="path15128" />
    </g>
    <rect
       style="display:inline;fill:#000000;stroke-width:0.794705"
       id="rect878"
       width="10.30104"
       height="10.30104"
       x="4.9665728"
       y="104.11408"
       rx="3"
       ry="3" />
    <g
       aria-label="trig"
       id="text369"
       style="font-size:4.23333px;line-height:1.25;font-family:'Agency FB';-inkscape-font-specification:'Agency FB';stroke-width:0.264583">
      <path
         d="M 3.984177,26.856281 H 3.5935035 q -0.2315102,0 -0.2315102,-0.233577 V 25.086882 H 3.1201478 v -0.241846 h 0.2418455 v -0.626318 h 0.2707842 v 0.626318 H 3.984177 v 0.241846 H 3.6327775 v 1.527554 H 3.984177 Z"
         id="path425" />
      <path
         d="M 5.3877077,25.506494 H 5.1169235 v -0.415478 l -0.5064287,0.01654 v 1.748729 H 4.3355765 v -2.011245 h 0.2749183 v 0.05581 q 0.1364257,-0.02067 0.2749184,-0.04341 0.1653645,-0.02481 0.2749184,-0.02481 0.2273761,0 0.2273761,0.225309 z"
         id="path427" />
      <path
         d="M 6.028495,24.404753 H 5.7494425 V 24.057488 H 6.028495 Z m -0.00413,2.451528 H 5.7535766 v -2.011245 h 0.2707843 z"
         id="path429" />
      <path
         d="m 7.634597,27.385448 q 0,0.233577 -0.2335772,0.233577 H 6.7478302 q -0.2377114,0 -0.2377114,-0.295589 0,-0.03514 0.00207,-0.10542 0.00413,-0.06821 0.00413,-0.09922 h 0.2707843 v 0.266651 H 7.3617457 V 26.856281 H 6.9090605 q -0.1839679,0 -0.3059242,-0.121956 Q 6.48118,26.610302 6.48118,26.424267 v -1.176155 q 0,-0.177767 0.1074869,-0.295589 0.1074869,-0.119889 0.2831866,-0.119889 0.047542,0 0.4898922,0.06821 v -0.05581 H 7.634597 Z M 7.3617457,26.614436 V 25.09515 q -0.3265948,-0.02067 -0.3803382,-0.02067 -0.2273761,0 -0.2273761,0.231511 v 1.076936 q 0,0.23151 0.2273761,0.23151 z"
         id="path431" />
    </g>
    <g
       aria-label="mode"
       id="text373"
       style="font-size:4.23333px;line-height:1.25;font-family:'Agency FB';-inkscape-font-specification:'Agency FB';stroke-width:0.264583">
      <path
         d="M 13.751978,26.856281 H 13.47706 v -1.765265 l -0.599446,0.01654 v 1.748729 h -0.272852 v -1.765265 l -0.599446,0.01654 v 1.748729 h -0.274918 v -2.011245 h 0.274918 v 0.05581 q 0.161231,-0.02067 0.322461,-0.04341 0.19637,-0.02481 0.324528,-0.02481 0.12609,0 0.186035,0.07648 0.173632,-0.02274 0.345198,-0.04754 0.225309,-0.02894 0.341064,-0.02894 0.227376,0 0.227376,0.225309 z"
         id="path434" />
      <path
         d="m 15.353946,26.622704 q 0,0.233577 -0.233577,0.233577 h -0.690397 q -0.23151,0 -0.23151,-0.233577 v -1.54409 q 0,-0.233578 0.23151,-0.233578 h 0.690397 q 0.233577,0 0.233577,0.233578 z m -0.274918,-0.0083 v -1.527554 h -0.605647 v 1.527554 z"
         id="path436" />
      <path
         d="m 16.945579,26.856281 h -0.272851 v -0.05581 q -0.44235,0.06821 -0.489892,0.06821 -0.1757,0 -0.283187,-0.117823 -0.107487,-0.119889 -0.107487,-0.297656 v -1.176154 q 0,-0.186035 0.121957,-0.307991 0.121956,-0.124024 0.305924,-0.124024 h 0.452685 v -1.223697 h 0.272851 z M 16.672728,26.606168 V 25.086882 H 16.29239 q -0.227376,0 -0.227376,0.233577 v 1.074869 q 0,0.23151 0.227376,0.23151 0.05374,0 0.380338,-0.02067 z"
         id="path438" />
      <path
         d="m 18.522742,26.622704 q 0,0.233577 -0.23151,0.233577 h -0.661458 q -0.23151,0 -0.23151,-0.233577 v -1.54409 q 0,-0.233578 0.23151,-0.233578 h 0.661458 q 0.23151,0 0.23151,0.233578 v 0.723469 l -0.09302,0.09715 h -0.764811 v 0.727603 h 0.591178 v -0.367936 h 0.26665 z m -0.26665,-0.942577 v -0.605648 h -0.591178 v 0.605648 z"
         id="path440" />
    </g>
  </g>
  <g
     inkscape:groupmode="layer"
     id="layer2"
     inkscape:label="components"
     style="display:none">
    <circle
       style="fill:#0000ff;stroke-width:0.964999"
       id="path499"
       cx="10.16"
       cy="109.2646"
       r="3.4949956"
       inkscape:label="signal" />
    <circle
       style="fill:#00ff00;stroke-width:0.964999"
       id="circle559"
       cx="10.16"
       cy="34.030224"
       r="3.4949956"
       inkscape:label="signal1" />
    <circle
       style="fill:#00ff00;stroke-width:0.964999"
       id="circle561"
       cx="10.16"
       cy="43.043633"
       r="3.4949956"
       inkscape:label="signal2" />
    <circle
       style="fill:#00ff00;stroke-width:0.964999"
       id="circle563"
       cx="10.16"
       cy="51.8731"
       r="3.4949956"
       inkscape:label="signal3" />
    <circle
       style="fill:#00ff00;stroke-width:0.964999"
       id="circle565"
       cx="10.16"
       cy="60.886513"
       r="3.4949956"
       inkscape:label="signal4" />
    <circle
       style="fill:#00ff00;stroke-width:0.964999"
       id="circle567"
       cx="10.16"
       cy="69.715965"
       r="3.4949956"
       inkscape:label="signal5" />
    <circle
       style="fill:#00ff00;stroke-width:0.964999"
       id="circle569"
       cx="10.16"
       cy="78.729378"
       r="3.4949956"
       inkscape:label="signal6" />
    <circle
       style="fill:#00ff00;stroke-width:0.964999"
       id="circle571"
       cx="10.16"
       cy="87.558838"
       r="3.4949956"
       inkscape:label="signal7" />
    <circle
       style="fill:#00ff00;stroke-width:0.964999"
       id="circle573"
       cx="10.16"
       cy="96.572243"
       r="3.4949956"
       inkscape:label="signal8" />
    <circle
       style="fill:#ff0000;stroke-width:0.964999"
       id="circle908"
       cx="15.126573"
       cy="19.130507"
       r="3.4949956"
       inkscape:label="mode" />
    <circle
       style="fill:#00ff00;stroke-width:0.964999"
       id="circle313"
       cx="5.3773742"
       cy="19.130507"
       r="3.4949956"
       inkscape:label="trigger" />
  </g>
</svg>
