<?xml version="1.0" encoding="UTF-8" standalone="no"?>
<!-- Created with Inkscape (http://www.inkscape.org/) -->

<svg
   width="20.32mm"
   height="128.5mm"
   viewBox="0 0 20.32 128.5"
   version="1.1"
   id="svg5"
   inkscape:version="1.2.1 (9c6d41e410, 2022-07-14)"
   sodipodi:docname="trigs.svg"
   xmlns:inkscape="http://www.inkscape.org/namespaces/inkscape"
   xmlns:sodipodi="http://sodipodi.sourceforge.net/DTD/sodipodi-0.dtd"
   xmlns="http://www.w3.org/2000/svg"
   xmlns:svg="http://www.w3.org/2000/svg">
  <sodipodi:namedview
     id="namedview7"
     pagecolor="#505050"
     bordercolor="#000000"
     borderopacity="1"
     inkscape:showpageshadow="0"
     inkscape:pageopacity="0"
     inkscape:pagecheckerboard="0"
     inkscape:deskcolor="#505050"
     inkscape:document-units="mm"
     showgrid="false"
     inkscape:zoom="1.2550228"
     inkscape:cx="10.756776"
     inkscape:cy="237.44588"
     inkscape:current-layer="layer2" />
  <defs
     id="defs2" />
  <g
     inkscape:label="Layer 1"
     inkscape:groupmode="layer"
     id="layer1">
    <rect
       style="fill:#f9f9f9;stroke-width:0.964999"
       id="rect231"
       width="22.97933"
       height="132.18385"
       x="-1.3296652"
       y="-1.8419266" />
    <g
       id="text3498"
       transform="matrix(0.35277774,0,0,0.35277774,2.5394715,2.8468836e-4)">
      <path
         id="path15128"
         d="m 26.956,347.987 h -0.422 a 3.344,3.344 0 0 0 -0.811,-2.014 L 18.949,338.2 a 2.584,2.584 0 0 0 -1.734,2.248 5.4,5.4 0 0 0 1.109,2.731 6.089,6.089 0 0 1 1.28,3.028 q 0,1.5 -1.14,1.5 h -2.95 v -0.422 a 1.072,1.072 0 0 0 0.937,-1.078 7.389,7.389 0 0 0 -0.593,-2.044 7.026,7.026 0 0 1 -0.594,-2.341 q 0,-2.514 3.091,-4.277 l -1.92,-2.17 a 4.308,4.308 0 0 1 -1.2,-2.857 3.689,3.689 0 0 1 1.093,-2.528 h 0.406 a 3.487,3.487 0 0 0 0.811,2.185 l 5.869,6.665 a 11.888,11.888 0 0 1 1.733,-4.2 q -2.481,-0.405 -2.482,-2.5 a 3.687,3.687 0 0 1 0.64,-2.154 h 0.406 a 1.549,1.549 0 0 0 1.2,1.2 l 1.342,0.313 a 1.952,1.952 0 0 1 1.765,1.982 3.588,3.588 0 0 1 -0.141,1.109 6.522,6.522 0 0 1 -1.7,0.156 8.5,8.5 0 0 0 -1.623,4.183 3.2,3.2 0 0 0 0.827,2.153 l 1.452,1.671 a 4.331,4.331 0 0 1 1.217,2.872 3.127,3.127 0 0 1 -1.094,2.362 z"
         transform="translate(-0.041)" />
    </g>
    <g
       aria-label="trigs"
       id="text554"
       style="font-size:6.35px;line-height:1.25;font-family:'Agency FB';-inkscape-font-specification:'Agency FB';stroke-width:0.264583">
      <path
         d="M 6.9183371,12.438353 H 6.3323264 q -0.3472656,0 -0.3472656,-0.350367 V 9.7842511 H 5.6222922 V 9.4214825 H 5.9850608 V 8.482005 H 6.3912375 V 9.4214825 H 6.9183371 V 9.7842511 H 6.3912375 v 2.2913329 h 0.5270996 z"
         id="path556" />
      <path
         d="M 9.023635,10.41367 H 8.6174582 V 9.7904522 L 7.8578147,9.8152569 V 12.438353 H 7.4454368 V 9.4214825 h 0.4123779 v 0.083716 Q 8.0624534,9.4741925 8.2701926,9.440086 8.5182395,9.402879 8.6825705,9.402879 q 0.3410645,0 0.3410645,0.3379639 z"
         id="path558" />
      <path
         d="M 9.9848165,8.7610577 H 9.5662374 V 8.2401593 h 0.4185791 z m -0.0062,3.6772953 H 9.5724386 V 9.4214825 h 0.4061768 z"
         id="path560" />
      <path
         d="m 12.393972,13.232103 q 0,0.350366 -0.350366,0.350366 H 11.06382 q -0.356567,0 -0.356567,-0.443384 0,-0.05271 0.0031,-0.15813 0.0062,-0.102319 0.0062,-0.148828 h 0.406177 v 0.399976 h 0.861962 v -0.79375 h -0.679028 q -0.275952,0 -0.458887,-0.182935 -0.182934,-0.186035 -0.182934,-0.465088 v -1.764233 q 0,-0.2666506 0.16123,-0.443384 0.161231,-0.179834 0.424781,-0.179834 0.07131,0 0.734838,0.1023193 v -0.083716 h 0.409278 z M 11.984694,12.075584 V 9.7966534 q -0.489892,-0.031006 -0.570507,-0.031006 -0.341065,0 -0.341065,0.3472655 v 1.615405 q 0,0.347266 0.341065,0.347266 z"
         id="path562" />
      <path
         d="m 14.697707,12.087986 q 0,0.350367 -0.350366,0.350367 h -0.945679 q -0.350366,0 -0.350366,-0.350367 v -0.685229 h 0.406177 v 0.679028 h 0.834057 v -0.601513 l -1.079003,-0.883667 q -0.15503,-0.124024 -0.15503,-0.322461 V 9.7718487 q 0,-0.3503662 0.350367,-0.3503662 h 0.933276 q 0.350366,0 0.350366,0.3503662 V 10.373362 H 14.29153 V 9.7780499 h -0.834057 v 0.5270991 l 1.088306,0.883667 q 0.151928,0.120923 0.151928,0.328663 z"
         id="path564" />
    </g>
  </g>
  <g
     inkscape:groupmode="layer"
     id="layer2"
     inkscape:label="components"
     style="display:none">
    <circle
       style="fill:#00ff00;stroke-width:0.964999"
       id="path724"
       cx="10.16"
       cy="49.598042"
       r="3.7947519"
       inkscape:label="source" />
    <circle
       style="fill:#ff0000;stroke-width:0.964999"
       id="circle726"
       cx="10.16"
       cy="64.25"
       r="3.7947519"
       inkscape:label="mode" />
    <circle
       style="fill:#0000ff;stroke-width:0.964999"
       id="circle728"
       cx="10.16"
       cy="78.901955"
       r="3.7947519"
       inkscape:label="trig" />
  </g>
</svg>
