<?xml version="1.0" encoding="UTF-8" standalone="no"?>
<!-- Created with Inkscape (http://www.inkscape.org/) -->

<svg
   width="40.639999mm"
   height="128.5mm"
   viewBox="0 0 40.64 128.5"
   version="1.1"
   id="svg5"
   inkscape:version="1.2.1 (9c6d41e410, 2022-07-14)"
   sodipodi:docname="turnt.svg"
   xmlns:inkscape="http://www.inkscape.org/namespaces/inkscape"
   xmlns:sodipodi="http://sodipodi.sourceforge.net/DTD/sodipodi-0.dtd"
   xmlns="http://www.w3.org/2000/svg"
   xmlns:svg="http://www.w3.org/2000/svg">
  <sodipodi:namedview
     id="namedview7"
     pagecolor="#505050"
     bordercolor="#000000"
     borderopacity="1"
     inkscape:showpageshadow="0"
     inkscape:pageopacity="0"
     inkscape:pagecheckerboard="0"
     inkscape:deskcolor="#505050"
     inkscape:document-units="mm"
     showgrid="false"
     inkscape:zoom="1.6760376"
     inkscape:cx="32.815493"
     inkscape:cy="242.83465"
     inkscape:current-layer="layer1" />
  <defs
     id="defs2" />
  <g
     inkscape:label="Layer 1"
     inkscape:groupmode="layer"
     id="layer1">
    <rect
       style="display:none;fill:#ffffff;stroke-width:1.32984"
       id="rect231"
       width="43.639645"
       height="132.18385"
       x="-1.3296652"
       y="-1.8419266" />
    <g
       id="text3498"
       transform="matrix(0.35277774,0,0,0.35277774,12.699471,2.8468836e-4)"
       inkscape:label="fg_logo"
       style="fill:#1a1a1a;fill-opacity:1">
      <path
         id="path15128"
         d="m 26.956,347.987 h -0.422 a 3.344,3.344 0 0 0 -0.811,-2.014 L 18.949,338.2 a 2.584,2.584 0 0 0 -1.734,2.248 5.4,5.4 0 0 0 1.109,2.731 6.089,6.089 0 0 1 1.28,3.028 q 0,1.5 -1.14,1.5 h -2.95 v -0.422 a 1.072,1.072 0 0 0 0.937,-1.078 7.389,7.389 0 0 0 -0.593,-2.044 7.026,7.026 0 0 1 -0.594,-2.341 q 0,-2.514 3.091,-4.277 l -1.92,-2.17 a 4.308,4.308 0 0 1 -1.2,-2.857 3.689,3.689 0 0 1 1.093,-2.528 h 0.406 a 3.487,3.487 0 0 0 0.811,2.185 l 5.869,6.665 a 11.888,11.888 0 0 1 1.733,-4.2 q -2.481,-0.405 -2.482,-2.5 a 3.687,3.687 0 0 1 0.64,-2.154 h 0.406 a 1.549,1.549 0 0 0 1.2,1.2 l 1.342,0.313 a 1.952,1.952 0 0 1 1.765,1.982 3.588,3.588 0 0 1 -0.141,1.109 6.522,6.522 0 0 1 -1.7,0.156 8.5,8.5 0 0 0 -1.623,4.183 3.2,3.2 0 0 0 0.827,2.153 l 1.452,1.671 a 4.331,4.331 0 0 1 1.217,2.872 3.127,3.127 0 0 1 -1.094,2.362 z"
         transform="translate(-0.041)"
         style="fill:#1a1a1a;fill-opacity:1" />
    </g>
    <g
       aria-label="turnt"
       id="text358"
       style="font-size:6.35px;line-height:1.25;font-family:'Agency FB';-inkscape-font-specification:'Agency FB';stroke-width:0.264583;fill:#1a1a1a;fill-opacity:1"
       transform="translate(10.16)"
       inkscape:label="fg_name">
      <path
         d="M 6.5509179,12.196347 H 5.9649072 q -0.3472657,0 -0.3472657,-0.350366 V 9.5422457 H 5.254873 V 9.1794772 H 5.6176415 V 8.2399996 H 6.0238183 V 9.1794772 H 6.5509179 V 9.5422457 H 6.0238183 v 2.2913333 h 0.5270996 z"
         id="path360"
         style="fill:#1a1a1a;fill-opacity:1" />
      <path
         d="M 8.8050439,12.196347 H 8.3988671 v -0.08372 q -0.2480469,0.03411 -0.4929932,0.06511 -0.2976562,0.03721 -0.4929931,0.03721 -0.3348633,0 -0.3348633,-0.334864 V 9.1794772 h 0.4061768 v 2.6479008 l 0.9146728,-0.0248 V 9.1794772 h 0.4061768 z"
         id="path362"
         style="fill:#1a1a1a;fill-opacity:1" />
      <path
         d="M 11.056069,10.171665 H 10.649893 V 9.5484469 L 9.8902491,9.5732516 V 12.196347 H 9.4778712 V 9.1794772 h 0.4123779 v 0.083716 q 0.2046389,-0.031006 0.4123779,-0.065112 0.248047,-0.037207 0.412378,-0.037207 0.341064,0 0.341064,0.3379639 z"
         id="path364"
         style="fill:#1a1a1a;fill-opacity:1" />
      <path
         d="M 13.313295,12.196347 H 12.900918 V 9.5484469 l -0.908472,0.024805 V 12.196347 H 11.580068 V 9.1794772 h 0.412378 v 0.083716 q 0.241846,-0.031006 0.486792,-0.065112 0.297656,-0.037207 0.489892,-0.037207 0.344165,0 0.344165,0.3379639 z"
         id="path366"
         style="fill:#1a1a1a;fill-opacity:1" />
      <path
         d="m 15.065127,12.196347 h -0.586011 q -0.347266,0 -0.347266,-0.350366 V 9.5422457 H 13.769082 V 9.1794772 H 14.13185 V 8.2399996 h 0.406177 v 0.9394776 h 0.5271 v 0.3627685 h -0.5271 v 2.2913333 h 0.5271 z"
         id="path368"
         style="fill:#1a1a1a;fill-opacity:1" />
    </g>
    <rect
       style="fill:#1a1a1a;stroke-width:0.836332;fill-opacity:1"
       id="rect297"
       width="10.962615"
       height="10.962615"
       x="14.838692"
       y="60.716019"
       rx="3"
       ry="3" />
    <g
       aria-label="signal"
       id="text14893"
       style="font-size:4.9389px;line-height:1.25;font-family:'Agency FB';-inkscape-font-specification:'Agency FB';stroke-width:0.264583;fill:#1a1a1a;fill-opacity:1">
      <path
         d="m 17.307946,18.51312 q 0,0.272507 -0.272508,0.272507 h -0.735529 q -0.272508,0 -0.272508,-0.272507 v -0.532958 h 0.315916 v 0.528135 h 0.648713 v -0.467845 l -0.839227,-0.687299 q -0.120579,-0.09646 -0.120579,-0.250803 v -0.390675 q 0,-0.272507 0.272508,-0.272507 h 0.725883 q 0.272508,0 0.272508,0.272507 V 17.17952 H 16.99203 v -0.463022 h -0.648713 v 0.409968 l 0.846462,0.687298 q 0.118167,0.09405 0.118167,0.255626 z"
         id="path15044"
         style="fill:#1a1a1a;fill-opacity:1" />
      <path
         d="m 18.156819,15.925503 h -0.325562 v -0.405144 h 0.325562 z m -0.0048,2.860124 H 17.83608 v -2.346459 h 0.315916 z"
         id="path15046"
         style="fill:#1a1a1a;fill-opacity:1" />
      <path
         d="m 20.030611,19.40299 q 0,0.272508 -0.272508,0.272508 h -0.762056 q -0.277331,0 -0.277331,-0.344855 0,-0.041 0.0024,-0.12299 0.0048,-0.07958 0.0048,-0.115756 h 0.315916 v 0.311093 h 0.670418 v -0.617363 h -0.528135 q -0.21463,0 -0.356913,-0.142282 -0.142282,-0.144695 -0.142282,-0.361736 v -1.372185 q 0,-0.207395 0.125401,-0.344855 0.125402,-0.139871 0.330386,-0.139871 0.05547,0 0.571543,0.07958 v -0.06511 h 0.318327 z m -0.318327,-0.899517 v -1.772505 q -0.381029,-0.02412 -0.44373,-0.02412 -0.265273,0 -0.265273,0.270096 v 1.256429 q 0,0.270096 0.265273,0.270096 z"
         id="path15048"
         style="fill:#1a1a1a;fill-opacity:1" />
      <path
         d="m 21.906814,18.785627 h -0.320739 v -2.059482 l -0.70659,0.01929 v 2.04019 h -0.320739 v -2.346459 h 0.320739 v 0.06511 q 0.188102,-0.02412 0.378616,-0.05064 0.231511,-0.02894 0.381029,-0.02894 0.267684,0 0.267684,0.262861 z"
         id="path15050"
         style="fill:#1a1a1a;fill-opacity:1" />
      <path
         d="m 23.751667,18.785627 h -0.315916 v -0.06511 q -0.190514,0.02653 -0.381028,0.05064 -0.236335,0.02894 -0.378617,0.02894 -0.262862,0 -0.262862,-0.26045 v -0.856108 q 0,-0.270096 0.272508,-0.270096 h 0.754822 v -0.706591 h -0.68971 v 0.400321 h -0.311092 v -0.395498 q 0,-0.272507 0.270096,-0.272507 h 0.771703 q 0.270096,0 0.270096,0.272507 z m -0.311093,-0.2918 v -0.829581 h -0.716237 v 0.844051 z"
         id="path15052"
         style="fill:#1a1a1a;fill-opacity:1" />
      <path
         d="m 24.612598,18.785627 h -0.315916 v -3.77411 h 0.315916 z"
         id="path15054"
         style="fill:#1a1a1a;fill-opacity:1" />
    </g>
    <g
       aria-label="zero"
       id="text15001"
       style="font-size:4.9389px;line-height:1.25;font-family:'Agency FB';-inkscape-font-specification:'Agency FB';stroke-width:0.264583;fill:#1a1a1a;fill-opacity:1"
       transform="translate(1.5786241,5.051597)">
      <path
         d="m 6.6961199,26.20516 h -1.234725 v -0.147106 l 0.8561082,-1.912377 h -0.76688 V 23.8587 h 1.1454968 v 0.149518 l -0.8585197,1.909965 h 0.8585197 z"
         id="path15057"
         style="fill:#1a1a1a;fill-opacity:1" />
      <path
         d="m 8.4638024,25.932652 q 0,0.272508 -0.2700961,0.272508 H 7.4220032 q -0.2700961,0 -0.2700961,-0.272508 v -1.801444 q 0,-0.272508 0.2700961,-0.272508 h 0.7717031 q 0.2700961,0 0.2700961,0.272508 v 0.84405 L 8.3552817,25.088602 H 7.4629999 v 0.848874 h 0.6897097 v -0.42926 H 8.4638024 Z M 8.1527096,24.832976 V 24.126385 H 7.4629999 v 0.706591 z"
         id="path15059"
         style="fill:#1a1a1a;fill-opacity:1" />
      <path
         d="M 10.221838,24.630403 H 9.9059225 v -0.484726 l -0.5908352,0.01929 v 2.04019 H 8.9943482 V 23.8587 h 0.3207391 v 0.06511 q 0.1591638,-0.02412 0.3207391,-0.05064 0.1929258,-0.02894 0.3207391,-0.02894 0.2652725,0 0.2652725,0.262861 z"
         id="path15061"
         style="fill:#1a1a1a;fill-opacity:1" />
      <path
         d="m 11.977463,25.932652 q 0,0.272508 -0.272508,0.272508 H 10.89949 q -0.270096,0 -0.270096,-0.272508 v -1.801444 q 0,-0.272508 0.270096,-0.272508 h 0.805465 q 0.272508,0 0.272508,0.272508 z m -0.320739,-0.0096 V 24.1409 h -0.706591 v 1.782152 z"
         id="path15063"
         style="fill:#1a1a1a;fill-opacity:1" />
    </g>
    <g
       aria-label="prob"
       id="text15005"
       style="font-size:4.9389px;line-height:1.25;font-family:'Agency FB';-inkscape-font-specification:'Agency FB';stroke-width:0.264583;fill:#1a1a1a;fill-opacity:1"
       transform="translate(-1.2628993,5.051597)">
      <path
         d="m 29.810445,25.804934 q 0,0.217041 -0.142283,0.361736 -0.142283,0.142282 -0.356913,0.142282 h -0.528134 v 0.88987 h -0.320739 v -3.236329 h 0.320739 v 0.06511 q 0.190514,-0.02412 0.381028,-0.04823 0.241158,-0.03135 0.378617,-0.03135 0.267685,0 0.267685,0.262861 z m -0.320739,-0.04823 V 24.24947 l -0.706591,0.01929 v 1.758036 h 0.443729 q 0.262862,0 0.262862,-0.270096 z"
         id="path15066"
         style="fill:#1a1a1a;fill-opacity:1" />
      <path
         d="M 31.5516,24.734196 H 31.235684 V 24.24947 l -0.590835,0.01929 v 2.04019 H 30.32411 v -2.346459 h 0.320739 v 0.06511 q 0.159163,-0.02412 0.320739,-0.05064 0.192926,-0.02894 0.320739,-0.02894 0.265273,0 0.265273,0.262861 z"
         id="path15068"
         style="fill:#1a1a1a;fill-opacity:1" />
      <path
         d="m 33.307225,26.036445 q 0,0.272507 -0.272508,0.272507 h -0.805465 q -0.270096,0 -0.270096,-0.272507 V 24.235 q 0,-0.272507 0.270096,-0.272507 h 0.805465 q 0.272508,0 0.272508,0.272507 z m -0.32074,-0.0096 v -1.782152 h -0.70659 v 1.782152 z"
         id="path15070"
         style="fill:#1a1a1a;fill-opacity:1" />
      <path
         d="m 35.178604,25.804934 q 0,0.217041 -0.142282,0.361736 -0.142283,0.142282 -0.356913,0.142282 h -0.848873 v -3.77411 h 0.320739 v 1.492763 q 0.190514,-0.02412 0.381028,-0.04823 0.241157,-0.03135 0.378617,-0.03135 0.267684,0 0.267684,0.262861 z m -0.320739,-0.04823 V 24.24947 l -0.70659,0.01929 v 1.758036 h 0.443729 q 0.262861,0 0.262861,-0.270096 z"
         id="path15072"
         style="fill:#1a1a1a;fill-opacity:1" />
    </g>
    <g
       aria-label="mode"
       id="text15019"
       style="font-size:4.9389px;line-height:1.25;font-family:'Agency FB';-inkscape-font-specification:'Agency FB';stroke-width:0.264583;fill:#1a1a1a;fill-opacity:1"
       transform="translate(0,-2.9993858)">
      <path
         d="m 18.716304,50.989559 h -0.320739 v -2.059483 l -0.699356,0.01929 v 2.04019 h -0.318328 v -2.059483 l -0.699356,0.01929 v 2.04019 h -0.320739 v -2.34646 h 0.320739 v 0.06511 q 0.188103,-0.02412 0.376206,-0.05064 0.229099,-0.02894 0.378617,-0.02894 0.147105,0 0.217041,0.08923 0.202572,-0.02653 0.402733,-0.05547 0.262861,-0.03376 0.397909,-0.03376 0.265273,0 0.265273,0.262861 z"
         id="path15075"
         style="fill:#1a1a1a;fill-opacity:1" />
      <path
         d="m 20.585272,50.717052 q 0,0.272507 -0.272507,0.272507 H 19.5073 q -0.270097,0 -0.270097,-0.272507 v -1.801445 q 0,-0.272508 0.270097,-0.272508 h 0.805465 q 0.272507,0 0.272507,0.272508 z m -0.320739,-0.0096 V 48.9253 h -0.70659 v 1.782152 z"
         id="path15077"
         style="fill:#1a1a1a;fill-opacity:1" />
      <path
         d="m 22.442183,50.989559 h -0.318328 v -0.06511 q -0.516076,0.07958 -0.571542,0.07958 -0.204984,0 -0.330386,-0.13746 -0.125401,-0.139871 -0.125401,-0.347266 v -1.372185 q 0,-0.217042 0.142282,-0.359324 0.142283,-0.144695 0.356913,-0.144695 h 0.528134 v -1.42765 h 0.318328 z m -0.318328,-0.2918 v -1.772506 h -0.443729 q -0.265273,0 -0.265273,0.272508 v 1.254018 q 0,0.270096 0.265273,0.270096 0.0627,0 0.443729,-0.02412 z"
         id="path15079"
         style="fill:#1a1a1a;fill-opacity:1" />
      <path
         d="m 24.282213,50.717052 q 0,0.272507 -0.270096,0.272507 h -0.771703 q -0.270097,0 -0.270097,-0.272507 v -1.801445 q 0,-0.272508 0.270097,-0.272508 h 0.771703 q 0.270096,0 0.270096,0.272508 v 0.84405 l -0.108521,0.113344 H 23.28141 v 0.848874 h 0.68971 v -0.42926 h 0.311093 z M 23.97112,49.617375 v -0.706591 h -0.68971 v 0.706591 z"
         id="path15081"
         style="fill:#1a1a1a;fill-opacity:1" />
    </g>
  </g>
  <g
     inkscape:groupmode="layer"
     id="layer2"
     inkscape:label="components"
     style="display:none" />
</svg>
