<?xml version="1.0" encoding="UTF-8" standalone="no"?>
<!-- Generator: Adobe Illustrator 25.2.3, SVG Export Plug-In . SVG Version: 6.00 Build 0)  -->

<svg
   version="1.0"
   id="svg15246"
   x="0px"
   y="0px"
   width="23.7px"
   height="23.7px"
   viewBox="0 0 23.7 23.7"
   enable-background="new 0 0 23.7 23.7"
   xml:space="preserve"
   sodipodi:docname="bitport.svg"
   inkscape:version="1.2.1 (9c6d41e410, 2022-07-14)"
   xmlns:inkscape="http://www.inkscape.org/namespaces/inkscape"
   xmlns:sodipodi="http://sodipodi.sourceforge.net/DTD/sodipodi-0.dtd"
   xmlns="http://www.w3.org/2000/svg"
   xmlns:svg="http://www.w3.org/2000/svg"><defs
   id="defs203">
	
	
		<linearGradient
   id="SVGID_17_"
   gradientUnits="userSpaceOnUse"
   x1="1062.06897"
   y1="-4091.68994"
   x2="1084.2738"
   y2="-4091.68994"
   gradientTransform="matrix(0,0.89802409,-0.89802409,0,-3662.5861,-951.79527)">
		<stop
   offset="0.00559"
   style="stop-color:#FFFFFF"
   id="stop147" />
		<stop
   offset="1"
   style="stop-color:#7A7A7A"
   id="stop149" />
	</linearGradient>
	
	
	
		<linearGradient
   id="SVGID_18_"
   gradientUnits="userSpaceOnUse"
   x1="58.86181"
   y1="-54.6409"
   x2="58.86181"
   y2="-51.86816"
   gradientTransform="matrix(0.89802409,0,0,-0.89802409,-41.00433,-35.895901)">
		<stop
   offset="0"
   style="stop-color:#FFFBFD"
   id="stop156" />
		<stop
   offset="1"
   style="stop-color:#808080"
   id="stop158" />
	</linearGradient>
	
	
		<linearGradient
   id="SVGID_19_"
   gradientUnits="userSpaceOnUse"
   x1="-1240.79248"
   y1="-381.89734"
   x2="-1223.31567"
   y2="-381.89734"
   gradientTransform="matrix(0,-0.89802409,-0.89802409,0,-331.10287,-1094.4863)">
		<stop
   offset="0"
   style="stop-color:#B0AEAE"
   id="stop163" />
		<stop
   offset="1"
   style="stop-color:#616161"
   id="stop165" />
	</linearGradient>
	
	
	
	
		<linearGradient
   id="SVGID_20_"
   gradientUnits="userSpaceOnUse"
   x1="-1884.86365"
   y1="21.48288"
   x2="-1884.86365"
   y2="6.22048"
   gradientTransform="matrix(-0.89802409,0,0,-0.89802409,-1680.8028,24.367119)">
		<stop
   offset="0"
   style="stop-color:#FFFEFE"
   id="stop174" />
		<stop
   offset="1"
   style="stop-color:#545454"
   id="stop176" />
	</linearGradient>
	
	
	
	
		<linearGradient
   id="SVGID_21_"
   gradientUnits="userSpaceOnUse"
   x1="-1884.86365"
   y1="8.33755"
   x2="-1884.86365"
   y2="19.36582"
   gradientTransform="matrix(-0.89802409,0,0,-0.89802409,-1680.8028,24.367119)">
		<stop
   offset="0"
   style="stop-color:#FFFEFE"
   id="stop191" />
		<stop
   offset="1"
   style="stop-color:#706C6C"
   id="stop193" />
	</linearGradient>
	
	
</defs>

<linearGradient
   id="SVGID_2_"
   gradientUnits="userSpaceOnUse"
   x1="479.22113"
   y1="-3610.97144"
   x2="501.73505"
   y2="-3610.97144"
   gradientTransform="matrix(0 1 -1 0 -4548.06152 478.50922)">
	<stop
   offset="0.00559"
   style="stop-color:#FFFFFF"
   id="stop11" />
	<stop
   offset="1"
   style="stop-color:#454545"
   id="stop13" />
</linearGradient>


<linearGradient
   id="SVGID_3_"
   gradientUnits="userSpaceOnUse"
   x1="-8735.91797"
   y1="3072.73706"
   x2="-8718.08887"
   y2="3072.73706"
   gradientTransform="matrix(0 -1 1 0 -4009.8269 -7758.01611)">
	<stop
   offset="0.00559"
   style="stop-color:#FFFFFF"
   id="stop20" />
	<stop
   offset="1"
   style="stop-color:#454545"
   id="stop22" />
</linearGradient>



<linearGradient
   id="SVGID_4_"
   gradientUnits="userSpaceOnUse"
   x1="-7349.92383"
   y1="4699.24609"
   x2="-7349.92383"
   y2="4714.5083"
   gradientTransform="matrix(-1 0 0 1 -8287.01367 -3737.88989)">
	<stop
   offset="0"
   style="stop-color:#FFFEFE"
   id="stop31" />
	<stop
   offset="1"
   style="stop-color:#5E5E5E"
   id="stop33" />
</linearGradient>


<linearGradient
   id="SVGID_5_"
   gradientUnits="userSpaceOnUse"
   x1="-7349.92383"
   y1="4712.67285"
   x2="-7349.92383"
   y2="4701.08154"
   gradientTransform="matrix(-1 0 0 1 -8287.01367 -3737.88989)">
	<stop
   offset="0"
   style="stop-color:#FFFEFE"
   id="stop40" />
	<stop
   offset="1"
   style="stop-color:#383636"
   id="stop42" />
</linearGradient>


<sodipodi:namedview
   bordercolor="#666666"
   borderopacity="1.0"
   fit-margin-bottom="0"
   fit-margin-left="0"
   fit-margin-right="0"
   fit-margin-top="0"
   id="base"
   inkscape:current-layer="svg15246"
   inkscape:cx="3.8378068"
   inkscape:cy="12.252377"
   inkscape:document-units="mm"
   inkscape:pageopacity="0.0"
   inkscape:pageshadow="2"
   inkscape:snap-bbox="true"
   inkscape:snap-bbox-midpoints="true"
   inkscape:snap-nodes="false"
   inkscape:snap-others="false"
   inkscape:window-height="882"
   inkscape:window-maximized="0"
   inkscape:window-width="1600"
   inkscape:window-x="0"
   inkscape:window-y="18"
   inkscape:zoom="20.975522"
   pagecolor="#ffffff"
   showgrid="false"
   units="px"
   inkscape:pagecheckerboard="0"
   inkscape:showpageshadow="0"
   inkscape:deskcolor="#d1d1d1">
	</sodipodi:namedview>




<linearGradient
   id="SVGID_11_"
   gradientUnits="userSpaceOnUse"
   x1="-8782.6582"
   y1="3039.62085"
   x2="-8764.83008"
   y2="3039.62085"
   gradientTransform="matrix(0 -1 1 0 -4009.8269 -7758.01611)">
	<stop
   offset="0"
   style="stop-color:#8C8B8B"
   id="stop93" />
	<stop
   offset="1"
   style="stop-color:#454545"
   id="stop95" />
</linearGradient>






<g
   id="g145"
   style="display:inline"
   transform="matrix(0.89802409,0,0,0.89802409,1.2084151,1.2163631)">
		
			<linearGradient
   id="SVGID_16_"
   gradientUnits="userSpaceOnUse"
   x1="-602.15857"
   y1="1785.6912"
   x2="-578.78363"
   y2="1785.6912"
   gradientTransform="matrix(0,1,1,0,-1773.8412,602.39905)">
			<stop
   offset="0"
   style="stop-color:#828181"
   id="stop138" />
			<stop
   offset="1"
   style="stop-color:#575757"
   id="stop140" />
		</linearGradient>
		<path
   fill="url(#SVGID_16_)"
   d="m 11.85025,23.61541 c -6.44467,0 -11.68796,-5.24279 -11.68796,-11.68697 0,-6.44517 5.24329,-11.68796 11.68796,-11.68796 6.44467,0 11.68747,5.24279 11.68747,11.68797 0,6.44417 -5.24279,11.68696 -11.68747,11.68696 z"
   id="path143"
   style="fill:url(#SVGID_16_)" />
	</g><circle
   fill="url(#SVGID_17_)"
   cx="11.85"
   cy="11.938456"
   r="9.9702501"
   id="circle152"
   style="display:inline;fill:url(#SVGID_17_);stroke-width:0.898024" /><circle
   fill="#e0e0e0"
   cx="11.85"
   cy="11.938456"
   r="9.378479"
   id="circle154"
   style="display:inline;stroke-width:0.898024" /><circle
   fill="url(#SVGID_19_)"
   cx="11.850135"
   cy="11.927914"
   r="7.8473206"
   id="circle168"
   style="fill:url(#SVGID_19_);stroke-width:0.898024" /><circle
   fill="#1f1f1f"
   cx="11.850135"
   cy="11.927914"
   r="7.3337679"
   id="circle170"
   style="stroke-width:0.898024" /><path
   opacity="0.28"
   fill="#404040"
   d="m 11.850135,5.074975 c 3.783537,0 6.850703,3.3964888 6.850703,7.586265 0,4.189776 -3.067166,8.340524 -6.850703,8.340524 -3.7835369,0 -6.8507023,-4.150748 -6.8507023,-8.340524 0,-4.1897762 3.0671654,-7.586265 6.8507023,-7.586265 z"
   id="path172"
   style="stroke-width:0.898024" /><circle
   fill="url(#SVGID_20_)"
   cx="11.850135"
   cy="11.927977"
   r="6.8530011"
   id="circle179"
   style="fill:url(#SVGID_20_);stroke-width:0.898024" /><circle
   fill="#e0e0e0"
   cx="11.850135"
   cy="11.927977"
   r="6.1065278"
   id="circle181"
   style="stroke-width:0.898024" /><g
   opacity="0.43"
   id="g189"
   transform="matrix(0.89802409,0,0,0.89802409,1.2084151,1.2163631)">
		<path
   fill="#404040"
   d="m 11.85016,4.74578 c 4.17474,0 7.56128,3.25714 7.62286,7.29614 5.5e-4,-0.03833 0.0057,-0.0755 0.0057,-0.11395 0,-4.2146 -3.41541,-7.63116 -7.6286,-7.63116 -4.21319,0 -7.62866,3.41656 -7.62866,7.63116 0,0.03845 0.00519,0.07562 0.00574,0.11395 0.06158,-4.039 3.44818,-7.29614 7.62292,-7.29614 z"
   id="path183" />
		<path
   opacity="0.28"
   fill="#404040"
   d="m 4.22723,12.04192 c -5.5e-4,0.03723 -0.00574,0.07324 -0.00574,0.1106 0,4.09058 3.41547,7.40668 7.62866,7.40668 -4.17473,-10e-6 -7.56133,-3.35578 -7.62292,-7.51728 z"
   id="path185" />
		<path
   opacity="0.28"
   fill="#404040"
   d="m 11.85016,19.55919 c 4.2132,0 7.6286,-3.3161 7.6286,-7.40668 0,-0.03735 -0.0052,-0.07336 -0.0057,-0.1106 -0.06158,4.16151 -3.44812,7.51728 -7.62286,7.51728 z"
   id="path187" />
	</g><circle
   fill="url(#SVGID_21_)"
   cx="11.850135"
   cy="11.927977"
   r="4.9518218"
   id="circle196"
   style="display:inline;fill:url(#SVGID_21_);stroke-width:0.898024" /><circle
   cx="11.85015"
   cy="11.92791"
   r="4.8673301"
   id="circle198"
   style="display:inline" />
</svg>
