<?xml version="1.0" encoding="UTF-8" standalone="no"?>
<!-- Generator: Adobe Illustrator 25.2.3, SVG Export Plug-In . SVG Version: 6.00 Build 0)  -->

<svg
   version="1.0"
   id="svg111794"
   x="0px"
   y="0px"
   width="35.99997px"
   height="36px"
   viewBox="0 0 35.99997 36"
   enable-background="new 0 0 35.99997 36"
   xml:space="preserve"
   sodipodi:docname="largebitknob_fg.svg"
   inkscape:version="1.2.1 (9c6d41e410, 2022-07-14)"
   xmlns:inkscape="http://www.inkscape.org/namespaces/inkscape"
   xmlns:sodipodi="http://sodipodi.sourceforge.net/DTD/sodipodi-0.dtd"
   xmlns="http://www.w3.org/2000/svg"
   xmlns:svg="http://www.w3.org/2000/svg"><defs
   id="defs124" />
<sodipodi:namedview
   bordercolor="#666666"
   borderopacity="1.0"
   fit-margin-bottom="0"
   fit-margin-left="0"
   fit-margin-right="0"
   fit-margin-top="0"
   id="base"
   inkscape:current-layer="svg111794"
   inkscape:cx="11.920512"
   inkscape:cy="19.258965"
   inkscape:document-units="mm"
   inkscape:pageopacity="0.0"
   inkscape:pageshadow="2"
   inkscape:window-height="882"
   inkscape:window-maximized="0"
   inkscape:window-width="1600"
   inkscape:window-x="0"
   inkscape:window-y="18"
   inkscape:zoom="13.967521"
   pagecolor="#ffffff"
   showgrid="false"
   inkscape:pagecheckerboard="0"
   inkscape:showpageshadow="0"
   inkscape:deskcolor="#d1d1d1">
	</sodipodi:namedview>








<g
   id="g121">
	<g
   id="g109">
		<path
   opacity="0.4"
   enable-background="new    "
   d="m 18.86291,0.02637 v 1.37952 c -0.2876,-0.01477 -0.57153,-0.04358 -0.86279,-0.04358 -0.29138,0 -0.57544,0.02881 -0.86316,0.0437 V 0.02637 C 7.59935,0.4801 -2e-5,8.34094 -2e-5,18 c 0,9.95068 8.05884,18.01733 18,18.01733 9.94116,0 18,-8.06665 18,-18.01733 0,-9.65906 -7.5996,-17.51978 -17.13707,-17.97363 z M 18.0001,2.36462 c 0.29126,0 0.57544,0.02795 0.86279,0.04358 v 0.89771 c 7.74304,0.44885 13.8888,6.8457 13.8888,14.69409 0,8.13928 -6.60461,14.73755 -14.75171,14.73755 C 9.85288,32.73755 3.24827,26.13928 3.24827,18 3.24827,10.15161 9.39378,3.75488 17.13694,3.30603 V 2.4082 C 17.42443,2.39258 17.70872,2.36462 18.0001,2.36462 Z"
   id="path105"
   style="display:inline" />
		
	</g>
	<g
   id="g119">
		<path
   fill="#ededed"
   d="m 18.86293,3.30591 h -1.72592 v 14.17598 c 0,0.28613 0.23196,0.51809 0.51809,0.51809 h 0.68975 c 0.28613,0 0.51809,-0.23196 0.51809,-0.51809 z"
   id="path111"
   style="display:inline" />
		<rect
   x="17.136999"
   y="-0.01733"
   opacity="0.71"
   fill="#ffffff"
   enable-background="new    "
   width="1.72592"
   height="1.37964"
   id="rect113"
   style="display:inline" />
		<rect
   x="17.136999"
   y="1.3623101"
   fill="#d9d9d9"
   width="1.72592"
   height="1.00231"
   id="rect115"
   style="display:inline" />
		<rect
   x="17.136999"
   y="2.36462"
   opacity="0.71"
   fill="#ffffff"
   enable-background="new    "
   width="1.72592"
   height="0.89788997"
   id="rect117"
   style="display:inline" />
	</g>
</g>
</svg>
